<svg width="34" height="34" viewBox="0 0 34 34" fill="none" xmlns="http://www.w3.org/2000/svg">
<path fill-rule="evenodd" clip-rule="evenodd" d="M34 17C34 26.3889 26.3889 34 17 34C7.61114 34 0 26.3889 0 17C0 7.61114 7.61114 0 17 0C15.6588 0 14.5714 1.08731 14.5714 2.42857C14.5714 3.76984 15.6588 4.85714 17 4.85714C18.3412 4.85714 19.4286 3.76984 19.4286 2.42857C19.4286 1.08731 18.3412 0 17 0C26.3889 0 34 7.61114 34 17ZM29.1429 17C29.1429 23.7063 23.7063 29.1429 17 29.1429C10.2937 29.1429 4.85714 23.7063 4.85714 17C4.85714 10.4973 9.96862 5.1884 16.3929 4.87205V11.5357H17C13.9821 11.5357 11.5357 13.9821 11.5357 17C11.5357 20.0179 13.9821 22.4643 17 22.4643C20.0179 22.4643 22.4643 20.0179 22.4643 17C22.4643 13.9821 20.0179 11.5357 17 11.5357H17.6071V4.87205C24.0314 5.1884 29.1429 10.4973 29.1429 17Z" fill="#29A4DD"/>
</svg>
