<svg width="36" height="36" viewBox="0 0 36 36" fill="none" xmlns="http://www.w3.org/2000/svg">
<path d="M22.7268 1.13273C22.5186 1.02712 22.2885 0.983301 22.0598 1.00571C21.8311 1.02811 21.6119 1.11595 21.4244 1.26031L11.2918 9.48259H1.30239C0.956978 9.48259 0.625709 9.63195 0.381463 9.89781C0.137216 10.1637 0 10.5242 0 10.9002V25.0766C0 25.4525 0.137216 25.8131 0.381463 26.079C0.625709 26.3448 0.956978 26.4942 1.30239 26.4942H11.2918L21.3593 34.7165C21.5528 34.8744 21.7829 34.9706 22.0237 34.9943C22.2646 35.0179 22.5068 34.9681 22.7232 34.8503C22.9395 34.7326 23.1214 34.5516 23.2486 34.3277C23.3758 34.1037 23.4431 33.8456 23.4431 33.5824V2.39442C23.4424 2.13263 23.3751 1.87617 23.2486 1.65347C23.1222 1.43077 22.9416 1.25053 22.7268 1.13273V1.13273Z" fill="white"/>
<path d="M31.833 17.9317L34.6991 15.0657C34.9041 14.8262 35.0112 14.5182 34.9991 14.2033C34.9869 13.8883 34.8563 13.5895 34.6334 13.3666C34.4105 13.1437 34.1117 13.0131 33.7967 13.0009C33.4818 12.9888 33.1738 13.0959 32.9343 13.3009L30.0683 16.167L27.2022 13.3009C26.9628 13.0959 26.6548 12.9888 26.3398 13.0009C26.0248 13.0131 25.726 13.1437 25.5031 13.3666C25.2802 13.5895 25.1496 13.8883 25.1375 14.2033C25.1253 14.5182 25.2324 14.8262 25.4375 15.0657L28.3036 17.9317L25.4375 20.7978C25.3065 20.91 25.2001 21.0481 25.1249 21.2034C25.0498 21.3586 25.0076 21.5278 25.0009 21.7001C24.9943 21.8725 25.0233 22.0444 25.0862 22.205C25.1492 22.3656 25.2446 22.5115 25.3666 22.6334C25.4885 22.7554 25.6344 22.8508 25.795 22.9138C25.9556 22.9767 26.1275 23.0057 26.2999 22.9991C26.4722 22.9924 26.6414 22.9502 26.7966 22.8751C26.9519 22.7999 27.09 22.6935 27.2022 22.5625L30.0683 19.6964L32.9343 22.5625C33.1738 22.7676 33.4818 22.8747 33.7967 22.8625C34.1117 22.8504 34.4105 22.7198 34.6334 22.4969C34.8563 22.274 34.9869 21.9752 34.9991 21.6602C35.0112 21.3452 34.9041 21.0372 34.6991 20.7978L31.833 17.9317Z" fill="white"/>
</svg>
