<svg width="34" height="32" viewBox="0 0 34 32" fill="none" xmlns="http://www.w3.org/2000/svg">
<path d="M22.7268 0.121939C22.5186 0.0249172 22.2885 -0.0153419 22.0598 0.00524333C21.8311 0.0258286 21.6119 0.106526 21.4244 0.239154L11.2918 7.79304H1.30239C0.956978 7.79304 0.625709 7.93026 0.381463 8.17451C0.137216 8.41875 0 8.75002 0 9.09544V22.1194C0 22.4648 0.137216 22.7961 0.381463 23.0403C0.625709 23.2846 0.956978 23.4218 1.30239 23.4218H11.2918L21.3593 30.9757C21.5528 31.1208 21.7829 31.2092 22.0237 31.2309C22.2646 31.2526 22.5068 31.2068 22.7232 31.0987C22.9395 30.9905 23.1214 30.8242 23.2486 30.6185C23.3758 30.4127 23.4431 30.1756 23.4431 29.9338V1.28107C23.4424 1.04056 23.3751 0.804949 23.2486 0.600353C23.1222 0.395757 22.9416 0.230167 22.7268 0.121939V0.121939Z" fill="white"/>
<path d="M28.8975 11.5591C28.654 11.0634 28.0548 10.8589 27.5591 11.1025C27.0634 11.346 26.8589 11.9452 27.1025 12.4409L28.8975 11.5591ZM27.0875 18.5909C26.8616 19.0949 27.087 19.6866 27.5909 19.9125C28.0949 20.1384 28.6866 19.913 28.9125 19.4091L27.0875 18.5909ZM28 12C27.1025 12.4409 27.1024 12.4408 27.1023 12.4407C27.1023 12.4407 27.1023 12.4406 27.1023 12.4405C27.1022 12.4404 27.1022 12.4403 27.1022 12.4403C27.1021 12.4402 27.1021 12.4402 27.1022 12.4404C27.1023 12.4407 27.1027 12.4415 27.1033 12.4427C27.1045 12.4452 27.1067 12.4496 27.1096 12.4558C27.1155 12.4681 27.1248 12.4876 27.137 12.5137C27.1613 12.5658 27.1971 12.6438 27.2405 12.7427C27.3275 12.9411 27.4437 13.2202 27.5595 13.5406C27.8016 14.2108 28 14.9497 28 15.5H30C30 14.5858 29.6984 13.5748 29.4405 12.861C29.3063 12.4895 29.1725 12.1682 29.072 11.9392C29.0216 11.8244 28.9793 11.7319 28.9489 11.667C28.9338 11.6345 28.9216 11.6088 28.9128 11.5907C28.9085 11.5816 28.905 11.5743 28.9024 11.569C28.9011 11.5664 28.9001 11.5642 28.8993 11.5626C28.8988 11.5617 28.8985 11.561 28.8982 11.5604C28.8981 11.5601 28.8979 11.5599 28.8978 11.5597C28.8978 11.5595 28.8977 11.5594 28.8977 11.5593C28.8976 11.5592 28.8975 11.5591 28 12ZM28 15.5C28 15.9478 27.8061 16.6793 27.5558 17.3964C27.4381 17.7339 27.3198 18.0354 27.2308 18.2527C27.1865 18.361 27.1498 18.4475 27.1246 18.506C27.1119 18.5353 27.1022 18.5575 27.0959 18.572C27.0927 18.5792 27.0904 18.5844 27.089 18.5876C27.0883 18.5892 27.0878 18.5903 27.0875 18.5909C27.0874 18.5911 27.0873 18.5913 27.0873 18.5913C27.0873 18.5913 27.0873 18.5913 27.0874 18.5912C27.0874 18.5912 27.0874 18.5911 27.0874 18.5911C27.0875 18.591 27.0875 18.5909 28 19C28.9125 19.4091 28.9126 19.4089 28.9126 19.4088C28.9126 19.4088 28.9127 19.4087 28.9127 19.4086C28.9128 19.4084 28.9129 19.4081 28.913 19.4079C28.9133 19.4074 28.9136 19.4067 28.9139 19.4059C28.9146 19.4043 28.9156 19.4022 28.9168 19.3995C28.9191 19.3942 28.9224 19.3868 28.9266 19.3773C28.9349 19.3584 28.9466 19.3315 28.9614 19.2973C28.9908 19.2289 29.0323 19.1312 29.0817 19.0105C29.1802 18.7698 29.3119 18.4344 29.4442 18.0555C29.6939 17.3399 30 16.3214 30 15.5H28Z" fill="white"/>
<path d="M31.909 7.5832C31.6788 7.08118 31.0852 6.86081 30.5832 7.091C30.0812 7.32119 29.8608 7.91477 30.091 8.4168L31.909 7.5832ZM30.0775 22.614C29.8643 23.1235 30.1045 23.7093 30.614 23.9225C31.1235 24.1357 31.7093 23.8955 31.9225 23.386L30.0775 22.614ZM31 8C30.091 8.4168 30.091 8.41669 30.0909 8.4166C30.0909 8.4166 30.0909 8.41652 30.0909 8.41651C30.0909 8.41648 30.0909 8.41652 30.0909 8.41662C30.091 8.41682 30.0912 8.41729 30.0916 8.41801C30.0922 8.41946 30.0933 8.42194 30.0949 8.42544C30.0981 8.43244 30.1031 8.44349 30.1098 8.45843C30.1232 8.48832 30.1433 8.53372 30.1693 8.5933C30.2213 8.7125 30.2965 8.88816 30.3871 9.10947C30.5685 9.55273 30.8107 10.1758 31.0524 10.8927C31.5451 12.3537 32 14.1009 32 15.5H34C34 13.761 33.4549 11.7581 32.9476 10.2537C32.6893 9.48786 32.4315 8.82434 32.2379 8.35167C32.141 8.11503 32.06 7.92541 32.0026 7.7938C31.9739 7.72798 31.9511 7.67661 31.9351 7.64107C31.9272 7.6233 31.9209 7.60948 31.9165 7.59978C31.9143 7.59493 31.9126 7.59111 31.9113 7.58834C31.9107 7.58695 31.9102 7.58583 31.9098 7.58497C31.9096 7.58455 31.9094 7.58418 31.9093 7.58389C31.9092 7.58374 31.9092 7.58357 31.9091 7.5835C31.9091 7.58334 31.909 7.5832 31 8ZM32 15.5C32 16.6853 31.5491 18.4255 31.0492 19.9602C30.8056 20.7079 30.5616 21.3742 30.3784 21.8536C30.2869 22.093 30.2109 22.285 30.1581 22.4163C30.1317 22.4819 30.1112 22.5323 30.0974 22.5658C30.0905 22.5826 30.0853 22.5951 30.082 22.6032C30.0803 22.6073 30.0791 22.6102 30.0783 22.612C30.0779 22.6129 30.0777 22.6136 30.0775 22.6139C30.0775 22.6141 30.0774 22.6142 30.0774 22.6142C30.0774 22.6142 30.0774 22.6142 30.0774 22.6142C30.0775 22.6141 30.0775 22.614 31 23C31.9225 23.386 31.9226 23.3859 31.9226 23.3857C31.9226 23.3857 31.9227 23.3855 31.9228 23.3854C31.9229 23.3851 31.923 23.3848 31.9232 23.3844C31.9235 23.3835 31.924 23.3824 31.9246 23.381C31.9257 23.3782 31.9274 23.3743 31.9295 23.3692C31.9337 23.359 31.9398 23.3444 31.9475 23.3255C31.963 23.2877 31.9855 23.2327 32.0138 23.1623C32.0703 23.0216 32.1506 22.8188 32.2466 22.5676C32.4384 22.0657 32.6944 21.3669 32.9508 20.5796C33.4509 19.0442 34 17.0344 34 15.5H32Z" fill="white"/>
</svg>
