<svg width="37" height="32" viewBox="0 0 37 32" fill="none" xmlns="http://www.w3.org/2000/svg">
<path d="M22.7268 0.121939C22.5186 0.0249172 22.2885 -0.0153419 22.0598 0.00524333C21.8311 0.0258286 21.6119 0.106526 21.4244 0.239154L11.2918 7.79304H1.30239C0.956978 7.79304 0.625709 7.93026 0.381463 8.17451C0.137216 8.41875 0 8.75002 0 9.09544V22.1194C0 22.4648 0.137216 22.7961 0.381463 23.0403C0.625709 23.2846 0.956978 23.4218 1.30239 23.4218H11.2918L21.3593 30.9757C21.5528 31.1208 21.7829 31.2092 22.0237 31.2309C22.2646 31.2526 22.5068 31.2068 22.7232 31.0987C22.9395 30.9905 23.1214 30.8242 23.2486 30.6185C23.3758 30.4127 23.4431 30.1756 23.4431 29.9338V1.28107C23.4424 1.04056 23.3751 0.804949 23.2486 0.600353C23.1222 0.395757 22.9416 0.230167 22.7268 0.121939Z" fill="white"/>
<path d="M33.0938 15.6076L36.0762 12.6251C36.2896 12.376 36.4011 12.0555 36.3884 11.7277C36.3758 11.3999 36.2399 11.089 36.0079 10.8571C35.776 10.6251 35.4651 10.4892 35.1373 10.4766C34.8095 10.4639 34.489 10.5754 34.2399 10.7888L31.2574 13.7712L28.2749 10.7888C28.0257 10.5754 27.7053 10.4639 27.3775 10.4766C27.0497 10.4892 26.7388 10.6251 26.5068 10.8571C26.2749 11.089 26.139 11.3999 26.1263 11.7277C26.1137 12.0555 26.2252 12.376 26.4385 12.6251L29.421 15.6076L26.4385 18.5901C26.3022 18.7069 26.1915 18.8505 26.1133 19.0121C26.0351 19.1737 25.9912 19.3497 25.9842 19.5291C25.9773 19.7084 26.0075 19.8873 26.073 20.0544C26.1385 20.2215 26.2378 20.3733 26.3647 20.5003C26.4917 20.6272 26.6435 20.7265 26.8106 20.792C26.9777 20.8575 27.1566 20.8877 27.3359 20.8807C27.5153 20.8738 27.6913 20.8299 27.8529 20.7517C28.0145 20.6735 28.1581 20.5628 28.2749 20.4265L31.2574 17.444L34.2399 20.4265C34.489 20.6398 34.8095 20.7513 35.1373 20.7387C35.4651 20.726 35.776 20.5901 36.0079 20.3582C36.2399 20.1262 36.3758 19.8153 36.3884 19.4875C36.4011 19.1597 36.2896 18.8393 36.0762 18.5901L33.0938 15.6076Z" fill="white"/>
</svg>
