<svg width="36" height="36" viewBox="0 0 36 36" fill="none" xmlns="http://www.w3.org/2000/svg">
<path d="M22.7268 1.13273C22.5186 1.02712 22.2885 0.983301 22.0598 1.00571C21.8311 1.02811 21.6119 1.11595 21.4244 1.26031L11.2918 9.48259H1.30239C0.956978 9.48259 0.625709 9.63195 0.381463 9.89781C0.137216 10.1637 0 10.5242 0 10.9002V25.0766C0 25.4525 0.137216 25.8131 0.381463 26.079C0.625709 26.3448 0.956978 26.4942 1.30239 26.4942H11.2918L21.3593 34.7165C21.5528 34.8744 21.7829 34.9706 22.0237 34.9943C22.2646 35.0179 22.5068 34.9681 22.7232 34.8503C22.9395 34.7326 23.1214 34.5516 23.2486 34.3277C23.3758 34.1037 23.4431 33.8456 23.4431 33.5824V2.39442C23.4424 2.13263 23.3751 1.87617 23.2486 1.65347C23.1222 1.43077 22.9416 1.25053 22.7268 1.13273V1.13273Z" fill="white"/>
<path d="M28.3463 14.3386C27.981 13.5951 27.0821 13.2884 26.3386 13.6537C25.5951 14.019 25.2884 14.9179 25.6537 15.6614L28.3463 14.3386ZM25.6312 21.3864C25.2924 22.1424 25.6305 23.0299 26.3864 23.3688C27.1424 23.7076 28.0299 23.3695 28.3688 22.6136L25.6312 21.3864ZM27 15C25.6537 15.6614 25.6536 15.6612 25.6535 15.6611C25.6535 15.661 25.6534 15.6608 25.6534 15.6607C25.6533 15.6606 25.6532 15.6604 25.6531 15.6603C25.653 15.66 25.6529 15.6599 25.6529 15.6599C25.6529 15.6598 25.6531 15.6603 25.6536 15.6612C25.6544 15.663 25.6562 15.6666 25.6588 15.6721C25.664 15.6829 25.6726 15.7009 25.684 15.7253C25.7068 15.7742 25.741 15.8486 25.7826 15.9435C25.8663 16.1344 25.9781 16.4029 26.0893 16.7105C26.3274 17.3698 26.5 18.0407 26.5 18.5H29.5C29.5 17.4949 29.1726 16.4158 28.9107 15.6911C28.7719 15.3068 28.6337 14.9749 28.5299 14.7384C28.4778 14.6196 28.4338 14.5235 28.4019 14.4553C28.386 14.4212 28.3731 14.394 28.3636 14.3744C28.3589 14.3645 28.3551 14.3566 28.3522 14.3506C28.3507 14.3476 28.3495 14.3451 28.3485 14.3431C28.348 14.3421 28.3476 14.3412 28.3472 14.3405C28.347 14.3401 28.3469 14.3398 28.3467 14.3394C28.3466 14.3393 28.3465 14.3391 28.3465 14.339C28.3464 14.3388 28.3463 14.3386 27 15ZM26.5 18.5C26.5 18.8544 26.3342 19.5142 26.0838 20.2317C25.9696 20.5588 25.8547 20.8518 25.7681 21.0632C25.725 21.1684 25.6895 21.2521 25.6653 21.3082C25.6533 21.3363 25.6441 21.3573 25.6382 21.3706C25.6353 21.3773 25.6332 21.382 25.632 21.3846C25.6314 21.386 25.6311 21.3868 25.6309 21.3871C25.6309 21.3873 25.6309 21.3873 25.6309 21.3872C25.6309 21.3871 25.631 21.387 25.631 21.3869C25.6311 21.3868 25.6311 21.3867 25.6311 21.3867C25.6312 21.3866 25.6312 21.3864 27 22C28.3688 22.6136 28.3688 22.6134 28.3689 22.6133C28.3689 22.6132 28.369 22.613 28.3691 22.6129C28.3692 22.6126 28.3693 22.6124 28.3695 22.612C28.3698 22.6114 28.3701 22.6106 28.3705 22.6097C28.3713 22.6078 28.3724 22.6054 28.3737 22.6025C28.3763 22.5966 28.3798 22.5887 28.3842 22.5787C28.393 22.5587 28.4053 22.5306 28.4206 22.4951C28.4511 22.4242 28.4937 22.3238 28.5444 22.2C28.6453 21.9534 28.7804 21.6095 28.9162 21.2202C29.1658 20.505 29.5 19.4148 29.5 18.5H26.5Z" fill="white"/>
<path d="M32.3635 10.3748C32.0182 9.62177 31.1278 9.29121 30.3748 9.6365C29.6218 9.98178 29.2912 10.8722 29.6365 11.6252L32.3635 10.3748ZM29.6162 25.4211C29.2965 26.1853 29.6568 27.064 30.4211 27.3838C31.1853 27.7035 32.064 27.3432 32.3838 26.5789L29.6162 25.4211ZM31 11C29.6365 11.6252 29.6364 11.625 29.6364 11.6249C29.6363 11.6249 29.6363 11.6247 29.6363 11.6247C29.6362 11.6246 29.6362 11.6245 29.6362 11.6245C29.6362 11.6246 29.6364 11.6249 29.6366 11.6254C29.6371 11.6265 29.6381 11.6287 29.6395 11.6319C29.6424 11.6382 29.6471 11.6485 29.6534 11.6628C29.6662 11.6912 29.6857 11.7352 29.711 11.7932C29.7616 11.9093 29.8353 12.0814 29.9243 12.2989C30.1028 12.7348 30.341 13.3478 30.5786 14.0525C31.0676 15.5026 31.5 17.1859 31.5 18.5H34.5C34.5 16.676 33.9324 14.6092 33.4214 13.0939C33.159 12.3159 32.8972 11.6422 32.7007 11.1622C32.6022 10.9217 32.5196 10.7286 32.4609 10.5939C32.4315 10.5265 32.408 10.4737 32.3915 10.4367C32.3832 10.4182 32.3767 10.4037 32.3719 10.3934C32.3696 10.3882 32.3677 10.384 32.3663 10.3809C32.3656 10.3794 32.365 10.3781 32.3645 10.3771C32.3643 10.3766 32.3641 10.3761 32.3639 10.3757C32.3638 10.3755 32.3637 10.3753 32.3637 10.3752C32.3636 10.375 32.3635 10.3748 31 11ZM31.5 18.5C31.5 19.598 31.0736 21.2708 30.5738 22.8053C30.3334 23.5432 30.0924 24.2014 29.9113 24.6751C29.821 24.9115 29.746 25.1008 29.6942 25.2297C29.6683 25.2942 29.6482 25.3435 29.6349 25.3759C29.6282 25.3921 29.6232 25.4041 29.6201 25.4117C29.6185 25.4155 29.6174 25.4182 29.6168 25.4198C29.6164 25.4206 29.6162 25.4211 29.6161 25.4213C29.6161 25.4214 29.6161 25.4214 29.6161 25.4214C29.6161 25.4214 29.6161 25.4213 29.6161 25.4213C29.6162 25.4212 29.6162 25.4211 31 26C32.3838 26.5789 32.3838 26.5788 32.3839 26.5786C32.3839 26.5785 32.384 26.5783 32.3841 26.5782C32.3842 26.5779 32.3844 26.5775 32.3846 26.577C32.385 26.576 32.3855 26.5748 32.3861 26.5733C32.3874 26.5702 32.3892 26.566 32.3914 26.5607C32.3958 26.55 32.4021 26.5348 32.41 26.5154C32.426 26.4765 32.4489 26.4204 32.4777 26.3488C32.5352 26.2057 32.6165 26.0003 32.7137 25.746C32.9076 25.2385 33.1666 24.5317 33.4262 23.7345C33.9264 22.1989 34.5 20.1217 34.5 18.5H31.5Z" fill="white"/>
</svg>
