<svg width="140" height="130" viewBox="0 0 140 130" fill="none" xmlns="http://www.w3.org/2000/svg">
<g clip-path="url(#clip0)">
<path d="M92.2348 65.5544C91.8269 63.9075 90.8288 62.5633 89.7329 61.2676C87.1806 62.3058 84.1853 61.9052 81.9173 60.4323C79.6492 58.9594 78.1011 56.5079 77.48 53.8763C76.8589 51.2446 77.1185 48.4503 77.9518 45.8783C78.6079 43.8534 79.8634 41.2712 81.5258 39.9414C74.7011 37.2356 65.6917 38.5798 59.7414 42.9531C53.791 47.3255 50.1562 55.2101 50.5095 62.7539C52.4644 61.6631 55.5935 61.6353 57.7607 62.1936C59.9288 62.7518 61.8364 64.0012 63.8727 64.9323C67.5106 66.5958 71.8696 70.0617 75.1975 71.9044C77.3894 73.1177 78.3432 73.3145 80.8368 73.0734C83.4396 72.8211 85.1916 71.342 87.0827 69.967C88.9758 68.5898 90.972 67.5362 92.2348 65.5544Z" fill="#9DC42D"/>
<path d="M93.9199 47.8447C91.3902 49.1899 88.7988 50.4434 86.0682 51.3107C83.3377 52.1779 80.4547 52.6517 77.4348 52.3963C77.029 47.991 78.6986 43.4384 81.906 40.3154C84.3821 40.1455 86.8377 41.1023 88.8565 42.5474C90.8742 43.9915 92.5109 45.9001 93.9199 47.8447Z" fill="#F2D629"/>
<path d="M92.5 60.4074C90.9385 60.7144 89.3687 61.0213 87.7795 61.0831C86.1891 61.1449 84.5638 60.9523 83.1146 60.2962C81.7262 59.6679 80.2326 58.7831 79.3335 57.5523C78.4353 56.3204 77.9687 54.7455 77.6072 53.2757C77.8564 53.1943 78.2602 53.113 78.5661 52.9647C81.583 56.1525 85.5598 58.4185 89.926 59.2054C88.2409 57.0126 87.1161 54.3933 86.6959 51.6576C87.0131 51.4866 87.3716 51.396 87.8516 51.4413C89.0587 54.6343 90.8169 57.6182 93.0253 60.221C92.8244 60.2859 92.6328 60.3817 92.5 60.4074Z" fill="#F2D629"/>
<path d="M79.5754 53.1497C80.762 54.431 82.4769 55.8246 84.0158 56.6506C85.5546 57.4777 87.1006 57.899 88.7208 58.552C87.6836 56.3293 86.6371 54.0797 86.1437 51.6768C84.0456 52.2711 81.7549 52.6697 79.5754 53.1497Z" fill="#772130"/>
<path d="M11.5144 85.6918C10.9191 85.631 10.0343 86.007 9.86541 86.5817C9.69649 87.1565 9.93545 87.7899 10.3382 88.2338C10.7409 88.6767 11.2848 88.9631 11.8265 89.2165C15.7622 91.0581 20.322 91.6741 24.5316 90.5967C25.369 90.3824 26.2105 90.092 26.8769 89.5399C27.5423 88.9878 28.4693 88.1803 28.3508 87.3233C28.2396 86.5158 27.1601 85.7855 26.4196 85.4446C25.679 85.1037 24.8323 85.0604 24.0228 85.1521C23.2132 85.2448 22.4242 85.4642 21.626 85.629C18.1538 86.3459 14.8795 86.0338 11.5144 85.6918Z" fill="#27A4DE"/>
<path d="M7.34886 73.6071C6.34667 73.3661 5.25384 74.5382 5.07668 75.5548C4.89952 76.5714 5.42585 77.6107 6.1932 78.2987C6.96158 78.9868 7.94214 79.3833 8.91446 79.7263C11.4668 80.6286 14.1314 81.2631 16.8362 81.3795C19.541 81.4959 22.2931 81.0797 24.7579 79.9612C25.4604 79.6429 26.1515 79.2566 26.6614 78.6778C27.1712 78.0989 27.4761 77.2955 27.302 76.5446C27.0837 75.6073 26.1742 74.9626 25.2358 74.7463C24.2975 74.53 23.32 74.6536 22.3611 74.736C17.3059 75.1706 12.1713 74.7658 7.34886 73.6071Z" fill="#27A4DE"/>
<path d="M27.3945 73.5752C22.6884 75.7073 15.2322 74.5567 9.23453 73.6081C8.00162 73.4134 6.6688 73.1518 5.84583 72.2135C5.39778 71.7026 5.15161 70.9528 5.42044 70.3276C5.70369 69.6663 6.44529 69.3429 7.13539 69.1369C9.61563 68.3953 12.2493 68.3747 14.8367 68.4571C16.9544 68.524 19.07 68.6559 21.1794 68.8526C22.2733 68.9546 23.3867 69.0792 24.391 69.5252C25.9607 70.2246 28.9117 72.8871 27.3945 73.5752Z" fill="#27A4DE"/>
<path d="M30.1768 71.083C24.9135 69.7677 20.3969 65.7662 18.4564 60.6996C18.0495 59.6377 17.7478 58.5047 17.8621 57.3737C17.9764 56.2428 18.5707 55.1108 19.5832 54.5927C20.984 53.8748 22.6928 54.4939 24.0421 55.3034C27.7243 57.5148 30.4518 61.0941 32.1945 65.0194C32.7353 66.2359 33.1967 67.5749 32.9269 68.8788C32.6591 70.1828 31.3891 71.3859 30.1768 71.083Z" fill="#27A4DE"/>
<path d="M8.03219 79.9172C7.60783 79.363 6.64993 79.4856 6.22248 80.0377C5.79503 80.5898 5.82181 81.3859 6.08652 82.0318C6.44496 82.9052 7.18038 83.584 8.01262 84.0289C8.84486 84.4739 9.77288 84.7067 10.6989 84.889C14.9847 85.7295 19.424 85.5533 23.7284 84.8158C24.4885 84.6861 25.2589 84.5336 25.9387 84.169C26.6185 83.8044 27.2046 83.1926 27.3591 82.4365C27.5136 81.6805 27.1315 80.7999 26.4053 80.5424C25.915 80.3693 25.3764 80.4888 24.8686 80.598C19.2818 81.8021 13.383 81.5209 8.03219 79.9172Z" fill="#27A4DE"/>
<path d="M58.1093 106.227C57.9815 101.917 55.6558 97.9356 52.2383 95.306C48.8207 92.6754 44.5555 91.3302 40.2758 90.7926C35.9972 90.2559 31.045 90.4795 26.7386 90.704C27.6522 90.0139 28.6307 88.5369 28.3598 87.2895C28.0889 86.0422 26.7952 85.1801 25.6179 84.6867C26.5295 84.3674 27.7665 83.4672 27.8149 82.5021C27.8623 81.538 27.0259 80.4668 26.1515 80.06C27.0115 79.4255 27.8334 78.3471 27.7809 77.279C27.7294 76.2119 26.651 74.9295 25.7333 74.3826C26.4965 74.293 27.6511 74.0056 27.9179 73.2857C28.1847 72.5647 27.5492 71.3925 27.028 70.8281C28.7316 70.6901 31.5167 72.2443 32.2264 70.6829C32.9731 69.04 33.2028 66.9429 33.0071 65.264C38.9482 69.5962 45.3517 72.5688 52.6812 73.1631C50.6902 71.2236 48.5004 65.0312 51.6656 65.0312C63.4096 65.0312 68.8748 71.1546 72.2378 79.2494C75.6945 87.5697 73.3646 97.1199 66.4584 102.905C64.2213 104.778 61.4897 105.912 58.1093 106.227Z" fill="#27A4DE"/>
<path d="M57.9244 106.227C63.4143 104.985 68.106 102.48 70.8458 97.5634C72.6215 94.3776 73.7782 90.5203 73.7782 86.4559C73.7782 82.8087 73.0046 80.9835 71.3608 77.7277C69.6798 74.3987 67.7661 70.5599 64.0581 68.5916C61.8363 67.4122 60.8393 66.7149 57.9223 66.0743C56.1343 65.6808 51.7187 64.9691 50.1778 65.9177C50.1685 64.8393 50.2458 63.9175 50.2375 62.8926C51.5714 61.9625 54.3894 61.6906 55.9829 61.8513C57.5763 62.012 58.6794 62.3663 60.1544 62.9894C64.5813 64.8589 68.381 67.4287 72.3969 70.0686C74.0769 71.1728 75.7836 72.3305 77.7395 72.7981C80.4711 73.4511 83.0461 72.8867 85.3162 71.2315C87.7728 69.4413 90.354 67.4576 92.415 65.5469C92.6611 66.2308 93.0309 66.7901 93.2379 67.4895C96.6977 79.147 96.3908 92.3166 91.5848 103.352C89.9461 107.115 88.3228 110.771 83.9134 113.082C80.5978 114.821 77.0948 116.255 73.3538 116.404C69.6139 116.554 65.8863 115.921 62.2257 115.138C63.2897 113.522 62.512 112.168 61.6788 110.422C60.8465 108.675 59.6775 106.614 57.9244 106.227Z" fill="white"/>
<path d="M58.1859 106.004C58.0602 108.668 57.985 111.487 57.8594 114.153C59.6928 114.495 61.2676 114.837 63.101 115.179C63.7201 113.317 63.7489 111.351 62.789 109.64C61.829 107.929 60.1007 106.342 58.1859 106.004Z" fill="#677F2B"/>
<path d="M64.3087 116.122C64.5466 118.329 64.7845 120.538 65.0235 122.745C65.0585 123.069 65.0925 123.404 64.9998 123.716C64.8834 124.11 64.5826 124.418 64.286 124.702C63.3188 125.627 62.2487 126.519 61.7089 127.744C61.6214 127.942 61.5483 128.155 61.5616 128.371C61.575 128.587 61.6945 128.809 61.8954 128.889C62.1374 128.985 62.7163 129.32 62.9398 129.187C64.1603 128.459 64.9112 127.003 65.7177 125.833C65.8073 125.703 65.901 125.564 66.0442 125.499C66.2543 125.403 66.5108 125.5 66.6735 125.664C66.8363 125.828 66.93 126.045 67.033 126.252C67.6345 127.462 68.5749 128.653 69.8181 129.182C69.9592 129.242 70.2178 129.092 70.3651 129.05C70.6257 128.975 70.7132 128.647 70.7008 128.376C70.6679 127.663 70.26 127.017 69.7749 126.494C69.2897 125.971 68.7171 125.532 68.2422 125C68.1475 124.894 68.0517 124.768 68.064 124.627C68.0888 124.352 68.715 124.596 68.99 124.606C69.8604 124.639 70.6792 124.877 71.5496 124.91C71.8575 124.921 72.1264 124.57 72.4075 124.444C72.6887 124.319 72.7598 123.858 72.6898 123.559C72.6053 123.195 72.1737 123.049 71.806 122.981C70.9285 122.818 70.0344 122.747 69.1425 122.769C68.5409 122.783 67.8385 122.798 67.4615 122.329C67.206 122.011 67.1916 121.569 67.1896 121.16C67.1813 119.842 67.1721 118.524 67.1638 117.207C67.1618 116.885 67.1339 116.511 66.8692 116.328C66.7044 116.214 66.4902 116.208 66.2893 116.206C65.6425 116.2 64.9957 116.194 64.3087 116.122Z" fill="#988817"/>
<path d="M83.5083 108.319C86.8383 108.602 90.1683 108.884 93.4983 109.168C93.6559 109.181 93.8372 109.187 93.9484 109.074C94.1142 108.906 94.002 108.623 93.8701 108.426C93.1028 107.28 91.8946 106.334 91.6752 104.972C91.5918 104.453 91.7555 103.801 92.2613 103.658C92.801 103.505 93.2779 104.023 93.6013 104.481C94.2224 105.36 94.8435 106.238 95.4635 107.117C95.2338 105.671 95.0072 104.162 95.4522 102.766C95.5377 102.498 95.651 102.232 95.8477 102.031C96.0445 101.83 96.339 101.706 96.611 101.775C97.0188 101.878 97.2145 102.336 97.3165 102.745C97.6214 103.963 97.6142 105.259 97.2959 106.475C97.7718 105.582 98.3589 104.748 99.0376 103.998C99.2148 103.802 99.4393 103.596 99.702 103.624C100.098 103.666 100.233 104.172 100.23 104.57C100.216 106.211 99.496 107.752 98.7915 109.234C98.4619 109.926 98.09 110.663 97.4133 111.025C96.818 111.342 96.1052 111.304 95.4316 111.257C91.2199 110.964 86.9619 110.662 82.9336 109.395C83.0376 109.025 83.1416 108.654 83.2446 108.282C83.3652 108.312 83.4836 108.341 83.5083 108.319Z" fill="#988817"/>
<path d="M65.8002 38.834C66.446 38.182 67.2556 37.701 68.1218 37.4002C68.9891 37.0994 69.912 36.9748 70.8297 36.9872C71.3282 36.9944 71.837 37.0438 72.2902 37.2519C72.7434 37.4599 73.3923 38.4178 73.4943 38.905C71.1057 38.9679 67.543 39.6672 65.2749 40.416C65.1184 40.1874 65.9238 39.0832 65.8002 38.834Z" fill="#78502B"/>
<path d="M60.1589 50.2111C58.6819 49.5612 57.0648 49.2573 55.4508 49.2161C55.0687 49.2068 54.6804 49.211 54.3147 49.1018C53.9491 48.9936 53.5999 48.7505 53.4701 48.3911C53.3414 48.0316 53.5082 47.5619 53.8729 47.4486C54.0078 47.4074 54.1623 47.4115 54.2735 47.325C54.4126 47.2169 54.428 47.0098 54.3868 46.8389C54.3456 46.6679 54.2622 46.5051 54.2478 46.33C54.2128 45.9067 54.6114 45.5421 55.0316 45.4772C55.4519 45.4123 55.8731 45.574 56.2501 45.7697C58.0021 46.6802 59.2453 48.3633 60.1589 50.2111Z" fill="#78502B"/>
<path d="M66.2978 51.986C68.943 51.986 71.0873 49.8647 71.0873 47.248C71.0873 44.6313 68.943 42.51 66.2978 42.51C63.6526 42.51 61.5083 44.6313 61.5083 47.248C61.5083 49.8647 63.6526 51.986 66.2978 51.986Z" fill="white" stroke="white" stroke-width="0.927" stroke-miterlimit="10"/>
<path d="M65.5669 49.4365C66.9179 49.4365 68.0131 48.3874 68.0131 47.0932C68.0131 45.7991 66.9179 44.75 65.5669 44.75C64.2158 44.75 63.1206 45.7991 63.1206 47.0932C63.1206 48.3874 64.2158 49.4365 65.5669 49.4365Z" fill="black"/>
<path d="M64.5561 48.0977C64.9969 48.0977 65.3543 47.7403 65.3543 47.2995C65.3543 46.8586 64.9969 46.5012 64.5561 46.5012C64.1152 46.5012 63.7578 46.8586 63.7578 47.2995C63.7578 47.7403 64.1152 48.0977 64.5561 48.0977Z" fill="white"/>
<path d="M66.2568 52.7071C69.3286 52.7071 71.8188 50.2861 71.8188 47.2996C71.8188 44.3131 69.3286 41.8921 66.2568 41.8921C63.185 41.8921 60.6948 44.3131 60.6948 47.2996C60.6948 50.2861 63.185 52.7071 66.2568 52.7071Z" stroke="#78502B" stroke-width="0.927" stroke-miterlimit="10"/>
<path d="M82.5781 46.5206C83.2514 46.2919 83.6636 45.7135 83.4989 45.2287C83.3342 44.744 82.6549 44.5365 81.9817 44.7653C81.3085 44.994 80.8962 45.5724 81.0609 46.0571C81.2256 46.5419 81.9049 46.7494 82.5781 46.5206Z" fill="black"/>
<path d="M91.7661 63.9783C96.2023 60.7194 100.021 55.6302 101.946 50.474C102.525 48.9208 103.132 47.7414 104.408 46.6836C106.007 45.358 110.058 45.2818 112.129 45.4281C113.04 46.9339 112.56 47.9773 113.471 49.4832C113.675 49.82 113.953 49.8169 114.316 49.9704C114.988 50.2546 115.342 49.9528 115.754 49.3503C116.166 48.7477 116.514 48.1205 117.176 47.8115C116.922 48.9877 117.727 50.8077 118.779 51.3938C119.831 51.9799 121.349 51.6544 122.241 50.8469C119.99 66.8211 109.595 81.7716 95.5359 89.681C96.8502 80.9806 95.1991 71.9145 91.7661 63.9783Z" fill="#1A6A8F"/>
<path d="M108.778 37.7704C108.992 36.8754 109.209 35.97 109.645 35.1594C110.081 34.3488 110.766 33.6319 111.644 33.3589C112.478 33.0994 113.43 33.2796 114.122 33.8121C114.814 34.3436 115.231 35.2088 115.236 36.0812C115.245 37.7684 113.839 39.2073 113.805 40.8934C112.18 39.7892 110.421 38.8818 108.579 38.1989C108.702 37.9836 108.825 37.7694 108.778 37.7704Z" fill="#1A6A8F"/>
<path d="M110.413 4.1875C109.324 27.4016 109.148 39.6586 108.086 62.2929C109.475 62.3114 108.449 62.1466 109.837 62.1652C110.271 52.9209 109.847 46.7626 110.281 37.5183C110.758 27.344 111.004 29.1784 110.413 4.1875Z" fill="#78502B"/>
<path d="M117.856 47.8797C117.68 44.971 118.136 42.0417 119.029 39.2679C119.229 38.6457 119.461 38.0133 119.904 37.5323C120.346 37.0513 121.05 36.7547 121.668 36.9658C122.27 37.1718 122.632 37.7806 122.871 38.3707C123.869 40.8397 123.597 43.6196 123.201 46.2533C123.053 47.239 122.887 48.234 122.499 49.1517C122.111 50.0695 121.474 50.9161 120.587 51.3724C120.211 51.5661 119.768 51.6866 119.365 51.5599C119.019 51.4517 118.749 51.1778 118.534 50.8852C117.867 49.9696 117.91 48.7882 117.856 47.8797Z" fill="#1A6A8F"/>
<path d="M114.359 41.3567C114.702 39.9301 115.052 38.484 115.759 37.1996C116.081 36.6176 116.578 36.0151 117.243 36.0161C117.749 36.0161 118.201 36.3931 118.417 36.8525C118.633 37.3119 118.652 37.8382 118.618 38.3439C118.446 40.9169 117.019 43.3219 117.095 45.9C117.107 46.279 117.15 46.6673 117.048 47.032C116.935 47.4368 116.656 47.7715 116.384 48.0918C115.997 48.5481 115.606 49.0085 115.123 49.3629C114.866 49.5513 114.559 49.7131 114.243 49.6749C113.705 49.6101 113.407 49.024 113.25 48.5028C113.056 47.8518 112.932 47.1793 112.885 46.5015C112.869 46.2832 112.868 46.0421 113.003 45.8701C113.213 45.6034 113.617 45.6404 113.951 45.5776C114.781 45.4221 115.298 44.5085 115.275 43.6649C115.256 42.8182 114.825 42.0426 114.359 41.3567Z" fill="#1A6A8F"/>
<path d="M101.524 38.7725C101.421 42.1839 101.502 45.6014 101.764 49.0035C102.104 47.6356 103.243 46.5717 104.534 46.0072C105.826 45.4428 107.261 45.313 108.669 45.2718C110.077 45.2306 111.498 45.2697 112.884 45.0184C113.532 44.901 114.253 44.6486 114.497 44.0368C114.761 43.3776 114.334 42.6525 113.866 42.12C111.969 39.9652 109.169 38.8374 106.398 38.0886C105.545 37.8579 104.668 37.6549 103.787 37.725C102.908 37.795 102.012 38.1782 101.524 38.7725Z" fill="#26A3DE"/>
<path d="M108.565 48.6463C108.395 53.1907 108.224 57.735 108.077 62.369C108.712 62.3031 109.346 62.2372 110.008 62.0641C109.826 56.6278 109.88 51.1832 110.167 45.751" stroke="black" stroke-width="0.412" stroke-miterlimit="10"/>
<path d="M108.941 38.4655C109.673 27.0047 109.589 15.6654 110.316 4.28394C111.053 16.4812 111.145 27.5774 110.412 39.0598C109.85 38.7271 109.399 38.3944 108.941 38.4655Z" stroke="black" stroke-width="0.412" stroke-miterlimit="10"/>
<path d="M110.249 0.277832L110.808 2.28427H112.618L111.154 3.52439L111.714 5.53083L110.249 4.29071L108.785 5.53083L109.345 3.52439L107.88 2.28427H109.691L110.249 0.277832Z" fill="#FACE0A" stroke="black" stroke-width="0.206" stroke-miterlimit="10"/>
<path d="M93.6454 66.9332C93.3776 67.0877 92.8533 67.2422 92.5855 67.3967C91.9861 65.3459 91.058 63.4023 89.9065 61.4567C90.1918 61.3856 90.6831 61.262 90.9684 61.1909C91.9428 63.0542 93.0264 64.8134 93.6454 66.9332Z" fill="black"/>
<path d="M66.2577 53.4794C69.742 53.4794 72.5665 50.7125 72.5665 47.2994C72.5665 43.8863 69.742 41.1194 66.2577 41.1194C62.7735 41.1194 59.949 43.8863 59.949 47.2994C59.949 50.7125 62.7735 53.4794 66.2577 53.4794Z" stroke="black" stroke-width="1.03" stroke-miterlimit="10"/>
<path d="M59.9015 49.6704C58.2596 49.1493 56.4252 48.8804 54.7051 48.7702C54.4497 48.7537 54.1839 48.7393 53.9625 48.6126C53.74 48.487 53.5793 48.2109 53.672 47.973C53.7657 47.732 54.0541 47.6424 54.3044 47.5775C54.5547 47.5116 54.8421 47.4024 54.9101 47.1531C54.977 46.909 54.7926 46.6598 54.8143 46.4074C54.8411 46.1015 55.1758 45.8976 55.4828 45.9058C55.7897 45.9151 56.0688 46.0788 56.3263 46.2457C57.5335 47.0295 58.6356 48.0132 59.3751 49.2481C59.4596 49.3882 59.7016 49.7714 59.8479 49.8445C60.0261 49.9331 60.0869 49.6468 60.2702 49.5674C60.4525 49.4881 60.6328 49.3841 60.8315 49.3728C60.1723 47.9874 59.2103 46.7473 58.033 45.7637C57.4542 45.2796 56.8042 44.849 56.0688 44.6842C55.3324 44.5194 54.495 44.6616 53.9614 45.1941C53.6215 45.5329 53.3805 46.0541 53.6112 46.4754C53.0756 46.6628 52.7018 47.1645 52.5761 47.7186C52.4504 48.2727 52.6266 48.8846 53.0283 49.2863C53.3589 49.6169 53.8142 49.7961 54.2725 49.8867C54.7309 49.9774 55.2005 49.9887 55.6661 50.0309C57.4377 50.1916 59.4915 50.8858 61.1622 51.4966C60.9088 50.8663 60.299 50.1566 59.9015 49.6704Z" fill="black"/>
<path d="M73.906 38.6289C73.8277 37.9151 73.3869 37.2693 72.7988 36.8583C72.2106 36.4474 71.4876 36.2568 70.7707 36.2311C70.0538 36.2053 69.339 36.3341 68.6448 36.5164C67.5592 36.8017 66.4849 37.2353 65.6537 37.9893C65.5692 38.0665 64.4527 40.3047 64.4321 40.417C64.3775 40.7208 65.3766 39.6847 65.4127 39.9916C66.0451 39.2953 67.2471 37.8894 68.0453 37.5793C68.8436 37.2693 69.7026 37.1251 70.5585 37.1076C71.0385 37.0973 71.536 37.1313 71.9645 37.3476C72.4373 37.5865 72.7864 38.0387 72.9224 38.5856C73.2479 38.5805 73.5733 38.5856 73.906 38.6289Z" fill="black"/>
<path d="M77.4434 52.2928C82.857 52.2928 88.4695 50.3235 93.7565 47.7454C94.1098 47.8947 95.0718 48.078 94.7402 48.2717C88.6199 51.8478 83.6738 52.849 77.6689 53.4567C77.3929 53.4845 77.3496 53.5309 77.1179 53.3774C76.7368 53.123 76.7337 52.5647 76.8006 52.1115C77.1364 52.1404 77.192 52.2928 77.4434 52.2928Z" fill="black"/>
<path d="M92.4561 59.9612C90.154 60.7306 87.6655 61.1766 85.28 60.7265C82.8946 60.2764 80.6224 59.0136 79.1917 57.0525C77.5138 54.7525 77.1801 51.6285 77.7518 48.8403C78.4656 45.3589 79.9096 42.6418 82.2591 40.1213C81.8512 39.9339 81.5206 40.0122 81.1127 39.8247C78.7529 42.3564 77.1976 46.0212 76.6981 49.2595C76.1852 52.5905 76.729 55.8196 78.9198 58.3802C80.6069 60.3526 83.2108 61.6298 85.7878 61.9388C88.3649 62.2478 91.115 61.7472 93.449 60.6101C93.5994 60.537 93.7477 60.4093 93.7899 60.2548C93.8826 59.9179 93.7188 59.8736 93.4428 59.4184C93.2718 59.1372 92.7579 59.8613 92.4561 59.9612Z" fill="black"/>
<path d="M92.7874 60.2578C90.3185 57.7333 88.6798 54.6875 87.7136 51.0599C88.0453 50.7859 88.4882 50.651 88.7931 50.7468C89.5573 54.2045 91.1106 56.9422 93.3591 59.3298C93.4785 59.4564 93.5568 59.5316 93.6825 59.7325C93.8318 59.9714 93.8555 60.1775 93.7515 60.3165C93.6454 60.4586 93.3457 60.4277 93.1706 60.401C92.9955 60.3742 92.8265 60.298 92.7874 60.2578Z" fill="black"/>
<path d="M85.9612 51.8604C86.3094 54.1233 87.3456 56.2142 88.3683 58.2619C84.9518 57.4255 81.8062 55.521 79.4341 52.9048C79.0952 53.0099 78.7554 53.115 78.5298 53.2386C81.3695 56.3739 85.1578 58.6378 89.2644 59.6534C89.4674 59.7039 89.7053 59.744 89.866 59.6112C90.0874 59.4289 90.0586 59.0344 89.9133 58.7872C89.078 57.3647 88.6186 56.4439 88.0171 55.2419C87.4156 54.0399 86.9397 52.7318 86.9768 51.3887C86.6637 51.5576 86.3485 51.7275 85.9612 51.8604Z" fill="black"/>
<path d="M74.7294 39.355C73.8353 39.3736 72.9258 39.5414 72.1544 39.9936C71.3829 40.4448 70.6094 41.6262 70.4755 42.5109C70.1665 42.0794 69.6257 41.6478 69.0942 41.5623C69.568 40.7393 70.2571 39.7402 70.9379 39.0862C71.5724 39.1336 72.209 39.0728 72.8455 39.0646C73.482 39.0553 74.133 39.1016 74.7294 39.355Z" fill="black"/>
<path d="M52.8084 72.7928C51.4756 71.5156 51.1717 69.5205 51.0677 67.6768C50.7206 61.5555 51.7022 55.325 54.4059 49.7785C54.0052 49.487 53.6808 49.1945 53.2554 48.8813C50.6866 53.6616 49.8276 59.1855 49.6658 64.6105C49.5855 67.3101 49.6906 70.1138 50.7762 72.4426C51.4096 72.664 52.0781 72.7804 52.8084 72.7928Z" fill="black"/>
<path d="M26.3662 69.1459C24.5205 68.0562 22.7108 66.5163 21.3645 64.8477C20.0183 63.1791 18.9914 61.2324 18.529 59.1395C18.3703 58.4205 18.2776 57.6727 18.4115 56.9486C18.5454 56.2246 18.9307 55.5221 19.5559 55.1338C20.1049 54.7929 20.7898 54.7218 21.4263 54.8341C22.0629 54.9463 22.6953 55.1667 23.2155 55.5489C27.1367 58.4349 29.1503 61.1243 31.2144 64.6397C31.6347 65.3545 31.9014 66.1816 32.1507 66.9726C32.4 67.7636 32.4638 68.6391 32.1682 69.4147C32.5648 69.5929 32.9613 69.7145 33.3589 69.8916C33.9223 67.7214 33.2353 65.5502 32.0786 63.6292C30.9219 61.7083 29.5036 59.8955 28.0379 58.1991C27.184 57.2103 26.186 56.2853 25.2064 55.4201C24.2269 54.556 23.0589 53.8525 21.7673 53.6547C20.4757 53.4569 19.0532 53.8298 18.1963 54.8155C17.1591 56.0083 17.1426 57.7798 17.4598 59.329C17.9995 61.9699 19.3406 64.4182 21.1555 66.4112C22.9703 68.4033 25.2466 69.9493 27.7032 71.0596C28.7126 71.5159 29.8085 71.9073 30.9065 71.76C32.0044 71.6128 32.9912 70.935 33.3599 69.8875C33.2095 69.6259 32.3392 69.0017 32.2166 69.2777C32.0868 69.5703 31.9375 69.8896 31.6975 70.0739C30.8972 70.6909 29.825 70.593 28.8537 70.3119C27.8834 70.0317 27.08 69.5672 26.3662 69.1459Z" fill="black"/>
<path d="M32.2369 65.1821C37.8421 70.7874 46.1233 73.8485 54.18 73.967C54.4406 73.9711 54.7115 73.969 54.9453 73.8537C55.1791 73.7383 55.3593 73.4736 55.2914 73.2212C55.1966 72.869 54.7393 72.7907 54.3747 72.7763C49.8396 72.5991 45.3065 71.7071 41.1567 69.8707C37.0068 68.0342 33.4039 65.178 30.697 61.5359C31.315 62.7915 31.4036 64.3488 32.2369 65.1821Z" fill="black"/>
<path d="M25.3452 75.2927C21.0717 75.7119 14.4972 75.2752 9.42241 74.2926C8.62828 74.1391 7.81561 73.9681 7.01839 74.1051C6.22117 74.2421 5.43219 74.7643 5.24267 75.5502C5.11186 76.0899 5.28387 76.6698 5.60008 77.1261C5.91629 77.5824 6.36331 77.9305 6.82578 78.2364C8.59635 79.4075 10.7284 79.8927 12.8296 80.1945C14.9308 80.4963 17.0125 80.626 19.1343 80.556C21.0614 80.4921 23.0256 80.384 24.825 79.6939C25.546 79.4178 26.1568 79.0769 26.5863 78.4362C27.0158 77.7956 26.9746 76.8315 26.4504 76.265C26.1064 75.8932 25.6511 75.3257 25.1454 75.3257C24.3193 75.3257 24.4738 74.8045 24.55 74.3039C25.7428 74.1123 27.0241 74.7077 27.6472 75.7428C28.2704 76.778 28.1962 78.1891 27.469 79.1531C26.9221 79.8783 26.0806 80.3222 25.2267 80.6312C23.0091 81.4336 20.5917 81.4614 18.2351 81.3522C15.279 81.2152 12.3301 80.8753 9.43065 80.282C8.32855 80.0564 7.21924 79.7876 6.23353 79.2448C5.24885 78.702 4.3888 77.8502 4.06023 76.7738C3.73166 75.6985 4.03345 74.3986 4.94397 73.7384C5.95337 73.0071 7.33563 73.21 8.56442 73.415C13.8761 74.2998 19.2836 74.6057 24.6613 74.3255C24.7251 74.6417 25.6593 75.2618 25.3452 75.2927Z" fill="black"/>
<path d="M25.5537 80.6791C25.5867 80.8511 25.1129 80.95 24.944 80.9932C19.3583 82.4208 13.4657 82.0356 7.99224 80.2228C7.55449 80.0775 7.0158 79.9426 6.68002 80.2578C6.43488 80.4885 6.41222 80.8696 6.46269 81.2023C6.64294 82.3806 7.4484 83.2098 8.49694 83.7773C9.54548 84.3448 10.8247 84.7095 12.0103 84.8423C16.2971 85.3223 20.6489 84.8928 24.8657 83.9854C25.5249 83.8432 26.249 83.6444 26.6105 83.0748C26.9267 82.5753 26.729 81.9377 26.3819 81.4598C26.0347 80.9819 25.3488 80.9129 24.7596 80.8603C25.3107 80.5328 26.0152 80.127 26.5662 79.7994C27.0606 80.3958 27.6405 80.8274 27.9073 81.5556C28.1741 82.2828 28.1617 83.1603 27.6797 83.767C27.1616 84.42 26.2614 84.6013 25.4384 84.7321C20.756 85.4768 15.9964 86 11.2779 85.5324C10.112 85.4171 8.87495 85.4387 7.83465 84.899C6.95297 84.4416 6.25978 83.8432 5.6974 83.0244C5.31733 82.4713 5.01039 81.5206 5.03923 80.85C5.06807 80.1795 5.64899 79.3648 6.31025 79.2515C6.64397 79.1948 6.85512 79.4122 7.18266 79.4966C12.9105 80.9747 19.3645 80.7584 25.3179 80.1816C25.5434 80.1599 25.5115 80.4576 25.5537 80.6791Z" fill="black"/>
<path d="M10.7235 85.6018C14.9897 86.9707 18.9398 86.3135 23.4378 85.6276C24.2917 85.4978 24.9138 85.2186 25.7223 85.5246C26.3475 85.7615 26.7544 86.0344 27.1746 86.5546C27.461 86.9089 27.8081 87.256 27.7978 87.7112C27.7844 88.2654 27.325 88.698 26.8728 89.0193C25.0219 90.3336 22.9032 90.4686 20.6331 90.4964C18.363 90.5242 16.2298 90.0916 13.7918 89.7197C12.6825 89.5508 11.6772 88.906 10.809 88.1943C10.3743 87.8379 9.96126 87.3044 10.1168 86.7636C10.2126 86.4299 10.5123 86.1868 10.8388 86.0684C11.1653 85.9499 12.766 86.1086 12.457 85.951C11.6906 85.5606 11.1715 85.4638 10.776 85.3453C10.3805 85.2269 9.92521 85.2351 9.58428 85.4669C9.24232 85.6986 8.91169 86.5803 8.85916 86.9902C8.72217 88.0707 9.39167 88.8041 10.2455 89.4787C11.0994 90.1534 12.3158 90.5798 13.3644 90.8754C15.4913 91.4749 17.6245 91.6531 19.8328 91.7282C22.0411 91.8034 24.2803 91.5634 26.3352 90.7497C27.4651 90.3027 28.6486 89.5488 28.8669 88.354C29.0194 87.5197 28.6485 86.6709 28.1449 85.9891C27.6659 85.3422 27.0387 84.7778 26.2754 84.5224C25.2774 84.1876 24.1897 84.4132 23.1556 84.6099C19.3456 85.333 14.9691 85.4628 10.7235 85.6018Z" fill="black"/>
<path d="M56.9151 113.23C57.2004 110.87 57.4857 108.497 57.3837 106.122C57.2818 103.746 57.082 101.914 55.8758 99.8654C54.0661 96.7908 50.2572 94.1324 46.8335 93.1312C43.5642 92.1754 40.1106 91.8407 36.5499 91.6274C32.5453 91.3318 28.6179 91.2463 24.6936 91.0764C25.427 90.8951 26.114 90.6077 26.6702 90.1566C30.9344 89.8744 35.1986 89.9547 39.4205 90.4162C42.6393 90.7674 45.719 91.4276 49.05 92.5637C52.1143 93.6081 54.8695 95.9328 56.5968 98.6716C58.3241 101.409 58.9978 104.772 58.5446 108.653C58.5446 111.448 58.4364 112.171 58.2222 114C57.6876 113.899 57.1932 113.598 56.9151 113.23Z" fill="black"/>
<path d="M87.136 110.688C82.4701 113.439 76.7896 115.234 71.378 115.477C67.4743 115.652 62.589 114.962 58.8275 113.887C57.9128 113.625 57.5688 113.051 56.958 112.761C56.5996 112.59 56.1505 112.538 55.6067 112.346C54.8681 112.083 54.0936 111.893 53.4468 111.948C52.7999 112.004 52.7175 113.009 52.7803 113.351C52.8576 113.77 53.4272 113.905 54.0215 114.065C59.8328 115.628 65.7923 116.932 71.8075 116.754C77.8227 116.576 83.9595 114.793 88.474 110.813C87.8364 110.866 87.5325 110.712 87.136 110.688Z" fill="black"/>
<path d="M92.3291 66.4678C92.4311 66.853 92.5135 67.2269 92.601 67.5585C94.3644 74.2474 94.8402 81.3018 94.6239 88.1431C94.3963 95.3263 92.5032 102.381 88.3152 108.222C88.7715 108.24 89.2278 108.259 89.684 108.278C92.2096 103.985 94.2202 98.7655 95.1554 93.6979C96.8199 84.6813 95.7023 74.9395 93.5136 66.4987C93.3509 65.8766 92.5917 67.0569 92.3291 66.4678Z" fill="black"/>
<path d="M24.004 69.6213C20.536 69.6213 17.2678 69.4266 13.7576 69.2392C12.1796 69.1547 10.6459 68.9157 9.07106 69.0527C8.32328 69.1176 7.5446 69.2587 6.64644 69.713C5.97694 70.0518 5.54125 70.8408 5.74622 71.5628C5.88733 72.0624 6.40748 72.3693 6.8751 72.5939C7.34272 72.8194 8.83622 73.1192 9.35225 73.1717C15.4447 73.7897 19.9757 74.6878 25.7426 73.7742C26.3153 73.6836 26.8283 73.4457 27.0178 72.8977C27.1939 72.391 26.9519 72.0078 26.5491 71.6535C25.5964 70.8161 24.7868 69.9272 23.5374 69.5698C23.2243 69.4802 24.2708 68.9518 24.4696 68.6943C25.069 69.2392 25.7911 69.6254 26.4595 70.0827C27.128 70.54 27.7676 71.0993 28.0807 71.8461C28.3928 72.5928 28.2919 73.5621 27.6615 74.0719C27.2485 74.4056 26.6933 74.4932 26.166 74.557C20.1559 75.2832 14.0676 74.5581 8.08947 73.6033C7.22736 73.4652 6.36937 73.662 5.61541 73.2232C4.86042 72.7834 4.40619 71.5618 4.44327 70.6894C4.47005 70.0446 4.66678 69.5265 5.16839 69.1197C5.67 68.7128 6.93278 68.2112 7.57447 68.1391C13.0912 67.518 16.2635 68.4399 21.3466 68.4399C22.0099 68.4399 22.9864 68.2916 23.6363 68.4234C24.2862 68.5552 24.6179 68.9724 24.7652 69.6182C24.4788 69.5904 24.2018 69.6213 24.004 69.6213Z" fill="black"/>
<path d="M94.7557 48.2626C94.971 48.0906 94.8577 47.7435 94.7537 47.488C94.6497 47.2326 94.4488 46.9895 94.2727 46.7783C92.2961 44.4114 90.0878 42.5378 87.3356 41.1484C84.706 39.8207 81.5161 39.283 78.5786 38.9256C74.6635 38.4498 70.6651 38.1789 66.9025 39.2903C63.1399 40.4016 59.6915 42.5615 57.0505 45.4641C57.3039 45.5897 57.5573 45.7144 57.8107 45.84C60.2435 43.2351 63.3758 41.2761 66.7912 40.21C70.2067 39.144 73.925 39.1625 77.5372 39.7156C80.38 40.1513 83.2476 40.3831 85.906 41.5058C88.9764 42.8036 91.5154 45.1685 93.6609 47.7198C93.8009 47.8856 93.9431 48.0576 94.1316 48.1658C94.3201 48.2739 94.627 48.3656 94.7557 48.2626Z" fill="black"/>
<path d="M27.9335 72.5293C28.7575 73.4553 29.8658 74.1258 31.0688 74.4245C32.2719 74.7232 33.5645 74.6491 34.7264 74.2154C34.9416 74.1351 35.1579 74.0383 35.3186 73.8745C35.4793 73.7107 35.5741 73.4635 35.502 73.2452C35.4103 72.9702 35.0889 72.8321 34.7995 72.8424C34.5101 72.8527 34.2381 72.9763 33.9631 73.0659C32.8415 73.4326 31.5931 73.2586 30.5116 72.7868C29.4301 72.3151 28.4938 71.5632 27.6297 70.7598C27.5153 70.6537 27.2898 70.5692 27.2424 70.7186C27.2269 70.769 27.2465 70.8226 27.2661 70.872C27.503 71.4694 27.5998 72.1544 27.9335 72.5293Z" fill="black"/>
<path d="M64.5088 116.129C64.8219 118.227 65.1361 120.325 65.4492 122.423C65.5151 122.865 65.579 123.33 65.4276 123.75C65.2751 124.174 64.926 124.491 64.6005 124.805C63.6611 125.708 62.8258 126.719 62.1151 127.811C61.976 128.025 61.837 128.29 61.94 128.524C62.0275 128.723 62.2706 128.816 62.4869 128.793C62.7032 128.769 62.8979 128.654 63.0781 128.532C64.0371 127.887 64.8312 127 65.3637 125.975C65.4863 125.739 65.5975 125.493 65.7778 125.297C65.958 125.102 66.2268 124.964 66.4864 125.02C66.8284 125.092 67.0189 125.446 67.1806 125.756C67.7492 126.849 68.5062 127.843 69.4095 128.682C69.5702 128.831 69.769 128.985 69.9843 128.945C70.1965 128.906 70.3335 128.679 70.3396 128.463C70.3458 128.247 70.2511 128.043 70.1491 127.852C69.7083 127.029 69.0851 126.304 68.3394 125.743C68.1365 125.59 67.9202 125.445 67.7791 125.234C67.638 125.023 67.5669 124.723 67.7224 124.522C67.9016 124.291 68.2704 124.29 68.5619 124.31C69.4322 124.371 70.3026 124.431 71.1729 124.491C71.4407 124.51 71.7209 124.527 71.9681 124.422C72.2163 124.318 72.4182 124.054 72.3574 123.792C72.2832 123.471 71.896 123.349 71.5705 123.296C70.4828 123.115 69.6083 123.101 68.5073 123.15C68.1694 123.166 67.2805 123.396 67.1569 123.08C67.0148 122.718 67.0375 122.365 67.0066 122.063C66.814 120.161 66.6687 118.255 66.5832 116.341C67.0467 116.243 67.4217 116.167 67.9202 116.214C67.7832 118.033 67.9109 119.834 68.1056 121.858C69.7371 121.802 71.3295 121.942 72.6695 122.657C73.1752 122.927 73.7077 123.367 73.6624 123.938C73.6336 124.299 73.373 124.6 73.0897 124.825C72.3131 125.444 71.1317 125.702 70.1563 125.512C70.9463 126.32 71.5149 127.458 71.4726 128.587C71.4448 129.316 71.0915 129.964 70.386 130.149C69.9081 130.275 69.3302 130.01 68.9069 129.755C67.7718 129.071 67.0612 127.842 66.2629 126.711C65.8015 127.353 65.2339 128.411 64.6592 128.954C64.0855 129.497 63.6199 129.886 62.8433 130.034C62.3025 130.137 61.6856 130.072 61.2942 129.685C60.808 129.205 60.8297 128.407 61.0449 127.758C61.5033 126.377 62.6208 125.341 63.6333 124.298C63.8486 124.075 64.0669 123.841 64.1689 123.548C64.2822 123.222 64.3656 122.839 64.3183 122.497C64.0165 120.292 63.6374 118.113 63.3356 115.907C63.7765 116.013 64.1648 116.121 64.5088 116.129Z" fill="black"/>
<path d="M101.081 104.36C101.018 103.642 100.623 102.911 99.953 102.645C99.2835 102.38 98.6346 103.011 98.2144 103.685C98.1186 103.141 98.0722 102.381 97.824 101.887C97.5758 101.393 97.1535 100.958 96.6148 100.83C95.936 100.67 95.2181 101.038 94.7752 101.577C94.3313 102.116 94.4168 103.004 94.2159 103.671C93.7143 103.17 92.6709 102.777 92.1116 103.072C91.5523 103.366 91.4421 103.877 91.4421 104.51C91.4421 105.142 91.6595 105.802 91.9921 106.341C92.5257 107.204 92.8707 107.713 93.4105 108.586C90.5223 108.303 87.7939 107.959 84.8409 107.522C84.5133 107.474 84.1291 107.433 83.6996 107.369C83.6677 107.364 83.5122 107.323 83.4833 107.337C83.4339 107.6 83.3762 107.858 83.3031 108.116C83.2866 108.172 83.2701 108.23 83.2536 108.287C83.643 108.382 83.8356 108.416 84.1178 108.468C87.213 109.036 90.2947 109.258 93.4228 109.606C93.8935 109.659 94.5208 109.688 94.7701 109.286C95.042 108.847 94.6547 108.27 94.3426 107.859C93.6154 106.899 92.9521 105.891 92.3568 104.843C92.2074 104.582 92.0694 104.23 92.2661 104.003C92.4371 103.805 92.7708 103.844 92.9727 104.009C93.1756 104.174 93.3466 104.448 93.5042 104.656C93.9059 105.188 94.2685 105.923 94.5836 106.392C94.7804 106.685 94.9555 107.212 95.4385 107.027C95.797 106.89 95.6651 106.363 95.6208 105.998C95.523 105.198 95.4169 104.546 95.3839 103.907C95.3675 103.578 95.351 103.243 95.4499 102.929C95.5487 102.614 95.7867 102.324 96.1091 102.259C96.5623 102.167 96.8414 102.585 96.9825 103.025C97.1236 103.466 97.1082 103.916 97.0793 104.378C97.0453 104.915 96.9217 105.744 96.9537 106.322C96.9743 106.686 97.0968 106.952 97.4336 106.986C97.8426 107.027 97.9764 106.693 98.2072 106.365C98.716 105.642 99.3649 103.467 99.9736 104.138C100.16 104.344 99.2712 107.372 98.4523 108.986C98.1165 109.647 97.7478 110.345 97.103 110.71C96.4098 111.104 95.556 111.024 94.7639 110.934C90.8901 110.491 87.3664 109.978 83.644 109.242C83.5359 109.221 83.2928 109.181 83.0054 109.107C82.9632 109.295 82.9127 109.442 82.8746 109.631C82.8488 109.758 82.8282 109.907 82.8025 110.034C82.8138 110.043 82.922 110.061 82.9364 110.065C83.3206 110.164 83.8335 110.238 84.1209 110.289C87.7486 110.915 91.2227 111.593 94.8504 112.219C95.4962 112.33 96.1709 112.441 96.7971 112.248C97.4614 112.044 97.9806 111.525 98.4121 110.979C99.4627 109.65 100.155 108.072 100.7 106.468C100.934 105.79 101.144 105.078 101.081 104.36Z" fill="black"/>
<path d="M109.111 45.6606C108.097 47.7505 107.369 48.7568 105.205 49.6787C104.885 49.8146 103.694 50.1751 103.352 50.1133C103.01 50.0515 101.957 50.1514 101.833 49.828C101.682 50.4223 101.531 51.0166 101.38 51.611C103.291 51.7438 105.239 51.2649 106.87 50.2627C108.502 49.2605 109.913 47.5342 110.659 45.7698C110.056 45.9624 109.53 45.8234 109.111 45.6606Z" fill="black"/>
<path d="M122.235 50.5861C120.292 63.1562 113.946 74.2493 104.687 82.9683C102.025 85.4743 99.2153 87.7145 95.1685 89.1153C95.014 89.7828 95.1674 90.5738 95.0129 91.2412C104.218 86.736 110.066 80.1873 115.235 72.1842C119.601 65.4233 122.573 58.3018 123.208 49.2512C122.883 49.7961 122.454 50.444 122.235 50.5861Z" fill="black"/>
<path d="M109.14 36.2806C109.159 35.9994 109.162 35.6461 109.169 35.4432C109.185 34.9416 109.219 34.6542 109.219 34.2083C108.409 35.3536 107.843 36.7328 107.518 38.0986C107.979 38.1501 108.442 38.2026 108.903 38.2541C109.019 37.5084 108.985 37.391 109.134 36.4197C109.132 36.4011 109.138 36.2992 109.14 36.2806Z" fill="black"/>
<path d="M114.932 33.3934C114.299 32.9103 113.519 32.6487 112.73 32.5477C112.091 32.4664 111.419 32.4901 110.835 32.762C110.718 32.8166 110.607 32.8815 110.5 32.9536C110.505 33.0906 110.483 33.2275 110.478 33.3656C110.471 33.5736 110.477 33.7271 110.449 33.9897C110.431 34.1659 110.431 34.3441 110.412 34.5212C110.844 34.0866 111.353 33.7662 111.954 33.6766C112.544 33.588 113.157 33.7261 113.683 34.0083C114.17 34.2689 114.597 34.6654 114.815 35.1712C115.078 35.7789 115.014 36.4834 114.811 37.1137C114.608 37.7441 114.348 38.3343 114.097 38.9471C113.814 39.6393 113.697 40.0029 113.371 40.7991C113.562 40.9958 113.891 41.2595 114.091 41.4964C114.445 40.1069 114.917 38.7473 115.502 37.4382C115.778 36.8202 116.086 36.1867 116.084 35.51C116.081 34.6778 115.593 33.8981 114.932 33.3934Z" fill="black"/>
<path d="M101.937 50.8108C102.284 49.6665 103.326 47.4932 104.349 46.8762C105.025 46.4694 105.847 46.4137 106.635 46.3674C108.477 46.2613 110.319 46.1542 112.161 46.0481C112.993 45.9997 113.925 46.0337 114.578 45.5156C115.251 44.982 115.584 43.9912 115.446 43.1445C115.308 42.2968 114.705 41.4903 114.079 40.9022C113.453 40.3141 112.704 39.8763 111.952 39.4623C109.652 38.1923 107.414 37.6217 104.846 37.0675C103.828 36.8481 102.313 37.3168 101.608 37.9461C100.902 38.5744 100.728 39.1625 100.636 40.1029C100.545 41.0433 100.486 42.0146 100.643 42.9457C101.008 45.1232 101.145 46.9421 100.907 49.1371C100.602 51.9428 99.5157 54.524 97.9398 57.1C96.4669 59.5071 93.9352 61.3539 91.6084 63.1904C91.7093 63.5488 92.0317 63.9361 92.1327 64.2945C95.5873 61.5661 98.771 58.9015 100.537 55.0637C102.451 50.9056 102.672 47.1965 101.958 43.0322C101.73 41.7046 101.36 40.0875 102.19 39.0266C102.806 38.2386 104.633 38.1243 105.625 38.2572C106.617 38.39 107.343 38.6774 108.318 39.1419C110.076 39.9793 111.997 40.6015 113.429 41.9229C114.434 42.851 114.379 43.1548 114.348 43.8058C114.323 44.329 114.015 44.4629 113.538 44.6813C113.061 44.8996 112.428 44.7318 111.905 44.7657C109.283 44.9378 107.034 44.8492 104.363 45.4569C103.762 45.5939 102.317 46.9638 102.123 47.5488" fill="black"/>
<path d="M116.126 35.7139C116.593 35.0547 117.571 35.1515 118.283 35.5305C119.016 35.9199 119.221 36.9715 119.191 37.778C119.161 38.5845 118.839 39.2828 118.603 40.0543C117.931 42.243 117.508 44.5008 117.2 46.7699C117.101 47.4981 117.01 48.2397 116.71 48.9113C116.411 49.5818 115.861 50.1833 115.145 50.3502C114.452 50.5119 113.703 50.2317 113.193 49.7363C112.682 49.2409 112.389 48.5559 112.246 47.8596C112.104 47.1633 112.103 46.4454 112.103 45.7337C112.458 45.7028 112.813 45.6729 113.167 45.642C113.072 46.6236 113.272 47.6258 113.602 48.5549C113.688 48.8 113.93 49.0544 114.147 49.1976C114.527 49.4479 114.873 49.1729 115.236 48.8979C116.047 48.2809 116.402 47.4528 116.678 46.4702C116.951 45.4886 116.979 44.5677 117.116 43.5573C117.283 42.3337 117.692 40.9669 118.032 39.7803C118.174 39.2849 118.332 38.7884 118.366 38.2744C118.4 37.7605 118.297 37.2156 117.967 36.8191C117.638 36.4225 117.051 36.2175 116.583 36.4297C116.172 36.6161 115.942 37.0518 115.756 37.4638C115.136 38.8286 114.647 40.252 114.299 41.7105C114.131 41.5612 113.757 41.3871 113.589 41.2378C113.954 39.1685 115.048 37.2372 116.126 35.7139Z" fill="black"/>
<path d="M118.914 37.2876C119.299 36.8623 119.76 36.4925 120.292 36.2793C120.826 36.0661 121.437 36.0187 121.975 36.2195C122.595 36.4503 123.064 36.9869 123.344 37.5863C123.624 38.1858 123.739 38.8471 123.828 39.5032C124.089 41.4231 124.245 43.3976 124.109 45.301C124.007 46.7224 123.697 48.3777 123.115 49.6785C122.533 50.9794 121.659 51.9167 120.253 52.1474C119.428 52.2824 118.519 52.0712 117.939 51.4687C117.399 50.9073 117.21 50.0988 117.122 49.3242C116.901 47.3631 117.19 45.3814 117.559 43.4419C117.914 41.5714 118.344 39.7164 118.845 37.8799C118.865 37.8068 118.886 37.7326 118.933 37.6729C119.035 37.5441 119.233 37.5297 119.383 37.5935C119.533 37.6584 119.648 37.7841 119.757 37.9056C119.002 40.1078 118.454 42.38 118.122 44.6841C117.873 46.4186 117.753 48.2334 118.346 49.8814C118.508 50.3326 118.744 50.7909 119.157 51.035C119.775 51.4007 120.597 51.1617 121.152 50.7054C121.822 50.1554 122.223 49.3489 122.54 48.5424C123.731 45.5142 123.399 42.5993 122.9 38.9964C122.814 38.3681 122.407 37.7903 121.896 37.4123C121.386 37.0353 120.591 36.9776 120.156 37.4401C119.999 37.608 119.828 37.7388 119.729 37.9829C119.642 38.1971 119.345 38.296 119.137 38.1961C118.837 38.054 118.885 37.6142 118.914 37.2876Z" fill="black"/>
<path d="M66.1485 37.2737C59.4968 33.232 52.6813 29.4622 45.7236 25.9746C48.2729 32.9683 50.7974 39.6407 53.6155 46.4799C55.6673 45.9958 57.4976 44.8648 59.2877 43.7504C61.9925 42.0684 64.8621 40.1948 66.1485 37.2737Z" fill="#321D6B"/>
<path d="M54.5528 43.8435L54.698 44.2957H55.1708L54.7887 44.5758L54.9349 45.028L54.5528 44.7489L54.1707 45.028L54.3169 44.5758L53.9348 44.2957H54.4066L54.5528 43.8435Z" fill="#FFD51A"/>
<path d="M53.4285 40.8977L53.5738 41.3499H54.0465L53.6644 41.63L53.8107 42.0822L53.4285 41.802L53.0464 42.0822L53.1927 41.63L52.8105 41.3499H53.2823L53.4285 40.8977Z" fill="#FFD51A"/>
<path d="M57.0506 41.6804L57.1969 42.1326H57.6686L57.2875 42.4128L57.4327 42.8649L57.0506 42.5858L56.6695 42.8649L56.8147 42.4128L56.4326 42.1326H56.9054L57.0506 41.6804Z" fill="#FFD51A"/>
<path d="M52.8104 37.9517L52.9556 38.4038H53.4284L53.0463 38.683L53.1925 39.1362L52.8104 38.856L52.4283 39.1362L52.5745 38.683L52.1924 38.4038H52.6641L52.8104 37.9517Z" fill="#FFD51A"/>
<path d="M55.9354 37.054L56.0806 37.5061H56.5534L56.1713 37.7853L56.3175 38.2385L55.9354 37.9583L55.5533 38.2385L55.6995 37.7853L55.3174 37.5061H55.7891L55.9354 37.054Z" fill="#FFD51A"/>
<path d="M58.5101 39.063L58.6553 39.5152H59.1281L58.746 39.7943L58.8922 40.2475L58.5101 39.9673L58.128 40.2475L58.2742 39.7943L57.8921 39.5152H58.3638L58.5101 39.063Z" fill="#FFD51A"/>
<path d="M61.1629 39.8245L61.3092 40.2766H61.7809L61.3988 40.5568L61.5451 41.009L61.1629 40.7298L60.7808 41.009L60.9271 40.5568L60.5449 40.2766H61.0177L61.1629 39.8245Z" fill="#FFD51A"/>
<path d="M59.4234 36.3936L59.5697 36.8468H60.0414L59.6593 37.1259L59.8056 37.5781L59.4234 37.2989L59.0413 37.5781L59.1876 37.1259L58.8054 36.8468H59.2782L59.4234 36.3936Z" fill="#FFD51A"/>
<path d="M62.649 36.6697L62.7942 37.1218H63.267L62.8849 37.401L63.0311 37.8542L62.649 37.574L62.2669 37.8542L62.4131 37.401L62.031 37.1218H62.5028L62.649 36.6697Z" fill="#FFD51A"/>
<path d="M58.2862 33.9639L58.4325 34.416H58.9042L58.5231 34.6952L58.6683 35.1484L58.2862 34.8682L57.9051 35.1484L58.0503 34.6952L57.6682 34.416H58.141L58.2862 33.9639Z" fill="#FFD51A"/>
<path d="M55.9354 34.1694L56.0806 34.6216H56.5534L56.1713 34.9007L56.3175 35.3539L55.9354 35.0738L55.5533 35.3539L55.6995 34.9007L55.3174 34.6216H55.7891L55.9354 34.1694Z" fill="#FFD51A"/>
<path d="M53.4285 35.1482L53.5738 35.6004H54.0465L53.6644 35.8795L53.8107 36.3327L53.4285 36.0525L53.0464 36.3327L53.1927 35.8795L52.8105 35.6004H53.2823L53.4285 35.1482Z" fill="#FFD51A"/>
<path d="M51.1043 35.8689L51.2506 36.3211H51.7223L51.3402 36.6002L51.4865 37.0534L51.1043 36.7732L50.7222 37.0534L50.8685 36.6002L50.4863 36.3211H50.9591L51.1043 35.8689Z" fill="#FFD51A"/>
<path d="M54.5528 32.2898L54.698 32.742H55.1708L54.7887 33.0211L54.9349 33.4743L54.5528 33.1941L54.1707 33.4743L54.3169 33.0211L53.9348 32.742H54.4066L54.5528 32.2898Z" fill="#FFD51A"/>
<path d="M51.4071 33.0625L51.5533 33.5147H52.0251L51.6429 33.7938L51.7892 34.247L51.4071 33.9668L51.0249 34.247L51.1712 33.7938L50.7891 33.5147H51.2618L51.4071 33.0625Z" fill="#FFD51A"/>
<path d="M52.3409 30.4453L52.4872 30.8975H52.9589L52.5768 31.1776L52.723 31.6298L52.3409 31.3496L51.9588 31.6298L52.105 31.1776L51.7229 30.8975H52.1957L52.3409 30.4453Z" fill="#FFD51A"/>
<path d="M49.0274 31.6978L49.1727 32.1499H49.6454L49.2633 32.4291L49.4096 32.8823L49.0274 32.6021L48.6453 32.8823L48.7916 32.4291L48.4094 32.1499H48.8812L49.0274 31.6978Z" fill="#FFD51A"/>
<path d="M49.3873 29.2253L49.5325 29.6775H50.0053L49.6232 29.9566L49.7694 30.4098L49.3873 30.1297L49.0052 30.4098L49.1514 29.9566L48.7693 29.6775H49.241L49.3873 29.2253Z" fill="#FFD51A"/>
<path d="M47.7913 28.0415L47.9366 28.4937H48.4093L48.0272 28.7728L48.1735 29.226L47.7913 28.9458L47.4092 29.226L47.5555 28.7728L47.1733 28.4937H47.6451L47.7913 28.0415Z" fill="#FFD51A"/>
<path d="M47.7913 28.0415L47.9366 28.4937H48.4093L48.0272 28.7728L48.1735 29.226L47.7913 28.9458L47.4092 29.226L47.5555 28.7728L47.1733 28.4937H47.6451L47.7913 28.0415Z" fill="#FFD51A"/>
<path d="M66.1837 37.2625C62.6775 41.0735 58.3278 44.1037 53.5476 46.0659C53.5898 46.3615 53.631 46.6571 53.6733 46.9527C54.5632 46.0205 55.9609 45.8424 57.131 45.3016C58.2382 44.7897 59.3486 43.7669 60.4362 43.2158C61.937 42.4557 62.6693 41.5864 63.8981 40.7088C65.1269 39.8313 66.2763 38.7735 66.9397 37.417C66.6688 37.3891 66.4 37.3613 66.1837 37.2625Z" fill="black"/>
<path d="M52.8365 45.8382C52.9518 46.105 53.2474 46.827 53.3628 47.0938C53.4874 47.0588 53.7408 46.723 53.8644 46.688C50.6868 39.341 48.3446 32.8293 45.7233 25.9747C52.7149 29.8578 59.6757 33.7357 66.6673 37.6188C66.5694 37.4262 67.1565 37.0935 67.2925 37.2614C59.9033 33.5359 55.5927 30.0524 45.2031 25.3711C47.0705 32.1475 49.3097 37.6817 52.8365 45.8382Z" fill="black"/>
<path d="M37.2432 23.5682C37.5275 24.3036 37.8118 25.039 38.0961 25.7744C38.5163 25.2749 39.2177 25.177 39.8707 25.177C40.6134 25.177 41.219 25.4675 41.6413 25.966C41.9956 26.3842 42.1285 27.1011 42.181 27.646C42.2542 28.3937 41.9225 29.1436 41.4106 29.6926C40.8977 30.2416 40.2189 30.6113 39.5185 30.8802C39.2548 30.9811 38.9736 31.0707 38.6955 31.0254C38.4174 30.9801 38.1496 30.7545 38.1486 30.4723C38.1476 30.1643 38.438 29.9439 38.7089 29.7966C39.192 29.5329 39.7132 29.331 40.1561 29.0035C40.599 28.676 40.9667 28.1836 40.9656 27.6336C40.9646 27.0774 40.5526 26.5552 40.018 26.4007C39.4845 26.2462 38.8706 26.4563 38.5225 26.8889C38.3515 27.1001 38.2042 27.3823 37.9354 27.4224C37.7562 27.4492 37.5769 27.3503 37.4595 27.2123C37.3421 27.0743 37.2751 26.9013 37.2113 26.7323C36.8611 25.8177 36.5109 24.9031 36.1607 23.9884C36.0618 23.7309 35.9619 23.4539 36.0237 23.185C36.0968 22.8637 36.5335 22.5876 36.8024 22.3971C37.4956 21.9047 38.0672 21.5102 38.8191 21.1127C38.9334 21.0519 39.1106 20.9994 39.2363 21.0272C39.4835 21.0828 39.5751 21.3599 39.5587 21.5947C39.5411 21.8295 39.4423 22.0046 39.2486 22.1406C38.4978 22.6638 38.0858 22.978 37.2432 23.5682Z" fill="#D14970"/>
<path d="M73.4138 22.0325C73.2449 22.1077 73.1295 22.29 73.1337 22.4744C73.1378 22.6588 73.2624 22.8359 73.4344 22.9029C73.6116 22.9719 73.8093 22.9286 73.9947 22.8843C74.9331 22.6608 75.8714 22.4363 76.8097 22.2128C76.5605 23.0399 76.3122 23.8659 76.063 24.693C76.0197 24.8362 75.9651 25.1153 75.9651 25.1153C75.9651 25.1153 75.5892 25.2297 75.4378 25.2616C75.0701 25.3368 74.7034 25.413 74.3357 25.4882C74.1297 25.5304 73.9206 25.5737 73.7331 25.6705C73.5456 25.7673 73.3798 25.9249 73.3221 26.1268C73.2645 26.3297 73.3396 26.5759 73.5261 26.6737C73.6765 26.753 73.8577 26.7252 74.0256 26.6964C74.5242 26.6088 75.0227 26.5213 75.5212 26.4337C75.4213 26.7129 75.2678 26.9714 75.1669 27.2505C75.0649 27.5296 75.0185 27.8459 75.1349 28.1188C75.2513 28.3918 75.5737 28.5895 75.8529 28.4896C76.0795 28.4082 76.2072 28.1713 76.3019 27.9489C76.4513 27.5987 76.5677 27.2268 76.682 26.8632C76.785 26.5357 76.9549 26.1134 76.9549 26.1134C76.9549 26.1134 77.4638 25.9867 77.7099 25.893C78.02 25.7745 78.1848 25.7096 78.4155 25.585C78.6462 25.4604 78.8347 25.2091 78.7914 24.9505C78.7441 24.6745 78.5216 24.522 78.2414 24.5241C77.9613 24.5262 77.6234 24.6395 77.3886 24.7919C77.5874 23.9906 77.7862 23.1892 77.986 22.3879C78.0395 22.1736 78.0931 21.9543 78.0818 21.7338C78.0704 21.5124 77.986 21.2848 77.8088 21.1529C77.5688 20.9737 77.2361 21.0108 76.9405 21.0551C75.7035 21.2446 74.4932 21.5546 73.4138 22.0325Z" fill="#D14970"/>
<path d="M132.459 37.5304C132.322 37.7148 132.386 38.0052 132.574 38.1381C132.761 38.271 133.033 38.2483 133.218 38.1113C133.402 37.9743 133.499 37.7395 133.501 37.5098C133.503 37.2801 133.418 37.0555 133.293 36.864C132.833 36.1574 131.859 35.905 131.046 36.1275C130.234 36.35 129.576 36.9649 129.109 37.6674C128.351 38.8096 128.026 40.2331 128.216 41.5917C128.345 42.5135 128.739 43.4477 129.5 43.9844C130.31 44.556 131.416 44.5818 132.348 44.246C132.762 44.0977 133.162 43.8762 133.444 43.5394C133.962 42.9204 133.984 41.9584 133.549 41.2775C133.115 40.5967 132.282 40.2146 131.476 40.2568C130.669 40.299 129.908 40.7388 129.46 41.4145C129.652 41.7039 129.875 41.9717 130.126 42.2107C130.169 42.2519 129.989 42.4497 130.048 42.4476C130.123 42.4455 130.407 42.221 130.451 42.1613C130.784 41.7153 131.361 41.465 131.914 41.5247C132.152 41.5505 132.406 41.6494 132.512 41.8646C132.598 42.0387 132.607 42.323 132.556 42.5104C132.484 42.7793 132.328 42.976 132.103 43.1418C131.788 43.3756 131.443 43.3499 131.003 43.284C130.838 43.2592 130.719 43.2366 130.58 43.147C130.44 43.0574 130.367 42.7618 130.355 42.5959C130.341 42.3817 130.53 42.05 130.586 42.0006C130.813 41.8018 130.152 42.1139 130.06 42.014C129.587 41.5051 129.41 41.7833 129.41 40.3248C129.41 39.6306 129.653 38.8364 130.063 38.2751C130.285 37.9702 130.55 37.6911 130.871 37.4933C131.193 37.2966 131.576 37.1864 131.951 37.2317C132.07 37.2461 132.192 37.278 132.289 37.3501C132.388 37.4264 132.454 37.5458 132.459 37.5304Z" fill="#6CA328"/>
<path d="M104.165 15.7924C104.496 15.4432 104.834 15.0848 105.031 14.646C105.227 14.2072 105.263 13.6655 104.999 13.2638C104.745 12.8796 104.254 12.6942 103.796 12.7354C103.337 12.7755 102.915 13.0155 102.578 13.3287C102.172 13.7056 101.873 14.1949 101.722 14.7284C101.649 14.9859 101.611 15.2609 101.678 15.5195C101.745 15.778 101.936 16.017 102.204 16.0818C102.458 15.8161 103.407 15.1507 103.078 15.2527C102.979 15.2836 102.769 15.2033 102.731 15.1075C102.693 15.0117 102.697 14.9025 102.716 14.8016C102.785 14.4369 103.041 14.1115 103.379 13.958C103.597 13.8581 103.904 13.854 104.03 14.0589C104.112 14.1928 104.084 14.3679 104.025 14.5142C103.855 14.9365 103.311 15.2496 102.857 15.296C102.606 15.5648 102.405 15.7965 102.154 16.0654C102.831 16.2487 103.749 16.2302 104.165 15.7924Z" fill="#EA681A"/>
<path d="M102.223 16.1361L102.238 16.093" stroke="#EA681A" stroke-width="0.103" stroke-miterlimit="10"/>
<path d="M103.543 16.774C103.194 16.7276 102.937 16.8625 102.76 16.9851C102.583 17.1077 102.405 17.2395 102.287 17.4208C102.17 17.6021 102.125 17.8431 102.224 18.0347C102.309 18.1984 102.483 18.2963 102.658 18.3519C103.113 18.4951 103.636 18.3911 104.001 18.0862C104.138 17.9718 104.258 17.8225 104.283 17.6453C104.311 17.4435 104.208 17.2406 104.062 17.0984C103.915 16.9563 103.731 16.8028 103.538 16.774C103.401 16.7534 103.274 16.6359 103.266 16.4979C103.26 16.398 103.33 16.3105 103.4 16.2384C103.624 16.0087 103.89 15.8212 104.182 15.6863C104.9 15.916 105.444 16.6102 105.496 17.3631C105.548 18.115 105.106 18.8783 104.426 19.2058C103.76 19.5261 102.976 19.4345 102.255 19.2758C101.843 19.1852 101.408 19.0595 101.136 18.7371C100.849 18.3972 100.807 17.8998 100.931 17.4723C101.055 17.0449 101.219 16.674 101.5 16.329C101.607 16.1972 101.828 16.0612 101.99 16.0066C102.168 15.9458 102.363 15.9963 102.549 16.0262C103.085 16.1117 103.648 16.0159 104.125 15.7563C103.922 15.8573 103.717 15.9592 103.543 16.1034C103.37 16.2476 103.509 16.6359 103.543 16.774Z" fill="#EA681A"/>
<path d="M25.0167 18.825C25.1835 18.3739 25.3525 17.9114 25.3617 17.4304C25.371 16.9494 25.1897 16.4375 24.788 16.1718C24.4038 15.9184 23.8796 15.941 23.4748 16.1584C23.07 16.3757 22.7754 16.7619 22.589 17.1822C22.3644 17.6879 22.281 18.2565 22.3521 18.8055C22.3861 19.0702 22.4592 19.339 22.623 19.5502C22.7867 19.7613 23.0556 19.9055 23.3285 19.8602C23.4562 19.5162 24.0691 18.5315 23.8054 18.754C23.7261 18.8209 23.5026 18.8302 23.4284 18.7571C23.3553 18.6839 23.3172 18.582 23.2945 18.481C23.2142 18.1185 23.3213 17.7198 23.5716 17.4448C23.7333 17.2666 24.0135 17.142 24.2102 17.2811C24.339 17.3717 24.3812 17.5437 24.3853 17.7013C24.3956 18.1566 24.0176 18.6592 23.619 18.8796C23.4933 19.2257 23.4006 19.5182 23.275 19.8643C23.9681 19.7706 24.8066 19.3915 25.0167 18.825Z" fill="#173E8A"/>
<path d="M23.3659 19.9053L23.3628 19.8601" stroke="#EA681A" stroke-width="0.103" stroke-miterlimit="10"/>
<path d="M24.8303 19.9733C24.4914 20.0681 24.3081 20.2936 24.1938 20.4759C24.0784 20.6582 23.9672 20.8498 23.9311 21.062C23.8951 21.2742 23.9476 21.5152 24.1145 21.6512C24.2566 21.7676 24.4554 21.7902 24.6387 21.7717C25.1125 21.7243 25.5534 21.4235 25.7697 20.9992C25.851 20.8406 25.9015 20.6552 25.8552 20.4831C25.8016 20.2864 25.6275 20.1402 25.437 20.067C25.2464 19.9939 25.0157 19.9259 24.8272 19.9743C24.6933 20.0093 24.5306 19.9517 24.4688 19.8281C24.4235 19.7385 24.4533 19.6303 24.4904 19.5366C24.6058 19.2368 24.7767 18.9598 24.992 18.7219C25.7429 18.6508 26.5164 19.0751 26.8604 19.7457C27.2045 20.4162 27.0973 21.2927 26.6019 21.8603C26.1168 22.4165 25.3587 22.641 24.6336 22.779C24.2195 22.8583 23.7704 22.9129 23.3935 22.7244C22.9959 22.5256 22.7621 22.0838 22.7075 21.6419C22.6529 21.2 22.6591 20.7952 22.7806 20.3668C22.827 20.203 22.9773 19.9908 23.104 19.8775C23.2441 19.7518 23.4429 19.722 23.6262 19.6756C24.1526 19.5438 24.6325 19.2338 24.9683 18.8073C24.821 18.9793 24.6737 19.1544 24.5697 19.3553C24.4636 19.5572 24.7448 19.859 24.8303 19.9733Z" fill="#173E8A"/>
<path d="M86.0886 5.74494C86.2009 5.97875 86.4192 6.20638 86.6767 6.17342C86.892 6.14561 87.0455 5.94167 87.1104 5.73464C87.1753 5.52761 87.1784 5.30513 87.236 5.09501C87.2937 4.88592 87.4297 4.67374 87.6419 4.62533C87.852 4.57692 88.0734 4.71082 88.1826 4.89725C88.2918 5.08368 88.3093 5.31028 88.3 5.52555C88.2475 6.73889 87.4451 7.79567 87.2216 8.98944C87.1856 9.18205 87.165 9.38393 87.2185 9.57242C87.2721 9.76091 87.4122 9.93498 87.6027 9.9803C87.8149 10.0308 88.0312 9.91438 88.2001 9.77636C88.369 9.63834 88.5225 9.47148 88.7244 9.38908C89.1652 9.20986 89.6545 9.49002 90.1314 9.49002C90.7288 9.49002 91.2273 9.05639 91.664 8.64851C91.7917 8.52903 91.9215 8.40749 92.006 8.25402C92.0904 8.10055 92.1224 7.90794 92.0461 7.75035C91.9411 7.53199 91.6589 7.44856 91.4209 7.49491C91.183 7.54126 90.978 7.68649 90.7803 7.82657C90.5825 7.96562 90.3724 8.10673 90.1324 8.14175C89.8687 8.17986 89.6061 8.08407 89.3434 8.03978C89.0808 7.99549 88.7697 8.02124 88.608 8.23342C89.1724 7.52787 89.5 6.63589 89.5257 5.73258C89.5402 5.23921 89.4619 4.73348 89.2239 4.30088C88.985 3.86931 88.5709 3.51911 88.0848 3.43465C87.5049 3.33268 86.9116 3.61696 86.4903 4.02793C86.2586 4.2535 86.0618 4.52645 85.9805 4.8406C85.8991 5.15475 85.9702 5.49877 86.0886 5.74494Z" fill="#2A54AD"/>
<path d="M61.4484 7.49487C61.4021 7.70087 61.3825 7.77812 61.3197 8.10669C61.2795 8.31372 61.2816 8.56916 61.4577 8.68452C61.5545 8.74838 61.6534 8.74837 61.7687 8.74632C62.1117 8.74013 62.4547 8.73292 62.7977 8.72674C62.8966 8.72468 63.0027 8.72057 63.081 8.65877C63.1582 8.598 63.1871 8.49706 63.2118 8.4023C63.528 7.18175 63.7505 5.93751 63.8772 4.68297C63.9111 4.34822 63.9935 3.94034 64.3149 3.84146C64.5889 3.757 64.8814 3.97845 64.9792 4.24728C65.0771 4.51611 65.0338 4.81378 64.9885 5.09703C64.7825 6.39792 64.5755 7.69984 64.3695 9.00073C64.5837 9.07592 64.7331 9.30561 64.7135 9.53221C64.6939 9.75881 64.5075 9.95966 64.283 9.99674C64.1089 11.2492 63.9606 12.1309 63.7824 13.1073C63.7165 13.4699 63.5043 13.8829 63.1376 13.9149C62.8544 13.9396 62.6041 13.6934 62.5258 13.4194C62.4465 13.1454 62.4969 12.854 62.5474 12.5738C62.704 11.7065 62.8595 10.8393 63.0161 9.97202C62.4578 10.0637 61.881 10.0359 61.3351 9.89167C60.8016 9.75056 60.2474 9.44259 60.0898 8.91317C59.993 8.58769 60.0641 8.2375 60.1362 7.90584C60.4328 6.53594 60.7284 5.16707 61.0251 3.79717C61.0683 3.59735 61.1147 3.39238 61.2352 3.22758C61.3567 3.06381 61.5751 2.95257 61.7677 3.02055C62.0602 3.12252 62.0963 3.51701 62.0736 3.82601C61.9789 5.11557 61.7605 6.11158 61.4484 7.49487Z" fill="#69A326"/>
<path d="M46.3864 8.47219C46.3236 8.38155 46.4019 8.15083 46.4575 8.05195C46.715 7.59566 47.1291 7.28769 47.6348 7.34228C47.9788 7.37936 48.2116 7.56682 48.3197 7.84286C48.4227 8.10654 48.3537 8.31666 48.2909 8.42584C48.1549 8.66171 48.0087 8.73278 47.9005 8.77501C47.4927 8.93466 47.1744 8.95217 46.7459 8.7987C46.6388 8.76059 46.4874 8.64214 46.3833 8.47013C46.1722 8.11993 45.9466 9.15714 45.7334 9.5063C45.8859 9.6814 46.1516 9.76999 46.3823 9.80089C46.613 9.83179 46.8098 9.81016 47.0405 9.77926C47.4793 9.71952 47.9191 9.64021 48.327 9.47129C48.7359 9.30134 49.1139 9.03457 49.3528 8.66171C49.5918 8.28885 49.6742 7.80372 49.5073 7.39378C49.36 7.03019 49.0315 6.7593 48.6627 6.62437C48.294 6.49047 47.8892 6.48223 47.5019 6.54094C46.7418 6.6563 46.0228 7.02812 45.4883 7.58123C45.5418 6.67483 45.7993 5.7808 46.235 4.98358C46.4379 5.04641 46.6748 4.98358 46.8201 4.82702C46.9653 4.67149 47.0116 4.43047 46.9344 4.23168C46.8417 3.99169 46.5852 3.83822 46.3277 3.8238C46.0702 3.80938 45.8179 3.91753 45.616 4.07718C45.4141 4.23683 45.2576 4.44592 45.1134 4.65913C44.7621 5.17825 44.4696 5.74578 44.3254 6.35554C44.1812 6.9653 44.1925 7.62347 44.4294 8.20336C44.6663 8.78325 45.2555 9.31987 45.994 9.69273" fill="#EA681A"/>
<path d="M8.63296 61.0168C8.84823 61.0951 9.09234 61.1002 9.2489 60.9313C9.40546 60.7624 9.46314 60.5286 9.51052 60.304C9.69077 59.4502 9.80613 58.5819 9.83703 57.6827C10.1007 58.861 10.6497 59.9528 11.1935 61.0312C11.2832 61.2094 11.3769 61.3927 11.5252 61.5277C11.6735 61.6626 11.8898 61.7398 12.0773 61.6698C12.2647 61.5998 12.377 61.3979 12.3986 61.2001C12.4203 61.0013 12.3976 60.7902 12.309 60.611C11.5705 59.1144 11.0514 57.4303 10.2377 55.9255C10.0832 55.6402 9.8772 55.3209 9.55378 55.2941C9.27774 55.2714 9.02951 55.4888 8.92033 55.7432C8.81218 55.9976 8.81218 56.2829 8.80806 56.5589C8.78849 57.7836 8.64429 59.0062 8.37855 60.2021C8.3425 60.3658 8.30336 60.5347 8.33838 60.6995C8.3734 60.8633 8.51245 60.9725 8.63296 61.0168Z" fill="#A32A3F"/>
<path d="M87.5732 30.5657C87.6814 30.9334 88.2489 31.0498 88.4528 30.7954C88.7289 30.4493 88.7855 30.3576 88.9493 30.0795C89.1151 29.7994 89.2387 29.5233 89.4035 29.2432C89.4931 30.1424 89.4962 30.987 89.6415 31.8079C89.6971 32.1251 89.693 32.3816 89.9124 32.6175C90.1318 32.8533 90.5479 32.9357 90.7714 32.7029C90.9393 32.5289 90.9588 32.2559 90.93 32.0159C90.7312 30.3906 90.5983 29.1062 90.3614 27.1667C90.3244 26.8618 90.1348 26.5302 89.8331 26.4725C89.6446 26.4364 89.4499 26.5322 89.3191 26.6723C89.1872 26.8124 89.1069 26.9906 89.0286 27.1657C88.5466 28.242 88.1006 29.0197 87.6196 30.096C87.5784 30.1887 87.5269 30.4081 87.5732 30.5657Z" fill="#6A2584"/>
<path d="M24.7492 42.5443C24.8738 42.535 24.9995 42.5154 25.0777 42.4176C25.155 42.3197 25.2322 42.2074 25.2456 42.0828C25.3095 41.4782 26.2087 41.1084 26.8359 40.8139C27.0028 40.7356 27.2119 40.6594 27.3602 40.7706C27.4612 40.8458 27.4931 40.9859 27.4725 41.1095C27.4519 41.2331 27.387 41.3443 27.3242 41.4525C26.9575 42.0766 26.5918 42.6998 26.2252 43.324C26.1046 43.5279 25.9821 43.7401 25.9512 43.9749C25.9203 44.2098 26.1067 44.3735 26.3148 44.4889C26.5939 44.6434 26.8298 44.5703 27.1079 44.4137C27.6342 44.1191 28.2728 43.8153 28.8764 43.7916C29.2451 43.7772 29.311 43.7864 29.4552 43.9986C29.6005 44.2118 29.4707 44.3169 29.3121 44.5208C28.8712 45.0873 28.3758 45.6106 27.835 46.0802C27.593 46.2914 27.3334 46.5015 27.1964 46.792C27.0595 47.0824 27.0914 47.4831 27.3592 47.6613C27.5559 47.7921 27.8247 47.7674 28.0349 47.6592C28.245 47.5511 28.4098 47.3739 28.5694 47.1999C29.0072 46.723 29.446 46.2461 29.8837 45.7702C30.1587 45.4705 30.4368 45.1666 30.6263 44.8072C30.8148 44.4467 30.9075 44.0182 30.7881 43.6299C30.6336 43.1283 30.1525 42.7832 29.6458 42.6462C29.139 42.5092 28.6817 42.5978 28.1585 42.6349C28.4561 42.1312 28.6827 41.5555 28.7373 40.9735C28.7919 40.3916 28.5221 39.7354 27.972 39.5367C27.6692 39.4275 27.3345 39.4697 27.0213 39.5459C26.0604 39.7797 25.1787 40.3277 24.5421 41.0837C24.3217 41.3464 24.1219 41.6605 24.1415 42.0025C24.1579 42.3434 24.4649 42.5659 24.7492 42.5443Z" fill="#661A91"/>
</g>
<defs>
<clipPath id="clip0">
<rect width="140" height="130" fill="white"/>
</clipPath>
</defs>
</svg>
