<svg width="825" height="119" viewBox="0 0 825 119" fill="none" xmlns="http://www.w3.org/2000/svg">
<path d="M2 2C29.6551 27.6567 70.3414 59.6549 107.61 73.4465C150.59 89.3512 199.142 91.192 245.247 88.7359C284.697 86.6342 320.31 70.5453 358.123 61.8367C379.434 56.9284 402.449 51.9523 424.756 53.9065C448.145 55.9555 469.24 65.1651 489.132 75.4132C516.998 89.7691 541.958 108.43 574.481 114.303C591.284 117.337 609.588 118.084 626.477 115.128C642.112 112.39 654.192 105.264 666.821 97.1736C696.763 77.9921 724.561 53.8908 757.559 38.6805C778.41 29.0691 818.704 18.6929 823 5.48485" stroke="#171664" stroke-width="3" stroke-linecap="round" stroke-dasharray="15 15"/>
</svg>
