<svg width="91" height="156" viewBox="0 0 91 156" fill="none" xmlns="http://www.w3.org/2000/svg">
<path d="M33.0275 155.633C41.6023 155.633 49.6639 152.294 55.7272 146.23C61.7905 140.167 65.1298 132.105 65.1298 123.53L65.1301 51.9639C65.1301 41.3433 56.4896 32.7027 45.8681 32.7024C35.2473 32.7027 26.6067 41.3439 26.607 51.9648L26.607 99.09C26.607 102.636 29.4815 105.51 33.0275 105.51C36.5732 105.511 39.448 102.636 39.448 99.09L39.448 51.9648C39.4474 48.4242 42.3281 45.544 45.8684 45.5437C49.409 45.5437 52.2895 48.4242 52.2895 51.9642L52.2886 123.53C52.2883 128.675 50.2849 133.512 46.6469 137.15C43.0088 140.788 38.1719 142.791 33.0272 142.791C22.4063 142.791 13.7655 134.151 13.7649 123.53L13.7658 45.5443C13.7664 27.8425 28.1679 13.4416 45.8684 13.4416C54.4433 13.4413 62.5051 16.7804 68.5684 22.8437C74.6318 28.907 77.9711 36.9691 77.9711 45.5443L77.9717 123.53C77.9717 127.076 80.8461 129.95 84.3922 129.95C87.9376 129.95 90.8126 127.076 90.8126 123.53L90.812 45.5443C90.8123 33.539 86.1373 22.2526 77.6484 13.7637C69.1595 5.27478 57.8731 0.599798 45.8681 0.600403C33.4757 0.600403 22.2417 5.63889 14.1036 13.7788C5.96697 21.9166 0.92485 33.1543 0.924547 45.544L0.924242 123.531C0.924848 141.232 15.326 155.632 33.0275 155.633Z" fill="#E2CF67"/>
</svg>
