<svg width="127" height="122" viewBox="0 0 127 122" fill="none" xmlns="http://www.w3.org/2000/svg">
<path d="M44.6781 30.1042C41.9144 29.8688 36.715 28.9314 33.9241 28.5535C33.5781 28.5067 33.0344 28.486 32.8337 28.2957C32.6753 28.1457 32.5197 27.6498 32.4494 27.3976C32.2994 26.8538 32.5722 26.251 32.7466 25.6848C32.9219 25.1185 33.3962 24.6001 33.9559 24.0948C35.7672 22.4626 38.1859 21.5232 40.5344 20.8267C42.8837 20.1301 45.4459 20.0317 47.7719 20.8013C50.0978 21.571 51.5697 22.5648 52.8615 24.751C52.9975 24.9817 53.3959 25.9079 53.5722 26.1095C53.7484 26.3101 54.1075 26.701 54.2387 26.4676C54.7328 25.5835 54.9259 24.5879 55.4406 23.8313C56.4428 22.3567 57.8359 21.4304 59.5075 20.9045C61.179 20.3776 63.1506 20.671 64.6328 21.4998C66.0081 22.2685 66.8922 23.1235 66.8922 24.6976C66.8922 24.976 66.9869 25.6435 66.9672 25.7401C66.9203 25.9679 66.9325 26.3954 67.164 26.3701C67.285 26.357 67.2981 26.4207 67.3778 26.3288C67.8531 25.7851 67.9169 24.631 67.765 23.9251C67.5437 22.8976 67.9047 22.6623 68.77 22.2676C70.0478 21.6845 71.3528 21.1154 72.7581 21.1267C74.1634 21.1379 75.5472 21.4857 76.869 21.9629C77.679 22.2554 78.4862 22.606 79.1331 23.1751C79.78 23.7442 80.2506 24.8467 80.2206 25.7073C80.1718 27.1351 78.6822 27.9048 77.8309 29.0514C77.6715 29.266 77.7109 29.5154 77.8581 29.7385C78.0334 30.0048 78.3606 29.9082 78.6175 29.7198C79.3881 29.1526 80.1512 28.1842 80.9425 27.646C81.9578 26.956 82.9656 27.2973 84.0484 27.8748C86.2525 29.0495 88.1781 30.7445 89.5168 32.7938C83.5243 32.8979 77.545 32.6635 71.605 32.2604C61.7031 31.5892 54.2528 30.9188 44.6781 30.1042Z" fill="#FDA79E"/>
<path d="M89.795 38.2575C86.8362 38.6081 82.4684 38.4159 78.6603 38.2059C72.8796 37.8872 67.2453 36.8906 61.2743 37.1231C56.8887 36.7978 52.2218 36.1922 47.7096 36.0103L21.8149 32.28C21.7399 32.2687 21.6799 32.3391 21.7015 32.4122C22.0887 33.7556 22.8115 34.7634 24.1765 35.94C24.4165 36.1472 23.9159 36.6712 23.6299 36.5334C22.9596 36.2091 22.5921 35.7084 21.844 35.6906C21.1062 35.6728 20.1115 35.4319 19.4552 35.7675C17.433 36.8025 15.7268 37.9041 14.2127 39.6225C12.2074 41.8987 10.7721 45.8334 10.6305 48.8644C10.5921 49.6791 10.3118 51.4125 10.8237 52.9181C11.3355 54.4228 12.5008 55.7466 13.5724 56.0203C15.2337 56.445 13.5293 57.4547 14.3768 57.5409C15.1249 57.6178 15.244 57.6197 15.2843 57.9825C16.4496 56.3447 17.5699 54.9047 18.2449 54.5494C18.3687 54.4847 18.3077 54.2803 18.2252 54.1678C18.0855 53.9747 17.854 53.5275 17.5483 52.4925C17.209 51.3441 17.299 50.7647 17.464 49.3191C17.5971 48.1462 17.7359 47.6231 18.7962 46.0509C19.2659 45.3544 20.3412 45.9047 20.0562 46.695C19.713 47.6456 19.1712 48.8016 18.9415 49.8028C18.4971 51.735 19.7674 55.0603 21.7268 55.3641C23.3927 55.6228 23.8043 56.0091 25.2687 55.1728C26.6862 54.3628 27.499 56.0775 26.493 56.5209C25.4843 56.9653 25.3146 57.0525 24.3837 57.3319C23.5455 57.5831 20.9955 57.5269 20.2915 56.6081C20.0918 56.3475 19.7018 56.5303 19.4534 56.7459C18.7034 57.3947 17.6805 59.1394 16.9596 60.4753C16.3024 61.6931 16.0259 62.6034 15.409 63.8419C14.8971 64.8694 14.5746 65.4731 15.2946 66.5756C15.9255 67.5422 16.5284 68.3391 17.2174 68.9222C17.9515 69.5428 18.1193 69.5137 19.233 70.0912C20.4359 70.7156 21.7146 70.6425 22.744 69.9234C23.4687 69.4172 23.0684 69.3834 24.3434 67.7756C24.8346 67.1559 25.1805 67.4344 25.369 67.6247C25.6118 67.8684 25.4815 68.4637 25.4684 68.4909C25.3324 68.7816 24.4521 70.3219 24.0059 70.6866C23.9824 70.7062 23.7405 70.9856 22.8096 71.6869C22.6737 73.935 24.4427 77.3325 26.3337 78.4294C27.4577 79.0809 29.2559 79.5262 30.5627 79.6481C32.8887 79.8637 34.8368 79.4803 36.9799 78.4706C37.7787 78.0947 39.2965 76.995 39.9574 76.41C40.2227 76.1747 40.7065 75.6544 41.1059 75.0881C41.6993 74.2462 42.0977 73.2131 42.0977 73.2131C42.0977 73.2131 41.0543 72.9722 40.5124 72.6403C39.0443 71.7431 39.2309 72.0656 38.1481 70.9837C37.2546 70.0903 37.2527 70.32 36.6106 68.9887C36.0649 67.8572 36.0565 68.2847 35.9196 66.9262C35.8737 66.4669 36.0209 65.9137 36.4024 65.8706C37.0043 65.8022 37.1899 65.8547 37.2705 66.5297C37.4421 67.9744 38.3665 68.9325 39.349 69.915C40.0202 70.5862 41.2962 71.459 42.2168 71.6991C43.4796 72.0281 45.0124 71.8837 46.3681 71.5397C46.9831 71.3841 48.3227 70.4287 48.6912 70.9453C49.0277 71.4169 48.9499 71.774 48.4109 72.1622C47.674 72.6919 48.1906 72.3947 47.3852 72.7837C46.5012 73.2112 46.2227 73.3041 44.4246 73.4053C43.1365 73.4775 42.619 73.4006 42.619 73.4006C42.619 73.4006 42.4259 74.1778 42.0781 74.8069C41.6365 75.6047 41.8493 75.4265 40.984 76.6162C40.7534 76.934 38.3946 78.8522 38.3946 78.8522C38.3946 78.8522 39.7502 79.6847 40.1712 79.8422C40.9596 80.1375 42.9377 80.7047 43.7477 80.9353C45.6106 81.4659 47.5259 80.8734 49.3174 80.0025C51.109 79.1315 52.2021 78.39 52.9962 76.4091C53.2596 75.7519 53.9777 74.3353 54.4024 74.9025C54.7999 75.4331 54.7006 75.5559 54.4924 76.1944C54.3284 76.6987 53.329 78.5287 53.329 78.5287C53.329 78.5287 54.6809 79.5891 54.8168 79.7016C56.4528 81.0591 58.3268 81.4753 60.0049 81.2981C60.9931 81.1931 62.059 80.7516 62.9281 80.2697C63.7971 79.7878 65.2381 78.4425 65.4284 77.4778C65.6328 76.4447 65.2615 76.2403 64.8799 75.1997C64.5349 74.2603 64.0821 73.7437 64.624 73.5694C65.5765 73.2619 65.7171 74.1244 66.214 74.8266C66.7774 75.6216 67.1599 76.3528 66.8853 77.3156C66.8018 77.61 66.6199 78.6122 66.4484 78.8831C66.1812 79.3059 65.1734 80.3222 65.1734 80.3222C65.1734 80.3222 66.4653 81.1884 66.8253 81.3731C67.8574 81.9009 69.0771 81.9525 69.9987 81.9525C72.2037 81.9525 74.6018 81.1847 76.0428 80.009C77.1199 79.1297 78.3612 77.8078 79.0146 76.5806C79.2593 76.1203 79.4421 75.0816 79.4337 74.5969C79.4187 73.7897 78.5628 73.0537 78.3237 72.3281C78.1578 71.8275 77.6609 69.8269 77.6609 69.8269C77.6609 69.8269 76.0915 71.5509 75.6218 71.7328C74.7321 72.0759 74.3524 72.1725 73.2959 72.0975C72.3181 72.0281 71.1893 71.2828 72.1287 71.0062C73.234 70.68 72.7099 70.8731 73.9493 70.6903C74.9121 70.5478 75.7512 70.0575 76.4628 69.3937C76.8668 69.0169 77.0824 68.2031 77.2812 67.7578C77.5306 67.1981 77.6346 66.6787 77.8118 66.225C78.0096 65.7159 78.0049 65.1703 78.124 64.7962C78.274 64.3265 78.4624 63.3553 78.6968 63.7809C79.1946 64.6856 78.7521 65.8387 78.6931 67.2403C78.6406 68.49 78.6762 68.4787 78.7259 69.8972C78.7934 71.8416 80.6749 74.774 82.5321 75.3562C83.4378 75.6403 85.0146 75.3234 86.2212 74.8678C87.4878 74.3897 88.2387 73.6069 88.9709 72.9309C90.3996 71.61 91.6296 70.034 91.714 68.0906C91.7721 66.7462 92.0103 65.2819 91.6193 63.9947C91.1468 62.4422 90.2478 59.0428 89.5118 59.6447C88.6596 60.3412 87.0199 61.1719 86.1949 61.6453C85.1562 62.2425 82.234 63.1397 82.7506 62.3409C83.1781 61.6809 83.4903 61.83 84.5637 61.2056C86.4049 60.135 86.0946 60.3572 87.5749 59.3597C88.0765 59.0222 88.4281 58.485 88.6456 58.2066C89.2109 57.4819 89.5015 56.9231 89.7687 55.8891C90.064 54.7472 90.2309 53.64 89.5165 52.0369C88.999 50.8762 88.865 50.5312 87.6621 50.0728C86.6881 49.7016 86.8306 49.8328 85.8171 49.8328C85.5818 49.8328 84.2103 50.1656 84.2028 49.98C84.1803 49.4334 84.2 49.4053 84.6771 48.8944C84.8965 48.6591 86.0075 48.3328 86.495 48.2981C87.0115 48.2616 87.109 48.2428 87.6415 48.405C87.8928 48.4819 88.7843 48.7997 89.4218 49.3631C89.9187 49.8028 90.184 50.3709 90.4315 50.7506C91.0475 51.6928 90.7831 53.1187 91.2893 52.965C91.4946 52.9022 91.7375 52.905 93.2215 51.3084C93.4728 51.0384 93.874 50.5697 94.2603 49.9219C94.6915 49.1972 95.0562 48.2025 95.1518 47.9194C95.4518 47.0269 95.2803 45.0637 95.2803 44.49C95.2803 44.1562 95.2943 43.2619 94.9146 42.1678C94.6784 41.4862 94.2331 40.6134 93.8918 40.0744C93.2806 39.1097 91.3868 38.4797 91.2865 38.6981C90.6865 39.9956 89.6928 41.4487 88.0212 41.8922C87.0603 42.1472 86.6675 42.0937 86.2493 42.0956C85.82 42.0975 85.3662 42.1481 84.3425 41.9569C83.4443 41.7891 83.0346 41.3503 82.8368 41.1431C82.5762 40.8694 82.4703 40.2816 82.8865 40.2178C84.1128 40.0312 84.6818 40.8928 86.2053 40.8047C88.0793 40.6959 88.9681 39.6637 89.5109 39.1209C89.5325 39.1031 90.4175 38.1844 89.795 38.2575Z" fill="#FDA79E"/>
<path d="M94.9801 51.1833C95.5848 52.8859 95.8089 54.9624 95.252 56.6809C94.7233 58.3102 93.4811 59.5918 92.2783 60.8105C91.9426 61.1499 91.0342 61.7021 90.557 61.689C90.3029 61.6824 90.5814 61.3787 90.3536 61.2643C89.6898 60.9315 88.2789 61.2502 87.6198 60.909C89.2698 59.4821 91.0886 56.7446 91.2864 54.5724C91.3079 54.3362 91.2339 53.9865 91.3914 53.8093C91.5395 53.6434 91.8658 53.6837 92.0795 53.6237C93.2617 53.2899 94.3904 52.2746 94.9801 51.1833Z" fill="#FDA79E"/>
<path d="M32.0969 24.364C31.7547 24.9631 31.4557 25.6212 31.315 26.2962C31.1754 26.9712 31.3675 27.6865 31.8325 28.1956C28.9075 27.8431 25.6216 27.4184 22.7341 26.8287C23.9575 25.6943 25.5588 24.6228 27.1479 24.2787C28.7519 23.9318 30.5725 23.8625 32.0969 24.364Z" fill="#FDA79E"/>
<path d="M19.9851 56.4354C18.4814 57.8351 17.4154 59.6164 16.5051 61.4257C13.4648 67.467 11.8064 73.902 11.8673 80.4889C11.8898 82.917 12.3417 85.5954 14.2251 87.1282C14.482 87.3373 14.7267 87.5839 14.8467 87.8923C14.9667 88.2007 14.8354 88.6432 14.5045 88.6367C14.3611 88.6339 13.9064 88.4557 13.7882 88.3742C13.0467 87.8623 12.9764 86.9089 12.1261 87.0739C11.4876 87.1976 11.9545 88.736 11.8007 89.3679C11.647 89.9998 11.1595 90.386 10.5201 90.2679C10.0598 90.1826 9.88449 89.3914 9.74762 88.9432C9.61074 88.4951 9.64168 88.016 9.67449 87.5482C9.99886 82.8579 10.3326 78.9429 10.3326 74.2414C10.3326 70.7511 11.677 66.3645 12.9285 63.027C14.1435 59.7889 15.7148 56.5161 18.322 54.2473C18.8123 54.9158 19.5182 55.8832 19.9851 56.4354Z" fill="#764550"/>
<path d="M47.8298 81.9419C48.1541 84.3541 48.1091 86.8535 48.0585 89.3106C47.9938 92.4288 47.6798 95.4503 47.3066 98.546C47.2485 99.0231 47.0657 99.8003 47.3844 100.161C47.6198 100.428 48.1429 100.145 48.4982 100.133C48.8535 100.12 49.3373 100.078 49.7385 100.101C50.5382 100.147 51.1673 100.16 51.9051 100.47C52.3223 100.644 52.7244 100.896 52.9157 101.331C52.9785 101.475 53.0085 101.632 52.9935 101.789C52.9354 102.396 52.3373 102.597 51.8057 102.738C49.8932 103.246 47.8513 103.018 45.9332 102.826C45.6163 102.794 45.2432 102.59 45.081 102.317C44.9357 102.072 45.0641 100.921 45.1035 100.639C45.4148 98.3838 45.7738 97.2531 46.0851 94.9985C46.3494 93.085 46.5969 90.9213 46.3907 88.9966C46.1845 87.0756 45.381 83.2141 45.381 83.2141L44.917 82.2344L45.5076 82.2438C45.5076 82.241 47.0601 82.091 47.8298 81.9419Z" fill="#764550"/>
<path d="M59.5352 82.408C58.7102 87.4761 58.1411 92.3155 57.6274 97.302C57.5917 97.648 57.5749 98.0483 57.827 98.2883C57.9845 98.4383 58.9605 98.533 59.1742 98.5742C60.3002 98.7927 60.677 98.9633 61.803 99.1817C62.1836 99.2558 62.7152 99.4274 63.0367 99.643C63.3583 99.8586 63.5467 100.11 63.4614 100.488C63.3414 101.018 62.3814 101.044 61.8452 101.132C60.3461 101.377 58.9661 101.402 57.5448 101.342C56.7011 101.306 55.6961 101.029 55.3539 100.257C55.0652 99.6064 55.3886 98.7149 55.607 98.037C57.1624 93.2089 57.5261 89.1008 57.6977 84.0308C57.707 83.7608 57.6892 83.1083 57.5749 82.1802" fill="#764550"/>
<path d="M110.81 42.7997C110.431 44.2603 109.893 45.5793 109.17 46.9022C108.958 47.2893 108.591 47.5968 108.193 47.7872C107.528 48.105 106.883 47.7609 106.313 47.294C105.356 46.5103 104.287 45.2109 103.152 44.0747C102.645 43.5675 101.558 42.8906 100.797 43.0322C100.07 43.1672 99.6335 44.0015 99.356 44.6859C98.9781 45.6178 98.8563 46.274 98.5685 47.2378C98.2806 48.2015 97.9291 49.3322 97.0956 49.8947C96.7553 50.1243 96.1385 50.295 96.236 50.6943C96.3241 51.0562 96.3907 51.2803 96.5397 51.6309C96.6288 51.84 96.7488 52.3875 96.9316 52.5225C97.21 52.7287 97.7153 52.5347 98.0772 52.5009C100.563 52.2693 102.193 51.9337 104.66 51.5775C106.396 51.3271 108.093 51.24 109.402 50.5303C110.216 50.0896 110.819 48.9478 111.223 48.1153C111.627 47.2828 111.976 46.469 112.283 45.3834C113.253 41.9587 113.171 38.4937 113.171 35.0287C113.171 33.1462 112.826 31.4259 113.188 29.789C113.431 28.6922 114.015 27.5803 114.436 27.0168C114.628 26.76 114.571 26.1712 114.571 26.1712L115.083 24.78C115.083 24.78 111.421 24.5803 111.464 25.8337C111.483 26.414 111.47 27.0197 111.572 27.57C112.218 31.0584 111.607 34.9884 111.253 38.9278C111.142 40.154 111.115 41.6259 110.81 42.7997Z" fill="#764550"/>
<path d="M114.925 23.588C115.033 23.4061 115.115 23.1474 115.153 22.9392C115.19 22.7311 115.146 22.4967 114.991 22.3533C114.877 22.2474 114.719 22.2033 114.567 22.1686C113.662 21.9661 112.722 21.9886 111.797 22.0692C111.525 22.0927 111.21 22.1489 111.08 22.3889C111.001 22.5333 111.014 22.7096 111.049 22.8708C111.085 23.0311 111.141 23.1896 111.146 23.3536C111.15 23.4914 111.116 23.6283 111.113 23.7661C111.11 23.9039 111.146 24.0549 111.256 24.1383C112.467 23.9461 113.702 23.8261 114.925 23.588Z" fill="#764550"/>
<path d="M35.051 46.1947C35.8451 46.4834 36.3673 46.3147 37.0798 46.2312C37.7923 46.1478 38.8282 45.8534 39.5463 45.8534C41.2788 45.8534 42.7076 47.0244 44.4354 46.8931C44.9969 46.85 45.6129 46.6484 45.8641 46.145C46.1622 45.5459 45.806 44.8306 45.3879 44.3075C44.1982 42.8206 42.4113 41.8268 40.5213 41.5972C38.6313 41.3675 36.6598 41.9028 35.1429 43.054C34.7548 43.3484 34.3891 43.6897 34.1576 44.1181C33.9251 44.5465 33.9823 44.84 34.1651 45.2918C34.3479 45.7437 34.6966 46.0662 35.051 46.1947Z" fill="#764550"/>
<path d="M64.8691 39.9646C66.1948 38.6221 67.692 38.3643 69.5641 38.6024C71.4354 38.8405 73.2166 39.8962 74.1635 41.5283C74.3932 41.923 74.6754 42.5483 74.6688 43.0049C74.6623 43.4615 74.277 43.844 73.8523 44.0127C73.332 44.218 72.386 43.9208 71.9098 43.6255C71.0538 43.0958 70.5738 42.539 69.6157 42.2305C68.6576 41.923 67.6554 41.9849 66.7807 42.4827C66.207 42.8099 65.5863 43.274 64.9291 43.2121C64.3404 43.1568 63.8079 42.6149 63.7732 42.0252C63.7376 41.4355 64.5054 40.333 64.8691 39.9646Z" fill="#764550"/>
<path d="M55.6584 65.0308C55.6762 64.9062 55.6978 64.774 55.7756 64.6746C55.8534 64.5752 56.01 64.5246 56.1093 64.6024C56.2218 64.6896 56.1965 64.8621 56.1581 64.999C56.1 65.2052 56.0372 65.4096 55.9687 65.613C55.9078 65.794 55.8384 65.9805 55.7006 66.1127C55.5628 66.2449 55.3359 66.304 55.1775 66.1971C55.019 66.0902 55.0237 65.7959 55.2056 65.7368C52.5272 66.5149 49.4409 65.6477 47.5593 63.588C46.8881 62.853 46.3565 61.9587 46.2037 60.9752C46.0509 59.9918 46.32 58.9146 47.0409 58.2283C46.5506 58.2283 46.1334 58.2762 45.6487 58.1899C45.4209 58.1496 45.3225 57.9602 45.344 57.7933C45.3797 57.5243 45.4781 57.4605 45.7153 57.484C46.6743 57.5787 47.5256 57.5318 48.5943 57.6865C48.7865 57.7146 48.8906 57.9227 48.8128 58.1008C48.7443 58.2574 48.7837 58.2499 48.614 58.2433C48.4237 58.2368 47.9784 58.1965 47.8003 58.2555C47.2659 58.4346 47.0718 58.9512 46.8647 59.4846C46.589 60.1962 46.7034 61.0174 47.0447 61.6999C47.3859 62.3815 48.3553 63.4887 48.9768 63.9312C50.2922 64.8668 51.1847 65.1762 52.8309 65.373C53.3184 65.4312 53.924 65.3468 54.4518 65.2605C54.8484 65.1959 55.3575 65.2699 55.6584 65.0308Z" fill="#764550"/>
<path d="M90.0777 32.8181C90.0777 32.8181 65.6259 31.8422 53.5555 30.809C51.6712 30.6431 49.694 30.3675 47.8115 30.1706C39.328 29.2818 30.9412 28.1775 22.3481 26.759C21.2971 28.214 20.1702 30.6965 21.1818 32.279C29.7609 33.5606 38.4927 35.0915 46.3621 36.09C57.4584 37.4981 68.3343 38.1028 80.3493 38.6915C81.6271 38.7544 88.4624 38.6372 89.6962 38.2987C90.9299 37.9593 90.6355 37.6987 90.6355 37.6987C90.6355 37.6987 90.733 36.06 90.6721 35.5453C90.5943 34.8872 90.0777 32.8181 90.0777 32.8181Z" fill="#B2BB21"/>
<path d="M90.6932 37.4187C90.456 37.5987 90.2094 37.8659 89.9066 38.2465C89.3816 38.9056 88.7338 39.9518 88.0091 40.2771C86.8663 40.7909 85.5182 40.8274 84.3491 40.3774C84.0004 40.2434 83.6544 40.0653 83.2804 40.0643C82.9072 40.0634 82.4966 40.324 82.4957 40.6971C82.4947 40.9784 82.716 41.2062 82.9372 41.3787C84.1691 42.3387 85.8847 42.5778 87.3838 42.1418C88.8829 41.7049 89.6619 41.2521 90.6041 40.0062C90.8066 39.739 91.1985 38.9253 91.3785 38.8025C91.7282 38.5634 92.2185 38.8465 92.5626 39.0668C94.7619 40.4759 95.2382 42.7231 95.2382 45.1212C95.2382 47.6712 94.2651 50.6459 92.2747 52.2406C92.1088 52.3737 91.3869 52.8837 91.1826 52.8256C90.9144 52.7496 90.8872 52.1328 90.8357 51.8581C90.5076 50.1143 89.0891 48.6724 87.3632 48.2609C86.3488 48.019 85.0129 48.4193 84.3416 49.2181C84.1794 49.4112 84.051 49.7309 84.1663 49.9549C84.2582 50.1331 84.6201 50.1181 84.8207 50.1087C85.0213 50.0993 85.2107 50.0215 85.4029 49.9624C86.2541 49.6981 87.2122 49.7993 87.9894 50.2371C88.7657 50.6749 89.3488 51.4428 89.5635 52.3081C89.7013 52.864 89.7266 53.5174 90.1757 53.8746C90.5994 54.2121 91.2201 54.1221 91.7282 53.9337C93.1926 53.3899 94.6185 52.2481 95.1801 51.0359C95.9582 49.3549 96.681 46.9099 96.5141 44.824C96.3472 42.7381 95.571 40.6624 94.2388 39.0499C93.9313 38.6787 93.5451 38.3703 93.1288 38.1265C92.7126 37.8828 92.2082 37.6896 91.7404 37.8059C91.5088 37.8631 91.4769 37.954 91.2379 37.97C90.9988 37.9859 90.7147 37.7581 90.6932 37.4187Z" fill="#D36B66"/>
<path d="M78.9818 77.8795C79.5247 77.8345 79.5743 75.397 80.1518 75.323C80.5297 75.2742 81.1081 75.6717 81.4325 75.8723C82.8284 76.7348 84.53 76.5333 86.164 76.0514C88.4703 75.3708 90.4025 73.7967 91.5884 71.7051C92.0712 70.8529 92.614 70.028 92.78 69.0755C93.019 67.7095 92.9478 66.7476 92.7284 65.3592C92.6525 64.8773 92.405 63.8236 92.2212 63.3351C92.1378 63.113 91.9193 62.8964 92 62.6517C92.0797 62.4098 92.4997 62.2505 92.6356 62.1614C92.8325 62.032 93.1334 61.8108 93.304 61.6392C93.7306 61.2126 94.0887 60.8686 94.129 60.8198C94.6034 60.2526 94.864 59.7755 94.9718 59.5692C95.0881 59.3461 95.1622 59.182 95.57 58.4526C96.1437 57.427 96.665 55.8951 96.7381 54.7233C96.7765 54.1139 96.6997 53.6208 96.62 53.0095C96.5965 52.8304 97.0962 52.6711 97.0053 52.4986C96.7559 52.027 96.3893 51.2236 96.2234 50.602C96.1915 50.4811 95.8418 50.6658 95.7312 50.6311C95.5897 50.587 95.5409 50.4623 95.4659 50.3029C95.3797 50.1211 95.1856 49.8379 95.2681 49.7104C95.2428 50.002 94.9615 50.7192 94.8968 51.0051C94.8668 51.1392 94.9175 51.2761 94.9653 51.4055C95.5822 53.093 95.674 54.7204 95.1378 56.4351C94.6006 58.1536 93.409 59.7961 91.9728 61.0383C91.7056 61.2698 91.3943 61.4414 91.0615 61.5633C90.7315 61.6842 90.3387 61.9073 90.4025 62.2486C90.4325 62.4079 90.454 62.5345 90.5543 62.663C90.7503 62.9133 91.1572 62.6564 91.2725 62.9526C91.3878 63.2498 91.7178 64.4236 91.7459 64.7405C91.8659 66.0708 91.8828 66.8048 91.5922 68.2776C91.3831 69.3379 91.055 70.5426 90.3528 71.4098C88.8472 73.2717 86.7218 74.917 84.5 75.3389C83.524 75.5245 82.3343 75.3201 81.5009 74.7801C80.6675 74.2401 80.0665 73.3055 79.6297 72.413C78.7559 70.6289 78.5459 69.4383 78.7737 67.4648C78.8956 66.4073 79.3859 64.5473 78.7503 63.7308C78.575 63.5058 78.109 63.6905 78.0893 64.2595C78.0547 65.2411 77.764 66.2123 77.4565 67.1123C77.2681 67.6645 77.1312 68.1886 76.8715 68.6723C76.1872 69.9436 74.8156 70.5998 73.3821 70.7133C72.8356 70.7564 72.2768 70.4208 71.764 71.0001C71.6675 71.1089 71.629 71.2608 71.6768 71.3976C71.7865 71.7155 72.1634 71.9592 72.4934 72.0173C73.2237 72.1458 73.984 72.2058 74.704 72.0258C75.0603 71.9367 75.4072 71.8505 75.7362 71.6798C76.5162 71.2758 77.195 70.6158 77.6628 69.8826C77.7556 70.8276 78.0509 71.8392 78.4343 72.7101C78.8403 73.6326 79.4356 74.0123 79.3653 75.0408C79.3512 75.2526 79.2087 75.8292 79.1731 76.0383C79.1234 76.3242 78.1475 77.7014 78.3556 77.7436C78.5656 77.7886 78.8834 77.888 78.9818 77.8795Z" fill="#D36B66"/>
<path d="M80.7401 74.0716C81.0279 74.3472 81.0279 74.3257 81.6316 74.665C82.2391 74.9585 82.121 74.9491 82.9282 75.1563C83.516 75.2613 83.5919 75.3072 84.4301 75.2294C84.6241 75.1985 84.8154 75.1553 85.0047 75.1028C85.2757 75.0316 85.5419 74.9407 85.8026 74.8375C87.2388 74.1963 88.2963 73.481 89.1682 72.7019C90.1741 71.7944 90.9119 70.7266 91.1885 70.0422C91.5888 68.8947 91.6526 68.5319 91.6985 67.5691C91.721 66.8416 91.6835 66.1122 91.5897 65.3903C91.5841 65.3519 91.5794 65.3125 91.5738 65.2741C91.4829 64.6647 91.3676 64.06 91.2279 63.46C91.1857 63.1778 91.0319 62.8985 91.0816 62.6116C91.1247 62.0097 91.9366 61.7472 92.3482 62.1813C92.5704 62.3978 92.5816 62.726 92.6622 63.0091C92.7635 63.4403 92.8535 63.8744 92.9294 64.3103C93.1263 65.4316 93.2482 66.5716 93.1938 67.7116C93.1366 68.9238 92.8554 70.1388 92.2826 71.2141C91.2176 73.1013 89.5132 74.561 87.6335 75.6007C85.5269 76.7913 83.4672 77.2235 81.2088 76.1266C80.7588 75.9082 80.3126 75.67 79.9254 75.3503C79.7688 75.2228 79.5897 75.0888 79.5251 74.891C79.1932 74.1447 80.1644 73.4997 80.7401 74.0716Z" fill="#D36B66"/>
<path d="M90.7167 61.7002C91.8999 61.1715 93.7214 59.5459 94.5924 57.7262C94.8052 57.3184 95.0545 56.6227 95.2055 55.7106C95.3095 55.1068 95.4427 54.009 95.332 52.8784C95.3311 52.8718 95.3302 52.8662 95.3302 52.8596C95.2477 52.3252 95.1258 51.7956 94.9458 51.2846C94.747 50.7671 94.8745 51.0306 94.5511 50.4127C94.4667 50.2552 94.3383 50.1081 94.3364 49.9215C94.2183 49.3234 94.9383 48.8584 95.4511 49.1743C95.7164 49.3309 95.828 49.6384 95.9742 49.8943C96.2095 50.3743 96.4045 50.874 96.5508 51.3887C96.8939 52.6018 96.9427 53.874 96.7936 55.1209C96.698 55.9168 96.578 56.7165 96.3136 57.4759C95.5111 59.7156 93.7739 61.6871 91.7208 62.8702C91.4395 63.0005 91.1414 63.2218 90.8189 63.1609C90.0136 63.0699 89.9414 61.9159 90.7167 61.7002Z" fill="#D36B66"/>
<path d="M90.7199 37.1302C91.5908 36.9624 92.4843 37.2258 93.238 37.6617C94.4783 38.4445 95.2546 39.7692 95.7814 41.1042C96.1836 42.1589 96.4236 43.2708 96.4846 44.3977C96.5464 45.3436 96.6139 46.2914 96.5877 47.2392C96.5642 47.7099 96.5155 48.1833 96.3955 48.6399C96.2286 49.2211 95.9642 49.7705 95.6924 50.3086C95.5433 50.5945 95.383 50.8749 95.2086 51.1458C95.1196 51.2752 95.0521 51.4289 94.9133 51.5124C94.6349 51.7589 94.1858 51.7083 93.9289 51.4533C93.6927 51.2217 93.6421 50.828 93.8118 50.5449C93.9664 50.3114 94.1146 50.0724 94.2496 49.8267C94.9546 48.4749 95.0989 48.1739 95.0942 46.6533C95.0736 45.6792 95.023 44.7042 94.9274 43.7349C94.9264 43.7283 94.9255 43.7217 94.9246 43.7152C94.8758 43.3945 94.8158 43.0749 94.7343 42.7608C94.5964 42.2639 94.4502 41.7661 94.2496 41.2908C93.9036 40.5492 93.1958 39.1758 92.0689 38.7464C92.0671 38.7455 92.0652 38.7445 92.0633 38.7436C91.8889 38.6752 91.708 38.6274 91.5243 38.5936C91.3864 38.5786 91.2477 38.5711 91.1089 38.5814C91.0124 38.6002 90.9168 38.617 90.8202 38.5899C90.0177 38.4999 89.9427 37.3477 90.7199 37.1302Z" fill="#D36B66"/>
<path d="M63.6795 79.533C63.9832 79.2283 64.4707 79.2611 64.7688 79.5508C64.9676 79.6989 65.171 79.8414 65.381 79.9717C66.0945 80.4264 67.241 80.9242 67.4754 81.0152C68.832 81.558 69.7104 81.8674 70.8026 81.8224C72.176 81.7361 73.5945 81.2608 75.0935 80.2886C76.4229 79.4027 77.352 78.5824 78.1723 76.9221C78.177 76.9436 78.5792 75.9892 78.7113 75.3827C78.8173 74.8661 78.7882 74.9411 78.8051 74.7939C78.8117 74.6449 78.7957 74.4874 78.8735 74.3542C79.1707 73.6042 80.306 73.8321 80.3088 74.643C80.2845 75.3892 80.1026 76.1233 79.8288 76.8152C79.4942 77.7433 79.0085 78.6142 78.3842 79.3792C76.9826 81.0761 74.8723 82.3877 72.7638 82.998C70.4932 83.6299 68.9595 83.2745 66.8454 82.3642C65.922 81.978 65.0041 81.5533 64.1838 80.9739C64.0113 80.8521 63.8445 80.7208 63.6776 80.5914C63.3898 80.3158 63.3888 79.8114 63.6795 79.533Z" fill="#D36B66"/>
<path d="M78.2086 70.7188C78.2846 70.5782 78.5133 70.6073 78.5518 70.7638C78.8058 72.1335 79.179 73.4892 79.2061 74.8898C79.2465 75.1579 78.8452 75.202 78.833 74.9292C78.8114 73.5754 78.4683 72.3407 78.204 70.9326C78.189 70.8613 78.1665 70.7845 78.2086 70.7188Z" fill="#D36B66"/>
<path d="M78.4881 71.9824C78.5575 71.9215 78.67 71.9337 78.7347 71.9974C78.8303 72.1343 78.8341 72.3209 78.8913 72.4765C79.0131 72.9181 79.1341 73.3596 79.2653 73.7984C79.2925 73.9315 79.3797 74.0674 79.3769 74.2015C79.3591 74.4003 79.06 74.419 79.0122 74.2268C78.8313 73.7018 78.6963 73.1628 78.5444 72.6284C78.5031 72.4793 78.4619 72.3293 78.4216 72.1802C78.4019 72.109 78.4262 72.0237 78.4881 71.9824Z" fill="#D36B66"/>
<path d="M78.4561 71.4788C78.4796 71.5022 78.4955 71.5294 78.5039 71.5613C78.5911 71.8613 78.6783 72.1603 78.7692 72.4594C78.9277 73.0256 79.0964 73.3594 79.2989 73.8469C79.3346 74.0437 79.0496 74.1412 78.953 73.9669C78.6886 73.4287 78.4889 72.8634 78.3258 72.2869C78.2705 72.0534 78.1599 71.8238 78.1392 71.5866C78.1496 71.4356 78.3539 71.37 78.4561 71.4788Z" fill="#D36B66"/>
<path d="M53.4625 77.8962C54.8069 79.024 55.3957 79.6371 57.0232 80.4537C58.0957 80.9759 59.1194 81.3087 60.5294 81.2206C60.67 81.1943 60.8088 81.1596 60.9447 81.1175C61.1144 81.0659 61.2813 81.0068 61.4454 80.9393C62.6932 80.3534 63.1769 80.0421 64.0019 79.2396C64.916 78.3865 65.2797 77.6234 65.3135 77.089C65.3266 76.8809 65.3069 76.6728 65.2863 76.4656C65.2507 76.2425 65.1972 76.0221 65.1232 75.8093C65.0932 75.724 65.0594 75.6406 65.0257 75.5581C64.9779 75.4606 64.9272 75.364 64.9272 75.2525C64.886 75.0612 64.9441 74.8437 65.0744 74.6984C65.3819 74.239 66.1769 74.3459 66.3532 74.8718C66.775 75.7878 66.9475 76.8481 66.6954 77.8343C66.4544 78.7015 65.906 79.4375 65.2872 80.075C64.4604 80.944 63.475 81.6575 62.3819 82.1525C61.2269 82.7215 60.2847 82.8565 59.0154 82.6456C58.1679 82.5443 57.3579 82.2621 56.5872 81.9031C55.5466 81.425 54.5847 80.7931 53.7044 80.0628C53.3594 79.7825 53.0304 79.4825 52.6929 79.1946C52.5316 79.0475 52.3113 78.9368 52.2466 78.7146C51.9157 77.9712 52.885 77.3234 53.4625 77.8962Z" fill="#D36B66"/>
<path d="M38.2232 78.173C40.2538 79.2877 41.8578 80.2139 43.7113 80.7727C44.7706 81.0689 45.5319 81.0614 46.2472 80.9536C46.9185 80.8383 47.5794 80.6545 48.2113 80.3995C48.3369 80.3433 48.4616 80.2861 48.5835 80.2233C49.0456 79.987 49.49 79.717 49.9025 79.4011C49.9035 79.4011 49.9035 79.4002 49.9044 79.4002C51.0444 78.4524 52.3728 77.1033 52.8725 76.3449C53.1594 75.9267 53.4181 75.4899 53.6563 75.0417C53.8053 74.8092 53.8597 74.4952 54.0988 74.3349C54.5572 73.9374 55.3166 74.3227 55.3035 74.9236C55.31 75.142 55.1872 75.3239 55.0991 75.5133C54.9922 75.728 54.8788 75.9389 54.7616 76.147C54.1025 77.3545 53.1931 78.397 52.2013 79.343C50.766 80.7905 49.2425 81.8245 47.2288 82.2802C44.5325 82.9692 42.3735 82.0205 40.0016 80.8299C39.4082 80.528 38.8203 80.2139 38.2363 79.8952C38.031 79.7827 37.8247 79.672 37.6232 79.5549C37.4891 79.4761 37.3382 79.4114 37.2566 79.2727C36.7466 78.638 37.5144 77.7661 38.2232 78.173Z" fill="#D36B66"/>
<path d="M25.7057 77.5122C26.0216 77.4231 26.2795 77.5853 26.556 77.7109C26.7866 77.8037 26.8476 77.8441 27.4185 78.0606C28.4779 78.4722 29.5729 78.8181 30.6998 78.9869C31.102 79.0337 31.507 79.0675 31.912 79.0619C32.3366 79.0581 32.7595 79.0253 33.1813 78.9747C34.3345 78.7975 35.4838 78.5275 36.5638 78.0831C38.3348 77.3219 39.8873 75.8425 40.671 74.7756C41.0985 74.1953 41.5101 73.5934 41.8017 72.9316C41.8823 72.7047 41.9067 72.4497 42.0623 72.2641C42.5442 71.6125 43.5867 72.1291 43.3748 72.9175C43.1217 73.8634 42.5798 74.6959 42.0079 75.4787C40.9935 76.8747 39.697 78.0672 38.2007 78.9316C36.4504 79.9187 34.4385 80.3894 32.4463 80.5422C30.8798 80.6453 29.3179 80.3134 27.8423 79.81C27.321 79.6253 26.8045 79.4275 26.2944 79.2156C26.1088 79.1378 25.9232 79.06 25.7385 78.9784C25.581 78.91 25.4085 78.8444 25.3176 78.6897C24.9744 78.3034 25.2126 77.6312 25.7057 77.5122Z" fill="#D36B66"/>
<path d="M22.9907 69.8974C23.1678 69.5064 23.3722 69.1286 23.586 68.7574C23.7603 68.4433 24.2188 68.3861 24.4691 68.6439C24.7494 68.9364 24.621 69.2608 24.4269 69.5542C24.3219 69.7417 24.2216 69.9321 24.125 70.1242C23.9103 70.5508 23.7894 70.8555 23.585 71.5708C23.4125 72.3049 23.3928 72.3499 23.3722 72.9396C23.3863 73.4721 23.4013 73.5208 23.6141 74.2005C24.0322 75.362 24.8432 76.518 26.1163 77.5849C26.2935 77.7208 26.2054 77.6674 26.5897 77.9186C26.7191 78.0114 26.8907 78.0574 26.9779 78.198C27.3622 78.6686 26.7772 79.3333 26.2522 79.0249C24.4916 78.0067 22.8144 75.888 22.3541 73.8958C22.0569 72.5411 22.461 71.1414 22.9907 69.8974Z" fill="#D36B66"/>
<path d="M21.5226 71.1148C21.7129 70.7801 22.1958 70.7333 22.4526 71.0183C22.8436 71.502 22.8117 72.1695 22.9992 72.7386C23.1211 73.1651 23.2439 73.5926 23.4117 74.0033C23.393 73.9583 23.3742 73.9133 23.3555 73.8692C23.4502 74.1392 23.6752 74.3989 23.588 74.6989C23.4998 75.0476 23.0686 75.2192 22.762 75.0354C22.5726 74.9351 22.5127 74.7242 22.4292 74.5423C22.3673 74.3998 22.3055 74.2564 22.252 74.1101C21.9998 73.4267 21.8217 72.7198 21.6839 72.0054C21.6642 71.9351 21.6426 71.8648 21.6183 71.7954C21.4495 71.6286 21.3754 71.3642 21.5226 71.1148Z" fill="#D36B66"/>
<path d="M14.6406 65.5683C15.2659 63.8442 15.0812 66.0108 15.1843 66.2976C15.3128 66.5442 15.4534 66.7851 15.6006 67.0204C15.9859 67.6242 16.1256 67.7958 16.7706 68.3789C17.3828 68.8945 18.2631 69.5433 19.3121 70.0392C19.8578 70.2895 20.8928 70.5201 21.5734 70.3092C21.9671 70.1976 22.0722 70.1048 22.209 70.0064C22.3618 69.8901 22.4387 69.6801 22.6318 69.622C23.1859 69.3698 23.6771 70.1058 23.2459 70.5342C22.7096 71.2336 21.7871 71.5008 20.9368 71.5148C19.6937 71.5242 18.5265 70.9926 17.5103 70.3158C16.8099 69.8554 16.1265 69.3558 15.534 68.7604C15.0653 68.2804 14.6884 67.7179 14.3593 67.1348C14.2618 66.9304 14.2665 66.8564 14.2365 66.6295C14.3274 66.3258 14.4306 65.9864 14.6406 65.5683Z" fill="#D36B66"/>
<path d="M11.9164 40.0541C12.4629 39.2516 13.1042 38.5213 13.7989 37.8453C14.6267 37.0194 15.5332 36.26 16.5504 35.6769C17.9417 34.9025 19.5654 34.5828 21.1498 34.6419C22.2907 34.73 23.4823 34.9878 24.3767 35.7425C25.1267 36.4428 24.1048 37.5275 23.3539 36.8347C22.9489 36.4869 21.7723 36.0828 20.6389 36.1325C19.7557 36.17 19.8879 36.1606 19.1867 36.2938C18.7798 36.3809 18.3757 36.4859 17.9886 36.6388L17.9192 36.6669C17.4186 36.8853 16.9489 37.1675 16.5036 37.4834C16.0386 37.7891 15.4629 38.3066 14.7532 39.0106C13.7511 40.0316 13.4426 40.3841 12.7048 41.6103C11.4964 43.6813 10.7951 45.9725 10.6573 48.0819C10.5364 49.8809 10.7576 51.4737 11.2648 52.5284C12.117 54.2816 13.0161 55.5087 14.1139 56.2062C14.6492 56.5522 15.1067 56.7425 15.2604 56.7997C15.5323 56.9037 15.6636 56.9009 15.8108 57.1812C15.3917 57.7231 15.342 57.9697 15.0729 58.3719C14.592 58.1769 14.7767 58.1741 14.4139 58.0269C13.7379 57.7578 13.2917 57.5047 12.7283 57.0444C11.8564 56.3731 11.2189 55.4525 10.6386 54.5291C10.1576 53.7462 9.74512 52.91 9.49012 52.025C9.26887 51.2459 9.1845 50.4341 9.14231 49.6278C8.99888 46.25 10.0564 42.8609 11.9164 40.0541Z" fill="#D36B66"/>
<path d="M21.1598 32.3268C21.1851 31.9246 20.3854 31.2786 22.1629 32.4083C22.2444 32.5939 22.3316 32.7768 22.4216 32.9586C22.8126 33.7546 23.751 34.9789 23.9123 35.1786C24.0904 35.3999 24.2666 35.623 24.4494 35.8414C24.5366 35.9314 24.6294 36.0214 24.6632 36.1452C24.9941 36.8905 24.0266 37.5364 23.4473 36.9646C22.582 35.923 21.7176 34.8514 21.0913 33.6449C20.8795 33.2286 20.4088 31.7408 20.9188 31.6911C20.856 31.4015 21.1363 32.7027 21.1598 32.3268Z" fill="#D36B66"/>
<path d="M21.6164 32.229C22.6083 32.2628 22.6064 33.6924 21.6164 33.729C20.6246 33.6953 20.6274 32.2656 21.6164 32.229Z" fill="#D36B66"/>
<path d="M21.3974 47.8851C21.4039 47.6583 21.4227 47.4314 21.4396 47.2054C21.4489 47.1164 21.4368 47.0208 21.4827 46.9401C21.5511 46.7423 21.7836 46.6439 21.9805 46.6954C22.4483 46.8351 22.2392 47.3789 22.2477 47.7351C22.2139 48.3679 22.198 48.8264 22.2917 49.1958C22.633 50.9573 23.0717 52.1058 24.3477 52.8267C24.8127 53.0751 24.793 53.092 25.288 53.197C25.4371 53.2101 25.5955 53.2158 25.7033 53.3329C25.9677 53.5842 25.7718 54.0623 25.4052 54.0529C24.163 53.9573 22.9292 53.0245 22.3105 51.9679C21.9599 51.3229 21.7443 50.6133 21.5764 49.9008C21.5108 49.5754 21.4368 49.2511 21.3993 48.9211C21.3533 48.5779 21.3842 48.2311 21.3974 47.8851Z" fill="#F7B6B2"/>
<path d="M27.2771 75.0513C27.4364 74.9557 27.6586 74.9838 27.788 75.1169C27.848 75.1854 27.9117 75.2501 27.9764 75.3138C28.012 75.3551 28.1311 75.4535 28.177 75.4901C28.6149 75.8173 29.2758 76.1735 29.4764 76.2344C30.682 76.6788 31.6102 76.7051 33.0005 76.5579C33.5011 76.5232 33.9689 76.4126 34.6721 76.2026C35.3255 75.9944 35.4727 75.9373 36.097 75.5782C36.7477 75.1835 37.5502 74.3594 37.943 73.7716C38.2317 73.301 38.9395 73.7079 38.6714 74.1973C38.0827 75.0494 37.3271 75.8069 36.4439 76.3535C35.7089 76.7913 34.8858 77.0426 34.0599 77.2441C32.1352 77.621 29.9902 77.6426 28.2755 76.5663C27.9099 76.3404 27.5461 76.1013 27.2536 75.7826C27.0155 75.581 26.993 75.2266 27.2771 75.0513Z" fill="#F7B6B2"/>
<path d="M44.6128 78.0024C44.7196 77.8974 44.8603 77.8684 45.0056 77.8777C45.1462 77.873 45.2868 77.8627 45.4274 77.8543C45.4996 77.8505 45.7659 77.8224 45.7668 77.8243C46.3462 77.7408 46.9256 77.6359 47.4787 77.439C47.5434 77.4202 47.7862 77.3237 47.8706 77.2899C49.2749 76.6918 49.9115 76.1321 50.6184 75.0962C50.8996 74.7005 51.1537 74.2861 51.4171 73.8793C51.5418 73.6983 51.6093 73.4396 51.7781 73.3008C52.1306 73.013 52.6303 73.4508 52.3978 73.8455C52.1353 74.3555 51.8099 74.828 51.4968 75.3071C51.1181 75.8443 50.7365 76.3918 50.249 76.8362C49.7587 77.2843 49.1793 77.6134 48.5784 77.8899C47.5593 78.3924 46.4315 78.6324 45.3028 78.7055C45.1209 78.7046 44.9203 78.7618 44.7496 78.6859C44.474 78.5921 44.4046 78.1974 44.6128 78.0024Z" fill="#F7B6B2"/>
<path d="M69.1897 24.9833C69.7025 24.192 70.2791 23.3483 71.2006 23.0108C71.7659 22.7708 72.4222 22.7839 73.0016 22.9658C73.5828 23.1645 74.0919 23.5245 74.5822 23.8864C75.0547 24.2173 75.4156 24.6786 75.6734 25.1914C75.8919 25.5786 76.0756 25.9901 76.1553 26.4298C76.2397 26.8386 76.2378 27.2576 76.1675 27.6683C76.0916 28.1698 75.9884 28.6686 75.8141 29.1458C75.7578 29.2873 75.6894 29.4223 75.6275 29.5611C75.5816 29.6586 75.5478 29.772 75.4503 29.8301C75.0969 30.1198 74.5981 29.6764 74.8306 29.2864C75.0659 28.812 75.1616 28.497 75.2947 27.8042C75.4625 26.9811 75.3988 26.3904 74.9131 25.5579C74.6366 25.0123 74.3459 24.7489 74.0225 24.5154C73.6541 24.2548 73.2791 23.9905 72.8638 23.8086C72.2834 23.5695 71.5053 23.6426 70.9484 24.118C70.4412 24.5801 70.3747 24.7414 69.9687 25.3301C69.8684 25.4642 69.8084 25.6386 69.6734 25.7408C69.4569 25.9339 69.0781 25.7989 69.0106 25.5214C68.9516 25.3151 69.0819 25.1464 69.1897 24.9833Z" fill="#F7B6B2"/>
<path d="M80.905 60.1402C81.101 60.112 81.2932 60.0642 81.4779 59.993C81.8247 59.8495 82.27 59.6508 82.7969 59.3114C83.606 58.7855 84.1666 58.0064 84.46 56.8936C84.7722 55.8277 84.716 55.3186 84.401 54.1749C84.1816 53.4877 84.0963 53.2223 83.8225 52.7152C83.7354 52.5464 83.5535 52.4161 83.5347 52.2202C83.4597 51.7739 84.086 51.5574 84.3138 51.9511C85.0094 52.8689 85.6066 54.893 85.4922 56.0442C85.3825 56.9499 85.0985 57.8499 84.6307 58.6345C84.0466 59.5908 83.066 60.2161 82.06 60.6595C81.6391 60.8264 80.6679 61.3064 80.5947 60.548C80.5929 60.3624 80.7269 60.187 80.905 60.1402Z" fill="#F7B6B2"/>
<path d="M81.5894 68.5858C81.6531 69.5795 81.7234 70.1608 82.1809 70.9905C82.5606 71.7564 83.185 72.1623 83.8188 72.3976C84.5584 72.6217 84.6419 72.6086 85.4106 72.3845C85.9009 72.1989 85.9291 72.2223 86.2797 72.0255C86.9884 71.5933 87.4553 70.9464 87.9944 70.0258C88.2681 69.5495 88.2859 69.5205 88.4294 69.1023C88.7744 68.0083 88.8334 67.3267 88.7519 66.1051C88.7341 65.9486 88.7584 66.0873 88.69 65.7573C88.6797 65.6814 88.5934 65.4611 88.5916 65.4526C88.5456 65.357 88.4828 65.267 88.4753 65.1611C88.3994 64.7148 89.0275 64.4983 89.2544 64.892C89.6031 65.5351 89.635 66.2833 89.6275 66.9986C89.6125 67.9867 89.4269 68.9776 89.0275 69.8851C88.7753 70.4073 88.4631 70.9023 88.1331 71.3795C87.7488 71.9064 87.2922 72.3967 86.7325 72.7398C86.1091 73.0651 85.4266 73.3248 84.7216 73.3895C83.7334 73.4223 82.7566 72.9442 82.0591 72.2636C81.5763 71.7555 81.2622 71.1076 81.025 70.4533C80.8422 69.8476 80.7859 69.2139 80.7456 68.5858C80.7606 68.0298 81.5725 68.0308 81.5894 68.5858Z" fill="#F7B6B2"/>
<path d="M68.7735 78.4768C69.0651 78.2021 69.3304 78.4514 69.6069 78.5949C70.2004 78.9268 70.7001 79.0121 71.0732 78.9483C73.1619 78.6333 74.7416 76.7574 75.3604 74.9386C75.546 74.319 75.6707 73.6843 75.8038 73.0524C75.7991 73.0899 75.7935 73.1274 75.7888 73.1649C75.8366 72.924 75.8216 72.6586 75.8957 72.428C76.0579 72.0071 76.7057 72.1365 76.7029 72.5902C76.6044 73.5052 76.3972 74.409 76.1329 75.2893C75.846 76.0936 75.4213 76.8521 74.886 77.5177C74.1651 78.3971 73.251 79.1499 72.171 79.5333C71.4013 79.8267 70.5126 79.9374 69.7438 79.5849C69.4382 79.4602 69.141 79.3139 68.8597 79.1405C68.6235 79.0083 68.5813 78.6652 68.7735 78.4768Z" fill="#F7B6B2"/>
<path d="M37.2448 24.4295C37.3564 24.257 37.5664 24.1829 37.7267 24.0638C38.1336 23.8117 38.5189 23.5229 38.9464 23.3045C39.943 22.6998 41.1439 22.6904 42.2736 22.7682C42.9711 22.8301 43.6714 22.9117 44.3417 23.1263C45.0195 23.3485 45.6701 23.656 46.3067 23.9767C47.3576 24.5467 48.2595 25.3529 49.0564 26.236C49.528 26.7582 50.0155 27.2776 50.3801 27.8832C50.4748 28.0613 50.6295 28.2432 50.563 28.457C50.472 28.8085 49.9705 28.877 49.7923 28.5573C49.4014 27.8335 49.0948 27.5429 48.4845 26.8585C47.4345 25.7148 46.6536 25.0285 45.2389 24.391C44.5742 24.0845 43.9592 23.8295 43.0367 23.6935C42.6636 23.6476 42.2895 23.6045 41.9136 23.5913C41.337 23.5548 40.5148 23.6063 40.288 23.671C39.7686 23.7901 39.7142 23.8604 39.1677 24.1445C38.7983 24.3563 38.4552 24.6085 38.0933 24.8307C37.9114 24.9413 37.7277 25.1213 37.498 25.0492C37.2355 24.9826 37.1061 24.6592 37.2448 24.4295Z" fill="#F7B6B2"/>
<path d="M89.6984 52.7872C89.72 53.0084 89.9787 54.3631 89.6797 55.6616C89.4322 56.7387 88.8162 58.1 88.1759 58.6569C87.5 59.2437 86.9591 59.7162 86.2569 60.1831C85.3437 60.7906 84.2553 61.355 83.2428 61.8172C83.0647 61.8988 82.8088 62.0094 82.6944 62.1678C82.58 62.3262 82.5959 62.5559 82.7534 62.6712C82.8584 62.7481 83.0487 62.7613 83.1753 62.7322C84.4072 62.4547 85.6578 62.03 86.7556 61.4131C87.4662 61.0138 88.1703 60.5403 88.745 59.9619C90.2084 58.49 91.0878 56.6881 91.2959 54.6238C91.3409 54.1738 91.3325 53.6647 91.0137 53.345C90.7259 53.0572 90.9762 52.8706 90.1109 52.9119C90.0472 52.9137 89.69 52.7009 89.6984 52.7872Z" fill="#D36B66"/>
<path d="M79.3146 73.7124C79.6212 75.0033 79.0427 76.6289 78.2665 77.7052C76.2096 80.5543 72.5215 82.3392 69.0987 81.8602C67.6652 81.8686 66.2402 81.2489 65.269 80.1952C66.2946 79.4855 67.0118 78.1571 67.0371 76.9102C67.0624 75.6633 66.4165 74.5224 65.5146 73.6608C65.2746 73.4321 64.9296 73.2155 64.6315 73.3608C64.2949 73.524 64.2959 74.0058 64.4084 74.3621C64.7065 75.3015 65.479 76.0824 65.4612 77.0677C65.448 77.8121 65.0421 78.4768 64.4862 78.9727C62.8427 80.438 61.0306 81.4018 58.849 81.278C57.2581 81.1871 55.4646 79.7283 54.4146 79.0833C54.3453 79.0402 53.9131 78.6539 53.8474 78.4571C53.7312 78.1083 53.7734 77.8036 53.974 77.4952C54.3218 76.9599 54.5712 76.2277 54.6509 75.594C54.6977 75.2265 54.5881 74.8533 54.2374 74.7315C53.9928 74.6471 53.6946 74.8852 53.5399 75.0924C53.3853 75.2996 53.1556 75.6521 53.0796 75.8986C52.4581 77.903 50.9599 79.4171 48.9574 80.0461C48.6753 80.1352 48.3359 80.3086 48.139 80.5289C47.9421 80.7502 47.9881 81.1214 48.259 81.2396C48.4268 81.3127 49.5143 80.9714 49.6784 80.8918C50.809 80.3461 50.8906 80.0433 51.8946 79.328C52.1731 79.1293 52.4674 78.9774 52.8059 79.0252C53.3993 79.1096 53.914 79.778 54.4587 80.1661C56.314 81.488 57.5027 82.5727 59.3609 82.6636C60.8702 82.7377 63.4746 81.5011 64.3971 80.6705C64.5827 80.5036 64.0456 80.5055 64.2949 80.7389C66.1287 82.4508 68.704 83.3124 71.1546 83.0855C72.6884 82.9439 74.1115 82.2333 75.4137 81.4102C76.5443 80.6949 77.7209 80.0124 78.5459 78.9605C79.3718 77.9077 80.2952 75.9577 79.3146 73.7124Z" fill="#D36B66"/>
<path d="M22.1502 73.8283C22.139 73.7796 22.1277 73.7308 22.1165 73.6821C21.7724 71.6805 22.2243 69.543 23.5396 68.0055C23.9034 67.5808 24.3552 67.1861 24.9468 67.1805C25.3152 67.1768 25.6659 67.3755 25.8027 67.7168C26.0765 68.3983 25.4634 69.2027 24.9074 69.6902C24.6093 69.9518 24.3946 70.204 24.1724 70.5321C23.5077 71.5146 23.0165 72.604 23.1862 73.7805C23.4121 75.349 24.4734 76.7721 25.9115 77.4368C27.4556 78.8505 29.4956 79.5246 31.5552 79.5761C33.6149 79.6277 35.7327 79.2433 37.4737 78.1418C38.2406 77.6571 39.1959 77.0308 39.8521 76.4027C40.1971 76.0727 40.4793 75.8496 40.8562 75.4005C41.1102 75.0977 41.248 74.9205 41.4665 74.4658C41.6437 74.0974 41.8631 73.8086 41.8977 73.3127C41.9118 73.1149 41.3202 73.0521 41.1299 72.9958C39.6984 72.574 38.6521 71.7124 37.6152 70.6333C37.2309 70.234 36.8127 69.7305 36.5849 69.2936C36.2437 68.6393 35.8809 67.9952 35.8415 67.1655C35.8171 66.6527 35.6934 66.2168 36.1509 65.7593C36.3927 65.5174 36.9215 65.6458 37.1474 65.9027C37.5749 66.3902 37.5693 67.5649 37.9162 68.0589C39.0309 69.6443 39.9937 70.833 41.7993 71.4761C43.6049 72.1193 45.6796 71.9636 47.3699 71.058C47.594 70.938 47.8162 70.804 48.0637 70.7449C48.4152 70.6615 48.8427 70.7552 48.9496 71.1911C48.9909 71.3599 48.9674 71.538 48.8952 71.6965C48.7312 72.0536 47.9399 72.5674 47.5977 72.7399C46.5815 73.2527 46.0068 73.3521 44.7852 73.4946C44.293 73.5518 44.0474 73.5499 43.6527 73.5377C43.4155 73.5302 42.7809 73.3052 42.6749 73.5161C42.1312 74.5971 42.044 75.2102 41.7177 75.664C41.4787 75.9968 41.2687 76.3146 40.6387 76.9924C40.0837 77.5896 39.6824 77.7865 39.1968 78.2186C38.9287 78.4577 38.4759 78.6452 38.714 78.8233C39.9665 79.7618 41.728 80.3458 43.3359 80.8165C44.9052 81.2758 47.1487 80.7086 48.6346 80.1527C48.8577 80.0693 48.509 80.4218 48.7115 80.5465C48.9262 80.6796 49.7887 80.584 49.6555 80.7986C49.5224 81.0133 47.9034 81.8496 47.6718 81.9499C45.9187 82.7074 44.5115 82.3333 42.6337 81.8083C40.7943 81.2946 39.1687 80.2127 37.5581 79.1861C35.3793 80.4246 32.489 80.9224 29.6962 80.493C26.9034 80.0636 24.2427 78.4324 22.8946 75.9499C22.5627 75.3386 22.3218 74.6768 22.1756 73.9943C22.1718 73.9399 22.1634 73.8846 22.1502 73.8283Z" fill="#D36B66"/>
<path d="M15.0029 64.7148C14.9963 65.387 15.2823 65.9608 15.631 66.813C15.886 67.4345 17.1919 68.7189 17.6982 69.1605C18.5991 69.947 18.8504 69.9208 19.9847 70.3014C21.1182 70.682 21.9919 70.6539 23.3569 69.497C22.6313 71.0074 22.1729 72.5045 22.2113 74.133C22.2001 74.0796 22.1888 74.0289 22.1766 73.9802C22.1701 73.9295 22.1626 73.8789 22.1513 73.8283C22.1316 73.7458 22.111 73.6652 22.0979 73.5808C22.0857 73.5049 22.0726 73.428 22.0529 73.353C22.0097 73.187 21.9582 73.0258 21.9254 72.857C21.9029 72.738 21.8935 72.6161 21.8654 72.4989C21.8654 72.497 21.8654 72.4952 21.8654 72.4933C21.8654 72.2655 21.7294 71.988 21.571 71.8239C21.3863 71.6336 20.9166 71.6327 20.656 71.582C18.2363 71.1152 16.5113 69.9883 15.3732 67.803C15.2785 67.622 14.8848 66.7783 14.7441 66.6302C14.6035 66.482 14.4704 66.5645 14.2688 66.5992C14.476 66.0573 14.7966 65.2567 15.0029 64.7148Z" fill="#D36B66"/>
<path d="M22.1154 26.9182C22.1848 26.6594 22.4838 25.9057 22.5963 25.6816C22.8635 25.3957 22.9451 25.1819 23.2338 24.9175L23.6229 24.5379C24.4432 23.9529 24.2529 24.1075 24.7826 23.8038C25.706 23.2741 26.532 23.0875 27.5866 22.9554C29.456 22.63 31.3854 22.84 33.1638 23.4869C34.1088 23.7832 33.732 25.1594 32.7654 24.9335C30.6354 24.1685 29.0013 24.1638 27.1235 24.5538C25.3948 24.9747 24.7001 25.5063 23.3426 26.9407C23.0445 26.9107 23.1513 26.9444 22.7923 26.9304C22.3095 26.9416 21.9138 27.4235 22.1154 26.9182Z" fill="#D36B66"/>
<path d="M32.7439 23.713C33.5183 22.7014 34.467 21.8267 35.548 21.1508C35.9773 20.8995 36.4358 20.7008 36.8886 20.4955C38.9323 19.5739 41.1458 19.3161 43.3686 19.3602C44.3211 19.3817 45.2698 19.4689 46.213 19.6058C47.1486 19.7117 48.0692 19.9208 48.9551 20.2414C49.6564 20.4758 50.3492 20.7598 50.9764 21.1545C51.6186 21.6008 52.243 22.092 52.7098 22.7267C52.9461 23.0239 53.0051 23.0998 53.3961 23.623C53.6689 23.9623 53.9333 24.3083 54.163 24.6795C54.2961 24.8736 54.4236 25.0705 54.5586 25.2636C54.6542 25.4052 54.7686 25.5495 54.7705 25.7267C54.8464 26.0895 54.5792 26.4514 54.2333 26.5498C54.0345 26.6089 53.8358 26.5658 53.6558 26.4739C53.4467 26.3595 53.352 26.1345 53.2151 25.9508C52.9883 25.6208 52.7736 25.2823 52.5448 24.9523C52.527 24.928 52.5092 24.9036 52.4905 24.8792C52.302 24.6411 52.1136 24.402 51.9345 24.1564C51.9055 24.118 51.8764 24.0795 51.8473 24.042L51.7536 23.9258C51.568 23.6895 51.2023 23.1786 50.5864 22.7145C48.7592 21.3064 45.3167 20.7561 42.0167 20.8752C40.5533 20.938 39.6251 21.0739 37.9836 21.6598C37.3977 21.8914 37.693 21.7611 37.0648 22.0573C36.7423 22.2027 36.4255 22.3592 36.1311 22.5552C35.4861 22.9695 34.8458 23.5152 34.0845 24.4255C33.9908 24.5408 33.897 24.657 33.8033 24.7723C33.6636 24.912 33.4705 24.9927 33.2727 24.9917C32.6211 25.0002 32.2724 24.1761 32.7439 23.713Z" fill="#D36B66"/>
<path d="M53.5178 25.4404C53.7015 24.786 53.9528 24.1486 54.2706 23.5476C54.4674 23.1314 54.7168 22.747 55.0084 22.3917C55.3356 21.9435 55.6965 21.5179 56.1193 21.1579C56.5403 20.7942 56.9649 20.4276 57.4431 20.1389C58.0149 19.7995 58.6393 19.5398 59.29 19.4029C60.219 19.252 61.1799 19.2004 62.0987 19.4395C62.8337 19.5623 63.5584 19.7395 64.2371 20.0545C64.9037 20.3564 65.4831 20.8279 66.0212 21.3164C66.2434 21.531 66.4975 21.7129 66.6943 21.9529C66.9521 22.2867 67.2334 22.6101 67.4293 22.986C67.6356 23.3601 67.7987 23.7586 67.9262 24.1654C68.0246 24.5423 68.079 24.9295 68.1409 25.3139C68.1765 25.6336 68.275 26.0132 68.14 26.3142C68.0181 26.6667 67.6056 26.8401 67.255 26.7482C67.0609 26.6995 66.9156 26.5664 66.8068 26.4032C66.6756 26.197 66.7112 25.9514 66.6934 25.7189C66.6925 25.7104 66.6915 25.7029 66.6915 25.6954C66.624 25.2661 66.5659 24.832 66.4356 24.4167C66.265 23.9761 66.3615 24.1551 66.0296 23.5532C65.7287 23.1089 65.7437 23.1642 65.6415 23.0226C65.424 22.7592 65.1437 22.5576 64.899 22.3214C64.3787 21.8601 64.6084 22.0504 64.1256 21.7129C63.4637 21.2723 63.0418 21.1476 61.9628 20.9367C61.1153 20.7736 61.2174 20.7379 60.2781 20.7942C59.5974 20.8523 59.9518 20.7857 59.3199 20.9395C58.8606 21.0792 58.6815 21.1307 57.9887 21.5685C57.6962 21.7692 57.1121 22.2248 56.5487 22.8454C56.5037 22.896 56.4606 22.9476 56.4174 23.0001C56.3593 23.077 56.3012 23.1539 56.244 23.2317C55.9215 23.6657 56.1568 23.3001 55.8343 23.8036C55.4162 24.5911 55.3796 24.6192 55.1546 25.2361C55.0984 25.3898 55.0487 25.5464 55.0028 25.7039C54.9643 25.8426 54.9343 25.9907 54.8303 26.0967C54.3465 26.7464 53.3059 26.2279 53.5178 25.4404Z" fill="#D36B66"/>
<path d="M66.7597 22.5457C66.935 22.1782 67.1863 21.8472 67.4535 21.5416C68.0282 20.8966 68.8494 20.5488 69.6369 20.2376C70.8154 19.7594 72.111 19.6816 73.371 19.7238C74.121 19.7407 74.8579 19.9076 75.5657 20.1485C76.3044 20.3594 77.0113 20.6782 77.63 21.1366C78.3669 21.671 79.1582 22.1351 79.8519 22.7276C80.0132 22.8597 80.1679 22.9994 80.3104 23.1532C80.4032 23.2469 80.5007 23.3407 80.5372 23.4691C80.6741 23.7344 80.5897 24.0832 80.3825 24.2885C80.0975 24.5735 79.6044 24.5801 79.3222 24.2885C79.1197 24.0654 78.8929 23.8676 78.6604 23.6763C78.6454 23.6632 78.6294 23.651 78.6144 23.6388C78.1232 23.2844 77.6207 22.946 77.1191 22.6066C76.6794 22.2954 76.2407 21.971 75.7344 21.7769C75.7944 21.8022 75.8535 21.8276 75.9135 21.8529C75.3969 21.6513 74.8625 21.4901 74.3272 21.3438C73.4872 21.1366 71.8485 21.1966 71.105 21.3522C70.6944 21.4319 70.3053 21.5885 69.9135 21.7301C69.5263 21.9016 69.141 22.0835 68.7932 22.3263C68.6807 22.4247 68.5785 22.5344 68.4782 22.6441C68.4519 22.6722 68.4285 22.7022 68.4041 22.7322C68.0094 23.3229 68.0975 23.1532 67.9128 23.9266C67.9053 23.9697 67.8978 24.0129 67.8894 24.056C67.88 24.1779 67.8753 24.3007 67.8154 24.4085C67.5172 25.1594 66.3828 24.9288 66.38 24.1197C66.4419 23.5835 66.5347 23.0416 66.7597 22.5457Z" fill="#D36B66"/>
<path d="M77.3031 20.8613C78.1065 21.2494 78.8565 21.7566 79.5306 22.3397C79.9693 22.6988 80.3875 23.0935 80.7015 23.5688C80.9893 24.046 81.1581 24.5813 81.1947 25.1372C81.2322 25.4963 81.2453 25.8647 81.2059 26.2256C81.2518 26.2116 81.2978 26.1956 81.3447 26.1825C81.7112 26.1038 82.09 26.0691 82.465 26.0728C82.9703 26.1085 83.4681 26.2285 83.9518 26.3747C85.0384 26.6963 85.9768 27.3628 86.8309 28.0894C87.4862 28.6463 88.1228 29.2275 88.674 29.8903C89.0171 30.3 89.1043 30.3394 89.364 30.8091C89.5703 31.1888 89.6828 31.4625 89.8431 31.9716C89.9106 32.1853 90.0287 32.566 90.0615 32.8181C89.4803 32.8181 89.5168 32.8172 88.9778 32.7806C88.6318 32.7806 88.7762 32.7731 88.465 32.7525C88.5025 32.5481 88.5315 32.4778 88.4715 32.2791C88.3712 31.9903 88.3778 32.01 88.0403 31.4831C87.3578 30.5391 85.6768 28.8713 84.3475 28.1503C83.7925 27.8681 83.5581 27.7931 82.6459 27.5944C82.6178 27.5888 82.5906 27.5841 82.5625 27.5794C82.4106 27.5663 82.2578 27.571 82.1059 27.5803C82.0234 27.5869 81.9409 27.5944 81.8584 27.6019C81.7403 27.6244 81.625 27.66 81.5106 27.6985C81.4843 27.7069 81.459 27.7172 81.4337 27.7275C81.0503 27.9019 80.7081 28.1485 80.3753 28.4044C79.9075 28.785 79.9168 28.7072 79.4359 29.1778C79.3778 29.2406 79.3187 29.3035 79.2606 29.3653C78.9718 29.7141 78.7122 30.1238 78.2706 30.2803C77.6818 30.4453 77.1165 29.835 77.3781 29.2678C77.4315 29.0897 77.5928 28.9763 77.709 28.8385C77.8928 28.6285 78.0822 28.4231 78.2734 28.2206C78.2912 28.2 78.3081 28.1785 78.3268 28.1578C78.3503 28.1344 78.3737 28.1119 78.3981 28.0894C78.459 28.0256 78.519 27.96 78.5809 27.8972C78.8153 27.6544 79.0187 27.3844 79.2315 27.1219C79.3797 26.9156 79.5137 26.7 79.6215 26.4703C79.6337 26.4366 79.645 26.4028 79.6543 26.3681C79.6778 26.2866 79.6984 26.205 79.7153 26.1225C79.7631 25.4981 79.6956 25.1391 79.6618 24.9347C79.6393 24.8147 79.5962 24.7013 79.5503 24.5888C79.4959 24.4688 79.4303 24.3535 79.3543 24.2456C79.0159 23.8406 78.6034 23.5106 78.2022 23.1713L78.1825 23.1553C77.6631 22.7822 77.1259 22.426 76.5456 22.1541C75.7093 21.63 76.4256 20.3934 77.3031 20.8613Z" fill="#D36B66"/>
<path d="M25.6933 56.9177C26.0542 56.7874 26.4264 56.6505 26.702 56.3833C26.9777 56.1162 27.1314 55.683 26.9598 55.3399C26.763 54.9452 26.2323 54.8355 25.802 54.9321C25.3717 55.0287 24.9892 55.2743 24.5711 55.414C23.7555 55.6859 22.862 55.5368 22.0295 55.3212C21.3311 55.1402 20.613 54.7718 20.117 54.2468C19.6408 53.7434 19.4317 53.1668 19.3201 52.4834C19.0483 50.8155 19.0454 49.2096 19.742 47.6712C19.9023 47.3177 20.3233 46.8237 20.3589 46.4374C20.3945 46.0512 20.1386 45.754 19.7805 45.6049C19.3014 45.4062 18.8804 45.9434 18.5701 46.3596C17.582 47.6862 17.2876 49.2134 17.2876 50.9009C17.2876 52.7262 17.9973 54.5187 19.2414 55.8546C20.072 56.7462 21.2158 57.3405 22.4223 57.5065C23.6289 57.6724 24.8083 57.2374 25.6933 56.9177Z" fill="#D36B66"/>
<path d="M21.4383 34.5067C20.227 34.6539 18.323 34.9736 16.8061 35.8511C15.2892 36.7286 13.9195 38.1583 12.7702 39.4783C10.4724 42.1174 9.55736 45.4952 9.23017 48.9189C9.06142 50.6842 9.37173 53.0345 10.328 54.5767C11.2477 56.0589 12.7589 57.032 14.2917 57.5439C14.7155 57.6855 15.1936 58.1786 15.2667 57.9836C15.367 57.7164 15.8255 57.3292 15.7289 57.1867C15.5602 56.9411 14.2383 56.3589 13.9983 56.1827C13.7583 56.0064 13.3158 55.8817 13.0758 55.7055C12.0511 54.9536 11.2242 54.0292 10.8389 52.818C10.4545 51.6067 10.5727 50.1677 10.6936 48.903C10.8989 46.7439 11.3067 44.7086 12.173 42.8852C13.1986 40.727 14.9123 38.7414 16.8201 37.3024C17.6742 36.6583 18.907 36.0461 19.9326 35.7414C20.9583 35.4367 22.0861 35.6655 22.9739 36.2627C23.182 36.4033 23.6179 36.5758 23.8654 36.618C24.1129 36.6602 24.3239 36.3967 24.3061 36.1464C24.2986 36.0433 24.1926 35.8117 24.1354 35.7264C23.1951 34.3145 21.9192 33.3433 21.6708 32.282C21.5948 31.9567 20.8064 31.5283 20.8823 31.8536C20.9714 32.2352 21.2198 33.2552 21.4214 33.5205C21.8648 34.097 21.5386 34.4945 21.4383 34.5067Z" fill="#D36B66"/>
<path d="M85.914 29.047C85.3477 28.5811 84.3624 28.0495 83.7474 27.7457C83.1324 27.442 82.2605 27.2629 81.5911 27.4092C80.3536 27.6782 79.6636 29.0957 78.5227 29.7904C78.3193 29.9142 78.0643 29.9404 77.8505 29.8354C77.4915 29.6582 77.5702 29.3142 77.8158 28.9945C78.0624 28.6739 78.518 28.2529 78.8133 27.9764C79.4508 27.3792 80.0518 26.7014 80.1811 25.9729C80.2777 25.4264 80.1727 24.9276 79.9196 24.3904C79.6205 23.7567 79.1368 23.2261 78.5443 22.8511C77.7427 22.3448 76.7499 21.9042 75.7965 21.6398C74.3265 21.232 72.8283 21.0501 71.3349 21.3576C70.4171 21.5461 68.5168 22.3514 67.9233 23.0601C67.5511 23.5045 67.8821 24.2657 67.8821 24.8489C67.8821 25.2342 67.7996 25.7845 67.7593 26.1679C67.719 26.5514 67.3777 26.7117 67.0346 26.6339C66.6352 26.5439 66.668 26.0648 66.7215 25.6832C67.0374 23.4257 65.8927 22.2211 63.9886 21.3286C62.0846 20.4361 59.8655 20.4642 58.0721 21.5639C56.2796 22.6636 55.4039 25.0429 54.5649 26.3264C53.7568 27.5629 52.9018 24.5039 50.7005 22.5398C49.058 21.0736 46.8436 20.9067 45.2939 20.6451C43.1874 20.2898 40.6683 20.7342 38.6527 21.4401C37.1996 21.9482 36.2968 22.6036 34.9683 23.3826C33.9774 23.9639 33.2161 24.7082 32.8074 25.6457C32.6143 26.0873 32.4802 26.5617 32.484 27.0436C32.4877 27.5254 32.7568 28.0392 33.0783 28.3973C32.8111 28.3411 31.4818 28.1939 31.4818 28.1939C31.4818 28.1939 31.2071 27.3567 31.1949 27.1007C31.1715 26.6179 31.298 26.2232 31.3918 25.7489C31.4855 25.2745 31.7321 24.6698 32.0958 24.352C31.6514 24.2554 31.1733 24.2442 30.7289 24.2029C29.4671 23.9611 28.1199 24.0173 26.8608 24.3811C25.6018 24.7457 24.4327 25.417 23.4839 26.3217C23.3189 26.4792 23.1568 26.6461 22.9543 26.7501C22.7799 26.8392 22.5821 26.8711 22.4068 26.8007C22.3636 26.7829 22.3514 26.7267 22.3824 26.692L22.5708 26.4792C24.6024 23.9329 27.6211 22.8679 30.8396 23.3151C31.1293 23.3554 31.8746 23.5636 32.1915 23.6451C32.5289 23.7323 32.8702 23.9161 33.1196 23.8879C33.443 23.8504 33.5227 23.6273 33.6343 23.5167C33.8208 23.332 33.9305 23.2111 34.1902 22.9514C36.848 20.2936 40.9974 19.1151 44.498 19.4582C47.9996 19.8014 52.3899 21.1532 53.3443 24.472C53.4296 24.7682 53.9649 24.8357 54.1899 24.6248C54.4149 24.4139 54.4308 23.7623 54.5949 23.5017C55.7621 21.6482 57.5611 20.0957 59.7708 19.7704C61.1518 19.567 63.1346 19.6354 64.4049 20.1923C65.1671 20.5261 65.8149 21.0501 66.3605 21.6848C66.758 22.147 66.8274 22.5979 67.2596 22.6879C67.4761 22.7329 67.7218 22.1807 67.988 21.9145C68.1296 21.7729 68.4671 21.5536 68.6396 21.412C69.2293 20.9292 71.0583 20.5223 71.7999 20.3479C72.8743 20.0948 73.5146 20.1314 74.1605 20.1792C74.828 20.2279 75.4993 20.2992 76.5596 20.7736C77.3724 21.1373 78.8358 21.8742 79.5221 22.4395C80.1165 22.9289 80.7033 23.4689 81.0699 24.1467C81.3005 24.5723 81.3371 25.1639 81.2424 25.6017C81.1899 25.8436 80.9902 25.9973 81.008 26.2401C81.0221 26.4361 81.1815 26.5926 81.3746 26.6264C81.6211 26.6686 81.7318 26.7211 81.9699 26.6995C82.6758 26.6367 83.4783 26.7932 84.1093 27.1148C84.7402 27.4364 85.7265 28.0364 86.2871 28.4695C87.7374 29.5907 88.7152 30.4223 89.6827 32.0639C89.7596 32.1932 90.0305 32.8148 90.0305 32.8148H89.5121C89.5121 32.8148 89.3799 32.5945 89.2618 32.422C88.1836 30.8498 87.1946 30.1007 85.914 29.047Z" fill="#D36B66"/>
<path d="M53.6555 53.1326C53.8317 53.1279 53.9255 53.2741 54.0249 53.396C54.1749 53.5741 54.3324 53.7466 54.5105 53.8976C54.9042 54.2322 55.5342 54.6307 56.1821 54.7685C56.738 54.9204 57.3108 54.7619 57.7271 54.3551C58.1039 53.9876 58.3627 53.3876 58.2989 53.1513C58.1874 52.6076 58.1621 52.3619 57.2358 52.1257C56.8758 52.0338 56.1971 52.2823 55.9617 51.9729C55.7902 51.7835 55.6289 51.3794 55.613 51.1254C55.5792 50.7579 55.6064 50.3876 55.6346 50.0201C55.7246 49.001 55.8952 47.9913 56.078 46.9854C56.2477 46.046 56.4221 45.1076 56.6302 44.1757C56.6855 43.9244 56.7427 43.6732 56.8036 43.4229C56.8364 43.3179 56.8383 43.196 56.9124 43.1107C57.1186 42.8276 57.5836 43.0535 57.4861 43.3966C57.1692 44.6679 56.9274 45.956 56.6949 47.2451C56.4774 48.4882 56.3733 49.2157 56.3058 50.4401C56.2899 51.1732 56.1408 51.3935 56.4033 51.5951C56.7314 51.7994 57.6577 51.551 58.2061 51.9598C58.5464 52.2129 58.8802 52.8297 58.8671 53.2479C58.853 53.7176 58.5183 54.2369 58.2324 54.6035C57.4449 55.6132 56.4539 55.6807 55.3383 55.1744C54.6924 54.9007 54.1027 54.4779 53.6396 53.951C53.5271 53.7963 53.3311 53.6651 53.3264 53.4597C53.3236 53.2854 53.4802 53.1288 53.6555 53.1326Z" fill="#D36B66"/>
<path d="M39.4468 56.4126C37.4404 56.4126 35.814 54.0831 35.814 51.2095C35.814 48.3359 37.4404 46.0063 39.4468 46.0063C41.4531 46.0063 43.0796 48.3359 43.0796 51.2095C43.0796 54.0831 41.4531 56.4126 39.4468 56.4126Z" fill="#D36B66"/>
<path d="M67.8866 56.4093C65.7904 56.1684 64.3519 53.7045 64.6735 50.9062C64.9952 48.1079 66.9552 46.0347 69.0514 46.2756C71.1476 46.5166 72.5862 48.9804 72.2645 51.7788C71.9428 54.5771 69.9828 56.6503 67.8866 56.4093Z" fill="#D36B66"/>
<path d="M68.3301 55.5012C66.7351 55.3967 65.5614 53.4916 65.7085 51.2461C65.8557 49.0006 67.268 47.265 68.863 47.3696C70.458 47.4741 71.6317 49.3792 71.4845 51.6247C71.3373 53.8701 69.9251 55.6057 68.3301 55.5012Z" fill="white"/>
<path d="M39.4705 55.5107C37.8783 55.5107 36.5877 53.585 36.5877 51.2095C36.5877 48.8339 37.8783 46.9082 39.4705 46.9082C41.0626 46.9082 42.3533 48.8339 42.3533 51.2095C42.3533 53.585 41.0626 55.5107 39.4705 55.5107Z" fill="white"/>
<path d="M40.4419 54.4199C39.3867 54.4199 38.5313 53.2077 38.5313 51.7124C38.5313 50.2171 39.3867 49.0049 40.4419 49.0049C41.4971 49.0049 42.3525 50.2171 42.3525 51.7124C42.3525 53.2077 41.4971 54.4199 40.4419 54.4199Z" fill="black"/>
<path d="M69.2659 54.8356C68.1795 54.7919 67.3472 53.5511 67.407 52.0642C67.4669 50.5773 68.3961 49.4074 69.4825 49.4511C70.569 49.4948 71.4012 50.7356 71.3414 52.2225C71.2816 53.7094 70.3523 54.8793 69.2659 54.8356Z" fill="black"/>
<path d="M68.1928 49.6537C68.4675 49.9265 68.7431 50.1993 69.0384 50.4496C69.1547 50.564 69.3281 50.6418 69.3816 50.8049C69.5916 51.2681 68.9784 51.6759 68.6222 51.3168C68.3222 51.0768 68.0381 50.8171 67.7644 50.5471C67.6537 50.4224 67.4925 50.3259 67.4334 50.1656C67.2234 49.7034 67.8366 49.2956 68.1928 49.6537Z" fill="white"/>
<path d="M39.348 49.5363C39.5843 49.7856 39.8233 50.0341 40.0737 50.2712C40.1758 50.38 40.324 50.4606 40.3718 50.6078C40.5818 51.0709 39.9687 51.4788 39.6124 51.1197C39.3583 50.8909 39.1174 50.6491 38.8802 50.4034C38.7827 50.2872 38.6412 50.1944 38.5887 50.0481C38.3787 49.5859 38.9918 49.1781 39.348 49.5363Z" fill="white"/>
<path d="M90.0341 35.9359C73.34 36.1515 57.1063 35.0284 40.6063 32.7334C36.4578 32.1568 32.0872 31.8062 27.9631 31.0572C25.626 30.6325 23.3844 29.995 21.0538 29.5187C21.1128 29.1418 21.2403 28.8072 21.4625 28.4856C23.4275 28.8709 25.3494 29.4268 27.3228 29.7784C31.8003 30.5753 36.4381 31.134 40.9513 31.7378C56.84 33.8631 72.8206 35.109 88.8219 34.9778C89.435 34.9731 90.5572 34.9506 90.5572 34.9506L90.6228 35.859C90.6228 35.86 90.2525 35.9472 90.0341 35.9359Z" fill="white"/>
<path d="M86.1223 14.54L113.42 9.55054L116.134 24.3983L88.8361 29.3877L86.1223 14.54Z" fill="#955B1D"/>
<path d="M87.1749 15.0495L112.79 10.3677L115.183 23.4632L89.5685 28.145L87.1749 15.0495Z" fill="white"/>
<path d="M114.959 23.3919C115.04 23.106 115.106 22.8107 115.094 22.5135C115.083 22.2163 114.986 21.9135 114.779 21.6997C114.57 21.485 114.274 21.3819 113.984 21.3116C113.141 21.1082 112.262 21.1288 111.395 21.1503C111.119 21.1569 110.831 21.1672 110.587 21.2975C110.265 21.47 110.077 21.8291 110.023 22.19C109.967 22.551 110.026 22.9185 110.089 23.2785C110.152 23.6385 110.219 24.036 110.178 24.3988C110.422 24.351 110.665 24.2891 110.909 24.2413C110.979 24.2272 111.155 24.2047 111.155 24.2047C111.155 24.2047 111.202 23.9047 111.189 23.7725C111.157 23.4678 111.125 23.1641 111.092 22.8594C111.067 22.6194 111.044 22.3644 111.154 22.1497C111.278 21.9078 111.544 21.7728 111.807 21.6997C112.247 21.5769 112.718 21.5863 113.166 21.6772C113.615 21.7682 114.059 21.9491 114.378 22.2782C114.697 22.6063 114.859 23.1247 114.721 23.5616C114.865 23.5297 115.05 23.5063 115.194 23.4744C115.167 23.2063 115.107 22.9063 115.079 22.6382" fill="black"/>
<path d="M114.781 23.1042C114.671 22.4751 114.609 22.5154 114.35 22.1901C114.091 21.8648 113.794 21.8029 113.389 21.7082C112.984 21.6135 112.563 21.547 112.147 21.5751C111.831 21.5967 111.489 21.7139 111.26 21.9332C110.984 22.1976 110.958 22.6289 111.012 23.0067C111.067 23.3845 111.114 23.827 111.059 24.2048C112.185 24.111 113.038 23.8992 114.146 23.6807C114.235 23.6629 114.512 23.6095 114.698 23.5551C114.786 23.5298 114.833 23.4182 114.781 23.1042Z" fill="#764550"/>
<path d="M87.2693 16.6731L113.276 11.9197L113.377 12.473L87.3704 17.2265L87.2693 16.6731Z" fill="#955B1D"/>
<path d="M109.975 10.5487L110.206 10.5066L112.717 24.2477L112.487 24.2898L109.975 10.5487Z" fill="#955B1D"/>
<path d="M109.975 10.5487L110.206 10.5066L112.717 24.2477L112.487 24.2898L109.975 10.5487Z" fill="#955B1D"/>
<path d="M105.425 11.0719L105.656 11.0298L108.323 25.623L108.092 25.6651L105.425 11.0719Z" fill="#955B1D"/>
<path d="M105.425 11.0719L105.656 11.0298L108.323 25.623L108.092 25.6651L105.425 11.0719Z" fill="#955B1D"/>
<path d="M101.028 11.8761L101.259 11.834L103.926 26.4272L103.696 26.4693L101.028 11.8761Z" fill="#955B1D"/>
<path d="M101.028 11.8761L101.259 11.834L103.926 26.4272L103.696 26.4693L101.028 11.8761Z" fill="#955B1D"/>
<path d="M95.984 12.8922L96.2146 12.8501L98.802 27.0062L98.5715 27.0483L95.984 12.8922Z" fill="#955B1D"/>
<path d="M91.2997 13.7482L91.5303 13.7061L94.1177 27.8621L93.8872 27.9043L91.2997 13.7482Z" fill="#955B1D"/>
<path d="M110.222 13.9783L111.122 13.814L111.362 15.1281L110.463 15.2925L110.222 13.9783Z" fill="#FFC654"/>
<path d="M109.267 14.8306L110.221 13.9766L110.461 15.2909L109.267 14.8306Z" fill="#FFC654"/>
<path d="M112.198 14.2935L111.358 15.1241L111.119 13.8145L112.198 14.2935Z" fill="#FFC654"/>
<path d="M109.796 11.1341L110.695 10.9697L110.935 12.2839L110.036 12.4482L109.796 11.1341Z" fill="#FFC654"/>
<path d="M108.84 11.9845L109.794 11.1313L110.034 12.4457L108.84 11.9845Z" fill="#FFC654"/>
<path d="M111.771 11.4497L110.931 12.2794L110.692 10.9697L111.771 11.4497Z" fill="#FFC654"/>
<path d="M105.302 11.9666L106.201 11.8022L106.441 13.1164L105.542 13.2808L105.302 11.9666Z" fill="#FFC654"/>
<path d="M104.347 12.8175L105.301 11.9644L105.541 13.2778L104.347 12.8175Z" fill="#FFC654"/>
<path d="M107.277 12.2806L106.438 13.1112L106.198 11.8015L107.277 12.2806Z" fill="#FFC654"/>
<path d="M100.907 12.7803L101.806 12.616L102.047 13.9301L101.147 14.0945L100.907 12.7803Z" fill="#FFC654"/>
<path d="M99.9516 13.6312L100.906 12.7781L101.146 14.0925L99.9516 13.6312Z" fill="#FFC654"/>
<path d="M102.884 13.0965L102.044 13.9261L101.804 12.6165L102.884 13.0965Z" fill="#FFC654"/>
<path d="M95.844 13.6929L96.7432 13.5286L96.9834 14.8427L96.0842 15.0071L95.844 13.6929Z" fill="#FFC654"/>
<path d="M94.8886 14.5431L95.843 13.6899L96.083 15.0043L94.8886 14.5431Z" fill="#FFC654"/>
<path d="M97.8193 14.0083L96.9803 14.838L96.7412 13.5283L97.8193 14.0083Z" fill="#FFC654"/>
<path d="M91.1638 14.5728L92.063 14.4084L92.3032 15.7226L91.404 15.887L91.1638 14.5728Z" fill="#FFC654"/>
<path d="M90.2084 15.4222L91.1628 14.5691L91.4028 15.8825L90.2084 15.4222Z" fill="#FFC654"/>
<path d="M93.1389 14.8865L92.2999 15.7172L92.0608 14.4075L93.1389 14.8865Z" fill="#FFC654"/>
<path d="M91.6751 17.3687L92.5742 17.2043L92.8144 18.5185L91.9153 18.6829L91.6751 17.3687Z" fill="#FFC654"/>
<path d="M90.7194 18.219L91.6738 17.365L91.9138 18.6794L90.7194 18.219Z" fill="#FFC654"/>
<path d="M93.6501 17.6834L92.8111 18.514L92.572 17.2043L93.6501 17.6834Z" fill="#FFC654"/>
<path d="M92.1052 19.7364L93.0044 19.572L93.2446 20.8862L92.3454 21.0505L92.1052 19.7364Z" fill="#FFC654"/>
<path d="M91.1494 20.587L92.1038 19.7339L92.3447 21.0483L91.1494 20.587Z" fill="#FFC654"/>
<path d="M94.0815 20.0506L93.2415 20.8802L93.0025 19.5706L94.0815 20.0506Z" fill="#FFC654"/>
<path d="M92.5173 22.3101L93.4165 22.1458L93.6567 23.4599L92.7575 23.6243L92.5173 22.3101Z" fill="#FFC654"/>
<path d="M91.5625 23.1617L92.5159 22.3076L92.7568 23.622L91.5625 23.1617Z" fill="#FFC654"/>
<path d="M94.4929 22.6258L93.6529 23.4555L93.4139 22.1467L94.4929 22.6258Z" fill="#FFC654"/>
<path d="M93.0334 25.4583L93.9326 25.2939L94.1728 26.6081L93.2736 26.7725L93.0334 25.4583Z" fill="#FFC654"/>
<path d="M92.0779 26.3104L93.0323 25.4563L93.2732 26.7707L92.0779 26.3104Z" fill="#FFC654"/>
<path d="M95.0093 25.7733L94.1693 26.6039L93.9302 25.2942L95.0093 25.7733Z" fill="#FFC654"/>
<path d="M97.8318 24.5716L98.731 24.4072L98.9712 25.7214L98.072 25.8857L97.8318 24.5716Z" fill="#FFC654"/>
<path d="M96.8772 25.422L97.8315 24.5688L98.0715 25.8823L96.8772 25.422Z" fill="#FFC654"/>
<path d="M99.8076 24.886L98.9686 25.7167L98.7286 24.407L99.8076 24.886Z" fill="#FFC654"/>
<path d="M97.242 21.4366L98.1411 21.2722L98.3813 22.5864L97.4822 22.7507L97.242 21.4366Z" fill="#FFC654"/>
<path d="M96.2871 22.2867L97.2414 21.4336L97.4814 22.747L96.2871 22.2867Z" fill="#FFC654"/>
<path d="M99.2175 21.751L98.3775 22.5817L98.1385 21.272L99.2175 21.751Z" fill="#FFC654"/>
<path d="M96.8237 18.8279L97.7229 18.6636L97.9631 19.9777L97.0639 20.1421L96.8237 18.8279Z" fill="#FFC654"/>
<path d="M95.8693 19.6786L96.8237 18.8254L97.0637 20.1398L95.8693 19.6786Z" fill="#FFC654"/>
<path d="M98.7998 19.1424L97.9607 19.972L97.7207 18.6624L98.7998 19.1424Z" fill="#FFC654"/>
<path d="M96.3604 16.5205L97.2595 16.3562L97.4997 17.6704L96.6006 17.8347L96.3604 16.5205Z" fill="#FFC654"/>
<path d="M95.4052 17.3709L96.3596 16.5178L96.5996 17.8322L95.4052 17.3709Z" fill="#FFC654"/>
<path d="M98.3364 16.836L97.4964 17.6656L97.2574 16.356L98.3364 16.836Z" fill="#FFC654"/>
<path d="M101.278 15.4563L102.177 15.292L102.417 16.6062L101.518 16.7705L101.278 15.4563Z" fill="#FFC654"/>
<path d="M100.322 16.3082L101.277 15.4541L101.517 16.7685L100.322 16.3082Z" fill="#FFC654"/>
<path d="M103.253 15.7723L102.413 16.6029L102.174 15.2932L103.253 15.7723Z" fill="#FFC654"/>
<path d="M101.842 18.2207L102.741 18.0564L102.981 19.3706L102.082 19.5349L101.842 18.2207Z" fill="#FFC654"/>
<path d="M100.886 19.0709L101.841 18.2178L102.081 19.5312L100.886 19.0709Z" fill="#FFC654"/>
<path d="M103.817 18.535L102.978 19.3656L102.739 18.0559L103.817 18.535Z" fill="#FFC654"/>
<path d="M102.323 20.5289L103.222 20.3645L103.462 21.6787L102.563 21.843L102.323 20.5289Z" fill="#FFC654"/>
<path d="M101.369 21.3795L102.323 20.5264L102.563 21.8407L101.369 21.3795Z" fill="#FFC654"/>
<path d="M104.299 20.8447L103.46 21.6744L103.22 20.3647L104.299 20.8447Z" fill="#FFC654"/>
<path d="M102.793 23.6538L103.692 23.4895L103.932 24.8037L103.033 24.968L102.793 23.6538Z" fill="#FFC654"/>
<path d="M101.837 24.5047L102.792 23.6516L103.032 24.966L101.837 24.5047Z" fill="#FFC654"/>
<path d="M104.769 23.9697L103.929 24.7994L103.69 23.4897L104.769 23.9697Z" fill="#FFC654"/>
<path d="M107.262 22.6905L108.161 22.5261L108.401 23.8403L107.502 24.0046L107.262 22.6905Z" fill="#FFC654"/>
<path d="M106.306 23.5416L107.261 22.6885L107.501 24.0029L106.306 23.5416Z" fill="#FFC654"/>
<path d="M109.238 23.0069L108.398 23.8365L108.159 22.5269L109.238 23.0069Z" fill="#FFC654"/>
<path d="M106.722 19.7359L107.621 19.5715L107.861 20.8857L106.962 21.05L106.722 19.7359Z" fill="#FFC654"/>
<path d="M105.767 20.587L106.721 19.7339L106.962 21.0483L105.767 20.587Z" fill="#FFC654"/>
<path d="M108.698 20.0506L107.858 20.8802L107.619 19.5706L108.698 20.0506Z" fill="#FFC654"/>
<path d="M106.297 17.4143L107.197 17.25L107.437 18.5642L106.538 18.7285L106.297 17.4143Z" fill="#FFC654"/>
<path d="M105.342 18.2655L106.297 17.4124L106.537 18.7267L105.342 18.2655Z" fill="#FFC654"/>
<path d="M108.273 17.7295L107.434 18.5592L107.194 17.2495L108.273 17.7295Z" fill="#FFC654"/>
<path d="M105.877 14.792L106.776 14.6277L107.016 15.9418L106.117 16.1062L105.877 14.792Z" fill="#FFC654"/>
<path d="M104.921 15.6424L105.876 14.7893L106.116 16.1037L104.921 15.6424Z" fill="#FFC654"/>
<path d="M107.853 15.1065L107.013 15.9361L106.774 14.6265L107.853 15.1065Z" fill="#FFC654"/>
<path d="M110.793 16.5938L111.693 16.4294L111.933 17.7436L111.034 17.908L110.793 16.5938Z" fill="#FFC654"/>
<path d="M109.838 17.4435L110.792 16.5903L111.032 17.9038L109.838 17.4435Z" fill="#FFC654"/>
<path d="M112.769 16.9078L111.929 17.7384L111.69 16.4287L112.769 16.9078Z" fill="#FFC654"/>
<path d="M111.168 18.8279L112.067 18.6636L112.307 19.9777L111.408 20.1421L111.168 18.8279Z" fill="#FFC654"/>
<path d="M110.212 19.6786L111.166 18.8254L111.406 20.1398L110.212 19.6786Z" fill="#FFC654"/>
<path d="M113.144 19.1424L112.304 19.972L112.064 18.6624L113.144 19.1424Z" fill="#FFC654"/>
<path d="M111.609 21.889L112.509 21.7246L112.749 23.0388L111.85 23.2031L111.609 21.889Z" fill="#FFC654"/>
<path d="M110.654 22.7388L111.608 21.8848L111.848 23.1991L110.654 22.7388Z" fill="#FFC654"/>
<path d="M113.585 22.2032L112.745 23.0338L112.506 21.7241L113.585 22.2032Z" fill="#FFC654"/>
<path d="M67.1485 21.1012C67.5966 20.7431 68.6851 20.2603 69.3179 19.9537C70.0398 19.6041 70.7776 19.4194 71.5219 19.2741C74.2529 18.7406 77.0729 19.4616 79.5113 21.105C80.2773 21.6216 80.9898 22.2375 81.5054 23.0034C82.021 23.7694 82.3304 24.6966 82.292 25.6744C81.9601 25.9378 81.6226 26.2228 81.2016 26.2669C81.2298 25.5722 81.3685 24.795 81.092 24.2053C80.8154 23.6156 80.2566 23.1656 79.7823 22.7203C78.841 21.8372 77.5941 21.1603 76.2873 20.6887C75.5035 20.4056 74.6973 20.1928 73.9229 20.1928C73.0735 20.1928 71.5923 20.3766 71.0944 20.5172C70.3051 20.7394 69.5016 20.9887 68.6344 21.4125C68.3185 21.5662 67.8498 22.005 67.7598 22.4072C67.681 22.7625 67.3238 22.8197 67.1129 22.7203C66.8635 22.6031 66.7576 21.9516 66.7538 21.6769C66.7501 21.4022 67.0548 21.1762 67.1485 21.1012Z" fill="black"/>
<path d="M67.1214 22.7135C66.6704 21.912 65.7648 20.8704 64.4326 20.2638C63.0423 19.631 61.2058 19.4538 59.8548 19.7145C57.2092 20.2254 54.9995 22.1998 54.2486 24.4479C54.1229 24.8229 53.6073 24.836 53.3279 24.387C53.0448 23.9313 52.997 23.0079 52.787 22.6648C53.0045 22.8298 53.4189 22.8617 53.6533 22.721C53.8876 22.5804 53.9645 22.287 54.1389 22.077C55.382 20.5742 57.1211 19.3854 58.9933 18.8435C59.8951 18.5829 60.8092 18.5445 61.7486 18.5567C62.8933 18.5717 64.0464 18.7948 65.0673 19.3123C66.0883 19.8288 66.9714 20.651 67.4626 21.6851C67.5264 21.8192 67.5836 21.9795 67.5151 22.1117C67.4495 22.2392 67.2845 22.2888 67.1429 22.2654C67.0023 22.2401 67.1561 22.7754 67.1214 22.7135Z" fill="black"/>
<path d="M53.6824 22.7452C52.4917 20.5824 50.0533 19.3983 47.6495 18.8349C45.0011 18.2142 42.1999 18.1889 39.5692 18.8836C36.9386 19.5783 34.488 21.0052 32.9008 22.7499C30.2242 21.6896 27.0798 21.8874 24.557 23.2749C22.0351 24.6624 20.2464 27.2189 19.8114 30.0652C19.683 30.9043 19.7486 32.2814 20.0214 33.0783C20.2942 33.8752 20.6552 33.9961 21.4802 34.1658C20.8595 32.3555 20.6992 30.488 21.3358 28.7789C21.9217 27.2058 22.7711 25.7461 24.3086 24.7646C25.2208 24.1814 26.3598 23.5749 27.5448 23.4127C28.4748 23.2861 29.4405 23.1333 30.2861 23.2149C30.9648 23.2796 31.6492 23.5393 32.2961 23.768C32.792 23.9433 33.1914 24.1168 33.5252 23.7146C34.3727 22.6964 35.3598 21.9521 36.5617 21.2799C38.9739 19.9317 42.3123 19.2736 45.1577 19.5164C48.003 19.7592 51.5561 21.0624 52.9999 23.6855C53.268 24.173 53.6271 23.4643 54.1802 23.5261C53.9692 23.1952 53.7508 22.8689 53.6824 22.7452Z" fill="black"/>
<path d="M12.2866 65.1632C13.1144 63.0426 13.9047 60.9042 14.8131 58.9457C14.9763 58.5942 15.4113 58.1863 15.2106 57.8545C15.071 57.6229 14.8872 57.6698 14.4147 57.5423C12.3616 56.9892 10.4378 55.0963 9.77688 53.0751C8.77469 50.0123 9.22657 46.6017 10.4041 43.5623C11.1728 41.5776 12.4206 39.8095 13.9197 38.3057C14.7166 37.507 15.55 36.7654 16.495 36.1438C17.6978 35.3517 19.0263 34.6401 20.4663 34.6776C20.861 34.6879 21.3466 34.7048 21.5444 34.3635C21.6681 34.1498 21.6119 33.8685 21.4722 33.6651C21.3316 33.4617 21.1216 33.3192 20.8338 33.1917C20.4475 33.2901 20.4119 33.5667 20.0144 33.6004C16.751 33.8751 13.8991 36.4598 11.8984 38.9723C11.0641 40.0195 10.3844 40.8885 9.83126 42.112C8.89282 44.1867 8.43813 46.1104 8.18313 48.4476C7.96563 50.4445 8.25907 53.1876 9.2772 54.9192C10.2953 56.6507 12.04 57.757 13.7781 58.5482C13.8756 58.5923 13.9047 58.7442 13.8653 58.8145C13.6788 59.1463 13.6225 59.2654 13.4303 59.6076C13.3 59.8401 13.2006 60.1101 13.0384 60.3482C12.8669 60.5985 12.7956 60.8873 12.6925 61.0917C11.1269 64.1788 10.0591 67.9663 9.64844 70.957C9.58188 71.4388 10.6806 71.1407 10.7481 70.6523C10.9919 68.856 11.6819 66.7129 12.2866 65.1632Z" fill="black"/>
<path d="M10.8653 69.9695C10.5597 75.2814 10.1144 80.6635 9.80873 85.9754C9.76467 86.7498 9.66998 87.481 9.66998 88.2564C9.66998 88.7298 9.76935 89.0664 9.94654 89.476C10.1237 89.8857 10.4968 90.211 10.9431 90.1951C11.3612 90.1801 11.6687 89.8351 11.7728 89.4301C11.8731 89.0382 11.814 88.6482 11.7737 88.1823C11.7465 87.8673 11.7334 87.5307 11.8534 87.2945C11.9078 87.1867 11.9696 87.1201 12.0981 87.0573C12.3887 86.9139 12.8012 87.1576 12.9578 87.4407C13.1143 87.7248 13.0234 87.8064 13.0225 88.1307C12.894 89.1376 13.0028 88.817 12.8809 89.236C12.6803 89.9279 12.2903 90.7651 11.6725 91.1373C11.2881 91.3689 10.824 91.5142 10.389 91.4064C9.7731 91.2535 9.31185 90.7473 9.06435 90.1632C8.37998 88.5554 8.54686 86.7554 8.69405 85.0079C8.83092 83.3729 8.97248 81.4548 9.11873 79.7129C9.23405 78.3404 9.26873 77.0232 9.26591 75.6582C9.26404 74.6645 9.27904 73.6239 9.38122 72.6254C9.46091 71.8548 9.57247 71.1273 9.82372 70.2085C9.86591 70.0548 10.419 70.1889 10.5784 70.187C10.7368 70.187 10.9909 70.307 10.8653 69.9695Z" fill="black"/>
<path d="M12.3438 88.1816C12.0803 87.8112 12.4441 88.34 12.3747 87.89C12.3494 87.7288 12.3494 87.5394 12.4741 87.4344C12.5857 87.3416 12.7572 87.2656 12.8828 87.3397C13.0085 87.4137 13.0975 87.6266 13.1922 87.7372C13.4491 88.0391 13.7566 88.2969 14.0978 88.4975C14.2657 88.5959 14.441 88.6588 14.6247 88.5959C14.8572 88.5163 14.8619 88.1759 14.8178 87.9341C14.7419 87.5188 14.426 87.3903 14.1269 87.0922C13.1632 86.1331 12.6044 85.3231 12.2547 84.0725C10.736 78.6416 12.34 72.0509 14.2385 66.74C14.3107 67.3072 14.6125 67.8069 14.6247 68.3853C14.6322 68.7622 14.4119 69.3116 14.3275 69.7175C14.1082 70.775 13.9066 71.6844 13.6825 72.7625C13.57 73.3034 13.4772 74.0066 13.4069 74.5409C13.3132 75.2581 13.1622 75.9106 13.12 76.5894C13.0994 76.9203 12.9972 77.5212 12.9597 78.1231C12.9222 78.7381 12.8679 79.4131 12.8454 79.7825C12.7235 81.7662 12.7488 82.1234 13.1144 84.0275C13.2419 84.6912 13.9263 85.1581 14.3735 85.6925C15.0531 86.5044 15.9185 87.3687 15.8013 88.4056C15.6775 89.5044 14.8431 89.9881 13.7847 89.6666C12.7263 89.3459 11.5413 87.2534 12.3438 88.1816Z" fill="black"/>
<path d="M13.6915 68.466C13.7346 68.0817 13.7187 67.6017 13.8921 67.2267C14.0487 66.8882 14.1087 66.5413 14.4799 66.5123C14.6712 66.4973 14.7837 66.5929 14.9065 66.7401C15.0293 66.8873 15.1746 67.3879 15.2543 67.5623C15.7615 68.6667 16.534 69.4213 17.4621 70.0673C18.2421 70.6101 19.1253 71.1088 20.1209 71.3329C20.5728 71.4351 21.3659 71.5542 21.7062 71.8692C21.9996 72.141 21.8515 72.5442 21.9284 72.922C22.0109 73.3326 22.1487 73.7479 22.2537 74.1342C22.3718 74.5692 22.4112 74.916 22.5115 75.3557C22.6118 75.7954 22.5171 76.3363 22.1224 76.5538C21.3593 75.3792 20.6937 73.9748 20.5503 72.5817C20.0121 72.5507 19.4796 72.3313 19.0156 72.1663C18.514 71.9873 18.0134 71.7351 17.5249 71.4182C16.5837 70.8079 15.7531 70.1273 15.034 69.2667C14.8006 68.9863 14.6393 68.6807 14.2821 68.6067C14.0309 68.5551 13.6803 68.5729 13.6915 68.466Z" fill="black"/>
<path d="M22.0064 76.4613C23.2608 78.8548 25.7498 80.7766 28.4001 81.2866C31.0542 81.7976 33.7401 82.092 36.158 80.8845C37.4301 80.2488 36.9023 80.4738 37.3195 80.3173C37.4995 80.2507 37.7564 80.4663 37.9505 80.6351C38.1333 80.7935 38.3761 80.9632 38.5448 81.0532C40.2276 81.9551 42.2601 82.9948 44.1783 83.2066C44.4651 83.2385 44.6086 83.262 44.8598 83.1195C45.1101 82.977 45.2339 82.6076 45.0576 82.3788C44.9301 82.212 44.5289 82.1529 44.3236 82.107C42.5742 81.7151 41.0273 81.1188 39.4345 80.3173C38.7811 79.9882 37.6636 79.1126 37.6636 79.1126C37.6636 79.1126 36.3473 79.6826 35.8401 79.8785C33.2826 80.8694 30.0586 80.8301 27.487 79.8766C24.9155 78.9232 23.093 76.6835 22.2539 74.3341C22.2173 74.2319 21.5386 74.2104 21.6136 74.1326C21.2873 74.8638 21.6773 75.8332 22.0064 76.4613Z" fill="black"/>
<path d="M43.848 82.7405C44.5717 83.6348 44.7152 84.8133 44.8811 85.9523C45.1595 87.8658 45.4492 90.2208 45.3845 92.1276C45.2852 95.0198 44.643 97.4601 44.0739 100.336C43.8949 101.243 43.7214 102.256 44.2249 103.031C44.7658 103.864 45.9677 103.995 46.9586 104.062C48.5458 104.168 50.0533 104.15 51.6105 103.826C52.4308 103.654 53.3167 103.367 53.7489 102.649C54.3142 101.707 53.7836 100.406 52.8686 99.7973C51.9536 99.1889 50.7892 99.1148 49.6914 99.157C49.1917 99.1767 48.2814 99.2461 48.2814 99.2461C48.2814 99.2461 48.2749 98.1736 48.3199 97.9045C48.6986 95.6601 49.0099 93.3483 49.0605 91.0739C49.128 88.0045 49.382 84.7092 48.7792 81.757C48.7492 81.6098 48.663 81.5817 48.5514 81.4814C48.3864 81.3342 48.0339 81.412 47.9177 81.5995C47.8014 81.788 47.8042 81.9989 47.8108 82.2202C47.9524 87.6108 47.7921 93.0576 47.1902 98.4164C47.1171 99.0698 46.8705 99.9183 47.4283 100.265C47.9289 100.576 48.7895 100.186 49.3783 100.147C49.7777 100.12 50.6261 100.135 51.0414 100.235C51.5374 100.354 52.2892 100.642 52.8367 101.237C53.0224 101.439 52.983 101.778 52.9024 102.04C52.8386 102.247 52.6361 102.353 52.442 102.451C50.8624 103.252 46.2564 102.942 45.7361 102.697C45.4999 102.585 45.228 102.589 45.1127 102.344C44.9214 101.934 45.0986 100.976 45.1408 100.532C45.3424 98.4089 46.0342 96.3323 46.2911 94.2361C46.398 93.3605 46.382 92.4351 46.4655 91.5483C46.608 90.0492 46.367 88.4901 46.1974 86.9939C46.0277 85.4977 45.6817 83.9845 45.1399 82.4405C45.1202 82.3852 44.9636 82.2764 44.867 82.2464C44.642 82.1761 44.3805 82.5408 44.2558 82.5023C44.0758 82.4461 43.9183 82.6139 43.848 82.7405Z" fill="black"/>
<path d="M48.1241 82.1622C47.9507 81.9841 47.8213 81.6719 47.9694 81.4713C48.1175 81.2707 48.5094 81.1666 48.7513 81.1075C48.9932 81.0485 49.1685 81.0288 49.3907 80.9219C50.3254 80.4719 50.4257 80.3847 50.705 80.1804C51.2254 79.7988 51.3782 79.6169 51.9191 79.2541C52.2472 79.0347 52.5754 78.7703 52.9607 78.8603C53.3479 78.9503 53.7032 79.3478 53.9816 79.6319C54.8779 80.5441 56.0694 81.1029 57.1672 81.7572C57.2263 81.7929 57.3022 81.8285 57.3472 81.8866C57.38 81.9288 57.4025 81.9804 57.4204 82.0319C57.4354 82.076 57.4485 82.12 57.4616 82.1613C57.5432 82.4004 57.3332 82.661 57.0875 82.7238C56.8419 82.7866 56.585 82.706 56.3479 82.6169C55.4732 82.285 54.6932 81.7535 53.9807 81.1469C53.6938 80.9022 53.4341 80.6622 53.1838 80.38C53.0807 80.2638 52.9185 80.065 52.7638 80.0472C52.5904 80.0266 52.4375 80.2441 52.3044 80.3566C51.6613 80.8994 50.9132 81.4179 50.1341 81.775C49.8191 81.9194 49.4994 81.9785 49.1797 82.0928C48.981 82.1641 48.7766 82.1829 48.5657 82.1904C48.3557 82.196 48.1897 82.2297 48.1241 82.1622Z" fill="black"/>
<path d="M56.4911 82.049C56.6786 81.8577 57.2111 81.6599 57.3882 81.9515C57.4304 82.0218 57.5654 82.2543 57.5936 82.3349C57.6564 82.5168 57.6489 82.7774 57.6554 82.9537C57.662 83.1449 57.6911 83.3371 57.6948 83.5302C57.7989 88.3668 57.0873 93.5709 55.592 98.3493C55.382 99.0206 55.0248 99.8399 55.4429 100.405C55.7936 100.879 56.2595 101.055 56.7864 101.204C57.3142 101.353 57.7782 101.371 58.3257 101.347C59.7611 101.284 60.9826 101.258 62.4039 101.046C62.7264 100.999 63.3114 100.838 63.4436 100.54C63.6104 100.162 63.2692 99.9965 62.9364 99.7518C62.3636 99.3299 61.4626 99.1931 60.7848 98.9774C60.0929 98.7571 59.5679 98.6634 58.7082 98.5274C58.4139 98.4806 58.1026 98.4637 57.8814 98.3427C57.7492 98.2706 57.6789 98.1449 57.5795 97.9959C57.3939 97.7156 57.5879 97.1137 57.6395 96.7818C57.8636 95.3456 57.9517 93.7218 58.1664 92.3437C58.3632 91.0799 58.4092 89.9043 58.5723 88.7418C58.8095 87.0496 59.1386 85.3865 59.2361 83.5256C59.2473 83.3099 59.4057 82.6846 59.4057 82.6846L59.8998 82.7474H60.3226C60.3226 82.7474 60.3451 83.2762 60.3273 83.4196C59.8145 87.5277 59.2314 91.7774 58.7195 95.8856C58.6567 96.3853 58.6332 97.5309 58.6332 97.5309C58.6332 97.5309 59.6936 97.6949 60.1586 97.8046C60.707 97.934 61.2845 98.1543 61.8526 98.2856C62.4826 98.4309 63.1248 98.6334 63.6789 98.9193C64.0914 99.1321 64.4176 99.4199 64.5029 99.8756C64.6042 100.418 64.5714 101.051 64.1214 101.371C63.5973 101.743 62.9954 101.925 62.3739 102.082C61.7261 102.245 60.8814 102.346 60.242 102.406C59.0748 102.515 57.8682 102.49 56.6336 102.285C55.9014 102.163 55.3839 101.908 54.9676 101.573C54.6067 101.284 54.3029 100.958 54.2148 100.322C54.1529 99.8737 54.3901 98.7159 54.5083 98.324C54.6526 97.8449 54.8111 97.1596 54.9929 96.6693C55.1767 96.1743 55.2301 95.6259 55.3867 95.1196C55.8067 93.7621 55.9876 92.4149 56.2173 91.0031C56.702 88.0406 56.777 85.0002 56.4911 82.049Z" fill="black"/>
<path d="M93.1473 62.8619C94.1748 65.9631 94.367 69.0841 92.7854 71.9434C91.2048 74.8028 87.8064 77.2966 84.5457 77.4963C83.2407 77.5759 81.8814 77.3509 80.7864 76.6347C80.4245 77.7897 79.7289 79.1678 78.8954 80.0463C77.5426 81.4713 76.1317 82.3872 74.3729 83.2684C73.2329 83.8394 71.9673 84.1759 70.7007 84.235C70.0145 84.2669 69.3273 84.25 68.6598 84.0691C67.5798 83.7766 66.5579 83.3838 65.582 82.8381C65.192 82.6206 64.2498 81.9063 64.2498 81.9063C64.2498 81.9063 63.2551 82.4753 62.7198 82.6863C62.0579 82.9459 60.3592 83.2553 60.3592 83.2553C60.3592 83.2553 60.2129 83.5 59.9532 83.4306C59.6935 83.3603 59.3804 82.7809 59.4273 82.6722C59.551 82.3863 60.5476 82.2597 61.5507 81.9531C62.1029 81.7844 62.5642 81.5959 62.9776 81.3869C63.3254 81.2116 63.8335 80.95 64.141 80.7916C64.3032 80.7081 64.4992 80.7297 64.6389 80.8459C64.9801 81.1291 65.5773 81.6934 65.8764 81.8753C66.3507 82.1641 66.7717 82.3403 67.2789 82.5503C67.4804 82.6338 67.7335 82.7106 67.9417 82.78C68.8857 83.0931 69.7698 83.2131 70.7542 83.1231C72.5007 82.9638 74.2782 82.3047 75.6967 81.2734C77.1151 80.2422 78.6057 78.9925 79.3754 77.2534C79.5835 76.7828 79.4898 76.0797 79.8142 75.6494C79.8817 75.5594 79.9126 75.4309 80.0035 75.3634C80.6354 74.8984 81.2626 75.8453 81.886 76.0984C83.401 76.7125 85.4401 76.4238 86.9411 75.7741C88.442 75.1244 89.7039 74.0097 90.7389 72.7441C92.0823 71.1025 93.1107 69.0409 92.8857 66.9325C92.7517 65.6781 92.3757 64.3947 92.0542 63.1741C91.9548 62.7962 91.7298 62.425 92.1095 62.2478C92.2829 62.1672 92.4882 62.1916 92.6495 62.2937C92.8754 62.4316 93.0779 62.6537 93.1473 62.8619Z" fill="black"/>
<path d="M117.159 24.2065C117.277 24.4568 117.162 24.7615 116.978 24.9668C116.794 25.173 116.549 25.3137 116.341 25.4946C115.972 25.8152 115.822 26.3477 115.61 26.7884C114.561 28.9718 113.979 31.5368 114.151 33.9518C114.437 37.9615 114.327 40.8837 113.503 44.8802C113.29 45.9115 112.514 47.9093 112.053 48.8468C111.776 49.4093 111.287 50.2549 110.834 50.6955C109.599 51.8937 108.483 52.1449 106.792 52.4609C103.987 52.9849 100.927 53.2062 98.159 53.5821C98.0606 53.5952 97.9556 53.6121 97.8853 53.6824C97.8 53.7677 97.7943 53.9018 97.7934 54.0227C97.7465 57.6218 95.8593 61.1487 92.7656 63.1296C92.6212 63.259 92.3653 63.1774 92.2771 63.0049C92.1881 62.8324 92.2368 62.6158 92.3456 62.4546C92.4543 62.2943 92.6146 62.1771 92.7675 62.058C95.279 60.1165 97.2571 56.0187 96.5934 53.2287C96.5081 52.8696 96.8887 52.6334 97.0171 52.6155C98.6062 52.3934 100.476 52.1909 102.112 51.8693C104.283 51.4662 107.369 51.4802 109.45 50.4077C110.473 49.8809 110.618 49.0605 111.156 48.1127C112.018 46.5902 112.544 44.5915 112.835 42.6949C113.249 39.9893 113.146 37.3521 112.991 34.6193C112.837 31.8865 112.829 29.2568 114.309 26.9552C114.661 26.4087 113.763 24.9162 114.239 24.7671C114.891 24.5637 116.488 24.1765 117.159 24.2065Z" fill="black"/>
<path d="M87.5694 28.5773C86.764 24.3557 85.8884 19.7357 85.084 15.5141C84.9819 14.976 84.8844 14.3929 85.1272 13.9016C85.4815 13.1845 86.3844 12.9716 87.1728 12.8385C93.3725 11.7951 99.5712 10.7516 105.771 9.70914C108.291 9.2282 110.802 8.74352 113.313 8.25977C113.586 8.20727 113.882 8.15664 114.132 8.27945C114.491 8.4557 114.604 8.90383 114.678 9.29664C115.521 13.7882 116.364 18.2798 117.207 22.7713C117.297 23.2513 117.38 24.1354 117.209 24.5929C117.039 25.0504 116.512 25.0354 116.064 24.8404C116.041 24.6791 116.022 24.4682 116.154 24.3745C115.173 19.3354 114.389 14.4135 113.356 9.54039C105.072 10.9841 96.8009 12.5741 88.579 14.1257C87.6622 14.2851 86.1875 14.5738 86.1875 14.5738C86.1875 14.5738 86.3159 15.3126 86.3515 15.6426C86.5072 17.0601 86.929 18.5413 87.1484 19.9504C87.6575 23.2176 88.3447 26.526 88.955 29.7266C88.1769 29.5748 87.679 29.1538 87.5694 28.5773Z" fill="black"/>
<path d="M97.1271 48.3299C97.82 46.2186 97.7328 43.8608 96.8871 41.8058C96.4643 40.7783 96.0893 39.4105 95.3337 38.5227C94.5781 37.6348 94.1346 37.4089 93.1306 36.9327C93.0603 36.8989 92.7921 36.793 92.5259 36.763C92.1293 36.717 91.7075 36.7536 91.7075 36.7536C91.7075 36.7536 91.6784 35.6623 91.6784 35.562C91.6784 34.9658 91.429 33.6561 91.354 33.417C90.6181 31.0836 90.23 30.8905 88.5706 29.1345C86.9112 27.3786 84.8159 25.8289 82.3849 25.6414C82.1384 25.6227 81.8178 25.6273 81.5796 25.693C81.3415 25.7586 81.1765 26.0108 81.199 26.3192C81.2328 26.7908 81.6893 26.5855 82.1571 26.6558C84.4615 27.0017 87.0528 28.933 88.594 30.6814C90.1353 32.4298 90.6124 34.2617 90.6668 36.5914C90.6734 36.883 90.5478 37.5664 90.6949 37.8177C90.9246 38.2105 92.015 37.7858 92.4462 37.9311C94.4534 38.6089 95.4921 40.7033 96.0453 42.7489C96.4934 44.4073 96.4906 47.6736 96.065 48.9702C95.9684 49.258 96.9781 48.1274 97.1271 48.3299Z" fill="black"/>
<path d="M96.2543 49.0895C96.6228 48.7745 96.9228 48.3798 97.1262 47.9402C97.0878 47.9317 97.0484 47.9233 96.2543 49.0895Z" fill="black"/>
<path d="M94.1442 33.566C94.3092 33.5191 94.4957 33.5875 94.596 33.7253C94.701 33.8547 94.8135 33.9775 94.927 34.0994C95.6123 34.8278 96.217 35.6285 96.8189 36.4263C97.1292 36.821 97.4442 37.2185 97.7939 37.6741C98.257 38.2188 98.7126 38.7691 99.1373 39.3447C99.2254 39.4535 99.3211 39.5641 99.3136 39.7132C99.322 40.0779 98.8476 40.2766 98.5935 40.0113C98.0676 39.2894 97.5895 38.7625 96.9248 37.9207C96.2048 37.0104 95.6432 36.2369 94.7704 35.1766C94.4817 34.8428 94.1564 34.54 93.892 34.1857C93.7504 33.955 93.8835 33.6344 94.1442 33.566Z" fill="black"/>
<path d="M101.23 38.434C101.91 37.1947 102.514 35.9159 103.179 34.6681C103.394 34.2715 103.571 33.8562 103.747 33.4419C103.973 32.9881 104.174 32.5231 104.384 32.0619C104.548 31.7206 105.07 31.774 105.166 32.1406C105.199 32.2737 105.169 32.4012 105.099 32.5165C105.03 32.6731 104.956 32.8278 104.888 32.9844C104.645 33.5337 104.379 34.0728 104.145 34.6269C103.496 35.8925 102.845 37.1581 102.197 38.4247C102.087 38.6094 102.018 38.84 101.85 38.9787C101.495 39.2665 100.998 38.8287 101.23 38.434Z" fill="black"/>
<path d="M103.973 39.7131C104.245 39.7244 104.672 39.5847 105.199 39.4656C105.741 39.3353 106.3 39.2772 106.831 39.1038C107.235 38.9631 107.641 38.8338 108.04 38.681C108.197 38.6003 108.348 38.5066 108.512 38.4391C108.628 38.3941 108.747 38.3182 108.874 38.3519C109.324 38.3997 109.366 39.055 108.93 39.1732C108.924 39.176 108.917 39.1778 108.911 39.1806C108.749 39.251 108.599 39.3438 108.441 39.4235C107.992 39.6128 107.523 39.7525 107.063 39.9156C106.62 40.0647 106.155 40.121 105.699 40.2203C105.292 40.3038 104.893 40.4144 104.488 40.5035C104.268 40.5335 104.023 40.6047 103.81 40.5213C103.388 40.3581 103.522 39.7075 103.973 39.7131Z" fill="black"/>
<path d="M98.354 57.3593C98.6034 57.0237 98.9053 56.7321 99.1931 56.4312C99.4396 56.1293 99.6646 55.8687 99.9393 55.5912C100.417 55.0568 100.553 54.8721 100.912 54.3987C101.02 54.2505 101.123 54.0996 101.229 53.9496C101.285 53.8559 101.377 53.7846 101.482 53.7555C101.834 53.6505 102.151 54.0602 101.958 54.3752C101.431 55.1327 100.866 55.8705 100.212 56.524C99.8606 56.973 99.4509 57.3574 99.0815 57.7896C99.0178 57.8702 99.0262 57.8524 98.8725 58.0737C98.8087 58.1796 98.7178 58.2734 98.595 58.3043C98.3353 58.3821 98.0578 58.1674 98.0606 57.8974C98.0615 57.6809 98.2406 57.5262 98.354 57.3593Z" fill="black"/>
<path d="M105.485 55.3019C105.534 56.3378 105.697 57.3653 105.754 58.4003C105.805 58.9984 105.84 59.1784 105.973 59.8815C106.045 60.3297 106.109 60.7797 106.227 61.2184C106.334 61.5719 105.923 61.8878 105.608 61.6947C105.462 61.6094 105.406 61.4556 105.377 61.2981C105.333 61.1144 105.295 60.9287 105.264 60.7422C105.136 59.9265 104.949 59.1175 104.904 58.2906C104.842 57.2922 104.688 56.3012 104.641 55.3019C104.654 54.7478 105.469 54.745 105.485 55.3019Z" fill="black"/>
<path d="M107.861 53.2188C108.434 53.7466 109.011 54.2716 109.597 54.7863C110.083 55.1838 110.325 55.3479 110.925 55.8147C111.34 56.1485 111.729 56.5113 112.15 56.8376C112.165 56.8479 112.184 56.8629 112.21 56.8807C112.475 57.086 112.983 57.3147 112.802 57.7244C112.733 57.9213 112.501 58.0207 112.304 57.9691C112.191 57.9401 112.11 57.8547 112.023 57.7807C111.756 57.5904 111.492 57.3972 111.241 57.1844C110.518 56.561 110.199 56.3041 109.429 55.7257C108.959 55.3769 108.537 54.971 108.103 54.5791C107.905 54.4038 107.707 54.2294 107.514 54.0485C107.402 53.9276 107.236 53.8394 107.176 53.681C106.989 53.2638 107.539 52.8954 107.861 53.2188Z" fill="black"/>
<path d="M95.2456 50.048C95.0666 50.2458 95.1144 50.4998 95.3572 50.6105C95.7088 50.7698 95.8006 50.7323 96.0378 50.633C96.4419 50.4642 97.2341 49.927 97.6981 49.297C98.0103 48.8733 98.2841 48.1777 98.5316 47.4258C98.8775 46.3748 99.171 45.2142 99.4438 44.5317C99.7203 43.838 100.161 43.1723 100.899 43.057C101.591 42.9483 102.25 43.3598 102.76 43.8408C103.524 44.5608 104.214 45.2986 104.978 46.0186C105.666 46.6673 106.319 47.6414 107.152 47.8561C107.938 48.0595 108.529 47.8439 109.081 47.2486C109.633 46.6533 109.894 45.7111 110.144 44.9386C110.398 44.1595 110.693 43.3692 110.857 42.5705C111.349 40.1752 111.412 37.7067 111.618 35.2589C111.746 33.7401 111.919 32.2805 111.974 30.7223C112.041 28.837 111.354 26.2551 111.923 25.1423C110.558 25.3683 109.059 25.5961 107.633 25.8398C106.206 26.0836 104.905 26.3667 103.599 26.468C100.926 26.6742 98.4022 27.3192 95.6038 27.727C94.7122 27.8564 93.4681 28.2061 92.2297 28.3795C90.9228 28.5633 89.6891 28.7339 88.7253 28.8698C88.1985 28.9439 88.4881 30.022 89.0141 29.9236C90.9097 29.5701 92.4922 29.4211 94.3681 29.0714C96.8591 28.6073 99.11 28.2239 101.601 27.9361C102.712 27.8076 104.053 27.502 105.061 27.3858C106.337 27.2386 107.002 27.0858 108.314 26.8805C108.928 26.7848 110.459 26.5833 110.459 26.5833C110.459 26.5833 110.66 27.7973 110.706 28.2773C110.781 29.063 110.81 29.8383 110.805 30.682C110.794 32.7136 110.593 34.8717 110.389 36.9483C110.247 38.4052 110.199 39.7627 109.953 41.0761C109.764 42.0914 109.605 42.9652 109.37 43.9852C109.265 44.4389 109 45.0492 108.738 45.5845C108.478 46.1198 108.222 46.582 107.783 46.7377C107.068 46.9917 107.03 46.4742 106.408 45.892C105.855 45.3736 105.299 44.783 104.719 44.1305C104.159 43.5014 103.346 42.9286 102.744 42.4683C101.836 41.7745 100.544 41.8842 99.6078 42.4064C98.8616 42.8227 98.6647 43.4498 98.376 44.2533C98.0844 45.0633 97.7047 46.4742 97.4891 47.153C97.2472 47.9142 97.0278 47.3742 96.5938 48.007C96.1981 48.5845 95.8203 49.4114 95.2456 50.048Z" fill="black"/>
</svg>
