<svg width="128" height="132" viewBox="0 0 128 132" fill="none" xmlns="http://www.w3.org/2000/svg">
<path d="M95.5234 53.9537C98.3361 53.9537 100.616 51.5724 100.616 48.6349C100.616 45.6975 98.3361 43.3162 95.5234 43.3162C92.7108 43.3162 90.4307 45.6975 90.4307 48.6349C90.4307 51.5724 92.7108 53.9537 95.5234 53.9537Z" fill="#A02016"/>
<path d="M56.9365 12.494C60.0965 12.494 62.6582 10.0185 62.6582 6.96467C62.6582 3.91089 60.0965 1.4353 56.9365 1.4353C53.7765 1.4353 51.2148 3.91089 51.2148 6.96467C51.2148 10.0185 53.7765 12.494 56.9365 12.494Z" fill="#CE7F1F"/>
<path d="M32.1988 34.2999C35.3057 34.2999 37.8243 31.7813 37.8243 28.6744C37.8243 25.5675 35.3057 23.0488 32.1988 23.0488C29.0919 23.0488 26.5732 25.5675 26.5732 28.6744C26.5732 31.7813 29.0919 34.2999 32.1988 34.2999Z" fill="#F3C905"/>
<path d="M23.5181 61.7618C26.6515 61.7618 29.1917 59.2216 29.1917 56.0882C29.1917 52.9547 26.6515 50.4146 23.5181 50.4146C20.3846 50.4146 17.8445 52.9547 17.8445 56.0882C17.8445 59.2216 20.3846 61.7618 23.5181 61.7618Z" fill="#19A48C"/>
<path d="M85.5213 33.1635C88.5486 33.1635 91.0026 30.6879 91.0026 27.6341C91.0026 24.5803 88.5486 22.1047 85.5213 22.1047C82.4941 22.1047 80.04 24.5803 80.04 27.6341C80.04 30.6879 82.4941 33.1635 85.5213 33.1635Z" fill="#0360A6"/>
<path d="M42.9628 75.3088C42.6762 68.4678 46.4468 61.3296 51.8483 57.1225C57.2497 52.9153 64.7197 51.5075 71.2828 53.4596C69.1557 55.9291 67.4805 58.9121 67.1574 62.1556C66.8343 65.3992 68.0565 68.9044 70.7308 70.768C72.0713 71.7017 73.6686 72.1777 75.2293 72.6614C76.79 73.1451 78.3796 73.6711 79.6634 74.6818C80.9472 75.6925 81.8838 77.2975 81.6616 78.9159C78.6633 83.3048 72.7791 85.4934 67.6421 84.1298C64.7591 83.3644 62.2387 81.6363 59.8365 79.8679C57.4344 78.0995 55.0466 76.2368 52.2752 75.1338C49.5028 74.0308 45.7121 74.2202 42.9628 75.3088Z" fill="#9DC42D"/>
<path d="M49.9189 115.504C49.039 110.5 49.3592 105.343 48.4832 100.337C47.1283 92.5867 42.9365 85.3119 43.0913 77.2737C47.1763 76.2399 51.6421 77.2487 55.1473 79.5883C58.6524 81.928 61.2296 85.5062 62.774 89.4267C64.8472 94.6907 65.0848 100.788 62.7826 105.957C60.4814 111.125 55.4714 115.162 49.9189 115.504Z" fill="#27A4DE"/>
<path d="M20.7119 100.52C27.2039 100.449 34.0093 101.677 40.3388 103.123C42.3264 103.577 44.3507 104.06 46.0903 105.123C47.8308 106.187 49.2704 107.945 49.4262 109.979C49.4704 102.52 48.4559 95.008 45.7133 88.0728C45.5056 87.5468 45.4258 86.0928 44.8623 86.1409C44.0122 86.2139 43.39 86.0639 42.789 85.8908C37.149 84.2676 31.4475 81.7828 26.2961 78.9709C26.1605 80.3057 26.2499 81.928 25.5662 83.0829C24.8834 84.2368 23.2679 84.5686 21.9716 84.2215C22.3303 84.66 22.2928 85.8533 21.9284 86.2861C21.5639 86.7188 20.8042 86.9025 20.7763 87.4679C20.7427 88.1613 21.6947 88.9834 21.6687 89.6768C21.637 90.5519 20.535 91.1663 20.6427 92.0357C20.7234 92.6886 21.462 93.0906 21.5995 93.7339C21.7226 94.3089 21.3341 94.8551 21.1956 95.4273C20.9946 96.261 21.337 97.115 21.5331 97.9497C21.7331 98.7824 21.3341 99.9027 20.7119 100.52Z" fill="#27A4DE"/>
<path d="M23.6495 83.2559C21.3839 82.1269 19.4193 80.4527 17.7605 78.541C16.1017 76.6293 14.7381 74.4801 13.4995 72.2722C13.1678 71.6817 12.8389 71.0663 12.7677 70.3931C12.6966 69.72 12.9447 68.968 13.5341 68.6343C14.2198 68.2468 15.0833 68.5353 15.7805 68.9016C18.2182 70.1816 20.1021 72.2962 21.8205 74.4483C22.6946 75.5436 23.5418 76.6601 24.3881 77.7765C24.8737 78.417 25.3766 79.1017 25.4583 79.9008C25.5247 80.5479 25.2987 81.198 24.9506 81.749C24.6025 82.2991 24.139 82.7645 23.6495 83.2559Z" fill="#27A4DE"/>
<path d="M20.8377 86.208C15.0122 86.2215 9.13758 85.7484 3.5534 84.0915C3.11489 83.9617 2.66773 83.8184 2.30808 83.5357C1.94843 83.253 1.6888 82.7991 1.76188 82.3471C1.86093 81.7384 2.48406 81.3759 3.05527 81.1441C7.27586 79.4353 12.0407 80.1844 16.5277 80.9614C17.5066 81.1306 18.499 81.3047 19.402 81.7192C20.305 82.1336 21.1252 82.8231 21.4811 83.7511C21.8369 84.68 21.7022 86.2061 20.8377 86.208Z" fill="#27A4DE"/>
<path d="M20.4999 91.072C15.3984 91.7336 10.1979 91.6384 5.12917 90.7604C4.0483 90.5729 2.93089 90.3315 2.0635 89.6603C1.19514 88.9891 0.657595 87.7668 1.10091 86.7629C1.57307 85.6926 2.88954 85.306 4.05503 85.2108C8.14484 84.8762 12.1231 86.5571 16.2129 86.8879C17.0986 86.9591 17.9987 86.9687 18.8564 87.2014C19.7142 87.4332 20.5499 87.9284 20.9518 88.7217C21.3538 89.5132 21.3086 90.9662 20.4999 91.072Z" fill="#27A4DE"/>
<path d="M20.1869 95.2794C16.5125 95.8813 12.7737 96.0881 9.05508 95.8967C7.3328 95.8083 5.59129 95.6284 3.9796 95.0159C3.49397 94.8312 3.01604 94.6033 2.63235 94.2533C2.24866 93.9033 1.96691 93.4167 1.95729 92.8974C1.93902 91.9185 2.89103 91.1501 3.85651 90.9847C4.82198 90.8193 5.80092 91.0895 6.76063 91.2828C10.1234 91.9608 13.592 91.7069 17.0222 91.7002C17.7694 91.6982 18.5319 91.7117 19.2368 91.9579C19.9417 92.2041 20.5917 92.7272 20.7995 93.4446C21.0081 94.1619 20.6908 95.1967 20.1869 95.2794Z" fill="#27A4DE"/>
<path d="M19.8254 96.1382C20.462 96.6171 21.1582 97.2085 21.1765 98.0047C21.189 98.5211 20.8918 99.0086 20.4918 99.3346C20.0918 99.6606 19.5965 99.8472 19.1013 99.9943C17.4934 100.471 15.8019 100.586 14.1258 100.646C12.1237 100.719 10.0966 100.718 8.14929 100.247C7.03573 99.978 5.90197 99.5145 5.20863 98.6028C4.86341 98.148 4.65473 97.4864 4.98169 97.0181C5.29133 96.5738 5.91639 96.5171 6.45779 96.5017C10.9265 96.3815 15.3932 96.2603 19.8254 96.1382Z" fill="#27A4DE"/>
<path d="M68.304 65.3242C73.142 65.1395 77.928 63.7404 82.1024 61.2882C82.3957 61.1161 82.7082 60.9113 82.8073 60.5862C82.9237 60.2073 82.7073 59.8111 82.4746 59.4909C81.6418 58.3456 80.4927 57.458 79.2493 56.7801C78.0059 56.1021 76.6654 55.6233 75.3191 55.1838C74.4228 54.8915 73.5689 54.4222 72.6621 54.1625C72.3457 54.0721 71.9601 54.175 71.6457 54.2731C71.2158 54.4068 70.9658 54.8424 70.7571 55.2424C69.6868 57.2955 68.605 59.3784 68.0982 61.6373C67.8155 62.9018 67.7376 64.302 68.304 65.3242Z" fill="#F0D00B"/>
<path d="M68.3762 66.3628C68.683 68.111 69.8369 69.6419 71.3073 70.6372C72.7766 71.6325 74.7778 72.4191 76.5424 72.6114C78.307 72.8038 79.8485 72.4143 81.6188 72.3008C81.7429 72.2931 81.8746 72.2816 81.9727 72.2056C82.0996 72.1066 82.1304 71.921 82.0891 71.7652C82.0477 71.6094 81.9486 71.4767 81.8525 71.3478C80.4168 69.4438 78.9657 67.5273 77.9425 65.3732C77.8002 65.0732 77.6607 64.7616 77.4232 64.5309C77.1847 64.3001 76.8174 64.1674 76.5145 64.302C76.2568 64.4164 76.1039 64.7001 76.0779 64.9819C76.051 65.2627 76.1914 65.5281 76.2279 65.8079C76.4616 67.5686 77.7588 68.6389 78.8618 69.7429C79.0638 69.9448 79.2253 70.2352 79.1618 70.5141C79.1051 70.7641 78.757 70.7872 78.5031 70.8247C78.2493 70.8622 78.0896 70.9401 77.8435 70.8699C74.822 70.0083 72.016 68.4437 69.6167 66.4147C69.4513 66.2743 69.2773 66.1272 69.0657 66.082C68.8532 66.0358 68.5926 66.1358 68.3762 66.3628Z" fill="#F0D00B"/>
<path d="M70.4256 66.5497C71.8113 68.3643 73.624 69.1913 75.6376 70.0606C76.456 70.4135 77.3186 70.701 78.209 70.728C78.3648 70.7328 78.5398 70.7212 78.6427 70.6049C78.8293 70.3952 78.6312 70.075 78.4437 69.8664C77.357 68.6557 76.455 67.2786 75.7809 65.7987C75.6828 65.5842 75.5799 65.3544 75.3818 65.2255C75.1357 65.0659 74.8164 65.1063 74.5279 65.1572C73.098 65.4102 69.6832 65.5775 70.4256 66.5497Z" fill="#772131"/>
<path d="M83.0793 78.8857C84.9151 85.4421 85.7008 92.2918 85.3978 99.0934C88.0298 95.8546 91.7879 93.7564 95.5392 91.9283C100.18 89.6665 104.961 87.6952 109.847 86.0287C108.485 85.0623 107.987 83.0534 108.741 81.5629C107.29 80.7772 106.976 78.4953 108.161 77.3471C107.321 77.1663 106.608 76.4874 106.386 75.6566C106.164 74.8257 106.444 73.8824 107.083 73.3073C106.25 73.6727 105.156 73.214 104.834 72.3639C104.685 71.9716 104.667 71.4966 104.352 71.2196C104.028 70.9359 103.545 70.9888 103.115 70.9956C101.026 71.0263 99.0462 69.3473 98.7347 67.2817C94.4641 72.2111 89.1838 76.2634 83.0793 78.8857Z" fill="#1A6A8F"/>
<path d="M103.03 70.1395C101.692 70.555 100.271 69.4 99.8914 68.0499C99.5115 66.7008 99.8827 65.2641 100.289 63.9226C100.847 62.0801 101.479 60.2482 102.413 58.5644C103.346 56.8806 104.6 55.343 106.214 54.2948C106.753 53.9447 107.349 53.6447 107.99 53.6043C108.632 53.5639 109.324 53.8313 109.639 54.3909C109.957 54.9535 109.836 55.6516 109.693 56.2815C108.875 59.9088 107.65 63.4447 106.05 66.8017C105.371 68.2278 104.482 69.6885 103.03 70.1395Z" fill="#1A6A8F"/>
<path d="M108.543 66.0525C106.939 66.693 105.684 68.1479 105.285 69.8289C105.183 70.2587 105.134 70.7116 105.235 71.1424C105.336 71.5732 105.605 71.9791 106.004 72.1685C106.484 72.3954 107.048 72.28 107.564 72.1541C112.132 71.0357 116.598 69.4067 120.658 67.0324C121.81 66.3583 123 65.539 123.453 64.2831C123.583 63.9216 123.638 63.4965 123.436 63.1705C123.212 62.8099 122.753 62.6849 122.332 62.6234C120.589 62.3685 118.813 62.6916 117.103 63.1215C114.069 63.885 111.133 65.0197 108.543 66.0525Z" fill="#1A6A8F"/>
<path d="M107.621 73.0571C113.053 70.8338 117.123 68.974 121.995 66.9805C122.609 66.7296 123.52 66.5699 124.159 66.7497C124.726 66.9094 125.165 67.4123 125.317 67.9816C125.47 68.5509 125.36 69.1721 125.087 69.6943C124.635 70.5588 123.792 71.1405 122.962 71.6521C119.773 73.6206 116.271 75.0832 112.629 75.9689C111.449 76.2564 110.248 76.4834 109.033 76.518C108.407 76.5353 107.71 76.4709 107.284 76.0122C106.896 75.5939 106.848 74.9438 107.019 74.3986C107.189 73.8533 107.307 73.1859 107.621 73.0571Z" fill="#1A6A8F"/>
<path d="M109.467 81.9435C112.741 81.0983 115.985 80.1328 119.188 79.049C120.599 78.5721 122.054 78.0643 123.538 78.1884C123.81 78.2105 124.087 78.2567 124.326 78.3884C124.566 78.5192 124.765 78.749 124.8 79.0202C124.853 79.4298 124.539 79.7885 124.232 80.0645C121.937 82.133 118.894 83.1215 115.943 84.037C114.686 84.4265 113.421 84.815 112.117 84.9938C111.47 85.0823 110.785 85.114 110.19 84.8438C109.641 84.5948 109.215 84.088 109.063 83.5043C108.91 82.91 109.059 82.0493 109.467 81.9435Z" fill="#1A6A8F"/>
<path d="M109.337 77.3478C113.982 75.7534 118.406 74.6918 122.726 72.7868C123.396 72.4916 124.169 72.1848 124.833 72.4945C125.552 72.8301 125.797 73.7984 125.542 74.5504C125.286 75.3024 124.66 75.8659 124.009 76.3208C122.654 77.267 121.103 77.8902 119.548 78.4479C116.388 79.5798 113.136 80.476 109.816 80.9732C109.461 81.026 109.076 81.0693 108.764 80.8914C108.279 80.6135 108.206 79.9404 108.304 79.3913C108.45 78.5681 108.714 77.5622 109.337 77.3478Z" fill="#1A6A8F"/>
<path d="M81.8017 78.735C79.1418 82.0987 75.428 84.3845 71.4344 84.5326C68.7755 84.6307 65.856 83.7585 63.5894 82.3651C61.3228 80.9717 59.2957 79.2264 57.1042 77.7185C55.0934 76.3347 52.9153 75.1423 50.5507 74.5394C48.1851 73.9364 45.6098 73.9586 43.3712 74.9327C43.3365 75.6856 43.3019 76.4396 43.1077 77.2118C45.9204 76.8281 49.0861 76.956 51.7671 77.8887C54.7299 78.9186 56.8041 80.6101 58.7418 82.6844C60.4362 84.498 61.9316 87.4223 62.8191 89.6725C64.2154 93.2104 64.4962 95.4654 64.1837 99.334C63.8712 103.203 62.521 107.032 60.0554 110.03C57.5898 113.028 53.9693 115.132 49.6669 115.548C51.4383 115.17 52.9596 117.113 54.1587 118.47C55.3579 119.828 55.4184 121.606 54.8242 123.317C56.2262 122.654 58.1947 123.665 58.3706 125.206C58.4312 124.448 59.7246 123.791 60.4843 123.762C61.244 123.733 61.9287 124.914 62.046 125.666C62.2287 124.922 63.149 124.134 63.9106 124.053C64.6722 123.971 64.9828 124.84 65.3194 125.529C65.2338 125.049 66.1358 123.835 66.6137 123.736C67.0917 123.637 67.8331 124.044 67.9456 124.518C68.0889 123.807 68.5197 123.218 69.238 123.115C69.9564 123.011 71.0084 123.376 71.3469 124.017C71.3776 123.079 72.0989 122.337 72.9932 122.053C73.8875 121.77 74.7837 121.679 75.6607 121.345C76.7685 120.922 77.9436 119.361 78.6793 118.431C81.543 114.81 82.771 109.971 83.5875 105.427C85.1155 96.9088 84.4616 87.2646 81.8017 78.735Z" fill="#F3EFEE"/>
<path d="M51.2104 123.287C50.7364 120.655 50.3469 118.009 50.0151 115.259C51.1095 115.151 52.2202 115.548 53.0818 116.231C53.9434 116.914 54.5685 117.864 54.98 118.883C55.3916 119.902 55.6003 120.993 55.7311 122.084C55.7522 122.263 55.7695 122.456 55.6849 122.614C55.5772 122.817 55.3406 122.906 55.1377 123.012C54.7435 123.219 54.4175 123.551 54.2165 123.948C53.2539 123.549 52.2086 123.348 51.2104 123.287Z" fill="#667E2A"/>
<path d="M66.8008 129.718C66.5123 129.637 66.2681 129.436 66.0911 129.194C65.9142 128.952 65.7998 128.67 65.7084 128.385C65.5017 127.735 65.4084 127.054 65.3978 126.373C65.3901 125.868 65.4324 125.345 65.6709 124.901C65.9094 124.455 66.3844 124.107 66.8874 124.149C67.2576 124.181 67.5884 124.42 67.799 124.726C68.0096 125.033 68.1125 125.401 68.1683 125.769C68.3298 126.829 68.1298 127.912 67.8153 128.936C67.7451 129.165 67.6634 129.402 67.4951 129.572C67.3249 129.742 67.0566 129.79 66.8008 129.718Z" fill="#988817"/>
<path d="M63.5578 130.052C62.9221 129.338 62.3884 128.502 62.1932 127.565C61.998 126.629 62.1817 125.583 62.826 124.876C63.1087 124.566 63.5395 124.319 63.9367 124.454C64.2146 124.548 64.404 124.807 64.5367 125.069C65.0291 126.041 64.9868 127.196 64.7944 128.268C64.7242 128.663 64.631 129.064 64.4156 129.401C64.1992 129.74 63.8386 130.009 63.5578 130.052Z" fill="#988817"/>
<path d="M59.9333 129.874C59.4919 129.533 59.1948 129.031 59.0217 128.5C58.8486 127.969 58.7918 127.409 58.7649 126.852C58.7437 126.428 58.7399 125.998 58.8389 125.585C58.938 125.173 59.1496 124.775 59.4909 124.523C59.8323 124.271 60.3141 124.19 60.691 124.386C61.0045 124.549 61.2036 124.871 61.3334 125.199C61.57 125.801 61.619 126.466 61.5382 127.108C61.4575 127.749 61.2498 128.369 60.9901 128.962C60.8872 129.195 60.7728 129.431 60.591 129.61C60.4093 129.789 60.1458 129.904 59.9333 129.874Z" fill="#988817"/>
<path d="M56.2537 130.201C55.4824 129.43 55.3565 129.06 55.067 128.142C54.7776 127.224 54.816 126.228 55.0083 125.285C55.091 124.882 55.2045 124.475 55.4382 124.137C55.6719 123.798 56.045 123.534 56.4566 123.522C56.8172 123.512 57.1653 123.696 57.4143 123.957C57.6634 124.219 57.8269 124.55 57.9538 124.888C58.6 126.598 58.3952 128.606 57.4163 130.149C57.3528 130.249 57.2778 130.354 57.1643 130.388C57.0509 130.423 56.3171 130.264 56.2537 130.201Z" fill="#988817"/>
<path d="M69.7723 129.257C69.2858 128.882 68.9511 128.334 68.7588 127.75C68.5665 127.166 68.5088 126.547 68.503 125.933C68.4972 125.266 68.5703 124.548 69.0059 124.043C69.2434 123.768 69.6252 123.573 69.9704 123.686C70.2358 123.774 70.4157 124.018 70.5551 124.26C71.2879 125.536 71.36 127.168 70.7436 128.505C70.6494 128.71 70.5359 128.912 70.3609 129.054C70.1868 129.195 69.9387 129.266 69.7723 129.257Z" fill="#988817"/>
<path d="M73.6008 128.142C72.7988 127.302 72.1853 126.229 72.1093 125.07C72.0333 123.91 72.5786 122.675 73.6075 122.135C73.8373 122.014 74.1028 121.928 74.3557 121.988C74.5999 122.045 74.797 122.235 74.9182 122.455C75.0384 122.675 75.0923 122.925 75.1327 123.173C75.351 124.503 75.2356 125.904 74.6865 127.136C74.5768 127.381 74.4489 127.623 74.2595 127.813C74.0701 128.002 73.8123 128.137 73.6008 128.142Z" fill="#988817"/>
<path d="M67.1419 66.9138C73.4098 65.9396 78.2151 65.1213 83.0684 62.4768C83.6031 62.1854 84.182 61.8133 84.3109 61.218C84.4224 60.7045 84.158 60.1891 83.8685 59.7515C82.7578 58.0677 81.1586 56.7503 79.4248 55.7194C77.691 54.6886 75.8139 53.926 73.9445 53.1663C73.3627 52.9297 72.7357 52.6893 72.1232 52.8297C71.4193 52.9913 70.9269 53.6087 70.5009 54.1933C69.2825 55.8666 68.117 57.6062 67.3795 59.541C66.6419 61.4757 66.2351 63.5404 66.8025 65.5319C67.2544 65.5463 67.8833 65.8165 68.3411 65.6511C67.8074 61.5517 69.4402 57.3465 72.203 54.4414C74.1878 55.0338 76.1841 55.631 78.0305 56.5686C79.8768 57.5061 81.5846 58.812 82.5674 60.5209C80.3451 62.2027 77.7304 63.0884 75.0533 63.8616C72.3761 64.6347 69.5345 65.1117 66.7621 65.4011C66.8775 65.8444 67.0159 66.6012 67.1419 66.9138Z" fill="black"/>
<path d="M43.7229 84.7658C35.5712 84.1003 28.0686 80.2211 22.8556 73.933C21.4179 72.1992 20.038 70.4221 18.1907 69.1335C16.8752 68.2161 14.5586 67.1593 13.2201 68.0421C12.2584 68.6768 11.768 69.7624 11.8276 70.9135C11.8863 72.0636 12.9498 73.6782 13.5162 74.6812C15.1654 77.6007 16.9964 79.7057 19.3302 82.1136C20.1015 82.9098 21.0958 83.8224 22.1199 84.2455C23.1441 84.6687 24.7077 84.4148 25.4693 83.6109C26.6213 82.3944 27.5839 79.2806 26.0347 78.6431C25.6356 78.4786 24.7058 77.6863 24.7961 78.1084C25.0106 79.1104 25.2241 80.7356 24.9048 81.4664C24.5856 82.1973 24.1922 82.8771 23.3941 82.8896C22.6334 82.9012 20.6179 81.2385 20.0803 80.701C17.08 77.7007 15.6751 75.5447 13.7057 71.8617C13.4768 71.4337 13.2479 70.9904 13.1931 70.5077C13.1383 70.025 13.3412 69.7288 13.7432 69.4576C14.3153 69.072 15.4587 69.3816 16.0799 69.6826C18.6446 70.926 19.914 72.7868 21.7805 74.9293C22.7863 76.0842 23.7018 77.4045 24.8183 78.4517C25.4751 79.0681 26.002 79.6489 26.7771 80.1076C29.2187 81.5539 32.3017 83.0483 35.0337 84.1888C38.685 85.7139 42.1026 86.4448 46.0924 86.6794C46.5203 86.7044 47.0386 86.6631 47.43 86.489C47.8214 86.315 47.9628 86.0496 47.8512 85.636C47.7252 85.1706 47.2742 85.1466 46.7992 85.0581C45.751 84.8629 44.8596 84.8581 43.7229 84.7658Z" fill="black"/>
<path d="M45.3626 86.415C43.0884 80.8078 42.6143 74.5129 44.3856 68.7268C45.6617 64.5582 48.0119 60.678 51.3305 57.8498C56.7425 53.2359 65.0943 51.4531 71.5353 54.1293C71.9901 53.7196 72.3344 53.2234 72.7893 52.8128C71.2016 52.2204 69.4591 51.6377 67.8821 51.455C59.4745 50.4799 50.741 54.2591 45.8838 61.1905C41.0266 68.1219 40.2545 78.0325 43.5634 85.8236C43.6788 86.0948 44.0029 86.3304 44.25 86.491C44.4952 86.6506 45.0828 86.5208 45.3626 86.415Z" fill="black"/>
<path d="M19.2627 80.4561C15.272 80.1455 10.7466 79.406 5.58549 79.8589C4.15939 79.9839 2.19382 80.2811 1.16296 81.2754C0.611943 81.8072 0.388846 83.1602 0.71003 83.8554C1.04372 84.5786 1.96303 84.869 2.75253 84.9738C6.47884 85.4652 10.2061 85.8604 13.9324 86.3528C16.0124 86.6269 18.1876 87.1183 20.2677 87.3923C20.7927 87.4616 21.2985 87.375 21.7389 87.0817C22.314 86.698 22.6679 85.6989 22.6044 85.0104C22.5448 84.367 22.1149 83.8506 21.8947 83.2429C21.7832 82.9352 21.5591 82.5784 21.2351 82.6255C20.7629 82.6948 20.6388 83.5612 20.1715 83.4679C20.4571 83.8093 20.6292 84.1132 20.7744 84.5344C20.9196 84.9556 21.1706 85.3229 20.8639 85.646C20.5542 85.971 20.2859 85.9768 19.8378 85.998C15.0979 86.2278 11.2139 85.1767 6.11439 84.5209C5.28642 84.4142 3.82282 84.1112 2.94101 83.6679C2.57751 83.4852 2.05342 83.0852 2.0842 82.6794C2.11593 82.2678 2.74099 82.0707 3.14487 81.9812C4.96716 81.5764 7.1818 81.3966 9.04832 81.3648C11.1504 81.3283 12.917 81.4523 15.0181 81.4975C16.2452 81.5245 17.5289 81.5725 18.5983 82.1755C19.382 82.6178 19.9792 83.3198 20.559 84.0074C20.9369 83.5737 21.3139 83.139 21.6918 82.7053C20.7975 81.9437 20.2263 80.5311 19.2627 80.4561Z" fill="black"/>
<path d="M2.68852 84.5217C1.74516 84.8939 0.951815 85.2689 0.433496 86.1401C-0.0848221 87.0123 -0.185795 88.3865 0.392144 89.2193C1.02297 90.129 2.14231 90.4502 3.23184 90.6435C8.79582 91.6291 14.48 91.6609 20.1306 91.6907C20.5594 91.6926 21.022 91.6849 21.3662 91.4291C21.6663 91.206 21.8163 90.8377 21.9221 90.479C22.1875 89.5818 22.2327 88.5259 21.6499 87.7932C21.0499 87.0393 19.993 86.8643 19.0362 86.7431C13.4915 86.043 8.13903 85.342 2.59428 84.6419C2.38753 85.0545 2.50292 85.5738 2.92027 85.7718C3.33762 85.9699 3.82132 85.9421 4.2829 85.9353C5.50513 85.918 7.20241 86.1219 8.41406 86.2805C10.6162 86.57 12.3067 86.9797 14.9974 87.1768C16.5494 87.2903 16.8687 87.3528 18.0467 87.4393C18.6246 87.4816 19.3526 87.7903 19.819 88.1336C20.2854 88.4769 20.7797 89.2097 20.5604 89.7453C20.3421 90.278 19.7892 90.7339 19.2141 90.7714C15.6869 91.0002 12.5183 90.5473 9.26606 90.4011C7.4505 90.3194 5.86093 90.2886 4.09346 89.8443C3.40012 89.6703 2.51254 89.2501 2.02018 88.7308C1.52783 88.2115 1.47109 87.3153 1.95672 86.7902C2.42888 86.2796 3.14433 85.9372 3.83574 85.9372C4.23289 85.9372 2.41349 85.2131 2.68852 84.5217Z" fill="black"/>
<path d="M75.2414 65.1428C75.8049 67.1093 76.9599 68.771 78.5071 70.2981C77.6926 70.3029 76.9022 70.1452 76.1281 69.8932C75.0087 69.5307 74.2183 69.1345 73.1893 68.5642C72.1604 67.994 71.417 67.1218 70.3179 66.1573C70.19 66.0602 70.0563 65.9611 69.8986 65.9265C69.7419 65.8919 69.5534 65.9428 69.4784 66.0852C69.3736 66.2842 69.5322 66.515 69.6842 66.6804C70.8506 67.9517 72.1902 69.0787 73.7067 69.9009C75.2241 70.7231 76.9243 71.2347 78.6504 71.2607C78.9879 71.2655 79.2985 71.0885 79.437 70.7798C79.5765 70.4673 79.5563 70.1721 79.3284 69.9173C78.7745 69.298 78.3754 68.8787 77.8725 68.2181C77.3695 67.5565 76.9233 66.8814 76.4973 65.8938C76.3877 65.6399 76.3108 65.1957 76.2021 64.9418C76.0925 64.6879 75.9829 64.6052 75.7059 64.6014C75.4299 64.5966 75.1828 64.937 75.2414 65.1428Z" fill="black"/>
<path d="M77.1992 64.5494C78.1147 67.1121 79.4552 69.5229 81.1505 71.652C78.6743 72.4088 76.3607 72.2126 73.9931 71.3337C71.6266 70.4548 69.2032 68.5979 68.607 66.1447C68.1205 66.2505 67.5127 66.4044 67.0261 66.5102C67.331 67.7651 67.7598 68.67 68.5032 69.5691C69.2465 70.4682 70.2774 71.1923 71.2861 71.777C72.9767 72.7559 74.7797 73.4166 76.7213 73.6262C78.6638 73.8359 80.6726 73.556 82.4324 72.7069C82.7536 72.5521 83.1017 72.3299 83.1536 71.977C83.1978 71.6799 83.0132 71.401 82.8334 71.1606C82.0122 70.0605 81.1034 69.0239 80.3572 67.8709C79.611 66.7179 79.0253 65.4216 78.9455 64.0513C78.3637 64.2484 77.781 64.4436 77.1992 64.5494Z" fill="black"/>
<path d="M3.17599 90.0858C2.40477 90.7859 1.36621 91.4725 1.15946 92.4937C0.952705 93.515 1.36428 94.7064 2.15763 95.3815C3.07502 96.1623 4.45784 96.1835 5.66084 96.246C8.89961 96.4133 12.1451 96.2556 15.3848 96.0989C17.1138 96.0152 18.8429 95.9306 20.5709 95.8469C20.9027 95.8306 21.2556 95.8075 21.521 95.6084C22.0143 95.2382 22.0749 94.1573 21.9653 93.5505C21.8249 92.7726 21.5239 92.261 20.9056 91.7677C20.4113 91.3744 19.7429 91.2974 19.1131 91.2532C14.6021 90.9397 9.99972 91.5446 5.59257 90.5349C5.16368 90.4368 4.71172 90.3233 4.29148 90.456C3.87125 90.5887 3.12214 91.4051 3.73181 91.4715C8.48034 91.9908 13.2491 92.3802 18.0264 92.3802C18.6784 92.3802 19.0535 92.2898 19.54 92.5783C20.1516 92.9399 20.3795 93.7486 20.1218 94.567C19.9872 94.993 19.3727 95.1901 18.9092 95.1901C14.3069 95.1901 9.94202 95.5363 5.49544 95.0276C4.67517 94.9334 3.88183 94.7478 3.25004 94.216C2.61921 93.6832 2.55766 92.6687 3.13657 92.0802C3.46448 91.7465 3.70585 91.5244 4.08281 91.2186C4.33476 91.0147 4.18859 90.5887 3.98569 90.3358C3.78278 90.0829 3.34043 89.9367 3.17599 90.0858Z" fill="black"/>
<path d="M5.11035 95.8641C4.03332 96.4565 3.7006 97.9672 4.32854 98.9846C4.77282 99.7049 5.58059 100.114 6.37297 100.411C8.32988 101.144 10.6657 101.272 12.7553 101.288C14.8459 101.302 16.7009 101.211 18.7761 100.956C19.4925 100.867 20.2368 100.767 20.8407 100.371C21.8042 99.7376 22.2533 98.5076 22.1091 97.3643C22.0341 96.769 21.8542 96.219 21.3513 95.891C20.8186 95.5439 20.0089 95.4929 19.3761 95.5516C17.9116 95.6881 16.4393 95.7054 14.969 95.7208C11.7937 95.7564 8.61933 95.791 5.44403 95.8266C5.32287 96.1661 5.5652 96.5488 5.88735 96.7113C6.20949 96.8738 6.58645 96.8719 6.94706 96.8661C10.9167 96.8065 14.8392 96.795 18.8088 96.7344C19.4454 96.7248 20.2425 96.7228 20.5945 97.2537C20.934 97.7672 20.6907 98.4971 20.2329 98.9086C19.6319 99.45 18.8299 99.7241 18.0212 99.7241C14.0448 99.7241 11.2071 100.043 7.2971 99.2721C6.78839 99.1721 5.93927 98.8346 5.64117 98.4095C5.34306 97.9855 5.23055 97.2219 5.7181 97.044C5.91139 96.9738 6.37874 96.8652 6.56626 96.8652C6.78839 96.8652 6.70281 96.6536 6.60087 96.4747C6.54798 96.3824 6.44124 96.3392 6.34124 96.3017C5.89504 96.1382 5.45076 95.9718 5.11035 95.8641Z" fill="black"/>
<path d="M23.401 83.9205C24.0155 84.9033 25.0233 85.6313 26.1494 85.9063C27.2754 86.1813 28.5053 85.9986 29.5035 85.4091C29.7785 85.2466 30.0439 85.0514 30.3555 84.9802C30.6671 84.9091 31.0479 85.0043 31.1854 85.2928C31.3412 85.6178 31.1229 85.9976 30.8777 86.2621C30.0391 87.166 28.7861 87.6353 27.5533 87.6305C26.3205 87.6266 25.1127 87.1756 24.0963 86.4765C23.0808 85.7774 22.2471 84.8389 21.5547 83.8176C22.2326 83.8744 22.9115 83.9311 23.401 83.9205Z" fill="black"/>
<path d="M51.2099 123.453C50.6762 119.298 50.1415 115.145 49.6078 110.991C49.3886 109.284 49.1357 107.492 48.1048 106.114C46.9095 104.517 44.9391 103.653 42.9947 103.21C35.318 101.463 28.3077 100.153 19.8435 100.153C18.501 100.394 17.0624 100.924 15.7209 101.164C24.4218 101.664 32.8514 102.521 41.2224 104.322C43.1447 104.735 45.1805 105.275 46.4931 106.74C47.8278 108.229 48.1269 110.35 48.3664 112.337C48.7116 115.203 49.0578 118.068 49.403 120.933C49.4713 121.498 49.5492 122.197 49.6338 122.901C49.7001 123.466 50.756 123.387 51.2099 123.453Z" fill="black"/>
<path d="M54.8197 123.851C52.2781 123.408 49.8019 122.586 47.4997 121.42C47.2285 121.284 46.9506 121.139 46.6487 121.117C46.3467 121.096 46.0092 121.233 45.8957 121.514C45.7957 121.762 45.8976 122.054 46.0775 122.252C46.2573 122.45 46.5035 122.572 46.7439 122.689C49.4509 124.003 52.2358 125.183 55.1456 125.95C54.9716 125.262 54.8908 124.55 54.8197 123.851Z" fill="black"/>
<path d="M74.6167 121.145C75.8784 120.868 76.8842 120.07 77.7257 119.091C78.5671 118.112 79.27 116.954 79.8191 115.786C83.5551 107.832 84.61 98.8957 83.9541 90.1334C83.6878 86.5782 83.0213 83.101 81.8491 79.7189C81.4327 78.5188 80.8683 77.4235 80.2038 76.3407C79.5393 75.2579 78.2834 74.0876 77.2564 73.3597C78.144 73.2125 79.0508 73.0789 79.8682 73.2443C80.8769 74.654 82.1828 76.5177 82.8396 78.1217C84.3167 81.7307 85.0331 85.4339 85.4658 89.4583C86.4159 98.2899 85.46 107.46 81.6933 115.504C80.3422 118.39 78.4248 121.249 75.4908 122.491C75.235 121.968 74.9792 121.445 74.6167 121.145Z" fill="black"/>
<path d="M82.303 78.1639C86.6726 76.7359 90.2028 73.701 93.7098 70.7286C95.4254 69.2746 97.2669 67.7793 98.4382 65.8599C99.7133 63.7703 100.301 61.4335 101.388 59.2641C102.049 57.9476 102.643 56.4975 103.553 55.3397C104.463 54.1809 105.642 53.1895 107.046 52.7423C107.999 52.4384 109.186 52.4596 109.833 53.2231C110.358 53.8414 110.553 54.7358 110.49 55.5435C110.122 60.3507 108.215 65.0435 105.428 68.9784C105.005 69.5756 104.551 70.1632 103.968 70.6055C103.386 71.0479 102.847 71.4806 102.12 71.4037C101.342 71.3219 100.513 70.9334 99.9902 70.3517C99.4652 69.7689 98.5266 68.1976 98.4805 67.4148C98.4343 66.6321 100.558 64.5607 100.292 65.2983C99.771 66.7446 100.111 67.7312 100.472 68.4697C100.832 69.2083 101.56 69.8256 102.381 69.8122C103.445 69.7949 104.083 68.6323 104.621 67.7139C106.768 64.0491 107.916 61.0267 108.81 57.1514C109.002 56.3234 109.249 54.9031 108.566 54.3963C107.962 53.9482 107.093 54.2078 106.461 54.6146C105.299 55.3627 104.46 56.5253 103.835 57.7572C103.21 58.989 102.558 60.3555 102.027 61.6306C99.595 67.4697 97.4659 69.8814 91.6741 74.5261C89.6075 76.183 85.3946 78.5736 82.93 79.5429C82.7309 79.0756 82.5318 78.6092 82.303 78.1639Z" fill="black"/>
<path d="M122.779 65.7181C123.712 65.3806 124.79 65.9374 125.595 66.5182C126.4 67.099 126.957 68.0693 126.884 69.0588C126.818 69.9474 126.082 71.0398 125.386 71.5966C124.691 72.1533 124.043 72.2101 123.218 72.5476C118.644 74.418 113.958 76.0422 109.141 77.1403C108.344 77.3221 107.493 77.624 106.769 77.2461C106.014 76.8519 105.606 75.7758 105.733 74.9334C105.86 74.091 106.046 73.1669 106.763 72.7082C107.479 72.2495 110.651 72.2947 109.846 72.5726C108.597 73.0044 108.024 73.1255 107.545 73.9929C107.38 74.292 107.238 74.9199 107.305 75.2555C107.375 75.6037 107.523 75.9008 107.854 76.0306C108.185 76.1604 108.695 76.1422 109.05 76.1181C110.312 76.0325 111.518 75.5912 112.704 75.1536C115.113 74.266 117.523 73.3784 119.932 72.4909C121.637 71.8629 123.418 71.183 124.602 69.805C124.949 69.4012 125.153 68.8867 125.059 68.3616C124.96 67.8 124.129 67.5231 123.568 67.4144C123.008 67.3048 121.742 67.4077 121.21 67.6144C115.919 69.6733 113.002 71.9783 107.992 73.0265C112.802 70.1762 116.38 68.0356 122.779 65.7181Z" fill="black"/>
<path d="M106.925 66.1515C108.367 65.5033 111.202 64.133 112.702 63.6378C115.044 62.8646 119.864 61.4683 122.319 61.7145C123.151 61.7982 124.807 62.4357 124.807 63.782C124.807 65.1283 123.35 65.9659 122.607 66.3784C118.695 68.5498 110.883 72.153 106.981 73.4945C106.38 73.7012 105.201 73.2425 104.697 72.7732C104.594 72.678 104.298 72.1318 104.24 72.0039C104.11 71.7154 103.99 71.0644 104.048 70.7538C104.265 69.5854 105.009 67.0996 106.824 66.8967C107.046 66.9987 108.169 66.9313 107.948 67.0352C106.646 67.6487 106.171 69.1604 105.767 70.2653C105.668 70.5365 105.578 70.8182 105.585 71.1077C105.592 71.3971 105.71 71.6972 105.951 71.8568C106.298 72.0866 106.759 71.9635 107.154 71.828C110.523 70.6711 113.775 69.2046 117.023 67.7391C118.815 66.9304 120.615 66.1168 122.256 65.0331C122.486 64.8811 122.718 64.7186 122.878 64.4936C123.039 64.2686 123.117 63.9666 123.011 63.7118C122.839 63.2983 122.305 63.1964 121.858 63.1896C120.412 63.1666 118.794 63.4627 117.396 63.832C114.948 64.4773 112.878 65.136 110.121 66.2015C108.638 66.7746 107.692 66.9727 106.668 67.8805C106.329 67.666 106.149 67.2275 106.239 66.8371C106.33 66.4467 106.712 66.2467 106.925 66.1515Z" fill="black"/>
<path d="M123.767 77.1969C124.533 77.318 125.224 77.8392 125.552 78.5412C125.88 79.2432 125.837 80.1077 125.438 80.7732C124.956 81.58 123.718 82.3618 122.856 82.7368C120.007 83.9773 117.384 84.6024 114.43 85.5631C113.328 85.9208 112.049 86.3314 110.892 86.2602C109.735 86.1891 108.529 85.5823 108.097 84.5062C107.871 83.9427 107.905 83.3398 107.929 82.733C107.945 82.3483 108.2 81.7723 108.48 81.5079C108.658 81.3396 108.807 81.3463 109.043 81.279C113.793 79.9317 118.544 78.5835 123.294 77.2363C123.3 77.5613 123.305 77.8864 123.31 78.2104C119.574 79.2317 115.884 80.4856 112.147 81.5069C111.459 81.6954 110.602 81.9521 110.059 82.4137C109.515 82.8753 109.246 83.3907 109.64 83.9841C110.094 84.6678 110.259 84.661 110.811 84.661C111.454 84.661 111.933 84.5697 112.469 84.438C115.744 83.6311 118.717 82.8878 121.795 81.5069C122.324 81.2694 123.176 80.8039 123.569 80.3789C123.962 79.9539 124.231 79.5134 124.019 78.974C123.746 78.2787 123.015 78.2229 121.677 78.673C121.422 78.7586 122.091 77.8421 121.945 77.6161C122.588 77.3565 123.283 77.1199 123.767 77.1969Z" fill="black"/>
<path d="M122.768 72.2503C123.317 72.0205 123.875 71.7888 124.465 71.708C125.055 71.6272 125.692 71.7147 126.168 72.0724C126.706 72.4782 126.959 73.1639 127.059 73.8303C127.147 74.4092 127.132 75.0333 126.839 75.5401C126.476 76.1661 125.624 76.6854 124.956 76.9604C119.953 79.0183 114.813 80.0992 109.553 81.3647C109 81.4974 108.379 81.6214 107.892 81.3281C107.253 80.9435 107.101 80.1559 107.147 79.4126C107.189 78.7163 107.254 78.1355 107.748 77.6432C108.147 77.2441 108.771 76.9969 109.337 76.8229C113.383 75.5766 117.5 74.2505 121.43 72.6744C121.713 72.56 122.013 72.4427 122.316 72.484C122.619 72.5254 123.16 72.9398 122.872 73.0437C119.653 74.2073 114.941 76.0824 110.976 77.2854C110.301 77.4903 109.592 77.6489 109.119 78.1711C108.808 78.5134 108.735 78.7173 108.697 79.1779C108.672 79.477 108.766 80.0155 108.961 80.2444C109.347 80.6982 110.378 80.478 110.95 80.3146C113.446 79.602 115.029 79.0106 117.525 78.298C119.288 77.7951 121.054 77.4239 123.128 76.5219C124.018 76.1344 123.833 76.1978 124.909 75.4141C125.568 74.9333 125.857 74.0947 125.015 73.1975C124.679 72.8398 123.859 72.6975 123.573 72.7917C123.212 72.911 123.15 72.9139 122.907 73.0273C122.341 73.2899 121.739 73.1091 121.393 72.6619C121.956 72.534 122.498 72.3629 122.768 72.2503Z" fill="black"/>
<path d="M104.301 70.0459C103.953 70.5931 102.956 70.4296 102.675 71.0133C102.604 71.1604 102.596 71.3297 102.564 71.4903C102.481 71.9066 101.991 72.273 101.702 72.5846C100.585 73.7905 99.0128 74.3001 97.4309 73.8539C97.1905 73.7857 96.953 73.6972 96.7039 73.677C96.4548 73.6568 96.1837 73.7155 96.0154 73.9001C95.8134 74.1213 95.8115 74.4761 95.9529 74.7396C96.0942 75.0031 96.2558 75.0906 96.5279 75.2156C97.0886 75.4724 97.8175 75.6089 98.4329 75.6464C99.1263 75.6878 99.6013 75.6782 100.257 75.4483C100.924 75.2147 101.705 74.7733 102.203 74.2732C102.876 73.5972 103.505 72.8789 104.084 72.123C104.221 71.9451 104.357 71.7624 104.431 71.5508C104.603 71.0595 104.418 70.5258 104.301 70.0459Z" fill="black"/>
<path d="M114.305 85.4568C113.944 85.5799 113.56 85.8232 113.198 85.9463C108.023 87.708 103.248 89.2687 98.5659 91.516C93.5405 93.9287 88.4948 96.7646 85.0445 100.952C84.8512 99.7187 85.233 98.3301 86.16 97.4954C87.2937 96.4742 88.0034 95.8203 89.0506 95.1414C95.0031 91.2814 101.754 87.9638 108.417 86.0318C110.416 85.452 112.257 85.6116 114.305 85.4568Z" fill="black"/>
<path d="M54.0727 124.193C54.4448 123.409 55.1411 122.754 55.9883 122.562C56.8345 122.369 57.8105 122.708 58.2548 123.453C58.5693 123.981 58.5952 124.624 58.6135 125.238C58.6529 126.574 58.6933 127.912 58.6654 129.249C58.6549 129.766 58.5972 130.189 58.3269 130.63C57.9 131.324 57.0614 131.659 56.2892 131.399C55.5161 131.139 54.9814 130.615 54.6352 129.877C54.0044 128.53 53.9304 126.858 54.0131 125.373C54.0188 125.27 54.0294 125.154 54.1063 125.083C54.1862 125.009 54.3093 125.01 54.417 125.023C54.7728 125.066 55.1189 125.184 55.4257 125.369C55.2997 126.702 55.5709 128.072 56.195 129.257C56.3681 129.586 56.6527 129.945 57.021 129.895C57.2288 129.867 57.399 129.706 57.4922 129.519C57.5855 129.331 57.6153 129.12 57.6394 128.912C57.7702 127.778 57.7894 126.629 57.6471 125.497C57.6028 125.15 57.5413 124.796 57.3634 124.495C57.1855 124.194 56.8691 123.953 56.52 123.956C56.1489 123.959 55.8238 124.236 55.6546 124.566C55.4853 124.895 55.4421 125.274 55.4036 125.644C55.243 125.439 54.9372 125.446 54.6785 125.462C54.4198 125.477 54.1044 125.451 53.9823 125.221C53.8159 124.91 54.1583 124.527 54.0727 124.193Z" fill="black"/>
<path d="M58.0592 124.125C58.6506 123.404 59.6392 123.033 60.5585 123.188C60.947 123.253 61.3442 123.425 61.549 123.762C61.7173 124.038 61.7298 124.378 61.7384 124.701C61.7702 125.964 61.8019 127.227 61.8336 128.49C61.848 129.057 61.8548 129.657 61.573 130.151C61.3191 130.594 60.8566 130.891 60.3671 131.036C59.9277 131.167 59.4344 131.184 59.0266 130.974C58.5727 130.74 58.2891 130.258 58.1737 129.761C58.0583 129.264 58.089 128.747 58.1198 128.237C58.1448 127.833 58.1698 127.429 58.1938 127.025C58.2035 126.87 58.216 126.705 58.3035 126.575C58.4362 126.38 58.6939 126.324 58.9266 126.284C58.8901 127.154 59.043 128.031 59.3728 128.837C59.4651 129.062 59.6161 129.375 59.845 129.457C60.1335 129.561 60.42 129.292 60.6258 129.064C61.0008 128.649 61.2143 128.105 61.3057 127.552C61.397 126.999 61.374 126.435 61.3239 125.877C61.2797 125.39 61.1759 124.84 60.7614 124.579C60.3306 124.308 59.7257 124.497 59.3949 124.884C59.0641 125.27 58.9526 125.797 58.9112 126.304C58.7064 126.384 58.5006 126.463 58.2958 126.543C58.265 126.554 58.2323 126.567 58.1996 126.558C58.1458 126.544 58.1236 126.48 58.1111 126.425C57.9236 125.648 57.5851 124.702 58.0592 124.125Z" fill="black"/>
<path d="M61.5711 124.252C61.6307 123.788 62.1125 123.473 62.5462 123.298C62.9799 123.123 63.4684 123.107 63.9261 123.206C64.3588 123.299 64.7964 123.516 65.0031 123.908C65.1445 124.174 65.1618 124.486 65.1762 124.788C65.258 126.473 65.3387 128.157 65.4205 129.842C65.432 130.082 65.4416 130.336 65.332 130.55C65.2166 130.777 64.9877 130.923 64.756 131.027C64.1771 131.288 63.503 131.355 62.8972 131.165C62.2913 130.975 61.7644 130.518 61.5336 129.925C61.4759 129.776 61.4374 129.602 61.5086 129.459C61.5663 129.343 61.6845 129.27 61.7971 129.203C62.1192 129.013 62.4413 128.822 62.7635 128.632C62.8289 129.045 63.0318 129.435 63.3328 129.725C63.4761 129.863 63.5886 129.937 63.7867 129.916C63.9876 129.895 64.1915 129.684 64.304 129.517C64.6944 128.937 64.8012 128.304 64.8377 127.605C64.8762 126.884 64.8974 126.232 64.6069 125.57C64.4887 125.301 64.2954 124.951 64.055 124.782C63.8146 124.612 63.4953 124.539 63.2193 124.638C62.9202 124.745 62.7154 125.032 62.6241 125.336C62.5327 125.639 62.5394 125.963 62.5462 126.279C62.5635 127.057 62.6058 127.936 62.776 128.695C62.3442 128.948 61.9134 129.226 61.4816 129.479C61.699 127.774 61.3278 126.157 61.5711 124.252Z" fill="black"/>
<path d="M64.8719 124.175C65.1056 123.717 65.4979 123.343 65.9672 123.134C66.4355 122.924 66.9769 122.879 67.4731 123.01C67.6558 123.058 67.8385 123.133 67.9693 123.27C68.1838 123.496 68.2126 123.836 68.2299 124.147C68.3271 125.939 68.4251 127.729 68.5223 129.521C68.5357 129.767 68.5473 130.023 68.4559 130.252C68.2924 130.661 67.8443 130.88 67.4164 130.986C66.825 131.135 66.1442 131.127 65.6701 130.745C65.2883 130.438 65.1065 129.939 65.0604 129.451C65.0142 128.964 65.0864 128.474 65.1229 127.986C65.1883 127.117 65.1402 126.239 64.9806 125.382C64.9537 125.24 64.9402 125.06 65.0633 124.984C65.12 124.949 65.1892 124.949 65.2556 124.95C65.5383 124.954 65.821 124.957 66.1038 124.961C65.7941 125.54 65.7095 126.219 65.771 126.873C65.8326 127.527 66.0326 128.16 66.2663 128.774C66.3317 128.945 66.4009 129.117 66.5134 129.262C66.6259 129.406 66.7884 129.522 66.9702 129.537C67.1491 129.552 67.326 129.469 67.4558 129.346C67.5856 129.222 67.6741 129.061 67.7453 128.897C68.1597 127.947 68.0453 127.005 67.9078 125.978C67.8693 125.692 67.827 125.318 67.7145 125.053C67.602 124.788 67.4347 124.487 67.1702 124.372C66.9058 124.258 66.5653 124.298 66.3749 124.514C66.2442 124.661 66.099 124.97 66.099 124.97C66.099 124.97 65.8316 125.011 65.7403 125.014C65.3633 125.023 64.9844 125.004 64.6104 124.956C64.6892 124.652 64.7844 124.348 64.8719 124.175Z" fill="black"/>
<path d="M67.7217 123.556C67.8669 123.139 68.1852 122.793 68.5708 122.575C68.9554 122.358 69.4026 122.265 69.845 122.263C70.2844 122.262 70.7595 122.443 71.0374 122.783C71.2499 123.043 71.3114 123.319 71.3653 123.649C71.5701 124.907 71.775 126.165 71.9807 127.423C72.0442 127.812 72.1077 128.208 72.0577 128.6C71.9923 129.113 71.7269 129.595 71.3393 129.938C70.9518 130.282 70.4479 130.487 69.9325 130.529C69.5315 130.562 69.1151 130.496 68.767 130.293C68.4189 130.091 68.1477 129.743 68.0833 129.346C68.0188 128.949 68.1842 128.511 68.5227 128.293C68.6727 128.197 68.9064 128.048 68.9064 128.048C68.9064 128.048 69.1997 128.441 69.2718 128.555C69.4545 128.838 69.8296 129.035 70.1334 128.889C70.2815 128.818 70.3854 128.681 70.4748 128.541C71.2461 127.336 71.2518 125.726 70.6335 124.435C70.4787 124.112 70.245 123.775 69.8921 123.716C69.5978 123.667 69.2988 123.836 69.1209 124.076C68.9439 124.317 68.8679 124.617 68.8208 124.911C68.6477 125.987 68.5621 127.46 68.9881 128.16C69.1439 128.416 68.3419 128.309 68.1698 128.554C68.4968 126.91 68.1708 125.081 67.7217 123.556Z" fill="black"/>
<path d="M71.1282 123.421C71.3022 122.813 71.5686 122.224 71.9773 121.741C72.386 121.258 72.9447 120.889 73.5678 120.779C74.19 120.67 74.8727 120.844 75.318 121.293C75.8046 121.784 75.9498 122.508 76.0652 123.19C76.2152 124.08 76.3508 124.981 76.3133 125.883C76.2758 126.786 76.0565 127.7 75.5488 128.446C75.216 128.935 74.7372 129.357 74.1563 129.47C73.7284 129.554 73.2764 129.461 72.8899 129.261C72.5023 129.061 72.1744 128.759 71.8984 128.421C71.7734 128.268 71.6522 128.066 71.7311 127.885C71.7772 127.779 71.8792 127.712 71.9763 127.651C72.3148 127.438 72.6523 127.226 72.9908 127.012C73.062 127.241 73.1351 127.476 73.2832 127.665C73.4313 127.855 73.6726 127.989 73.9073 127.943C74.1544 127.895 74.3236 127.672 74.4506 127.455C75.1737 126.211 75.2478 124.682 75.0151 123.262C74.9477 122.852 74.8237 122.399 74.4621 122.197C74.2467 122.075 73.9784 122.071 73.7447 122.149C73.5111 122.226 73.3082 122.381 73.1399 122.562C72.611 123.131 72.4177 123.95 72.4514 124.727C72.485 125.504 72.7225 126.255 72.9581 126.996C72.5023 127.396 72.0465 127.796 71.5917 128.197C71.5176 126.57 70.7041 124.907 71.1282 123.421Z" fill="black"/>
<path d="M72.8384 59.967C73.2633 59.967 73.6077 59.6011 73.6077 59.1497C73.6077 58.6982 73.2633 58.3323 72.8384 58.3323C72.4135 58.3323 72.0691 58.6982 72.0691 59.1497C72.0691 59.6011 72.4135 59.967 72.8384 59.967Z" fill="black"/>
<path d="M61.4939 59.9477C61.417 59.8285 61.2641 59.791 61.1333 59.7622C60.9304 59.7179 60.7246 59.6852 60.5179 59.666C59.5322 59.5477 58.5331 59.6179 57.5513 59.7468C56.8329 59.8583 56.1204 60.0141 55.427 60.2324C55.2222 60.2911 55.027 60.3738 54.8279 60.4488C54.6846 60.5036 54.5192 60.543 54.4423 60.6901C54.2586 60.9902 54.5587 61.3825 54.8972 61.2825C56.0752 60.7959 57.433 60.5257 58.6629 60.442C57.8869 60.7469 57.1435 61.1306 56.4742 61.6306C56.48 61.6258 56.4867 61.621 56.4925 61.6162C56.4848 61.6219 56.4771 61.6277 56.4694 61.6335C56.4656 61.6364 56.4627 61.6383 56.4589 61.6412L56.4415 61.6546C56.279 61.7787 56.1184 61.9056 55.9703 62.046C56.0127 62.0431 55.6982 62.1537 55.7482 62.472C55.7819 62.8144 56.2252 62.9278 56.4492 62.6817C56.5964 62.5653 56.732 62.4345 56.881 62.322C56.8858 62.3182 56.8897 62.3153 56.8954 62.3105C56.8974 62.3085 56.9012 62.3066 56.9031 62.3047C56.907 62.3018 56.9118 62.298 56.9156 62.2951C56.9127 62.297 56.9099 62.2999 56.907 62.3018C57.0858 62.1585 57.7321 61.7345 58.2052 61.5152C58.4648 61.3796 58.762 61.2527 59.0841 61.1325C58.7254 61.4229 58.361 61.7421 58.0638 62.0624C57.5618 62.6249 57.1041 63.2317 56.6829 63.8577C56.4425 64.2241 56.2896 64.6357 56.1377 65.0453C55.9473 65.3925 56.3444 65.7868 56.6935 65.5829C56.8695 65.4838 56.8993 65.2665 56.9743 65.0963C57.1368 64.677 57.1205 64.6886 57.3839 64.252C57.8955 63.5096 58.1302 63.1952 58.6793 62.5797C59.2553 61.9912 59.7726 61.5931 60.2515 61.2421C60.6631 60.9392 60.7343 60.8478 61.2824 60.5843C61.292 60.5795 61.2997 60.5767 61.3045 60.5747C61.3266 60.5651 61.3497 60.5565 61.3718 60.5468C61.5776 60.4238 61.6555 60.142 61.4939 59.9477Z" fill="black"/>
<path d="M95.5218 54.4346C98.548 54.4346 101.001 51.8381 101.001 48.635C101.001 45.432 98.548 42.8354 95.5218 42.8354C92.4957 42.8354 90.0425 45.432 90.0425 48.635C90.0425 51.8381 92.4957 54.4346 95.5218 54.4346Z" stroke="black" stroke-width="0.961629" stroke-miterlimit="10"/>
<path d="M85.6169 33.5963C88.8831 33.5963 91.5309 30.9054 91.5309 27.5861C91.5309 24.2668 88.8831 21.5759 85.6169 21.5759C82.3507 21.5759 79.7029 24.2668 79.7029 27.5861C79.7029 30.9054 82.3507 33.5963 85.6169 33.5963Z" stroke="black" stroke-width="1.05779" stroke-miterlimit="10"/>
<path d="M56.9358 12.4934C60.0958 12.4934 62.6575 9.92051 62.6575 6.7467C62.6575 3.57289 60.0958 1 56.9358 1C53.7758 1 51.2141 3.57289 51.2141 6.7467C51.2141 9.92051 53.7758 12.4934 56.9358 12.4934Z" stroke="black" stroke-width="1.25012" stroke-miterlimit="10"/>
<path d="M32.1972 34.3002C35.4369 34.3002 38.0632 31.6808 38.0632 28.4497C38.0632 25.2185 35.4369 22.5991 32.1972 22.5991C28.9576 22.5991 26.3313 25.2185 26.3313 28.4497C26.3313 31.6808 28.9576 34.3002 32.1972 34.3002Z" stroke="black" stroke-width="1.25012" stroke-miterlimit="10"/>
<path d="M23.5164 61.8574C26.5968 61.8574 29.0939 59.2742 29.0939 56.0876C29.0939 52.9011 26.5968 50.3179 23.5164 50.3179C20.4361 50.3179 17.939 52.9011 17.939 56.0876C17.939 59.2742 20.4361 61.8574 23.5164 61.8574Z" stroke="black" stroke-width="1.25012" stroke-miterlimit="10"/>
</svg>
