<svg width="141" height="42" viewBox="0 0 141 42" fill="none" xmlns="http://www.w3.org/2000/svg">
<path d="M135.778 41.8955H5.22222C2.35 41.8955 0 39.5448 0 36.6716V5.32834C0 2.45521 2.35 0.104462 5.22222 0.104462H135.778C138.65 0.104462 141 2.45521 141 5.32834V36.6716C141 39.5448 138.65 41.8955 135.778 41.8955Z" fill="white"/>
<path d="M111.689 31.4478H113.638V18.3869H111.689V31.4478ZM129.243 23.0917L127.009 28.7543H126.942L124.623 23.0917H122.524L126.001 31.0062L124.018 35.4086H126.052L131.41 23.0917H129.243ZM118.19 29.9643C117.551 29.9643 116.661 29.6452 116.661 28.8551C116.661 27.847 117.77 27.4605 118.727 27.4605C119.585 27.4605 119.987 27.6454 120.508 27.8977C120.357 29.1073 119.315 29.9643 118.19 29.9643ZM118.425 22.806C117.014 22.806 115.553 23.4279 114.948 24.8058L116.678 25.5281C117.048 24.8058 117.736 24.5703 118.459 24.5703C119.467 24.5703 120.491 25.1755 120.508 26.2509V26.3852C120.155 26.1835 119.4 25.8812 118.475 25.8812C116.611 25.8812 114.712 26.9059 114.712 28.8216C114.712 30.5692 116.241 31.6951 117.954 31.6951C119.265 31.6951 119.987 31.107 120.441 30.4182H120.508V31.4262H122.389V26.4186C122.389 24.1001 120.659 22.806 118.425 22.806ZM106.381 24.6816H103.609V20.2047H106.381C107.838 20.2047 108.665 21.4114 108.665 22.4431C108.665 23.4553 107.838 24.6816 106.381 24.6816ZM106.331 18.3869H101.661V31.4478H103.609V26.4995H106.331C108.491 26.4995 110.614 24.9351 110.614 22.4431C110.614 19.9512 108.491 18.3869 106.331 18.3869ZM80.8661 29.9668C79.5197 29.9668 78.3924 28.8391 78.3924 27.2903C78.3924 25.7253 79.5197 24.5805 80.8661 24.5805C82.1953 24.5805 83.2385 25.7253 83.2385 27.2903C83.2385 28.8391 82.1953 29.9668 80.8661 29.9668ZM83.1039 23.823H83.0365C82.5992 23.3014 81.7575 22.8301 80.6976 22.8301C78.4765 22.8301 76.4407 24.7825 76.4407 27.2903C76.4407 29.7815 78.4765 31.7172 80.6976 31.7172C81.7575 31.7172 82.5992 31.2458 83.0365 30.7075H83.1039V31.347C83.1039 33.0473 82.1953 33.9561 80.7314 33.9561C79.5368 33.9561 78.7964 33.0974 78.4932 32.3738L76.794 33.0807C77.282 34.2589 78.5777 35.7065 80.7314 35.7065C83.0198 35.7065 84.9549 34.3597 84.9549 31.0777V23.0994H83.1039V23.823ZM86.3008 31.4478H88.2527V18.3865H86.3008V31.4478ZM91.1301 27.139C91.0796 25.422 92.4594 24.547 93.4521 24.547C94.2266 24.547 94.8825 24.9339 95.1008 25.4898L91.1301 27.139ZM97.1876 25.6579C96.8179 24.6645 95.6899 22.8301 93.3847 22.8301C91.0963 22.8301 89.1951 24.6311 89.1951 27.2736C89.1951 29.7648 91.0796 31.7172 93.6034 31.7172C95.6397 31.7172 96.8179 30.4716 97.3056 29.748L95.7912 28.7379C95.2867 29.4786 94.5963 29.9668 93.6034 29.9668C92.6107 29.9668 91.9042 29.5122 91.4496 28.6203L97.3892 26.1627L97.1876 25.6579ZM49.8657 24.1935V26.0786H54.3751C54.2405 27.139 53.8871 27.9131 53.3486 28.4518C52.6926 29.1085 51.6661 29.8321 49.8657 29.8321C47.0893 29.8321 44.9188 27.5935 44.9188 24.8163C44.9188 22.0391 47.0893 19.8002 49.8657 19.8002C51.3633 19.8002 52.4568 20.3895 53.2645 21.147L54.5938 19.8174C53.4665 18.7399 51.9688 17.9152 49.8657 17.9152C46.0628 17.9152 42.8658 21.0123 42.8658 24.8163C42.8658 28.6203 46.0628 31.7172 49.8657 31.7172C51.9187 31.7172 53.4665 31.0442 54.6779 29.7815C55.9231 28.5359 56.3102 26.7855 56.3102 25.3718C56.3102 24.9339 56.2767 24.5303 56.209 24.1935H49.8657ZM61.437 29.9668C60.0906 29.9668 58.9295 28.8558 58.9295 27.2736C58.9295 25.6746 60.0906 24.5805 61.437 24.5805C62.7829 24.5805 63.944 25.6746 63.944 27.2736C63.944 28.8558 62.7829 29.9668 61.437 29.9668ZM61.437 22.8301C58.9801 22.8301 56.9776 24.6984 56.9776 27.2736C56.9776 29.8321 58.9801 31.7172 61.437 31.7172C63.8934 31.7172 65.8958 29.8321 65.8958 27.2736C65.8958 24.6984 63.8934 22.8301 61.437 22.8301ZM71.1641 29.9668C69.8183 29.9668 68.657 28.8558 68.657 27.2736C68.657 25.6746 69.8183 24.5805 71.1641 24.5805C72.5101 24.5805 73.6712 25.6746 73.6712 27.2736C73.6712 28.8558 72.5101 29.9668 71.1641 29.9668ZM71.1641 22.8301C68.7073 22.8301 66.7053 24.6984 66.7053 27.2736C66.7053 29.8321 68.7073 31.7172 71.1641 31.7172C73.6207 31.7172 75.6231 29.8321 75.6231 27.2736C75.6231 24.6984 73.6207 22.8301 71.1641 22.8301Z" fill="black"/>
<path d="M10.9769 33.9443L10.8993 33.8701C10.5953 33.5484 10.4159 33.0489 10.4159 32.402V32.5543V9.448C10.4159 9.44591 10.4159 9.44434 10.4159 9.44267C10.4159 9.44465 10.4159 9.44633 10.4159 9.44842V9.60106C10.4159 8.90064 10.6251 8.37303 10.9756 8.05667L23.9161 21.0009L10.9769 33.9443ZM10.4159 9.44142C10.4159 9.38385 10.4175 9.32795 10.4204 9.27289C10.4175 9.32754 10.4159 9.38385 10.4159 9.44142ZM10.4204 9.27039C10.4204 9.26966 10.4204 9.26882 10.4207 9.26798C10.4204 9.26882 10.4204 9.26966 10.4204 9.27039ZM10.4207 9.26307C10.4207 9.26266 10.4207 9.26224 10.4207 9.26182C10.4207 9.26224 10.4207 9.26266 10.4207 9.26307Z" fill="url(#paint0_linear)"/>
<path d="M28.229 25.4702L28.3273 25.4143L33.4377 22.5097C33.9249 22.2327 34.2497 21.8968 34.4117 21.5413C34.2501 21.8968 33.9253 22.2331 33.4377 22.5102L28.3273 25.4147L28.229 25.4702ZM28.2302 25.3172L23.9161 21.001L28.2298 16.6855L33.4377 19.6452C34.0991 20.0211 34.4704 20.5055 34.5324 21.0006C34.5324 21.001 34.5324 21.0018 34.5324 21.0025C34.4704 21.4964 34.0991 21.9813 33.4377 22.3571L28.2302 25.3172Z" fill="url(#paint1_linear)"/>
<path d="M11.8994 34.437C11.5379 34.437 11.2225 34.3195 10.9765 34.0975L10.9769 34.097C11.2229 34.3191 11.5387 34.437 11.9002 34.437C11.9315 34.437 11.9634 34.4362 11.9957 34.4346C11.963 34.4362 11.9307 34.437 11.8994 34.437ZM11.8998 34.284C11.5383 34.2844 11.2229 34.1664 10.9769 33.9444V33.9441L23.9161 21.0007L28.2302 25.3168L13.0699 33.9334C12.6504 34.1713 12.253 34.284 11.8998 34.284ZM10.9733 34.0946C10.9504 34.0738 10.9279 34.0518 10.9059 34.0289L10.9733 34.0946Z" fill="url(#paint2_linear)"/>
<path d="M23.9162 21.0005L10.9757 8.05624C11.2217 7.83464 11.5367 7.7171 11.8977 7.7171C12.2519 7.7171 12.6496 7.83015 13.0699 8.06846L28.2298 16.685L23.9162 21.0005ZM28.3274 16.5876L13.0699 7.91592C12.6496 7.6775 12.2519 7.56446 11.8977 7.56446C11.8961 7.56446 11.8949 7.56446 11.8933 7.56446C11.8953 7.56446 11.8969 7.56446 11.8994 7.56446C12.2527 7.56446 12.6501 7.67709 13.0699 7.9155L28.3274 16.5876Z" fill="url(#paint3_linear)"/>
<path d="M11.9956 34.4346C12.324 34.4158 12.6876 34.3027 13.0699 34.086L28.2289 25.4699L13.0699 34.086C12.6879 34.3031 12.324 34.4158 11.9956 34.4346ZM10.9765 34.0974L10.9732 34.0946C10.9744 34.0954 10.9756 34.0966 10.9765 34.0974ZM10.9059 34.0289L10.8993 34.0224V34.022C10.9018 34.0244 10.9038 34.0268 10.9059 34.0289Z" fill="white"/>
<path d="M28.2289 25.4702L28.3273 25.4143L28.2289 25.4702Z" fill="url(#paint4_linear)"/>
<path d="M11.9002 34.437C11.5387 34.437 11.2229 34.3191 10.9769 34.097L10.9765 34.0975C10.9756 34.0966 10.9744 34.0955 10.9732 34.0946L10.9059 34.0289C10.9038 34.0268 10.9018 34.0244 10.8993 34.022L10.9769 33.9444C11.2229 34.1664 11.5383 34.2844 11.8998 34.284C12.253 34.284 12.6504 34.1713 13.0699 33.9334L28.2302 25.3168L28.3273 25.414L28.2289 25.4699L13.0699 34.0861C12.6876 34.3028 12.324 34.4158 11.9956 34.4346C11.9634 34.4362 11.9315 34.437 11.9002 34.437Z" fill="url(#paint5_linear)"/>
<path d="M10.8993 34.0225C10.5953 33.7008 10.4159 33.2013 10.4159 32.5544V32.554C10.4159 33.2013 10.5953 33.7004 10.8993 34.022V34.0225Z" fill="white"/>
<path d="M10.8993 34.0225C10.5953 33.7008 10.4159 33.2017 10.4159 32.5544V32.4022C10.4159 33.049 10.5953 33.5486 10.8993 33.8702L10.9769 33.9445L10.8993 34.0225Z" fill="url(#paint6_linear)"/>
<path d="M10.8993 34.0225L10.9769 33.9445V33.9448L10.8993 34.0225Z" fill="url(#paint7_linear)"/>
<path d="M34.4116 21.541C34.4919 21.3647 34.5324 21.1835 34.5324 21.0022C34.5324 21.0019 34.5324 21.0015 34.5324 21.0015C34.5324 21.1831 34.4919 21.3642 34.4116 21.541Z" fill="white"/>
<path d="M28.3274 25.4141L28.2302 25.3169L33.4377 22.3568C34.0991 21.981 34.4704 21.4962 34.5324 21.0023C34.5324 21.1836 34.492 21.3647 34.4117 21.5411C34.2497 21.8965 33.925 22.2324 33.4377 22.5095L28.3274 25.4141Z" fill="url(#paint8_linear)"/>
<path d="M34.5324 21.0005V21.0001C34.5319 20.4535 34.1668 19.9071 33.4377 19.4925L28.3273 16.5879H28.3269L28.3273 16.5876L33.4377 19.492C34.1676 19.9067 34.5332 20.454 34.5324 21.0005Z" fill="#404040"/>
<path d="M34.5323 21.0005C34.4703 20.5055 34.099 20.021 33.4377 19.6451L28.2297 16.6855L28.3269 16.5883H28.3273L33.4377 19.4929C34.1668 19.9075 34.5319 20.454 34.5323 21.0005Z" fill="url(#paint9_linear)"/>
<path d="M10.4159 9.44238C10.4159 9.44196 10.4159 9.44155 10.4159 9.44113C10.4159 9.44155 10.4159 9.44196 10.4159 9.44238ZM10.4204 9.27261C10.4204 9.27177 10.4204 9.27094 10.4204 9.2701C10.4204 9.27094 10.4204 9.27177 10.4204 9.27261ZM10.4207 9.2677C10.4207 9.26602 10.4207 9.26446 10.4207 9.26279C10.4207 9.26446 10.4207 9.26602 10.4207 9.2677ZM10.4207 9.26153C10.4812 8.18824 11.0646 7.56826 11.8899 7.56461C11.5321 7.5667 11.2204 7.68424 10.9764 7.90416V7.90374L10.9735 7.90667C10.9478 7.92986 10.9234 7.95441 10.8993 7.9797C10.6251 8.26983 10.4521 8.70446 10.4207 9.26153Z" fill="#404040"/>
<path d="M10.4159 9.60107V9.44843C10.4159 9.44634 10.4159 9.44467 10.4159 9.44269C10.4159 9.44227 10.4159 9.44185 10.4159 9.44143C10.4159 9.38387 10.4175 9.32755 10.4204 9.27291C10.4204 9.27207 10.4204 9.27124 10.4204 9.2704C10.4204 9.26967 10.4204 9.26884 10.4207 9.268C10.4207 9.26633 10.4207 9.26476 10.4207 9.26309C10.4207 9.26267 10.4207 9.26226 10.4207 9.26184C10.4521 8.70476 10.6251 8.27013 10.8993 7.98L10.9756 8.05669C10.6251 8.37304 10.4159 8.90066 10.4159 9.60107ZM10.9735 7.90697L10.9764 7.90404C10.9756 7.9053 10.9744 7.90613 10.9735 7.90697Z" fill="url(#paint10_linear)"/>
<path d="M28.2298 16.6855L13.0699 8.06897C12.6496 7.83065 12.2518 7.71761 11.8977 7.71761C11.5366 7.71761 11.2216 7.83514 10.9756 8.05674L10.8993 7.98005C10.9234 7.95477 10.9479 7.93022 10.9736 7.90702C10.9744 7.90619 10.9756 7.90535 10.9765 7.90452C11.2205 7.68459 11.5321 7.56705 11.8899 7.56497C11.8908 7.56497 11.8919 7.56497 11.8932 7.56497C11.8949 7.56497 11.896 7.56497 11.8977 7.56497C12.2518 7.56497 12.6496 7.67801 13.0699 7.91643L28.3273 16.5881L28.3269 16.5884L28.2298 16.6855Z" fill="url(#paint11_linear)"/>
<path d="M45.4297 10.5177C45.4419 11.5094 45.2433 12.3092 44.8352 12.9166H48.0032V8.18812H45.4297V10.5177ZM43.9854 15.0171H43.2156V12.9166H43.8284C44.3709 12.4488 44.6361 11.6498 44.6252 10.5177V7.41801H48.809V12.9166H49.5088V15.0171H48.7385V13.6867H43.9854V15.0171Z" fill="black"/>
<path d="M45.4297 10.5177L45.3252 10.5189L45.326 10.6033C45.3256 11.5417 45.1298 12.291 44.7483 12.8582L44.639 13.0211H48.1076V8.08366H45.3252V10.5185V10.5189L45.4297 10.5177H45.5341V8.29261H47.8987V12.8121H44.8352V12.9166L44.9217 12.9746C45.3325 12.3632 45.5349 11.5698 45.5349 10.6033L45.5341 10.5164L45.4297 10.5177H45.5341H45.4297ZM43.9854 15.0171V14.9126H43.32V13.0211H43.8283H43.8671L43.8964 12.9958C44.461 12.5085 44.73 11.6967 44.73 10.5862L44.7296 10.5168V10.5177V7.52251H48.7045V13.0211H49.4043V14.9126H48.8429V13.6867V13.5822H43.8809V15.0171H43.9854V14.9126V15.0171H44.0898V13.7912H48.634V15.0171V15.1216H49.5087H49.6132V12.8121H48.9134V7.31355H44.5207V10.5181V10.5185L44.5211 10.5862C44.5207 11.6673 44.2587 12.4089 43.7601 12.837L43.8283 12.9166V12.8121H43.2155H43.1111V15.1216H43.9854H44.0898V15.0171H43.9854Z" fill="black"/>
<path d="M51.7882 12.3517C52.2524 12.8215 52.8196 13.0561 53.4907 13.0561C54.1618 13.0561 54.7298 12.8215 55.1928 12.3517C55.6571 11.882 55.8896 11.2816 55.8896 10.5523C55.8896 9.82308 55.6571 9.22265 55.1928 8.75291C54.7298 8.28318 54.1618 8.04853 53.4907 8.04853C52.8196 8.04853 52.2524 8.28318 51.7882 8.75291C51.3251 9.22265 51.0926 9.82308 51.0926 10.5523C51.0926 11.2816 51.3251 11.882 51.7882 12.3517ZM55.7885 12.8765C55.1724 13.5103 54.4066 13.8267 53.4907 13.8267C52.5748 13.8267 51.8086 13.5103 51.1937 12.8765C50.5777 12.2435 50.2705 11.4686 50.2705 10.5523C50.2705 9.63606 50.5777 8.86105 51.1937 8.22812C51.8086 7.59426 52.5748 7.27759 53.4907 7.27759C54.4013 7.27759 55.1655 7.59593 55.7843 8.2322C56.4024 8.86847 56.7117 9.64181 56.7117 10.5523C56.7117 11.4686 56.4037 12.2435 55.7885 12.8765Z" fill="black"/>
<path d="M51.7881 12.3518L51.7139 12.4252C52.1949 12.9137 52.795 13.1619 53.4907 13.1606C54.1859 13.1619 54.7873 12.9137 55.267 12.4252C55.7513 11.9363 55.9949 11.3036 55.994 10.5523C55.9949 9.80105 55.7513 9.16843 55.267 8.67948C54.7873 8.19094 54.1859 7.94281 53.4907 7.94406C52.795 7.94281 52.1949 8.19094 51.7139 8.67948C51.2308 9.16843 50.9873 9.80105 50.9881 10.5523C50.9873 11.3036 51.2308 11.9363 51.7139 12.4252L51.7881 12.3518L51.8628 12.2783C51.4197 11.8273 51.1981 11.26 51.197 10.5523C51.1981 9.84472 51.4197 9.27741 51.8628 8.82638H51.8624C52.3095 8.37545 52.8436 8.15427 53.4907 8.15302C54.1373 8.15427 54.6726 8.37545 55.1185 8.82638L55.1201 8.82805L55.1185 8.82638C55.5628 9.27741 55.784 9.84472 55.7851 10.5523C55.784 11.26 55.5628 11.8273 55.1185 12.2783C54.6726 12.7292 54.1373 12.9504 53.4907 12.9517C52.8436 12.9504 52.3095 12.7292 51.8624 12.2783L51.7881 12.3518ZM55.7885 12.8766L55.7138 12.8039C55.1152 13.4177 54.3825 13.7209 53.4907 13.7222C52.5984 13.7209 51.8661 13.4177 51.2683 12.8039C50.671 12.188 50.3761 11.4453 50.3749 10.5523C50.3761 9.65937 50.671 8.91664 51.2683 8.30075C51.8661 7.68694 52.5984 7.38333 53.4907 7.38208C54.3772 7.38333 55.1079 7.6882 55.7097 8.30524C56.3094 8.92396 56.6061 9.66554 56.6072 10.5523C56.6061 11.4453 56.3103 12.188 55.7138 12.8039L55.7885 12.8766L55.8635 12.9492C56.4967 12.2987 56.8169 11.4918 56.8161 10.5523C56.8169 9.61821 56.4959 8.813 55.8594 8.1596C55.2229 7.50369 54.4258 7.17197 53.4907 7.17312C52.5507 7.17197 51.751 7.50212 51.1187 8.15552V8.15511C50.4842 8.806 50.1652 9.61288 50.166 10.5523C50.1652 11.4918 50.4842 12.2987 51.1187 12.9496V12.9492C51.751 13.6026 52.5507 13.932 53.4907 13.9312C54.4303 13.932 55.2299 13.6026 55.8635 12.9492L55.7885 12.8766Z" fill="black"/>
<path d="M60.765 13.8267C59.843 13.8267 59.0699 13.5145 58.4456 12.8896C57.8202 12.2652 57.5093 11.486 57.5093 10.5523C57.5093 9.61851 57.8202 8.83942 58.4456 8.21506C59.0699 7.59018 59.843 7.27759 60.765 7.27759C61.7095 7.27759 62.4774 7.61923 63.0669 8.30199L62.5059 8.84517C62.0808 8.31379 61.4994 8.04853 60.765 8.04853C60.0816 8.04853 59.5051 8.27911 59.0359 8.74027C58.5659 9.20144 58.3314 9.80553 58.3314 10.5523C58.3314 11.2991 58.5659 11.9036 59.0359 12.3644C59.5051 12.8256 60.0816 13.0561 60.765 13.0561C61.5178 13.0561 62.1591 12.7528 62.6907 12.146L63.2505 12.7059C62.9641 13.0504 62.6058 13.3234 62.1733 13.5242C61.7421 13.7258 61.2718 13.8267 60.765 13.8267Z" fill="black"/>
<path d="M60.765 13.8267V13.7222C59.8662 13.7209 59.1257 13.421 58.5194 12.8157C57.9135 12.2097 57.6145 11.4629 57.6137 10.5523C57.6145 9.64182 57.9135 8.89502 58.5194 8.28894C59.1257 7.68329 59.8662 7.38333 60.765 7.38208C61.6846 7.38375 62.4157 7.70941 62.9877 8.37012L63.0668 8.302L62.9942 8.22688L62.4333 8.77048L62.5059 8.84518L62.5874 8.77988C62.1444 8.22406 61.5239 7.9425 60.765 7.94406C60.0579 7.94323 59.4496 8.18614 58.9629 8.66559C58.4713 9.14681 58.2256 9.78423 58.2269 10.5523C58.2256 11.3205 58.4713 11.9587 58.9629 12.4391C59.4496 12.9186 60.0579 13.1615 60.765 13.1606C61.5462 13.1619 62.2231 12.841 62.769 12.215L62.6906 12.146L62.6168 12.2199L63.1766 12.7798L63.2505 12.7059L63.17 12.6395C62.8935 12.9716 62.5491 13.2345 62.1292 13.4296C61.7119 13.6246 61.2583 13.7218 60.765 13.7222V13.8267V13.9312C61.2855 13.9312 61.7719 13.8275 62.2174 13.619C62.6629 13.4124 63.0342 13.1296 63.3308 12.7729L63.3916 12.6999L62.7646 12.0722L62.6854 11.993L62.612 12.0771C62.0954 12.6652 61.4892 12.9504 60.765 12.9517C60.1049 12.9504 59.561 12.7325 59.1093 12.2897H59.109C58.6602 11.8489 58.4366 11.2779 58.4358 10.5523C58.4366 9.82675 58.6602 9.25662 59.109 8.81499H59.1093C59.561 8.37221 60.1049 8.15427 60.765 8.15302C61.4745 8.15469 62.0166 8.40366 62.4243 8.91048L62.496 9.00033L63.1394 8.37712L63.2104 8.30848L63.146 8.23388C62.5393 7.52866 61.7343 7.17197 60.765 7.17312C59.8192 7.17229 59.0134 7.49763 58.3717 8.14121C57.7267 8.78354 57.4035 9.59575 57.4048 10.5523C57.4035 11.5089 57.7267 12.3212 58.3717 12.9639C59.0134 13.6071 59.8192 13.932 60.765 13.9312V13.8267Z" fill="black"/>
<path d="M66.5074 13.6865H65.7017V8.18797H63.9514V7.41786H68.2577V8.18797H66.5074V13.6865Z" fill="black"/>
<path d="M66.5075 13.6865V13.5821H65.8062V8.08351H64.0559V7.52236H68.1533V8.08351H66.403V13.6865H66.5075V13.5821V13.6865H66.6119V8.29246H68.3622V7.41788V7.3134H63.847V8.18799V8.29246H65.5973V13.791H66.5075H66.6119V13.6865H66.5075Z" fill="black"/>
<path d="M73.7864 7.418L71.4152 12.7059C71.0876 13.4533 70.6017 13.8267 69.9538 13.8267C69.7612 13.8267 69.5539 13.7802 69.3316 13.6867L69.5417 12.9423C69.6763 13.0185 69.8163 13.0561 69.962 13.0561C70.1488 13.0561 70.2936 13.0198 70.3956 12.9472C70.4977 12.8741 70.5923 12.7406 70.68 12.5484L70.9076 12.0489L68.7983 7.418H69.7437L71.2928 11.0163H71.3275L72.8407 7.418H73.7864Z" fill="black"/>
<path d="M73.7863 7.418L73.6909 7.37516L71.3197 12.6635L71.3193 12.6643C70.9969 13.3887 70.5567 13.7185 69.9538 13.7222C69.7779 13.7222 69.5844 13.6798 69.3719 13.5903L69.3316 13.6867L69.4323 13.7152L69.642 12.9708L69.5416 12.9423L69.4906 13.0333C69.6392 13.1174 69.7978 13.161 69.9619 13.1606C70.1614 13.1606 70.3286 13.1227 70.4563 13.032C70.582 12.941 70.6828 12.7929 70.775 12.592L71.0027 12.0925L71.0222 12.0489L68.9607 7.52248H69.6751L71.2238 11.1208H71.3274H71.3968L72.9099 7.52248H73.7863V7.418L73.6909 7.37516L73.7863 7.418V7.31352H72.8406H72.7712L71.2307 10.976L71.3274 11.0163V10.9118H71.2927V11.0163L71.3886 10.9751L69.8125 7.31352H68.7983H68.6359L70.7925 12.0489L70.5849 12.5051C70.5021 12.6884 70.4131 12.8067 70.3348 12.8618C70.2585 12.917 70.1357 12.9521 69.9619 12.9517C69.8342 12.9517 69.7138 12.9194 69.593 12.8513L69.4772 12.786L69.2312 13.6581L69.2058 13.747L69.2912 13.783C69.5232 13.8805 69.744 13.9311 69.9538 13.9311C70.646 13.9344 71.1781 13.5173 71.5106 12.748L71.5102 12.7488L73.9475 7.31352H73.7863V7.418Z" fill="black"/>
<path d="M74.6981 13.6865V7.41786H79.232V13.6865H78.4264V8.18797H75.5027V13.6865H74.6981Z" fill="black"/>
<path d="M74.6981 13.6865H74.8025V7.52236H79.1272V13.5821H78.5308V8.08351H75.3982V13.5821H74.6981V13.6865H74.8025H74.6981V13.791H75.5026H75.6071V8.29246H78.3219V13.791H79.232H79.3364V7.3134H74.5936V13.791H74.6981V13.6865Z" fill="black"/>
<path d="M80.667 13.6865V7.41786H81.4719V10.1053H84.6053V7.41786H85.4111V13.6865H84.6053V10.8583H81.4719V13.6865H80.667Z" fill="black"/>
<path d="M80.6671 13.6865H80.7715V7.52236H81.3676V10.2098H84.7098V7.52236H85.3067V13.5821H84.7098V10.7539H81.3676V13.5821H80.6671V13.6865H80.7715H80.6671V13.791H81.472H81.5765V10.9628H84.5009V13.791H85.4111H85.5156V7.3134H84.6053H84.5009V10.0009H81.5765V7.3134H80.6671H80.5626V13.791H80.6671V13.6865Z" fill="black"/>
<path d="M87.9707 12.3517C88.435 12.8215 89.0021 13.0561 89.6732 13.0561C90.3444 13.0561 90.9124 12.8215 91.3754 12.3517C91.8396 11.882 92.0722 11.2816 92.0722 10.5523C92.0722 9.82308 91.8396 9.22265 91.3754 8.75291C90.9124 8.28318 90.3444 8.04853 89.6732 8.04853C89.0021 8.04853 88.435 8.28318 87.9707 8.75291C87.5081 9.22265 87.2751 9.82308 87.2751 10.5523C87.2751 11.2816 87.5081 11.882 87.9707 12.3517ZM91.971 12.8765C91.3554 13.5103 90.5892 13.8267 89.6732 13.8267C88.7574 13.8267 87.9916 13.5103 87.3763 12.8765C86.7603 12.2435 86.453 11.4686 86.453 10.5523C86.453 9.63606 86.7603 8.86105 87.3763 8.22812C87.9916 7.59426 88.7574 7.27759 89.6732 7.27759C90.5843 7.27759 91.348 7.59593 91.9669 8.2322C92.585 8.86847 92.8943 9.64181 92.8943 10.5523C92.8943 11.4686 92.5863 12.2435 91.971 12.8765Z" fill="black"/>
<path d="M87.9708 12.3518L87.8966 12.4252C88.378 12.9137 88.9777 13.1619 89.6733 13.1606C90.3689 13.1619 90.9699 12.9137 91.4501 12.4252C91.934 11.9363 92.1776 11.3036 92.1767 10.5523C92.1776 9.80105 91.934 9.16843 91.4501 8.67948C90.9699 8.19094 90.3689 7.94281 89.6733 7.94406C88.9777 7.94281 88.378 8.19094 87.8966 8.67948C87.4135 9.16843 87.1699 9.80105 87.1707 10.5523C87.1699 11.3036 87.4135 11.9363 87.8966 12.4252L87.9708 12.3518L88.0454 12.2783C87.6024 11.8273 87.3809 11.26 87.3796 10.5523C87.3809 9.84472 87.6024 9.27741 88.0454 8.82638C88.4923 8.37545 89.0267 8.15427 89.6733 8.15302C90.32 8.15427 90.8553 8.37545 91.3012 8.82638L91.3044 8.82972L91.3012 8.82638C91.7455 9.27741 91.967 9.84472 91.9679 10.5523C91.967 11.26 91.7455 11.8273 91.3012 12.2783C90.8553 12.7292 90.32 12.9504 89.6733 12.9517C89.0267 12.9504 88.4923 12.7292 88.0454 12.2783L87.9708 12.3518ZM91.9711 12.8766L91.8964 12.8039C91.2979 13.4177 90.5652 13.7209 89.6733 13.7222C88.7815 13.7209 88.0488 13.4177 87.4515 12.8039L87.4482 12.8007L87.4515 12.8039C86.8537 12.188 86.5588 11.4453 86.5575 10.5523C86.5588 9.65937 86.8537 8.91664 87.4515 8.30075C88.0488 7.68694 88.7815 7.38333 89.6733 7.38208C90.5599 7.38333 91.2906 7.6882 91.8923 8.30524C92.4922 8.92396 92.7891 9.66554 92.7899 10.5523C92.7891 11.4453 92.4929 12.188 91.8964 12.8039L91.9711 12.8766L92.0462 12.9492C92.6798 12.2987 92.9997 11.4918 92.9988 10.5523C92.9997 9.61821 92.6786 8.813 92.0421 8.1596C91.4056 7.50369 90.6084 7.17197 89.6733 7.17312C88.7333 7.17197 87.9341 7.50212 87.3013 8.15552V8.15511C86.6669 8.806 86.3478 9.61288 86.3486 10.5523C86.3478 11.4918 86.6669 12.2987 87.3013 12.9496V12.9492C87.9341 13.6026 88.7333 13.932 89.6733 13.9312C90.6133 13.932 91.4126 13.6026 92.0462 12.9492L91.9711 12.8766Z" fill="black"/>
<path d="M96.9914 12.9164H98.6113C98.9205 12.9164 99.1711 12.8083 99.3643 12.5916C99.5565 12.3765 99.6526 12.1397 99.6526 11.8826C99.6526 11.6259 99.5534 11.3913 99.3549 11.1782C99.1575 10.9652 98.8964 10.8583 98.5758 10.8583H96.9914V12.9164ZM96.9914 10.1053H98.4536C98.7575 10.1053 99.0009 10.0054 99.1847 9.8033C99.3685 9.60207 99.4604 9.38215 99.4604 9.14258C99.4604 8.90343 99.3716 8.68382 99.193 8.48636C99.0155 8.28754 98.7805 8.18797 98.4891 8.18797H96.9914V10.1053ZM96.1871 13.6865V7.41786H98.4536C98.9434 7.41786 99.3685 7.58033 99.7268 7.90348C100.086 8.22798 100.266 8.63482 100.266 9.12503C100.266 9.42248 100.188 9.68534 100.033 9.9131C99.8793 10.1408 99.6735 10.313 99.4166 10.4297V10.4644C99.7247 10.5693 99.9795 10.7505 100.178 11.0072C100.375 11.2643 100.476 11.5623 100.476 11.9006C100.476 12.414 100.288 12.84 99.9106 13.1784C99.5346 13.5172 99.0897 13.6865 98.5758 13.6865H96.1871Z" fill="black"/>
<path d="M96.9913 12.9164V13.0209H98.6112C98.9444 13.0222 99.2316 12.8997 99.4416 12.6613C99.6484 12.4316 99.758 12.1663 99.757 11.8826C99.758 11.5987 99.6442 11.3345 99.4311 11.1069C99.2149 10.8721 98.9194 10.7526 98.5757 10.7538H96.8869V13.0209H96.9913V12.9164H97.0958V10.9628H98.5757C98.8744 10.964 99.099 11.0587 99.2786 11.2493C99.4625 11.4484 99.5471 11.6537 99.5481 11.8826C99.5471 12.1132 99.4645 12.3214 99.2859 12.5221C99.1115 12.7165 98.8964 12.8103 98.6112 12.812H96.9913V12.9164H97.0958H96.9913ZM96.9913 10.1054V10.2098H98.4535C98.7794 10.211 99.0593 10.0984 99.2619 9.87352V9.87394C99.4593 9.6584 99.5648 9.40943 99.5648 9.14259C99.5648 8.87733 99.4635 8.62919 99.2703 8.41616V8.41658C99.075 8.1953 98.8034 8.08225 98.489 8.08351H96.8869V10.2098H96.9913V10.1054H97.0958V8.29246H98.489C98.7575 8.29413 98.9559 8.3798 99.1147 8.55574L99.1157 8.55648L99.1147 8.55616C99.2786 8.739 99.3549 8.92998 99.3559 9.14259C99.3549 9.35437 99.2766 9.54619 99.1074 9.73269V9.7331C98.9423 9.91228 98.7345 9.99962 98.4535 10.0009H96.9913V10.1054H97.0958H96.9913ZM96.1871 13.6865H96.2915V7.52236H98.4535C98.9204 7.52319 99.3152 7.67416 99.6567 7.98112C99.9962 8.2888 100.16 8.66064 100.161 9.12504C100.161 9.40462 100.089 9.64419 99.9471 9.8543C99.8029 10.0666 99.6139 10.2249 99.3726 10.3347L99.3121 10.3625V10.4644V10.5391L99.382 10.5632C99.6734 10.6628 99.9084 10.8301 100.095 11.0714L100.096 11.0725L100.095 11.0709C100.279 11.3109 100.371 11.5827 100.371 11.9006C100.37 12.3887 100.197 12.7793 99.8406 13.1009C99.4813 13.4229 99.0666 13.5812 98.5757 13.5821H96.1871V13.6865H96.2915H96.1871V13.791H98.5757C99.1126 13.7918 99.5868 13.6114 99.9805 13.256C100.377 12.9013 100.581 12.4397 100.58 11.9006C100.581 11.5419 100.472 11.2178 100.26 10.9436L100.259 10.9423L100.26 10.9432C100.05 10.6714 99.7768 10.4763 99.4499 10.3657L99.4165 10.4644H99.5209V10.4298H99.4165L99.4593 10.5248C99.7319 10.4012 99.9554 10.2155 100.119 9.97142V9.97183C100.287 9.72663 100.37 9.44046 100.37 9.12504C100.371 8.60955 100.177 8.16719 99.7967 7.82597L99.7946 7.82398L99.7967 7.82597C99.4207 7.486 98.9664 7.31257 98.4535 7.3134H96.0826V13.791H96.1871V13.6865Z" fill="black"/>
<defs>
<linearGradient id="paint0_linear" x1="22.7686" y1="9.20425" x2="5.23469" y2="26.7326" gradientUnits="userSpaceOnUse">
<stop stop-color="#00A0FF"/>
<stop offset="0.00657445" stop-color="#00A1FF"/>
<stop offset="0.2601" stop-color="#00BEFF"/>
<stop offset="0.5122" stop-color="#00D2FF"/>
<stop offset="0.7604" stop-color="#00DFFF"/>
<stop offset="1" stop-color="#00E3FF"/>
</linearGradient>
<linearGradient id="paint1_linear" x1="35.3382" y1="21.0016" x2="10.0658" y2="21.0016" gradientUnits="userSpaceOnUse">
<stop stop-color="#FFE000"/>
<stop offset="0.4087" stop-color="#FFBD00"/>
<stop offset="0.7754" stop-color="#FFA500"/>
<stop offset="1" stop-color="#FF9C00"/>
</linearGradient>
<linearGradient id="paint2_linear" x1="25.9304" y1="23.3987" x2="2.15309" y2="47.1685" gradientUnits="userSpaceOnUse">
<stop stop-color="#FF3A44"/>
<stop offset="1" stop-color="#C31162"/>
</linearGradient>
<linearGradient id="paint3_linear" x1="7.62168" y1="0.288221" x2="18.2392" y2="10.9024" gradientUnits="userSpaceOnUse">
<stop stop-color="#32A071"/>
<stop offset="0.0685" stop-color="#2DA771"/>
<stop offset="0.4762" stop-color="#15CF74"/>
<stop offset="0.8009" stop-color="#06E775"/>
<stop offset="1" stop-color="#00F076"/>
</linearGradient>
<linearGradient id="paint4_linear" x1="35.3377" y1="21.0018" x2="10.0667" y2="21.0018" gradientUnits="userSpaceOnUse">
<stop stop-color="#CCB300"/>
<stop offset="0.4087" stop-color="#CC9700"/>
<stop offset="0.7754" stop-color="#CC8400"/>
<stop offset="1" stop-color="#CC7D00"/>
</linearGradient>
<linearGradient id="paint5_linear" x1="25.9304" y1="23.3987" x2="2.15308" y2="47.1685" gradientUnits="userSpaceOnUse">
<stop stop-color="#CC2E36"/>
<stop offset="1" stop-color="#9C0E4E"/>
</linearGradient>
<linearGradient id="paint6_linear" x1="22.7686" y1="9.2044" x2="5.23465" y2="26.7328" gradientUnits="userSpaceOnUse">
<stop stop-color="#008DE0"/>
<stop offset="0.00657445" stop-color="#008DE0"/>
<stop offset="0.2601" stop-color="#00A7E0"/>
<stop offset="0.5122" stop-color="#00B8E0"/>
<stop offset="0.7604" stop-color="#00C4E0"/>
<stop offset="1" stop-color="#00C7E0"/>
</linearGradient>
<linearGradient id="paint7_linear" x1="25.9312" y1="23.3995" x2="2.15445" y2="47.1704" gradientUnits="userSpaceOnUse">
<stop stop-color="#E0333C"/>
<stop offset="1" stop-color="#AB0F56"/>
</linearGradient>
<linearGradient id="paint8_linear" x1="35.3382" y1="21.0013" x2="10.0658" y2="21.0013" gradientUnits="userSpaceOnUse">
<stop stop-color="#E0C500"/>
<stop offset="0.4087" stop-color="#E0A600"/>
<stop offset="0.7754" stop-color="#E09100"/>
<stop offset="1" stop-color="#E08900"/>
</linearGradient>
<linearGradient id="paint9_linear" x1="35.3381" y1="21.0015" x2="10.0657" y2="21.0015" gradientUnits="userSpaceOnUse">
<stop stop-color="#FFE840"/>
<stop offset="0.4087" stop-color="#FFCE40"/>
<stop offset="0.7754" stop-color="#FFBC40"/>
<stop offset="1" stop-color="#FFB540"/>
</linearGradient>
<linearGradient id="paint10_linear" x1="22.7686" y1="9.20427" x2="5.23467" y2="26.7326" gradientUnits="userSpaceOnUse">
<stop stop-color="#40B8FF"/>
<stop offset="0.00657445" stop-color="#40B9FF"/>
<stop offset="0.2601" stop-color="#40CEFF"/>
<stop offset="0.5122" stop-color="#40DDFF"/>
<stop offset="0.7604" stop-color="#40E7FF"/>
<stop offset="1" stop-color="#40EAFF"/>
</linearGradient>
<linearGradient id="paint11_linear" x1="7.62162" y1="0.288726" x2="18.2392" y2="10.9029" gradientUnits="userSpaceOnUse">
<stop stop-color="#65B895"/>
<stop offset="0.0685" stop-color="#62BD95"/>
<stop offset="0.4762" stop-color="#50DB97"/>
<stop offset="0.8009" stop-color="#44ED98"/>
<stop offset="1" stop-color="#40F498"/>
</linearGradient>
</defs>
</svg>
