<svg width="131" height="120" viewBox="0 0 131 120" fill="none" xmlns="http://www.w3.org/2000/svg">
<path d="M67.7441 120C101.294 120 128.491 93.1371 128.491 60C128.491 26.8629 101.294 0 67.7441 0C34.1943 0 6.99683 26.8629 6.99683 60C6.99683 93.1371 34.1943 120 67.7441 120Z" fill="#A1E9D1"/>
<path d="M92.9972 30.3442C100.474 30.347 107.93 32.7276 114.019 37.0535C120.107 41.3793 124.795 47.6309 127.235 54.6746C127.44 55.2677 127.632 55.9106 127.448 56.5106C127.253 57.1521 126.676 57.5944 126.114 57.965C122.854 60.1106 118.969 61.2981 115.063 61.3465C110.439 61.4032 105.907 59.9046 101.283 59.9157C96.943 59.9267 92.6172 61.3106 89.0819 63.8198C86.8559 65.4 84.8504 67.4557 82.2236 68.205C79.8631 68.8783 77.1877 68.3336 75.2793 66.7921C74.755 66.3677 74.2557 65.805 74.2446 65.1318C74.2349 64.5981 74.5345 64.1143 74.823 63.6663C75.54 62.5493 76.2584 61.4309 76.9755 60.3138C77.4928 59.5078 78.0406 58.6714 78.8645 58.1792C79.8547 57.5875 81.0738 57.5862 82.2278 57.5447C87.3774 57.3567 92.9404 55.6783 95.7267 51.3581C97.7211 48.2654 97.9375 44.2963 97.1275 40.7101C96.3148 37.1226 94.5755 33.824 92.9972 30.3442Z" fill="#9DC42D"/>
<path d="M86.3581 84.2423C84.4775 79.3427 85.7132 73.5031 89.1042 69.4911C92.4953 65.4791 97.8211 63.2948 103.083 63.3211C107.416 63.3418 111.672 64.7464 116.002 64.5736C120.708 64.3856 125.304 62.2386 128.448 58.6455C130.894 70.5377 129.415 83.4791 122.937 93.7579C118.128 101.387 110.782 107.258 102.575 111.032C94.369 114.806 85.3263 116.561 76.2974 116.967C66.7068 117.4 56.653 116.203 48.613 110.974C47.2566 110.092 45.8724 108.951 45.5895 107.36C45.3066 105.769 46.8738 103.905 48.3717 104.519C46.6464 102.96 47.5645 99.5506 49.8404 99.0612C48.8724 97.987 48.5742 96.357 49.1012 95.0105C49.6269 93.6639 50.9528 92.6658 52.3952 92.5261C51.219 92.5248 50.6934 90.8326 51.3342 89.8483C51.9749 88.8639 53.2259 88.4948 54.384 88.2861C59.8901 87.2907 65.5335 88.2708 71.1269 88.4381C76.7204 88.6054 82.7785 87.7524 86.3581 84.2423Z" fill="#27A4DE"/>
<path d="M74.8472 35.6015C75.9539 39.554 78.7763 42.9134 82.2603 45.0991C85.7442 47.2849 89.8509 48.3577 93.9576 48.6411C94.6802 48.6908 95.4999 48.6826 96.0033 48.1641C96.4458 47.7107 96.4943 47.0139 96.4957 46.3807C96.5123 41.3222 95.1434 36.2651 92.5776 31.9005C92.2378 31.3227 91.855 30.7337 91.2725 30.3978C90.5569 29.9858 89.6734 30.0287 88.851 30.1199C83.7498 30.6826 78.8041 32.6042 74.8472 35.6015Z" fill="#F0D00B"/>
<path d="M71.8486 51.4958C73.2272 54.1239 75.886 55.9613 78.768 56.7023C81.65 57.4433 84.729 57.1613 87.5722 56.2861C89.2531 55.7691 90.8855 55.0391 92.2794 53.9705C93.6733 52.9004 94.8216 51.4737 95.3889 49.8133C94.3473 49.5438 93.2391 49.6751 92.2031 49.964C91.1671 50.2544 90.1824 50.6967 89.1713 51.0617C84.3268 52.812 79.356 52.3958 74.2452 51.7419C76.8665 51.3686 77.8623 50.2378 79.8983 49.4166C80.5654 49.147 81.1091 48.5885 81.7055 48.1861C82.3019 47.7838 82.815 47.2074 82.9787 46.5078C78.8082 47.5723 75.7181 50.0553 71.8486 51.4958Z" fill="#F0D00B"/>
<path d="M40.9851 82.1874C32.8688 85.2413 24.6943 88.139 16.4657 90.8777C15.6293 91.157 14.7375 91.4362 13.879 91.2358C12.5199 90.9178 11.7265 89.5422 11.1121 88.2925C8.30778 82.598 5.82241 76.7473 3.67129 70.7763C2.31904 67.0229 0.406474 62.7261 1.68522 58.8911C13.5434 56.3915 26.0937 54.0302 37.9519 51.5293C39.0448 51.2984 40.182 51.069 41.2666 51.3372C42.3498 51.6054 43.3581 52.5302 43.1653 53.809C45.3414 60.8929 47.3247 68.0349 49.1111 75.2252C49.3995 76.3837 49.6658 77.6763 49.0778 78.716C48.5549 79.6408 47.4953 80.1067 46.4967 80.4772C44.6396 81.1699 42.6813 81.5487 40.9851 82.1874Z" fill="#A0A29F"/>
<path d="M15.3309 92.3518C14.6624 92.5495 14.3711 93.3942 14.55 94.0661C14.7289 94.738 15.2393 95.2648 15.7442 95.7431C20.0797 99.8519 25.3569 102.812 30.5745 105.727C32.8505 106.999 35.3178 108.314 37.9127 108.044C39.9113 107.837 41.6782 106.712 43.3523 105.606C44.4216 104.898 46.2953 104.482 46.8723 103.338C47.3411 102.409 46.6407 100.983 47.0304 100.018C47.4201 99.0528 48.2301 98.768 49.2453 99.0058C48.2814 98.1652 47.9707 96.1578 48.2592 94.9136C48.5477 93.6694 49.5629 92.6214 50.7987 92.2896C49.8236 91.3952 50.2411 89.6588 51.2785 88.8389C52.316 88.0191 53.7167 87.8615 55.0357 87.7357C58.718 87.3859 62.3323 88.1933 66.0146 87.8436C66.7469 87.7744 68.536 87.1108 68.5222 87.8436C69.4777 87.1136 68.64 85.2279 67.855 84.3196C67.07 83.4113 65.8676 82.9993 64.7248 82.626C60.2838 81.1744 55.7139 79.7062 51.0483 79.973C45.2884 80.3021 40.0555 83.2233 34.6341 85.1892C28.024 87.5892 21.676 90.4758 15.3309 92.3518Z" fill="#A0A29F"/>
<path d="M72.9021 51.3729C75.3153 52.0172 80.0947 52.4499 83.1626 52.2923C86.2304 52.1347 89.2969 51.5471 92.1179 50.3333C88.7366 50.1314 85.003 48.1531 82.2236 46.2231C79.9283 48.5347 76.0768 50.1273 72.9021 51.3729Z" fill="#762231"/>
<path d="M127.392 55.9478C124.59 59.1081 120.95 60.615 116.574 60.9731C112.481 61.309 108.631 60.3496 104.563 59.7897C100.495 59.2298 96.9183 59.2256 93.2666 61.0989C91.146 62.1869 88.6356 63.7934 86.7591 65.263C84.8826 66.7325 82.0533 68.2146 79.7357 67.6533C77.3197 67.0685 75.3752 65.8021 74.2421 64.1584C71.227 70.6104 69.245 78.2611 69.1702 85.3796C69.1618 86.198 68.7291 87.2915 69.3338 87.8459C69.7679 88.2441 71.7748 88.1777 72.3601 88.2413C76.3031 88.6657 80.3238 88.4196 83.615 86.2132C84.3667 85.7086 86.2765 84.3219 86.2765 84.3219C86.2765 84.3219 86.0185 80.7316 85.9797 79.28C85.8798 75.6441 87.2279 72.0054 89.5954 69.2362C91.9629 66.4671 95.3151 64.5759 98.8961 63.8736C102.236 63.2183 105.682 63.5653 109.062 63.9634C112.442 64.3616 115.586 64.8067 118.958 64.3408C122.33 63.8749 125.941 61.1874 128.492 58.645C129.005 58.1335 128.709 58.3077 128.659 57.586C128.611 56.863 128.016 56.1399 127.392 55.9478Z" fill="#F3EFEE"/>
<path d="M15.0456 87.8457L6.0791 62.3236L39.6038 54.5264L46.0045 77.2144L15.0456 87.8457Z" fill="#ACDEF5"/>
<path d="M26.8035 78.4092C31.4377 78.4092 35.1944 74.6954 35.1944 70.1143C35.1944 65.5331 31.4377 61.8193 26.8035 61.8193C22.1693 61.8193 18.4126 65.5331 18.4126 70.1143C18.4126 74.6954 22.1693 78.4092 26.8035 78.4092Z" fill="white"/>
<path d="M30.0297 76.652C29.6316 74.4663 29.2544 72.2681 29.2086 70.0479C29.1628 67.8276 29.4582 65.57 30.3584 63.5391C29.608 63.0981 28.9173 62.7124 28.2253 62.3267C27.2059 63.828 26.6345 65.4773 26.5207 67.1598C26.407 68.8423 26.751 70.5525 27.5068 72.0608C26.4431 70.6935 25.3835 69.5405 24.2573 68.4539C23.3391 68.8382 22.5777 69.3787 21.9536 70.0548C23.8287 71.964 25.7094 73.8787 27.8175 75.5267C28.4846 76.0479 29.1906 76.5511 30.0019 76.7972C29.9978 76.6423 29.9894 76.4889 30.0297 76.652Z" fill="#81DB3B"/>
<path d="M30.7733 102.033C37.4902 99.2034 44.0254 95.9462 50.3262 92.2881C49.7159 91.1808 49.9364 89.6794 50.8393 88.7932C51.659 87.9886 52.8628 87.7342 54.0029 87.5849C56.5382 87.2531 59.1054 87.2586 61.6629 87.2656C57.8863 84.9485 53.8032 83.1292 49.5523 81.8711C39.4125 85.7642 29.5389 89.6918 19.9026 93.9057C19.6432 93.8434 19.4338 94.178 19.5032 94.4352C19.5739 94.6923 19.8069 94.8651 20.026 95.0172C23.0925 97.1656 26.1604 99.3126 29.2269 101.461C29.7345 101.816 30.3655 102.205 30.7733 102.033Z" fill="#676A6F"/>
<path d="M71.8484 52.5775C74.0772 53.5619 76.6582 53.8895 79.0937 53.9434C81.5305 53.9974 83.8217 53.7195 86.2391 53.4043C89.4609 52.9826 92.7507 52.2278 95.3609 50.2964C95.0821 49.8098 94.4677 49.5983 93.9074 49.6301C93.3457 49.6619 92.8187 49.8914 92.2986 50.1043C85.7426 52.7849 78.593 52.9218 71.4781 51.1218C71.4129 51.6209 71.5779 52.4586 71.8484 52.5775Z" fill="black"/>
<path d="M92.5605 76.3989C90.7395 79.9021 88.8339 83.5118 85.748 85.9809C83.3694 87.8846 80.4097 88.9878 77.3932 89.4385C74.3752 89.8892 71.2935 89.7122 68.2769 89.256C67.0481 77.7634 70.5917 65.6887 77.4237 56.4634C78.1865 56.809 79.5027 57.127 79.5027 57.127C79.5027 57.127 75.2781 62.8615 74.0729 65.9099C71.3448 72.8085 69.2006 80.1537 69.8095 87.5431C72.8774 87.7491 75.9924 87.8362 78.9937 87.1671C81.995 86.4993 84.9047 85.0021 86.5316 82.6449C89.0433 79.1846 91.089 75.3896 92.5966 71.3915C92.7256 71.0486 92.8601 70.6906 93.1278 70.439C93.3955 70.1873 93.8421 70.085 94.1319 70.3104C94.4509 70.5592 94.4246 71.0403 94.3538 71.4371C94.0321 73.2454 93.3136 74.9486 92.5605 76.3989Z" fill="black"/>
<path d="M4.72507 60.7425C3.72093 60.9748 3.90123 62.154 4.25212 63.1204C7.20904 71.2605 10.3754 79.8167 13.3323 87.9568C13.5584 88.5803 13.7387 89.3738 14.256 89.7914C14.6735 90.1273 15.2116 89.7831 15.7497 89.6393C16.5125 89.4361 15.8912 89.407 15.9661 89.302C12.7027 80.7222 9.96348 73.666 6.71946 64.1379C6.57522 63.7135 6.13279 62.8978 6.32003 62.49C6.54055 62.0075 7.40738 61.9342 7.92609 61.8195C18.2115 59.5314 30.845 56.4803 38.437 54.7923C39.222 54.6181 39.351 54.4646 39.566 54.6789C40.0223 55.1338 40.093 56.2038 40.2802 56.8619C41.5548 61.3356 43.4632 68.7374 45.1927 74.8107C45.3869 75.4923 46.0068 77.1679 46.0068 77.1679C46.0068 77.1679 43.6144 78.0886 42.6394 78.4121C33.7159 81.3651 25.8327 84.2407 16.9092 87.1937C16.3683 87.372 15.4515 87.5019 15.0882 87.9388C14.7248 88.3757 14.6846 89.1319 15.1589 89.4485C15.5514 89.7112 16.0756 89.5646 16.5222 89.4098C26.0116 86.1222 35.4995 82.8347 44.9888 79.5457C46.0207 79.1877 47.4451 79.0715 47.8542 78.0623C48.176 77.2674 47.6573 76.0245 47.4146 75.202C45.391 68.3711 43.7503 61.4711 41.7282 54.6402C41.5049 53.884 41.1429 52.8126 40.3884 52.5775C39.9793 52.4503 38.5688 52.8914 38.1513 52.9881C26.705 55.6328 17.0798 57.8849 4.72507 60.7425Z" fill="black"/>
<path d="M43.7214 104.299C41.444 105.786 41.0072 106.422 37.9448 107.445C35.5039 108.26 31.6274 105.916 29.4236 104.591C27.2198 103.266 24.9494 102.108 22.8745 100.59C20.9093 99.1505 19.2103 97.9007 16.9621 96.2556C16.3948 95.8408 15.7915 95.48 15.3588 94.927C14.9261 94.374 14.3214 93.5653 14.6875 92.9666C14.9968 92.4607 15.9482 92.2989 16.5099 92.104C27.242 88.3547 38.182 84.4671 48.914 80.7178C49.5257 80.5049 49.9722 80.3957 50.3245 79.8537C50.6768 79.3118 50.4868 78.3994 49.8488 78.2888C49.5922 78.2445 48.8516 78.6911 48.6047 78.7726C41.8671 81.0206 35.9199 83.4496 29.2128 85.6865C24.776 87.1657 21.1742 88.4514 16.5294 90.1795C15.4878 90.5666 14.4836 91.1348 13.4712 90.6745C12.4865 90.2266 11.7542 89.1883 11.3437 88.1915C10.2161 85.4542 8.77091 82.6934 7.80007 80.3362C5.73355 75.3206 3.79879 71.0072 2.61436 65.404C2.31201 63.9717 2.01798 62.4316 1.94863 61.6934C1.87929 60.9551 1.87651 60.1699 2.24543 59.5256C2.61297 58.8814 4.40626 58.7307 4.40626 58.7307C4.40626 58.7307 4.36466 57.5044 4.37991 56.8574C3.05124 56.8574 1.62687 57.1312 0.893184 57.9855C0.159501 58.8399 0.00139582 60.0012 8.8966e-06 61.1265C-0.00137803 62.2519 0.159501 63.4892 0.407761 64.5855C2.07484 71.9542 5.2509 80.3058 8.9415 87.6441C9.4616 88.6782 10.4227 90.1298 11.1869 90.9994C11.9511 91.8703 11.9927 92.2256 13.13 92.368C12.7666 93.2943 12.6931 93.7865 13.0135 94.5275C13.5183 95.6943 14.1466 96.4408 15.1424 97.2676C19.9675 101.278 25.3433 104.473 30.8383 107.509C32.4637 108.406 34.2085 109.308 36.0475 109.579C37.8866 109.85 40.0973 108.781 41.5453 107.895C43.3067 106.816 44.376 106.324 45.8559 105.146C46.2816 104.808 46.7116 104.429 46.8974 103.917C47.0833 103.406 47.2733 102.663 46.774 102.444C45.6853 102.998 44.5951 103.728 43.7214 104.299Z" fill="black"/>
<path d="M47.1958 79.7211C48.3497 79.334 48.8948 77.9571 48.8837 76.7958C48.8726 75.6331 48.5286 73.6617 48.2554 72.5308C46.5481 65.4718 45.3484 61.7377 42.5607 53.5479C42.3277 52.8649 41.7591 51.5792 41.0115 51.5405C39.3028 51.4534 37.7425 51.9511 36.4458 52.2193C25.5737 54.4714 14.1829 56.5506 3.17903 58.9589C2.97793 58.334 3.0556 57.6386 2.85449 57.0138C14.6905 54.6525 26.0744 52.2566 37.9104 49.8953C38.9159 49.6949 40.3694 49.4944 41.3749 49.7004C42.8423 50.0018 43.3291 50.8022 44.0336 52.1211C44.7382 53.4386 45.5689 55.7045 46.0044 57.1036C48.2291 64.2248 49.5702 69.0483 50.6908 76.0686C50.799 76.7432 50.6395 78.6856 50.4981 79.3534C50.3552 80.0211 50.297 80.0502 49.7172 80.4124C49.3331 80.6529 48.8449 80.7511 48.4163 80.6031C47.9877 80.4525 46.6452 79.9064 47.1958 79.7211Z" fill="black"/>
<path d="M49.9228 78.6108C55.2777 78.6108 66.2219 82.1638 66.2219 82.1638L68.4452 82.685C68.4452 82.685 68.8294 84.0427 68.3301 84.4795C67.9071 84.85 68.3439 84.8486 67.3398 84.5611C64.1249 83.6403 60.5633 82.9975 57.3484 82.0767C55.4969 81.5459 52.6537 80.4578 50.7258 80.4578C48.6746 80.4578 47.0741 80.7966 45.0769 81.6274C46.7315 80.5989 48.1101 78.6108 49.9228 78.6108Z" fill="black"/>
<path d="M74.7508 89.2755C75.9366 89.8492 76.7729 91.0852 76.863 92.3958C76.9532 93.7078 75.8769 95.1829 74.7813 95.9114C73.7244 96.6151 72.8105 96.6013 71.54 96.6649C65.9632 96.9456 60.3406 96.4437 54.9275 95.082C53.6348 94.7571 52.3145 94.3617 51.2854 93.5156C50.2563 92.6695 49.0372 91.2041 49.4269 89.9336C49.8666 88.4985 51.7001 87.7216 53.1605 87.3566C55.3269 86.816 57.865 86.8561 60.0979 86.9266C62.7123 87.0096 65.4126 87.376 68.296 87.4672C68.8272 87.4838 69.0741 87.8031 69.2183 88.3133C69.3376 88.7322 69.0242 89.1773 68.6261 89.3584C68.2281 89.5395 67.9105 89.3861 67.4736 89.3667C64.3239 89.2271 61.3087 88.8151 57.8872 89.0861C56.2977 89.2119 54.3866 88.8801 52.8609 89.3432C52.0884 89.5783 51.5142 90.2114 51.5864 91.0147C51.6446 91.6617 52.2812 92.0861 52.872 92.3584C54.1425 92.9432 55.5114 93.2847 56.8789 93.575C61.6846 94.5981 65.9188 94.9119 70.8313 94.7819C71.8008 94.7557 72.7758 94.7737 73.7369 94.1446C74.4706 93.6635 74.9879 93.1133 74.87 92.111C74.7688 91.2428 73.0781 90.2695 72.2682 89.9336C71.4582 89.5976 68.7703 89.5313 67.9035 89.3958C69.5151 88.7916 73.4415 88.6423 74.7508 89.2755Z" fill="black"/>
<path d="M71.4699 96.3923C72.2091 96.7131 73.5974 96.9813 74.1397 97.5757C74.682 98.1702 75.0148 99.0992 74.6071 99.7946C74.1841 100.515 73.2548 100.791 72.4185 100.827C66.194 101.087 60.4549 100.292 53.7256 99.2057C52.3775 98.9886 51.1584 98.791 50.2791 97.7486C49.716 97.0808 49.1432 96.2527 49.5454 95.4287C49.82 94.8675 50.1931 94.3725 50.727 94.3393C51.3525 94.302 52.1611 94.179 53.8518 94.591C53.4829 93.8596 51.9267 92.9555 51.1972 92.5822C50.4677 92.2089 49.4746 92.3693 48.7701 92.7868C47.7535 93.3896 47.5219 94.5163 47.5524 95.6942C47.5773 96.6827 47.7881 97.714 48.4317 98.4647C48.9754 99.0992 49.7645 99.4628 50.5426 99.7698C55.1042 101.57 59.9348 102.217 64.8223 102.64C67.5088 102.872 70.4102 102.89 72.9955 102.123C74.001 101.824 75.3366 101.567 76.0412 100.791C76.7457 100.016 76.8803 98.773 76.4434 97.8218C76.0412 96.9467 75.2367 95.9665 74.3533 95.7674C73.4712 95.5711 71.9608 96.0813 71.4699 96.3923Z" fill="black"/>
<path d="M68.4588 102.692C69.6446 102.797 71.7028 102.782 72.6029 103.038C73.5031 103.293 73.8609 103.383 74.4753 104.088C75.0883 104.793 75.3352 106.418 74.6736 107.077C73.8581 107.89 72.7486 107.91 71.7666 107.876C65.8708 107.682 58.8683 108.091 51.8615 105.246C50.451 104.673 49.0225 103.878 48.2944 102.544C47.9379 101.892 47.8422 101.305 48.3679 100.779C48.8824 100.264 49.7215 100.334 50.4427 100.439C52.3913 100.723 57.6824 101.976 59.8946 102.074C57.5756 100.773 51.4219 98.9511 48.777 98.6525C48.2209 98.5889 47.8935 98.7672 47.4234 99.07C46.8367 99.446 46.3402 100.202 46.2029 100.884C46.0448 101.675 46.4456 102.693 46.7577 103.437C47.0378 104.105 47.0933 104.398 47.698 104.802C53.15 108.443 59.4535 109.418 66.0123 109.624C68.0511 109.688 70.585 109.736 72.6043 109.457C73.8401 109.285 75.1355 109.321 76.0162 108.44C77.0411 107.416 77.2699 105.388 76.6805 104.066C76.091 102.745 75.1854 101.882 73.7582 101.622C72.3325 101.359 69.2785 102.111 68.4588 102.692Z" fill="black"/>
<path d="M70.016 109.671C71.2725 109.671 72.2559 109.677 73.2392 110.269C74.2225 110.859 74.6539 111.416 74.5693 112.558C74.4985 113.509 73.4625 114.662 72.6803 115.049C71.898 115.436 71.5 115.562 70.6318 115.652C63.012 116.443 55.255 114.746 48.9292 110.44C48.0277 109.826 47.5409 109.08 47.1026 108.083C46.9223 107.674 46.5506 106.971 46.6574 106.537C46.7642 106.103 46.7531 106.053 47.1928 105.965C47.4965 105.903 47.8099 105.988 48.1081 106.071C50.6046 106.771 55.954 108.639 58.578 108.793C56.3742 107.631 51.1871 105.846 48.9833 104.682C48.2884 104.316 47.552 103.94 46.767 103.973C45.6949 104.02 44.6616 105.18 44.6616 106.248C44.6616 107.654 45.0264 108.693 45.5548 109.623C46.0832 110.553 46.2358 110.672 47.0735 111.339C51.4354 114.807 54.3243 115.912 59.7805 117.048C61.5876 117.424 65.5681 117.828 67.213 117.811C69.0965 117.793 71.3641 117.662 73.0575 116.841C74.4486 116.165 75.3848 116.143 76.0963 114.773C76.7953 113.426 76.7107 110.732 75.6233 109.673C74.8494 108.919 73.8425 108.63 72.7621 108.691C71.6831 108.752 70.715 109.436 70.016 109.671Z" fill="black"/>
<path d="M88.6484 99.6993C88.3766 97.5218 87.5083 95.4371 86.2157 93.6661C85.7012 92.9818 85.0632 92.3859 84.3364 91.9297C84.1658 91.8053 83.9842 91.7002 83.7844 91.6324C83.3864 91.5149 82.901 91.7375 82.7623 92.1329C82.6388 92.379 82.6804 92.6638 82.8053 92.9016C83.023 93.2403 83.4294 93.3896 83.7456 93.626C83.7747 93.6509 83.8052 93.6758 83.8344 93.6993C84.7983 94.5288 84.8191 94.7002 85.5028 95.7716C87.2157 98.6334 87.5014 102.732 86.6692 106.171C86.1464 108.181 85.5583 109.504 84.6166 110.52C84.0799 111.088 83.7456 111.367 83.4641 111.547C83.2546 111.714 82.9675 111.796 82.8122 112.02C82.2755 112.679 83.0882 113.607 83.8302 113.176C85.0188 112.534 86.0784 111.615 86.7982 110.469C87.1255 109.991 87.3599 109.462 87.5777 108.927C88.0257 107.903 88.3405 106.827 88.5416 105.73C88.6928 104.83 88.8356 103.926 88.8606 103.012C88.898 101.902 88.8023 100.797 88.6484 99.6993Z" fill="black"/>
<path d="M91.7825 36.7251C92.0344 36.0855 91.4865 35.2749 90.5586 34.9146C89.6308 34.5544 88.6744 34.7808 88.4225 35.4205C88.1705 36.0601 88.7185 36.8707 89.6463 37.2309C90.5742 37.5912 91.5306 37.3647 91.7825 36.7251Z" fill="black"/>
<path d="M109.567 44.9682C111.137 44.9682 112.41 43.713 112.41 42.1645C112.41 40.6161 111.137 39.3608 109.567 39.3608C107.997 39.3608 106.724 40.6161 106.724 42.1645C106.724 43.713 107.997 44.9682 109.567 44.9682Z" fill="black"/>
<path d="M110.489 43.0768C111.083 43.0768 111.564 42.589 111.564 41.9874C111.564 41.3857 111.083 40.8979 110.489 40.8979C109.896 40.8979 109.414 41.3857 109.414 41.9874C109.414 42.589 109.896 43.0768 110.489 43.0768Z" fill="white"/>
<path d="M22.5498 92.7064C26.0518 95.1465 29.5524 97.5866 33.0544 100.027C33.2083 100.135 33.3706 100.245 33.555 100.278C33.7409 100.311 33.9586 100.244 34.0405 100.075C30.4691 97.6419 26.8964 95.2087 23.3251 92.7769C23.203 92.694 23.0754 92.6083 22.9298 92.5875C22.7842 92.564 22.615 92.6263 22.5498 92.7064Z" fill="#52555A"/>
<path d="M52.5868 83.0884C47.0086 85.1607 42.0115 87.3768 36.633 89.6358C31.8648 91.7303 27.0397 93.7999 22.08 95.8833C22.0509 96.1017 22.2673 96.2911 22.4864 96.3174C22.7055 96.3437 22.9205 96.2552 23.1244 96.1681C29.1062 93.6036 35.088 91.0391 40.9353 88.5229C45.0988 86.7769 49.261 85.0308 53.4245 83.2833C53.1263 83.2004 52.8295 83.1174 52.5868 83.0884Z" fill="#52555A"/>
<path d="M26.5986 91.0614C30.0423 93.3978 33.4846 95.7342 36.9284 98.0693C37.0976 98.184 37.2751 98.3029 37.4776 98.3347C37.6801 98.3679 37.9172 98.2877 38.0005 98.1011C34.4832 95.867 31.0381 93.5181 27.6748 91.06C27.4945 90.9287 27.3059 90.7918 27.084 90.7559C26.8635 90.7199 26.6027 90.8167 26.532 91.0282C26.6305 91.0946 26.7275 91.161 26.5986 91.0614Z" fill="#52555A"/>
<path d="M30.4251 89.4401C34.0602 91.865 37.6468 94.3618 41.1835 96.9277C41.3028 96.8074 41.422 96.6857 41.5427 96.5655C38.1475 94.3092 34.8258 91.9438 31.5846 89.4733C31.3932 89.3267 31.1935 89.1761 30.9563 89.1263C30.7205 89.0765 30.4376 89.1595 30.335 89.3779C30.4376 89.4415 30.543 89.5051 30.4251 89.4401Z" fill="#52555A"/>
<path d="M34.0381 87.7021C37.3001 90.1187 40.5621 92.5367 43.8256 94.9533C43.9754 95.0638 44.1362 95.18 44.3221 95.1979C44.5079 95.2159 44.7215 95.0929 44.7285 94.9062C41.4428 92.5422 38.1947 90.1256 34.9839 87.6606C34.823 87.5376 34.6538 87.4104 34.4541 87.3745C34.2544 87.3385 34.0172 87.4284 33.9548 87.6205C34.0325 87.7104 34.1102 87.8003 34.0381 87.7021Z" fill="#52555A"/>
<path d="M37.3418 86.3109C40.6843 88.5602 44.0282 90.8095 47.243 93.2343C47.3748 93.3339 47.5177 93.4376 47.6813 93.4417C47.845 93.4459 48.0239 93.3007 47.9823 93.1417C44.8672 90.8814 41.7536 88.6196 38.6386 86.3592C38.4236 86.203 38.1961 86.0427 37.9326 86.0067C37.6691 85.9708 37.3626 86.1076 37.3418 86.3109Z" fill="#52555A"/>
<path d="M41.6021 84.9467C44.0555 86.9582 46.6352 88.8148 49.3217 90.5042C49.2412 90.33 49.2731 90.1102 49.3993 89.9651C46.8418 88.2577 44.3787 86.4079 42.0251 84.4282C41.8586 84.5858 41.6908 84.7448 41.6021 84.9467Z" fill="#52555A"/>
<path d="M45.1373 83.1982C46.8515 84.6055 48.5658 86.0129 50.2814 87.4203C50.5158 87.6124 50.7571 87.8088 51.0456 87.9C51.3341 87.9912 51.6863 87.9525 51.8874 87.7258C49.8279 86.4608 47.9222 84.9484 46.2233 83.2314C46.0485 83.0558 45.8585 82.8664 45.613 82.8304C45.3675 82.7931 45.0777 83.0074 45.1373 83.1982Z" fill="#52555A"/>
<path d="M55.1342 86.9636C52.8624 85.4733 50.6613 83.8751 48.488 82.1028C48.6878 82.1456 48.7529 81.7945 48.9527 81.7516C49.0775 81.7253 49.1857 81.8318 49.273 81.9244C49.7182 82.4028 50.2591 82.783 50.7945 83.1576C52.5684 84.4005 54.3408 85.642 56.1147 86.8848C55.7694 86.8903 55.4213 86.8945 55.1342 86.9636Z" fill="#52555A"/>
<path d="M26.762 99.0938C36.623 94.2261 46.484 89.3583 56.3534 84.373C56.6765 84.5389 56.9997 84.7062 57.3228 84.8721C47.1733 89.7067 37.0918 94.645 26.9423 99.4795C26.8993 99.4104 26.7869 99.239 26.762 99.0938Z" fill="#52555A"/>
<path d="M19.0769 94.6934C18.7108 94.363 18.6761 93.5985 19.0145 93.239C19.3529 92.8796 20.0381 92.5879 20.4985 92.4095C29.0309 89.1178 37.5632 85.8261 46.097 82.5344C48.0248 81.7906 49.9762 80.8616 52.051 81.8694C56.0717 83.4703 58.5349 84.5528 63.8538 87.4657C63.4183 87.7547 62.9828 87.6565 62.5473 87.9455C60.3393 86.7358 58.1715 85.7763 55.9622 84.5708C54.3048 83.6667 52.6377 83.0141 50.7265 82.3823C50.144 82.1902 49.5865 82.3008 48.936 82.4985C46.3813 83.2726 43.8238 84.2888 41.5409 85.1915C34.7519 87.8763 27.9352 90.6938 20.7537 93.5335C20.5249 93.6233 20.2198 93.7505 19.8578 94.0118C19.6151 94.1888 20.1324 94.5109 20.3765 94.6865C23.5054 96.9344 26.2681 98.7883 29.4761 101.093C29.888 101.389 30.465 101.892 30.9171 101.66C31.3859 101.419 31.7229 101.237 32.1404 101.022C38.1346 97.945 44.1983 95.0418 50.1912 91.9644C50.5421 92.0625 50.6378 92.5547 50.4588 92.8713C50.2799 93.1879 49.9332 93.2832 49.6059 93.4422C46.2911 95.0528 42.9764 96.7436 39.663 98.3542C37.082 99.6081 34.6035 100.76 32.0932 102.151C31.6633 102.388 31.2028 102.684 30.7548 102.713C30.0586 102.757 29.2583 102.283 28.7105 101.852C25.142 99.051 22.1088 97.421 19.0769 94.6934Z" fill="black"/>
<path d="M95.6728 47.0526C95.8988 41.025 94.5826 34.848 90.2069 29.8019C91.2831 29.6416 92.1527 29.7563 93.1402 30.0591C95.1332 33.695 96.7795 37.3752 97.43 41.4674C98.0805 45.5595 98.2774 49.7872 94.8032 53.2503C93.0667 54.9812 90.9434 56.5711 88.6272 57.384C85.164 58.5992 81.3209 58.6835 77.8106 57.6107C74.3003 56.5379 72.0867 54.3425 70.0799 51.5167C69.833 51.1697 70.8607 50.3056 71.2185 50.5351C71.5777 50.7646 71.8399 51.113 72.1089 51.442C74.8606 54.7987 79.5609 56.7204 83.9019 56.448C88.2416 56.1743 92.3871 53.7121 94.6936 50.0374C91.0751 51.0204 86.0711 49.3959 82.4956 47.0512C78.9201 44.7065 75.9035 41.5876 73.8107 37.8646C73.4653 37.2522 73.059 36.2969 73.1644 35.6015C73.2698 34.9061 74.2101 34.2826 74.8467 34.584C74.9577 36.5277 76.002 38.3264 77.3321 39.7517C79.6163 42.1973 81.7314 44.383 84.6911 45.9494C87.6508 47.5158 91.0224 48.7766 95.5535 48.3466" fill="black"/>
<path d="M71.8425 51.9608C75.5067 50.9031 78.9907 49.2303 82.103 47.0336C82.243 46.934 82.3928 46.8207 82.4331 46.6534C82.4858 46.4336 82.329 46.2234 82.182 46.0506C81.913 45.7354 81.5745 45.3898 81.1626 45.434C80.9532 45.4561 80.7701 45.5778 80.5954 45.6939C77.7272 47.6031 74.6676 49.2013 71.2378 50.0004C70.8134 50.0985 70.3196 50.2962 70.1047 50.6737C69.8592 51.1064 70.0131 51.6635 70.4334 51.929C70.8536 52.1944 71.4555 52.0713 71.8425 51.9608Z" fill="black"/>
<path d="M75.3004 115.566C83.2974 115.997 91.3859 114.651 98.8073 111.651C107.514 108.297 115.22 102.511 120.589 95.0316C125.958 87.5524 128.965 78.4141 129.082 69.2178C129.249 59.9856 126.207 50.9248 120.507 43.9791C115.453 37.375 107.796 32.6939 99.5077 31.1344C91.2195 29.575 80.8592 30.8607 74.8468 35.9607C74.2519 35.8225 73.9551 35.2003 73.3615 35.0635C75.679 32.3427 79.3197 30.7473 82.9617 29.799C89.0725 28.2063 95.5841 28.1635 101.92 29.5847C108.886 31.1455 115.369 34.7856 120.316 39.9174C125.263 45.0492 128.657 51.6506 129.779 59.0745C132.182 69.1999 131.01 80.1326 126.514 89.5224C122.017 98.9137 114.23 106.697 105.18 111.161C95.2235 116.574 83.4971 118.687 72.2686 117.093C73.3781 116.58 74.489 116.068 75.3004 115.566Z" fill="black"/>
</svg>
