<svg width="119" height="120" viewBox="0 0 119 120" fill="none" xmlns="http://www.w3.org/2000/svg">
<path d="M59.5 120C92.3609 120 119 93.1371 119 60C119 26.8629 92.3609 0 59.5 0C26.6391 0 0 26.8629 0 60C0 93.1371 26.6391 120 59.5 120Z" fill="#B0B2CF"/>
<path d="M54.545 31.5742C52.8051 33.3094 51.4934 35.8233 50.911 38.3476C50.3275 40.873 50.1691 43.7092 50.9823 46.2534C52.1482 46.1477 53.568 45.9552 54.716 45.726C57.4423 45.1807 60.1592 44.2514 62.5623 42.8563C64.9654 41.4612 67.3653 39.3377 68.1125 36.7422C64.235 33.2864 58.6439 31.7459 54.545 31.5742Z" fill="#F0D00B"/>
<path d="M51.4431 47.3434C53.4779 50.7155 57.0615 53.1153 60.961 53.7139C64.8605 54.3136 69.0035 53.0985 71.9554 50.4873C72.0593 50.3952 72.1695 50.2853 72.1695 50.1472C72.1695 49.9525 71.9606 49.8343 71.7812 49.7568C68.3623 48.277 65.1701 46.2759 62.3514 43.8447C62.874 45.0922 63.8048 46.1273 64.8259 47.0169C65.8459 47.9065 66.9687 48.6726 68.0013 49.5475C68.2269 49.738 68.4693 49.9933 68.4116 50.2822C68.3508 50.5899 67.9929 50.728 67.6865 50.8002C63.4732 51.8018 58.8654 50.6883 55.4014 48.0949C54.8263 47.6637 54.2628 47.1854 53.5807 46.9572C52.8986 46.7301 52.0465 46.8201 51.4431 47.3434Z" fill="#F0D00B"/>
<path d="M22.5192 54.0219C22.5192 54.0219 24.6326 47.8545 26.8122 45.2129C28.9918 42.5724 32.014 40.1015 34.7371 38.023C37.4068 35.9853 40.238 33.7279 43.3232 32.3966C46.4084 31.0654 50.1568 30.2648 53.5201 30.9011C50.6384 33.618 49.0728 38.0889 49.2596 42.0397C49.4463 45.9905 51.0141 49.7687 54.1392 52.203C57.2643 54.6373 61.3883 55.417 65.3613 54.855C66.226 56.1465 66.8839 57.5227 67.3006 59.0193C65.7989 57.889 64.2752 57.4379 62.4314 57.8105C60.5877 58.1831 59.1353 58.8508 57.9925 60.4238C57.9757 60.6111 57.5392 61.4275 57.5056 61.5991C53.9388 59.2223 48.2742 56.8424 43.8321 57.6106C38.8895 58.4657 35.2345 59.0005 30.6026 58.1172C28.3642 57.6902 26.4418 56.9994 24.4186 55.9539C23.6567 55.5604 22.5192 54.0219 22.5192 54.0219Z" fill="#9DC42D"/>
<path d="M74.6385 38.1811C73.6972 36.2564 72.5827 34.4092 71.8398 32.3998C71.0968 30.3904 70.7463 28.1518 71.3864 26.1078C71.5931 25.4464 71.9111 24.8038 72.4169 24.3286C72.7055 24.0576 73.0896 23.8378 73.48 23.9016C73.8714 23.9644 74.1925 24.426 73.9973 24.7693C73.8 25.1157 73.268 25.1125 73.013 25.4202C72.7664 25.7175 72.9133 26.2177 73.2491 26.4103C73.5849 26.6029 74.0267 26.5244 74.3436 26.3014C74.6595 26.0785 74.8683 25.7342 75.0278 25.3825C75.5525 24.2198 75.5787 22.7556 74.7885 21.7541C74.2618 21.0853 73.4359 20.6991 72.5943 20.5599C70.7694 20.2575 68.8616 21.0644 67.6034 22.4166C66.3441 23.7687 65.6882 25.6013 65.5161 27.4391C65.344 29.2768 65.3619 31.6515 65.7417 33.4904C67.9853 35.9142 70.7683 37.5605 73.4999 39.4213C73.9795 39.7478 74.5094 40.1277 74.608 40.6992C74.7119 41.2936 74.2051 41.9184 73.6006 41.9414C73.2669 41.954 72.9017 41.7646 72.8241 41.4412C72.7464 41.1178 73.1001 40.7452 73.4033 40.8834C73.3341 40.5631 73.2617 40.2355 73.0885 39.9571C72.9154 39.6787 72.6174 39.4548 72.2889 39.46C71.8272 39.4673 71.4893 39.9027 71.3256 40.3329C71.0391 41.0832 71.0684 41.9582 71.4515 42.6657C71.8335 43.3721 72.5754 43.886 73.3771 43.9498C74.1799 44.0137 75.0142 43.6023 75.4108 42.9032C75.8369 42.1528 75.734 41.2099 75.457 40.3925C75.18 39.5751 74.9197 38.7567 74.6385 38.1811Z" fill="#F1AC11"/>
<path d="M99.1164 25.7741C99.2129 26.1875 99.3525 26.4303 99.4259 26.8478C99.4994 27.2654 99.235 27.7573 98.8456 27.93C98.5224 28.0744 98.1247 27.9562 97.8655 27.7155C97.6063 27.4747 97.4636 27.1336 97.3744 26.7913C97.0417 25.5166 97.3891 24.0859 98.2695 23.1053C99.15 22.1247 101.01 21.413 102.317 21.6024C103.951 21.84 104.848 23.3115 105.491 24.828C106.135 26.3444 106.127 28.0723 105.777 29.6809C105.031 33.1032 102.714 36.1519 99.6117 37.7929C98.8561 38.1927 98.0512 38.5161 97.3733 39.0362C96.6954 39.5553 96.1414 40.3277 96.1487 41.1807C96.154 41.8065 96.5632 42.4073 96.5244 43.0321C96.4719 43.8871 95.5799 44.6323 94.7216 44.6417C93.8621 44.6511 93.0593 43.9269 92.9827 43.0729C92.9303 42.4983 93.1664 41.9415 93.3983 41.413C94.1675 39.6537 94.9409 37.8861 95.9871 36.2754C97.43 34.0546 99.4196 32.0619 99.9874 29.4768C100.189 28.5611 100.197 27.616 100.206 26.6783C100.209 26.3643 100.209 26.0409 100.091 25.751C99.9727 25.4601 99.704 25.2068 99.3903 25.2058C99.0733 25.2037 99.0754 25.5982 99.1164 25.7741Z" fill="#F1AC11"/>
<path d="M83.5416 59.3049C83.2383 62.6215 82.1658 65.8669 80.4323 68.7136C82.4848 69.0412 84.5773 69.1165 86.6488 68.9386C86.0874 64.341 86.2038 59.6608 86.993 55.0967C86.6677 55.1302 86.3424 55.1626 86.0171 55.1961C86.1251 56.9533 85.0401 58.7251 83.5416 59.3049Z" fill="#F1AC11"/>
<path d="M84.6915 51.8733C85.0525 52.6886 85.4124 53.5028 85.7734 54.3181C85.8186 54.4206 85.8742 54.5337 85.9802 54.5734C86.0683 54.6069 86.1659 54.5797 86.2551 54.5525C86.9131 54.3516 87.5721 54.1506 88.23 53.9497C88.101 53.1585 87.9709 52.3673 87.8418 51.5761C87.825 51.4704 87.803 51.3563 87.7243 51.2841C87.6141 51.1825 87.442 51.2035 87.295 51.2317C86.402 51.4055 85.5216 51.6441 84.6915 51.8733Z" fill="#F1AC11"/>
<path d="M80.3021 46.5104C79.9537 46.973 79.6053 47.4366 79.2569 47.8992C79.195 47.9809 79.131 48.0719 79.1373 48.1745C79.1457 48.3168 79.2831 48.4121 79.4059 48.4843C80.5791 49.175 81.7524 49.8668 82.9256 50.5575C83.3653 50.8161 83.8165 51.0798 84.3181 51.1719C84.9351 51.2849 85.5669 51.1279 86.1671 50.9469C87.1168 50.6612 88.0476 50.3126 88.9511 49.9055C89.1495 49.8155 89.3614 49.7109 89.4601 49.5162C89.5619 49.3174 89.5178 49.0777 89.4716 48.8589C89.3856 48.4508 89.2995 48.0416 89.2124 47.6334C89.1767 47.4639 89.1327 47.2818 88.9984 47.1729C88.8158 47.0253 88.5482 47.0745 88.3257 47.1499C87.482 47.4356 86.7222 47.9934 85.8366 48.0876C85.0852 48.1682 84.3443 47.9024 83.636 47.6407C82.488 47.2169 81.3399 46.793 80.1919 46.3691C80.1541 46.4748 80.1143 46.5805 80.3021 46.5104Z" fill="#F1AC11"/>
<path d="M75.9206 21.957C76.2827 23.2286 76.3383 25.8503 75.5523 26.9147C75.2102 27.3783 74.6456 27.0403 74.3287 27.5217C73.7138 28.4573 73.7306 30.361 73.7096 31.4798C73.6477 34.7933 74.2763 38.1486 75.78 41.1041C77.2838 44.0596 79.6921 46.5944 82.6934 48.0178C83.9086 48.5934 85.2875 48.99 86.5939 48.674C87.9434 48.3485 89.0023 47.3218 89.9016 46.2669C93.6521 41.8692 95.8653 36.1925 96.0793 30.4228C96.1643 28.1235 96.3805 26.1412 97.3029 24.0324C97.4309 24.0502 97.453 22.4981 97.581 22.5159C90.9142 19.8137 82.6503 19.5185 75.9206 21.957Z" fill="#F1AC11"/>
<path d="M89.7204 46.7175C89.9083 47.5998 90.0951 48.481 90.2829 49.3632C90.3196 49.538 90.3564 49.7212 90.3039 49.8928C90.2252 50.1503 89.9691 50.3052 89.7267 50.4234C89.1989 50.6809 88.5682 50.9561 88.4402 51.5276C88.3636 51.8708 88.5032 52.2256 88.6795 52.5312C88.8558 52.8358 89.073 53.1236 89.1758 53.4606C89.2787 53.7976 89.2346 54.212 88.9586 54.4297C88.7298 54.6097 88.3993 54.617 88.1716 54.7991C87.9271 54.9938 87.8651 55.3339 87.819 55.6427C87.7266 56.2696 87.6343 56.8975 87.5419 57.5244C87.5188 57.6793 87.5042 57.8593 87.6164 57.9682C87.7487 58.0979 87.968 58.0456 88.139 57.9744C89.7614 57.2973 90.8202 55.7442 91.7164 54.235C93.2138 51.7117 94.5507 48.9844 94.7281 46.0582C94.7449 45.7777 94.7407 45.4668 94.5539 45.2565C94.3986 45.0817 94.1551 45.021 93.9337 44.9446C93.2317 44.7028 92.6199 44.2089 92.2358 43.5757C91.1203 44.4422 90.2158 45.5788 89.7204 46.7175Z" fill="#1A6A8F"/>
<path d="M88.8178 58.444C92.3868 55.6967 94.7679 51.4644 95.259 46.9944C95.3209 46.4345 95.3608 45.8495 95.6462 45.3639C95.9852 44.7883 96.6095 44.4513 97.2024 44.1425C97.7219 43.8725 98.2497 43.5994 98.8238 43.479C99.3978 43.3586 100.033 43.4099 100.511 43.7469C101.075 44.1446 101.321 44.8542 101.439 45.5334C101.696 47.0227 101.49 48.5538 101.16 50.0295C100.016 55.1305 97.2234 60.0034 92.8601 62.9013C92.1391 63.3807 91.3028 63.8192 90.4465 63.6831C89.3918 63.5157 88.6447 62.49 88.4547 61.4424C88.269 60.3937 88.5166 59.321 88.8178 58.444Z" fill="#1A6A8F"/>
<path d="M93.5433 63.1486C96.9884 60.7781 99.1449 56.9822 100.937 53.2093C101.171 52.7164 101.406 52.214 101.774 51.8111C102.141 51.4082 102.669 51.112 103.213 51.158C104.019 51.2271 104.583 51.9932 104.861 52.7499C105.702 55.0419 104.913 57.5945 103.927 59.8289C102.604 62.8284 100.882 65.7169 98.4261 67.8927C97.8751 68.3815 97.2266 68.8535 96.4889 68.8441C95.5959 68.8325 94.8697 68.1135 94.408 67.3516C93.6251 66.0623 93.3019 64.5008 93.5433 63.1486Z" fill="#1A6A8F"/>
<path d="M87.2932 58.6726C86.8199 61.5905 86.7065 64.5659 86.9552 67.5109C87.0046 68.1012 87.0812 68.7218 87.4338 69.1991C87.7517 69.6292 88.2512 69.8835 88.6406 70.2519C89.4874 71.0525 89.7288 72.3346 89.5451 73.4837C89.3615 74.6329 88.8127 75.6878 88.2722 76.7187C91.687 75.1917 94.7134 72.8097 96.9958 69.8521C94.5266 69.0724 92.7132 66.5753 92.7384 63.9924C91.5023 64.5575 89.9471 64.344 88.9113 63.4659C87.8756 62.5879 87.4128 61.0913 87.7738 59.7841C87.8388 59.5465 87.9301 59.31 87.9196 59.064C87.9091 58.8181 87.7601 58.5554 87.5177 58.5114C87.2722 58.4664 87.0172 58.7679 87.2932 58.6726Z" fill="#1A6A8F"/>
<path d="M70.3036 62.0702C71.9763 61.7081 73.0383 60.0273 73.478 58.3768C73.9177 56.7264 73.9303 54.9755 74.4886 53.3617C74.9734 51.9613 75.8685 50.7044 77.0354 49.7876C77.5307 49.3983 78.1142 49.0571 78.7449 49.0697C79.3157 49.0812 79.8373 49.3795 80.321 49.684C82.3358 50.9535 84.2961 52.6542 84.8449 54.9661C85.017 55.6924 85.0275 56.5003 84.6382 57.1377C84.1702 57.9038 83.2247 58.2722 82.7304 59.0215C82.3474 59.6024 82.2865 60.3276 82.2015 61.0173C81.9402 63.1283 81.3442 65.1973 80.4417 67.1251C80.0304 68.0032 79.534 68.8781 78.7533 69.4558C78.0628 69.9676 77.2096 70.201 76.3785 70.4239C75.5463 70.6468 74.7152 70.8708 73.8831 71.0937C73.5976 71.1701 73.2723 71.2413 73.0236 71.0811C72.8284 70.9545 72.7392 70.7201 72.6637 70.5003C71.799 68.022 70.9332 65.5427 70.0685 63.0644C69.9773 62.8017 69.8849 62.515 69.9752 62.2523C70.0633 61.9885 70.4264 61.8117 70.3036 62.0702Z" fill="#1A6A8F"/>
<path d="M85.253 92.4267C82.7671 94.0803 79.6535 94.4958 76.6659 94.4853C75.3594 94.4812 74.0246 94.3974 72.8126 93.9108C71.6006 93.4241 70.5144 92.4728 70.1597 91.219C69.9415 90.4466 70.0307 89.5601 70.5228 88.9259C70.9331 88.3963 71.5806 88.0876 72.2396 87.962C72.8986 87.8364 73.5776 87.873 74.2471 87.9254C77.283 88.1587 80.2916 88.6622 83.2949 89.1635C83.8752 89.2608 84.4776 89.3665 84.954 89.7108C85.8627 90.366 85.9981 91.9317 85.253 92.4267Z" fill="#27A4DE"/>
<path d="M70.8087 85.5183C70.9305 86.1013 71.3764 86.5764 71.8959 86.8695C72.4153 87.1625 73.0072 87.2975 73.5927 87.4168C77.0284 88.1139 80.5397 88.3535 84.0425 88.4917C84.8201 88.522 85.6197 88.545 86.3533 88.2865C87.0868 88.028 87.7511 87.4221 87.8434 86.6507C87.9578 85.7004 87.1802 84.8454 86.305 84.4529C85.4865 84.0856 84.5746 84.0018 83.6805 83.9212C80.227 83.6125 76.7724 83.3048 73.3189 82.9961C72.8529 82.9542 72.3629 82.9165 71.9379 83.1112C71.4688 83.3247 71.1571 83.7946 71.0134 84.2886C70.8696 84.7826 70.7626 85.3017 70.8087 85.5183Z" fill="#27A4DE"/>
<path d="M90.7133 80.0552C90.5999 80.748 90.1644 81.3613 89.6146 81.7988C89.0636 82.2373 88.4036 82.5167 87.733 82.7323C84.9521 83.6271 81.9456 83.4879 79.0482 83.1112C77.322 82.8872 75.5978 82.5795 73.9482 82.0259C73.1926 81.7726 72.4276 81.4492 71.8904 80.8621C71.3531 80.275 71.1044 79.3592 71.4937 78.6654C71.8263 78.073 72.5158 77.7841 73.1727 77.6062C75.091 77.085 77.1142 77.1468 79.1018 77.2138C81.1733 77.2828 83.2448 77.3519 85.3163 77.421C86.3992 77.4576 87.5053 77.4974 88.5179 77.8815C89.5306 78.2645 90.8801 79.0411 90.7133 80.0552Z" fill="#27A4DE"/>
<path d="M87.0677 76.3206C83.5134 77.2384 79.7692 76.8701 76.1173 76.4954C75.0763 76.3886 73.9902 76.2662 73.114 75.6958C72.2377 75.1254 71.6574 73.9553 72.1003 73.0092C72.4109 72.3468 73.1129 71.971 73.7803 71.6717C76.9096 70.2683 80.3327 69.5231 83.7632 69.498C85.2512 69.4875 86.862 69.6592 87.966 70.6555C88.8086 71.4164 89.2295 72.6157 89.0469 73.7345C88.8653 74.8533 88.1496 76.0412 87.0677 76.3206Z" fill="#27A4DE"/>
<path d="M22.1349 56.2974C20.7382 63.4915 21.52 71.0896 23.6681 78.0964C25.8172 85.1042 29.0903 91.7071 32.3486 98.2753C32.9698 99.5271 33.4011 101.643 34.419 102.602C36.0487 104.137 38.6197 103.791 40.8601 103.871C44.4176 103.999 47.4576 103.626 50.3592 101.57C53.2607 99.5134 55.1821 95.8745 55.7897 92.1194C61.0618 92.8834 66.3329 93.6485 71.605 94.4125C69.7035 93.6673 68.928 90.963 70.1453 89.3272C70.586 88.7359 71.2639 88.1759 71.1779 87.4433C71.1149 86.8991 70.6385 86.5035 70.4097 86.0053C70.0571 85.2361 70.3541 84.2952 70.9113 83.6579C71.4696 83.0205 72.2451 82.6228 73.0017 82.2387C71.8348 81.9583 70.9586 80.7746 71.0331 79.5794C71.1076 78.3853 72.1265 77.3188 73.3186 77.1859C72.2178 76.043 71.499 74.5402 70.9407 72.5129C68.2533 72.8447 65.5658 73.1754 62.8773 73.5072C61.0419 73.7332 59.5528 74.2126 58.0092 73.1964C56.6103 72.2754 55.9052 70.3874 55.6816 68.672C55.4655 67.0143 56.1255 65.0676 56.6093 63.4674C53.4528 61.0164 48.9561 60.4941 44.9559 60.4449C40.9556 60.3957 36.9501 60.9295 32.9614 60.626C28.9738 60.3225 25.0501 58.9347 22.1349 56.2974Z" fill="#27A4DE"/>
<path d="M54.8716 47.0217C58.4132 50.0211 63.3611 51.2958 67.9165 50.3811C65.7747 48.6459 63.7168 46.8071 61.7534 44.873C59.4469 45.5732 57.1403 46.2734 54.8716 47.0217Z" fill="#782131"/>
<path d="M44.3555 112.084C43.7836 112.415 43.1624 112.71 42.5013 112.723C41.8402 112.735 41.1339 112.397 40.8978 111.781C40.6922 111.241 40.88 110.641 41.0458 110.086C41.3984 108.903 41.6492 107.676 42.2137 106.577C42.7783 105.478 43.7332 104.494 44.9495 104.268C45.641 104.139 46.4259 104.3 46.8824 104.834C47.4848 105.537 47.3389 106.592 47.1164 107.489C46.8887 108.412 46.6127 109.332 46.1573 110.168C45.7029 111.004 45.0229 111.698 44.3555 112.084Z" fill="#988816"/>
<path d="M45.5875 112.437C46.1825 111.347 46.7807 110.25 47.2046 109.083C47.6286 107.915 47.8762 106.664 47.7472 105.429C47.7115 105.094 47.6559 104.728 47.8343 104.442C48.0347 104.12 48.4765 104.022 48.8459 104.111C49.3706 104.237 49.7798 104.67 50.0002 105.161C50.2206 105.651 50.2783 106.199 50.3087 106.736C50.3717 107.849 50.3266 108.985 49.9887 110.048C49.6508 111.111 48.9938 112.102 48.0389 112.683C47.6265 112.934 47.1501 113.107 46.6673 113.081C46.1846 113.055 45.6977 112.805 45.5875 112.437Z" fill="#988816"/>
<path d="M49.4851 112.759C50.5114 110.747 51.0151 108.473 50.9354 106.217C50.9207 105.79 50.9249 105.278 51.2838 105.044C51.6469 104.807 52.139 105.024 52.4612 105.314C53.4077 106.166 53.689 107.585 53.4109 108.826C53.1328 110.066 52.3741 111.148 51.5073 112.081C51.2449 112.363 50.9637 112.641 50.6143 112.805C50.2648 112.969 49.8314 113.003 49.4851 112.759Z" fill="#988816"/>
<path d="M52.3959 112.476C53.4863 110.956 54.0382 109.06 53.9343 107.195C53.9144 106.843 53.8724 106.489 53.9364 106.142C54.0004 105.796 54.1925 105.451 54.5146 105.307C55.0184 105.083 55.6008 105.43 55.9492 105.857C56.6942 106.772 56.8579 108.067 56.5714 109.21C56.285 110.353 55.5966 111.36 54.7917 112.223C54.4286 112.612 54.0067 112.995 53.481 113.084C52.9553 113.174 52.1819 112.774 52.3959 112.476Z" fill="#988816"/>
<path d="M55.5966 112.792C57.0867 110.977 57.7509 108.513 57.3742 106.196C57.327 105.904 57.2682 105.583 57.4225 105.33C57.6534 104.949 58.2421 104.959 58.6125 105.206C59.0354 105.488 59.2725 105.974 59.431 106.456C60.1173 108.547 59.579 110.992 58.0763 112.604C57.689 113.018 57.1958 113.399 56.6271 113.403C56.1926 113.405 55.7645 113.165 55.5966 112.792Z" fill="#988816"/>
<path d="M58.6523 112.791C59.5548 110.91 60.4813 108.898 60.2253 106.829C60.1529 106.243 59.9871 105.631 60.1865 105.076C60.4562 104.321 61.3807 103.925 62.1624 104.109C62.9442 104.293 63.5529 104.953 63.8362 105.703C64.1195 106.452 64.1164 107.281 64.0072 108.075C63.8467 109.245 63.4574 110.398 62.7721 111.361C62.0879 112.325 61.0952 113.09 59.9525 113.4C59.6513 113.482 59.3228 113.53 59.0311 113.418C58.7415 113.304 58.5505 113.004 58.6523 112.791Z" fill="#988816"/>
<path d="M29.1858 101.523C33.4389 103.509 38.1129 104.593 42.8078 104.681C42.2433 105.841 41.6325 107.055 40.5621 107.778C39.5558 108.458 38.2797 108.603 37.0646 108.579C35.5566 108.55 34.0056 108.27 32.7526 107.431C31.7736 106.776 31.0317 105.813 30.4786 104.775C29.9246 103.738 29.5457 102.617 29.1858 101.523Z" fill="#68802A"/>
<path d="M57.4617 61.5198C58.2613 59.4852 59.4272 58.5768 61.0799 58.0158C62.7327 57.4548 64.5933 57.526 66.1799 58.2534C66.7686 58.5234 67.4256 59.1126 67.4256 59.1126L68.3753 61.481C68.3753 61.481 68.709 61.5145 68.6701 61.6705C68.6439 61.7751 68.3427 62.086 68.2504 62.1404C66.7057 63.0593 65.1264 63.6485 63.3204 63.7846C61.5144 63.9206 59.6171 63.6956 57.9517 62.7997C57.8541 62.7474 57.6537 62.6532 57.5991 62.5559C57.5068 62.3926 57.4501 62.2 57.4302 62.0828C57.3829 61.7982 57.362 61.773 57.4617 61.5198Z" fill="#68802A"/>
<path d="M71.9041 71.1686C70.8967 68.0446 69.8252 64.9059 68.588 61.8667C67.0276 63.0326 65.1943 63.6658 63.1994 63.7411C61.2056 63.8165 59.0082 63.3863 57.3418 62.2906C57.367 62.5993 57.1193 62.9698 56.7898 63.245C58.8665 65.985 59.5728 69.7202 59.8603 72.6715C63.9067 72.9918 68.12 72.4507 71.9041 71.1686Z" fill="#A3A3A3"/>
<path d="M55.8067 92.1416C55.304 94.5759 54.2106 97.5367 52.6166 99.4477C51.0236 101.359 48.6258 102.732 46.2384 103.446C47.1178 104.536 49.651 103.377 50.8284 104.355C51.7907 103.819 53.1433 104.157 53.7394 105.081C54.3438 104.501 55.6766 105 56.515 104.944C57.5591 104.875 58.2339 104.227 59.1867 104.661C59.8604 103.545 61.6496 103.364 62.6675 103.894C65.9196 101.862 68.3594 98.6345 70.157 95.253C65.5607 94.3854 61.5678 93.3608 56.9715 92.4932C56.7983 92.4608 56.4835 92.2975 56.3177 92.3592C56.1519 92.421 56.2663 92.0222 55.8067 92.1416Z" fill="#A3A3A3"/>
<path d="M56.2536 63.4303C55.1674 65.7412 55.2839 68.6036 56.2882 70.9856C56.5107 71.5141 56.8234 72.253 57.2967 72.5795C57.9641 73.0411 58.8193 72.7909 59.6294 72.7323C59.7281 72.725 59.8383 72.7124 59.9002 72.636C59.9673 72.5544 59.938 72.4382 59.9338 72.3325C59.8005 69.1541 58.9054 66.3555 57.3911 63.8186C57.2694 63.6145 57.1109 63.4209 56.9 63.311C56.688 63.2022 56.3197 63.2901 56.2536 63.4303Z" fill="#1A6A8F"/>
<path d="M22.5808 53.9951C23.9618 55.9805 26.3817 56.8973 28.6914 57.6257C32.0903 58.6974 36.1189 58.9245 39.8012 58.083C45.3545 56.8135 50.2446 57.2039 56.0057 60.6116C56.4632 60.8816 57.2797 61.2521 57.5126 61.6414C57.6564 61.8811 57.5252 62.5707 57.3909 62.8156C57.2398 63.093 56.7098 63.5807 56.204 63.4457C55.6982 63.3107 55.6132 63.1485 54.3204 62.5362C50.8942 60.9151 47.6778 60.4671 43.8948 60.733C40.1118 60.9988 36.1315 61.7136 32.3464 61.4708C28.5623 61.228 24.2934 59.4049 22.1296 56.2986C21.8399 55.8821 21.8924 55.8245 21.8882 55.3169C21.8851 54.8083 22.224 54.2672 22.5808 53.9951Z" fill="white"/>
<path d="M92.091 32.7016C92.091 33.1328 92.0196 33.6896 91.8979 34.0214C91.6954 34.575 91.3523 34.7812 90.963 34.7812C90.5758 34.7812 90.1025 34.8659 89.899 34.3165C89.7751 33.9826 89.8087 33.1611 89.8087 32.7278C89.8087 32.3071 89.8234 31.8633 89.9399 31.5368C90.1414 30.9695 90.5674 30.6221 90.9682 30.6357C91.3502 30.6053 91.7416 30.8178 91.9231 31.1537C92.0501 31.3892 92.0773 31.6645 92.0815 31.9324C92.0857 32.1993 92.091 32.4682 92.091 32.7016Z" fill="#725107"/>
<path d="M91.0417 31.5469C91.0155 31.4789 90.9273 31.4496 90.858 31.4737C90.7888 31.4977 90.7405 31.5626 90.7185 31.6317C90.6964 31.7008 90.6954 31.7751 90.6954 31.8483C90.6912 32.5139 90.688 33.1785 90.6838 33.8441C90.6838 33.9341 90.6838 34.0283 90.729 34.1058C90.7741 34.1832 90.8811 34.2324 90.9577 34.1843C91.0291 34.1393 91.0375 34.0419 91.0385 33.9582C91.048 33.2413 91.0564 32.5244 91.0658 31.8086C91.0658 31.7102 91.0658 31.6087 91.0417 31.5469Z" stroke="#725107" stroke-miterlimit="10"/>
<path d="M94.5537 34.8236C94.2389 34.8026 93.9849 34.8204 93.6113 34.8204C93.6449 34.2825 93.7047 33.7456 93.7908 33.2139C93.6596 33.2056 93.5274 33.1972 93.3962 33.1899C93.3322 33.6933 93.2377 34.3097 93.1769 34.7848C92.8547 34.8142 92.6176 34.7848 92.3237 34.7848C92.436 33.3395 92.5305 31.8482 92.4549 30.3934C92.8054 30.3285 93.1548 30.2626 93.5242 30.2009C93.5011 30.7074 93.4812 31.6692 93.4812 31.6692V31.9507L93.6879 31.9539C93.6879 31.9539 93.8632 31.9382 93.9167 31.9392C93.9167 31.216 93.8747 30.3547 93.8747 30.3547L93.8737 30.0815L94.3302 29.9444C94.3302 29.9444 94.6628 29.844 94.9461 29.7676C94.9451 31.8189 94.8506 33.1857 94.5537 34.8236Z" fill="#725107"/>
<path d="M75.0303 28.2485C74.9568 29.4029 74.8823 30.5604 74.94 31.7158C74.9589 32.0832 75.0177 32.4997 75.3209 32.7101C75.5077 32.8399 75.7606 32.8587 75.9736 32.7792C76.1866 32.6996 76.3598 32.5301 76.4636 32.3281C76.45 33.0806 76.4353 33.8331 76.3975 34.5437C76.748 34.5782 77.1006 34.5845 77.4542 34.5091C77.3871 32.64 77.4133 30.7676 77.491 28.9089C77.1552 28.8472 76.8257 28.7582 76.5067 28.6923C76.3367 29.6865 76.5864 30.7111 76.4657 31.7127C76.4521 31.8215 76.4332 31.9356 76.3661 32.0225C76.2989 32.1094 76.1709 32.1596 76.0743 32.1052C75.9736 32.0476 75.9558 31.9126 75.9505 31.7964C75.9002 30.6902 75.9505 29.5798 76.0502 28.461C75.7176 28.3385 75.3681 28.2611 75.0303 28.2485Z" fill="#725107"/>
<path d="M78.7743 32.7377C79.2171 32.721 79.6621 32.7325 80.1029 32.7723C80.1144 32.3945 80.1249 32.0114 80.0504 31.6409C79.9759 31.2694 79.809 30.9052 79.5173 30.6624C79.2266 30.4196 78.7984 30.3212 78.4542 30.4803C78.1572 30.6174 77.9631 30.9198 77.8791 31.2359C77.7951 31.552 77.8046 31.8837 77.8151 32.2103C77.8298 32.6582 77.8445 33.1061 77.8581 33.5541C77.8655 33.7686 77.8749 33.9936 77.984 34.1778C78.0942 34.3652 78.2915 34.4845 78.492 34.565C78.7218 34.6582 78.9716 34.7105 79.2182 34.6875C79.4648 34.6645 79.7083 34.5609 79.8752 34.3777C80.1742 34.0491 80.1721 33.553 80.1249 33.1124C79.8143 33.103 79.5047 33.0946 79.1941 33.0852C79.1825 33.3102 79.1699 33.5342 79.1584 33.7592C79.1531 33.8544 79.1405 33.9643 79.0597 34.0156C78.9663 34.0763 78.8341 34.0135 78.7795 33.9172C78.726 33.8199 78.7292 33.7037 78.7333 33.5928C78.7533 33.0904 78.7743 32.587 78.7942 32.0847C78.9044 32.1025 79.0146 32.1192 79.1258 32.137C79.1626 31.9266 79.172 31.7131 79.1542 31.5007C79.1479 31.4232 79.1332 31.3374 79.0723 31.2893C78.9779 31.2139 78.8268 31.282 78.7743 31.3908C78.7229 31.4996 78.7418 31.6273 78.7659 31.7445C78.79 31.8618 78.8184 31.9863 78.7827 32.1004" fill="#725107"/>
<path d="M80.5657 30.8535C80.5363 32.0801 80.551 34.0906 80.551 34.0906L80.5385 34.6547L80.7378 34.6495L81.2982 34.639L81.4734 34.64L81.4472 34.2392C81.4472 34.2392 81.3486 33.0304 81.4273 32.3491C81.5773 33.201 81.7515 33.9012 81.8449 34.6955C82.0055 34.6997 82.2752 34.6955 82.2752 34.6955H82.5753L82.5774 34.348C82.5774 34.348 82.6456 33.313 82.8198 32.4809C82.824 33.1675 82.8681 34.4056 82.8681 34.4056L82.8607 34.6945H83.0853C83.0853 34.6945 83.5124 34.6693 83.7779 34.6568C83.7307 33.3465 83.7244 32.1942 83.7244 30.9822C83.3372 30.9665 82.654 30.9676 82.654 30.9676L82.3539 30.9571C82.3539 30.9571 82.2573 32.4192 82.1346 33.1319C81.8554 32.5605 81.8313 31.3402 81.8313 31.3402L81.8292 30.8818L81.4136 30.864C81.4136 30.8619 81.21 30.8535 80.5657 30.8535Z" fill="#725107"/>
<path d="M86.7643 31.1178C86.7664 32.3266 86.7695 33.5343 86.7916 34.7232C87.1158 34.7368 87.4411 34.7358 87.7717 34.7054C87.9532 34.1319 88.1694 33.5689 88.4317 33.0079C88.4255 33.5908 88.4192 34.1727 88.4307 34.7358C88.7172 34.719 89.0037 34.7023 89.2629 34.696C89.2429 33.4422 89.2775 32.2031 89.2513 30.9702C88.9533 30.9796 88.6353 30.9734 88.3415 31.0006C88.1316 31.7426 87.9207 32.4836 87.6877 33.213C87.693 32.515 87.6972 31.8158 87.6909 31.0948C87.3593 31.0948 87.0959 31.1178 86.7643 31.1178Z" fill="#725107"/>
<path d="M84.0549 31.0845C84.0749 32.2713 84.0581 33.4801 84.078 34.6669C84.5051 34.6994 84.8136 34.6941 85.1557 34.6941C85.1557 33.7847 85.0403 32.9087 85.0655 32.0149C85.1998 32.0233 85.3341 32.0306 85.4695 32.039C85.4422 32.9317 85.4559 33.8025 85.5115 34.6941C85.9281 34.6941 86.1317 34.7234 86.4643 34.7234C86.3888 33.5084 86.3678 32.2901 86.4255 31.1106C85.6269 31.1085 84.8283 31.1044 84.0549 31.0845Z" fill="#725107"/>
<path d="M91.1289 31.8036C91.131 31.7314 91.1425 31.656 91.1173 31.588C91.0921 31.52 91.026 31.4603 90.9536 31.4697C90.8413 31.4833 90.8067 31.6278 90.8014 31.7408C90.7647 32.4483 90.7468 33.1568 90.7468 33.8643C90.7468 34.0014 90.7825 34.1803 90.9189 34.1981C90.9987 34.2086 91.0732 34.1489 91.1079 34.0767C91.1415 34.0045 91.1142 32.4734 91.1289 31.8036Z" fill="#F1AC11"/>
<path d="M78.7806 31.3612C78.7785 31.605 78.7775 31.7964 78.7754 32.0391C78.7754 32.0705 78.7722 32.1406 78.7722 32.1406L78.874 32.1489C78.874 32.1489 79.0628 32.1552 79.1593 32.1636C79.1593 31.9219 79.1782 31.3623 79.1436 31.2943C79.109 31.2263 79.0313 31.1855 78.9548 31.1865C78.8792 31.1876 78.7806 31.3058 78.7806 31.3612Z" fill="#F1AC11"/>
<path d="M95.9737 26.5182C94.8939 26.1174 93.7794 25.8212 92.6692 25.5208C91.4918 25.1723 90.2787 24.9986 89.0603 24.8699C87.5587 24.6877 86.0549 24.4512 84.5375 24.5349C83.1838 24.5936 81.8396 24.7788 80.5037 24.9975C79.2151 25.1734 77.939 25.4559 76.748 25.9876C76.3933 26.1289 76.047 26.2859 75.7101 26.4648C75.6073 26.5234 75.4782 26.5507 75.4111 26.6543C75.2914 26.7903 75.3145 27.0101 75.4394 27.1357C75.5936 27.2937 75.8161 27.2498 75.9861 27.1441C76.1907 27.0467 76.387 26.9348 76.5937 26.8427C76.8886 26.715 77.6872 26.3738 78.2811 26.199C79.4669 25.8484 80.6999 25.7092 81.9183 25.5156C82.6686 25.4088 84.0086 25.2592 85.0779 25.2539C85.9468 25.2414 86.8136 25.3167 87.6741 25.4308C88.8106 25.5847 89.861 25.6778 90.7603 25.8243C91.6009 25.975 92.4226 26.2126 93.2453 26.4376C93.8004 26.5978 94.3629 26.7369 94.9106 26.9232C95.1352 27.0017 95.3608 27.0781 95.5864 27.1545C95.6977 27.187 95.8058 27.2592 95.9243 27.2309C96.3095 27.1943 96.3567 26.6187 95.9737 26.5182Z" fill="#BE922D"/>
<path d="M96.725 24.4741C96.6558 24.3558 96.5225 24.3014 96.4092 24.2324C95.7722 23.8933 95.1006 23.6243 94.4269 23.3689C93.6556 23.0769 92.8685 22.8237 92.0637 22.6416C91.3123 22.5013 90.5578 22.382 89.8043 22.2564C88.288 21.9833 86.7474 21.9341 85.2101 21.9644C83.6979 21.9906 82.1784 22.0806 80.6977 22.4061C79.897 22.5683 79.1142 22.8121 78.3765 23.1648C77.6986 23.4882 77.0039 23.7771 76.327 24.1026C75.9199 24.3538 76.2672 24.967 76.6975 24.7347C77.4793 24.3684 78.6672 23.8357 79.1604 23.6149C79.8708 23.3271 80.6232 23.1607 81.3735 23.0152C82.6979 22.7671 84.1838 22.7002 85.7621 22.6939C87.5733 22.6604 88.9197 22.8226 90.5987 23.1282C91.1591 23.2276 91.7258 23.3009 92.2767 23.4453C93.1603 23.6651 94.4909 24.1591 95.0145 24.3841C95.3367 24.5254 95.661 24.6646 95.9716 24.8299C96.1426 24.9116 96.3 25.0769 96.5036 25.0131C96.7313 24.9545 96.8457 24.674 96.725 24.4741Z" fill="#F2BA40"/>
<path d="M75.1328 39.2349C74.862 38.6938 74.4853 38.2072 74.0855 37.7561C73.7024 37.3605 73.2806 37.0047 72.8954 36.6112C72.3529 36.0429 71.7537 35.5342 71.1755 35.0036C70.4115 34.2647 69.3957 33.1847 68.9528 32.585C68.6181 32.1224 68.1469 31.4683 68.0829 31.1868C67.7586 30.1549 67.5844 29.461 67.6002 28.5159C67.6316 27.6787 67.6337 27.2548 67.8247 26.5557C68.2959 24.9304 69.1858 23.4578 70.571 22.6635C71.42 22.1936 72.2301 21.9738 73.0749 22.2156C73.2627 22.2689 73.6888 22.451 74.0634 22.6907C74.1736 22.7838 74.2827 22.8613 74.4097 23.1198C74.415 23.1334 74.4192 23.1449 74.4223 23.1543C74.4402 23.2025 74.457 23.2506 74.4727 23.2998C74.4979 23.3814 74.5189 23.4652 74.5357 23.5499C74.5598 24.0314 74.4874 24.2114 74.4003 24.4249C74.2691 24.6907 73.9721 24.8592 73.8567 24.8435C73.6972 24.8602 73.5219 24.7933 73.3719 24.8623C73.1326 24.945 73.0728 25.2862 73.2533 25.4557C73.3866 25.5908 73.5828 25.5646 73.756 25.5761C74.1453 25.6044 74.5073 25.4139 74.7749 25.1428C75.1454 24.7776 75.2576 24.247 75.2776 23.7456C75.2818 23.2475 75.1076 22.7294 74.7749 22.3548C74.4748 22.0157 74.0498 21.8346 73.6458 21.6494C72.7674 21.2402 71.7264 21.3438 70.8533 21.7163C69.467 22.2511 68.4344 23.4181 67.7628 24.7106C67.279 25.6619 66.9443 26.6991 66.8981 27.7708C66.7848 28.9398 66.9558 30.113 67.3252 31.2245C67.4459 31.6682 67.6831 32.0638 67.9507 32.4343C68.2319 32.8446 68.5268 33.2443 68.8531 33.619C69.465 34.3265 70.1156 35.0026 70.7935 35.6462C71.4714 36.2365 72.1168 36.8602 72.7538 37.4945C73.3467 38.0324 73.7916 38.4678 74.1222 38.9743C74.6028 39.6672 74.6962 40.0167 74.7266 40.7242C74.755 41.35 74.3184 42.4406 74.075 42.5327C73.4967 42.8937 72.9259 42.5829 72.7622 42.0471C72.6404 41.642 72.6593 41.7111 72.6383 41.3867C72.6457 41.1376 72.6341 41.215 72.7517 40.8812C72.7853 40.8278 72.7936 40.7723 72.8566 40.7148C72.8682 40.7033 72.8766 40.6949 72.8839 40.6876C72.9154 40.6645 72.9479 40.6447 72.9825 40.6269C73.0077 40.6185 73.034 40.6101 73.0602 40.6049C73.1001 40.6017 73.14 40.5955 73.1756 40.5745C73.545 40.4301 73.4254 39.8712 73.034 39.8733C72.3581 39.9194 71.994 40.5484 71.9164 41.1606C71.8618 41.8754 72.0811 42.72 72.6971 43.146C73.3498 43.618 74.372 43.4516 74.8337 42.7901C75.0667 42.4824 75.1905 42.1078 75.3028 41.7425C75.5546 40.9251 75.498 40.0136 75.1328 39.2349Z" fill="#F2BA40"/>
<path d="M103.65 26.3199C103.594 25.6145 103.36 24.9175 102.897 24.3733C102.495 23.8071 101.885 23.401 101.199 23.2733C100.458 23.1498 99.614 23.1728 98.9833 23.6239C97.7062 24.5983 97.5856 26.6066 98.5237 27.8542C98.6381 28.008 98.7609 28.1556 98.8826 28.3031C98.9162 28.3387 98.955 28.3638 99.0012 28.3785C99.3611 28.5449 99.6843 28.0582 99.402 27.7851C98.9351 27.2869 98.678 26.6726 98.6465 26.1357C98.5909 25.3895 98.8343 24.7239 99.3779 24.2393C99.7756 23.8866 100.853 23.8562 101.445 24.1043C101.836 24.2989 101.804 24.278 102.109 24.569C102.334 24.8107 102.382 24.884 102.625 25.2733C102.975 25.8992 103.015 27.1613 102.883 28.3063C102.834 28.8233 102.589 29.8856 102.268 30.6485C102.146 30.974 101.802 31.6689 101.464 32.1953C101.435 32.2341 101.392 32.2969 101.381 32.3146C100.982 32.8212 100.506 33.2618 100.045 33.7118C99.6161 34.1294 99.1995 34.5585 98.7598 34.9646C97.7073 35.9368 96.5488 36.8327 95.7722 38.0572C94.9537 39.3874 94.3577 41.3037 94.5518 42.8662C94.6095 43.3706 94.7669 43.8604 95.003 44.3105C95.1132 44.4926 95.1909 44.7406 95.4133 44.8065C95.7229 44.8944 95.9947 44.5449 95.8278 44.2686C95.2496 43.4565 95.1636 42.2728 95.2948 41.5245C95.3703 40.9698 95.5235 40.4287 95.7051 39.8992C95.938 39.2063 96.2728 38.5386 96.851 37.8102C97.2991 37.2147 98.6549 36.0656 99.4535 35.3194C99.826 34.9656 100.185 34.5983 100.553 34.2403C101.061 33.7432 101.589 33.2597 102.012 32.6872C103.256 30.8275 103.842 28.5449 103.65 26.3199Z" fill="#F2BA40"/>
<path d="M88.3142 76.549C91.5505 75.178 94.3828 72.1408 96.7481 69.7808C95.1258 70.1178 94.2002 68.8985 93.5937 67.7724C92.9871 66.6453 92.7426 65.6699 92.7426 64.1565C91.7016 64.7175 90.7467 65.0001 89.5221 64.5375C88.501 64.1513 87.8116 62.9582 87.7224 61.8729C87.608 60.4642 87.6017 59.7222 87.6038 58.6338C87.0696 62.2235 87.1316 66.4297 87.8556 69.987C87.3446 69.7264 86.6751 69.4145 86.164 69.1539C85.7201 66.1188 85.6677 62.8441 85.9479 59.8509C86.0413 58.8535 86.3571 57.4689 86.46 56.6924C86.5166 56.2601 86.9909 54.7552 86.9909 54.7552C86.9909 54.7552 87.949 54.6191 88.3394 54.9122C88.118 55.9012 87.8955 56.8891 87.6741 57.8781C88.2534 57.6521 88.9428 57.6186 89.4434 57.1759C89.2072 58.6767 89.032 59.898 89.2335 61.403C89.3111 61.9807 89.3615 62.4098 89.7813 62.8148C90.285 63.3015 90.987 63.3004 91.6502 63.0723C92.3134 62.8441 93.049 62.3051 93.5853 61.8541C93.6944 63.6238 93.9998 65.7442 94.9096 67.2669C95.1919 67.741 95.6011 68.2151 96.129 68.3815C96.6851 68.5574 97.9507 68.0309 98.3096 67.6113C97.9077 68.2873 97.7009 69.9106 98.3704 70.3261C95.832 72.8577 93.9263 74.7887 91.7551 76.2779C91.1937 76.6631 89.4748 77.5704 89.4748 77.5704C89.4748 77.5704 88.4737 77.1089 88.3142 76.549Z" fill="black"/>
<path d="M94.7341 67.0146C94.2629 66.0246 93.5713 63.8205 94.413 63.0816C95.5599 62.0748 95.7194 62.0057 96.4383 61.2553C98.6766 58.9215 100.16 55.787 101.451 52.8252C101.747 52.147 102.471 51.1726 103.184 51.3788C103.765 51.5473 103.906 51.7597 104.191 52.1522C104.476 52.5447 104.494 53.0868 104.576 53.564C104.991 56.0005 104.352 58.5845 103.08 60.7059C101.771 62.889 100.838 64.7749 99.2024 66.6316C98.749 67.1454 98.4437 67.4783 97.7185 68.3019C97.2652 68.8158 97.4803 69.6038 97.7479 70.2339C97.8088 70.3783 97.9221 70.5332 98.0795 70.5248C98.2044 70.5185 98.2831 70.3971 98.3723 70.3082C100.257 68.4285 101.565 66.0643 102.993 63.8278C104.09 62.1093 105.12 60.4547 105.714 58.506C106.308 56.5562 106.448 54.2904 105.874 52.3354C105.687 51.6959 105.519 51.3045 105.068 50.8126C104.618 50.3207 103.734 49.8477 103.067 49.8832C102.049 49.9377 101.41 50.6964 100.842 51.54C98.7837 54.5918 97.6451 58.3364 94.8768 60.7655C94.4339 61.1538 93.9449 61.5149 93.6511 62.0246C93.3352 62.573 93.2828 63.2386 93.3531 63.8676C93.4738 64.9696 94.1506 66.6054 94.7341 67.0146Z" fill="black"/>
<path d="M88.1431 58.5518C87.9405 58.3101 87.1042 58.0976 87.2112 57.1986C87.824 58.3791 90.6416 55.2939 91.712 53.5639C92.7824 51.8339 93.7027 49.9019 94.2001 47.9312C94.4929 46.7716 94.6272 45.5524 95.345 44.5947C96.0963 43.5942 97.2895 43.006 98.5047 42.6984C99.4271 42.465 100.476 42.3938 101.266 42.9255C101.824 43.3022 102.165 43.927 102.386 44.5613C103.117 46.6439 102.617 48.9809 101.885 51.0081C101.134 53.0835 99.3568 54.9108 98.0073 56.6596C99.8552 53.6015 101.222 50.0003 101.18 46.4671C101.174 46.0244 101.07 45.2855 100.92 44.8689C100.77 44.4524 100.453 44.1719 100.044 44.0003C99.5267 43.7826 98.7492 43.9898 98.2192 44.1772C97.4752 44.4409 96.303 45.2562 96.1089 46.2515C95.9116 47.2645 95.8959 47.4016 95.7196 48.3048C95.324 50.3362 94.1046 52.6659 92.9734 54.4011C91.8421 56.1353 90.9837 57.3943 89.2029 58.5895C88.9878 58.7339 88.8178 58.9809 88.5586 58.983C88.3005 58.983 88.0696 58.6324 88.1431 58.5518Z" fill="black"/>
<path d="M81.358 45.7036C80.8973 46.5262 80.4345 47.3153 79.7786 47.9945C81.168 48.5911 82.4441 49.2651 83.569 50.2886C83.7065 50.4142 83.972 50.7523 83.972 50.7523C83.972 50.7523 84.5397 50.6842 84.6908 50.6591C86.3289 50.3881 87.6448 50.1055 89.0741 49.4221C88.7908 48.2122 88.4392 47.0024 88.1601 45.9307C89.3963 45.1907 90.581 43.9725 91.3954 42.522C91.8099 42.7847 92.2517 43.6062 92.3723 44.072C91.5475 44.9281 90.8539 45.8438 89.9503 46.7449C90.1025 47.623 90.3229 48.4707 90.537 49.354C90.5905 49.5738 90.6639 49.9286 90.6209 50.1505C90.5391 50.5806 89.5212 50.8705 89.5212 50.8705L88.7708 51.1542C88.7708 51.1542 88.8642 51.7633 88.902 51.8784C89.115 52.5315 89.2221 52.9668 89.326 53.6461C89.3564 53.8439 89.3816 54.049 89.327 54.2416C89.2546 54.4948 89.051 54.6937 88.8191 54.8182C88.5872 54.9428 88.3269 55.0045 88.1139 55.1228C87.5315 55.3112 86.8851 55.4252 86.1138 55.4702C85.5723 55.5016 85.204 55.801 84.6898 55.7874C84.7013 55.3583 84.5974 54.7188 84.4054 54.3347C85.545 54.2353 86.7822 54.0772 87.8935 53.8104C87.797 53.1897 87.6039 51.9496 87.6039 51.9496L87.5231 51.5267L87.075 51.6031C87.075 51.6031 85.6006 51.8533 84.864 51.9789C85.247 52.7586 85.63 53.5383 86.013 54.3169C85.5691 54.1065 84.5124 54.588 84.5124 54.588C84.5124 54.588 84.1787 53.8449 84.058 53.5812C83.0852 51.4587 81.1449 50.0825 78.9255 49.4451C78.6526 49.3666 78.1458 49.5215 77.8698 49.5853C77.5927 49.6481 77.3671 49.8993 77.0355 50.1097C77.7921 48.4801 78.8699 46.8883 79.8878 45.4074C79.978 45.2755 80.2351 44.6999 80.2351 44.6999L80.8616 45.2787C80.8637 45.2797 81.2446 45.5654 81.358 45.7036Z" fill="black"/>
<path d="M81.1604 45.5464C81.9496 46.123 82.7135 46.5814 83.573 46.8818C84.4324 47.1822 85.3632 47.3297 86.2279 47.0419C86.867 46.8295 87.9279 46.0383 87.9279 46.0383L88.7118 45.5788C88.7118 45.5788 88.2962 46.0194 88.312 46.0644C88.4368 46.4014 88.5617 46.7374 88.6855 47.0744C88.7202 47.1696 88.7181 47.3685 88.7181 47.3685C88.7181 47.3685 88.5733 47.4993 88.4935 47.56C87.2363 48.527 85.9907 48.7353 84.6444 48.6641C83.6947 48.6139 82.8269 48.2738 81.9716 47.8593C81.3724 47.5694 80.7606 47.2502 80.3419 46.7332C80.6095 46.3627 80.875 45.9137 81.1604 45.5464Z" fill="black"/>
<path d="M78.9882 47.8984C77.4907 47.7885 75.9492 48.7263 74.9858 49.8754C74.0225 51.0245 73.4285 51.8094 73.1714 53.4976C72.9458 54.9785 72.6877 56.9 72.3582 58.362C72.2102 59.0193 71.9437 59.6001 71.5816 60.1694C71.2196 60.7377 70.6005 61.1584 69.9362 61.2809C69.4692 61.3678 68.8134 61.014 68.5657 61.418C68.3947 61.6974 68.6591 62.1893 68.762 62.5012C69.7473 65.4672 70.2164 66.4625 70.9436 68.6529C71.1871 69.3866 71.8398 71.1783 71.8398 71.1783C71.8398 71.1783 71.5113 72.4624 70.8974 72.9334C73.7444 71.7089 76.7163 70.7743 79.7521 70.1474C80.855 68.4541 81.7638 66.5096 82.5372 64.5127C83.2371 62.8591 83.5887 61.1187 83.6359 59.3699C84.2466 59.4798 85.0179 58.8351 85.403 58.3505C85.8406 57.801 85.9771 57.3531 86.1345 56.6697C86.2919 55.9863 86.252 55.2474 85.954 54.6111C85.8438 54.3756 85.6906 54.1475 85.4597 54.0271C85.2288 53.9068 84.7251 54.0072 84.5646 54.2113C84.6317 54.9711 84.786 55.6326 84.616 56.5347C84.4628 57.3489 83.6464 57.9999 82.8163 58.0365C82.3063 58.0596 81.8152 57.8429 81.3745 57.5876C80.5601 57.1145 80.0543 56.5964 79.3943 55.8188C79.2484 55.6472 79.0742 55.4976 78.8759 55.3908C78.56 55.2213 78.283 55.1752 78.008 55.4138C77.8118 55.5844 77.7688 56.0439 77.8685 56.2846C77.9682 56.5253 78.2284 56.902 78.4089 57.0894C79.3649 58.0805 80.2117 58.7838 81.4049 59.4075C80.3671 60.5661 78.8371 61.1836 77.1402 60.9429C76.8097 60.8958 76.477 60.8476 76.1433 60.8392C75.9649 60.8351 75.7855 60.8717 75.6333 60.9638C75.1506 61.2568 75.287 61.7832 75.5987 62.0564C75.8106 62.2416 76.0877 62.3379 76.3637 62.3976C79.0239 62.969 80.6798 62.2835 82.1783 60.79C81.4542 63.126 80.5864 65.3625 79.6314 67.6137C79.4877 67.9528 78.9021 68.9774 78.9021 68.9774C78.9021 68.9774 78.2158 69.014 77.3921 69.2913C76.0373 69.7466 75.8253 69.8 74.1127 70.3756C73.9396 70.4331 73.3173 70.7147 73.3173 70.7147C73.3173 70.7147 73.1347 70.1705 73.0823 70.0093C72.2742 67.4986 71.5617 65.307 70.4955 62.6592C71.993 62.3411 73.1945 60.7555 73.6835 59.3081C74.1726 57.8607 74.3845 56.4813 74.5147 54.8225C74.6343 53.2998 75.1516 51.7979 76.2776 50.7639C76.7624 50.3181 77.3197 49.9162 77.8412 49.5143C78.3627 49.1124 78.9231 48.4625 78.9882 47.8984Z" fill="black"/>
<path d="M76.8979 70.8668C79.7459 70.4304 82.6244 69.6549 85.4671 70.1216C86.5984 70.3079 87.7653 70.7726 88.3246 71.771C88.9101 72.8166 88.6079 74.2839 87.7653 75.1368C86.9226 75.9898 85.9016 76.3278 84.7053 76.4325C82.6558 76.6114 81.5236 76.4408 79.3251 76.5622C77.6493 76.6543 75.4067 76.3048 73.9093 75.5492C73.4507 75.3179 73.0079 75.0238 72.7088 74.6062C72.4097 74.1886 72.2733 73.7867 72.4569 73.3074C72.6143 72.8951 73.3689 72.3435 73.7603 72.1394C75.1538 71.411 75.7635 71.2321 77.1844 70.8176C76.5904 70.3864 75.179 70.3906 74.1895 70.7705C73.3342 71.0991 72.585 71.6203 71.8347 72.1457C70.9605 72.7569 70.6531 73.6141 70.8619 74.5036C71.0571 75.3325 71.8808 76.1059 72.6584 76.4565C73.436 76.8071 74.3017 76.9076 75.1507 76.9966C78.7522 77.3713 82.4092 77.5868 85.9771 76.9694C86.9163 76.8071 87.6068 77.1525 88.3907 76.6125C89.2176 76.0432 90.0435 74.3749 90.1998 73.3849C90.3562 72.3948 90.0466 71.4183 89.397 70.6543C88.631 69.7543 87.589 69.0552 86.4462 68.7496C84.7021 68.2828 82.8133 68.4796 81.0146 68.6449C79.216 68.8103 77.4278 69.5356 76.8979 70.8668Z" fill="black"/>
<path d="M72.7569 76.471C73.1179 76.8143 74.0834 77.5489 74.4444 77.8922C73.5902 77.797 72.4065 78.09 72.0916 78.6928C71.7768 79.2967 71.9689 80.226 72.5523 80.5787C73.2544 81.0036 73.7885 81.2684 74.4328 81.4903C76.8034 82.3077 79.113 82.383 81.619 82.5034C82.958 82.5672 84.3054 82.7891 85.636 82.6206C86.9666 82.4521 88.4357 82.1496 89.3592 81.2287C89.6037 80.9848 89.9028 80.7692 90.0067 80.4395C90.121 80.0743 90.0077 79.6661 89.781 79.3574C89.5544 79.0487 89.227 78.8289 88.887 78.6531C86.9886 77.6735 84.7199 77.9634 82.5854 78.0911C79.9148 78.2501 77.5148 77.8933 74.3237 77.8933C73.9249 77.8933 73.7937 77.5468 73.4422 77.3595C73.0907 77.1722 72.7895 76.8509 72.7244 76.4595C76.0751 76.5034 79.3943 77.5081 82.7324 77.2109C83.8468 77.1115 84.9434 76.8687 86.0568 76.7598C87.1702 76.651 87.9394 76.1999 89.3581 77.1157C90.2973 77.7216 91.4621 78.539 91.6584 79.6368C91.8746 80.8435 91.0298 81.9288 90.0581 82.6802C89.0864 83.4317 87.8544 83.8158 86.6371 83.9884C83.9255 84.3736 81.1688 84.0491 78.4509 83.7153C76.9104 83.5269 75.3626 83.3333 73.8703 82.9052C72.9249 82.6342 71.9815 82.2543 71.2731 81.574C70.5648 80.8938 70.1335 79.8598 70.3885 78.9126C70.6886 77.8033 71.8083 76.8645 72.7569 76.471Z" fill="black"/>
<path d="M73.5135 83.1611C72.7968 83.339 72.3823 83.3997 71.8891 83.8612C71.3959 84.3228 71.144 84.8712 71.3791 85.5043C71.5312 85.9146 71.9636 86.329 72.3571 86.5206C72.7506 86.7121 72.9342 86.8377 73.5387 86.9298C74.9249 87.1422 76.2041 87.271 77.4466 87.4614C79.9724 87.8476 82.2968 88.3406 84.8352 88.0507C85.4103 87.9847 85.9958 87.8801 86.4911 87.5818C86.9864 87.2835 87.3768 86.756 87.3652 86.1794C87.3537 85.6153 86.934 85.2165 86.4491 84.9266C85.9633 84.6357 85.2707 84.3604 84.7061 84.3238C83.131 84.2233 82.2905 84.1898 81.0165 84.058C78.5054 83.7984 75.9743 83.4353 73.4631 83.1757C73.5817 82.8942 73.7517 82.508 73.8703 82.2265C77.1832 82.8942 80.5548 83.272 83.9348 83.3536C84.8814 83.3767 85.8468 83.3787 86.7472 83.6707C87.6475 83.9627 88.4923 84.6032 88.762 85.5085C89.0505 86.4756 88.976 87.5023 88.2289 88.1815C87.4817 88.8607 86.5835 89.3003 85.5866 89.4698C83.3136 89.857 80.5149 89.4217 78.2409 89.0397C76.8138 88.8 75.3856 88.5603 73.9584 88.3196C72.8576 88.1344 71.5543 87.8246 70.6676 87.1496C69.4535 86.2244 69.6046 84.6127 70.314 83.4489C71.0233 82.2851 72.6058 81.7398 73.8839 82.2181C73.8892 82.4871 73.6447 83.0072 73.5135 83.1611Z" fill="black"/>
<path d="M73.8441 88.5103C72.5313 87.9671 70.9919 88.8431 70.6424 90.0132C70.293 91.1832 71.3119 92.6014 72.3288 93.2795C73.1777 93.8457 73.6835 93.8415 74.7056 93.8415C77.1381 93.8415 79.2327 93.7536 81.3157 93.4637C82.4931 93.2994 83.553 92.9938 84.4911 92.2654C85.0505 91.8311 85.3506 91.3005 85.0767 90.6484C84.8028 89.9964 83.9843 89.807 83.2822 89.7076C80.0103 89.2408 76.7299 88.8263 73.4506 88.4119C73.374 88.1691 73.4138 87.8938 73.5545 87.6814C76.9272 88.301 80.3324 88.7426 83.7524 89.0043C84.5488 89.065 85.53 89.044 86.0789 89.6217C86.4493 90.0121 86.6539 90.6463 86.6056 91.1811C86.5574 91.717 86.5374 92.2644 86.2268 92.7039C85.4177 93.8531 83.7324 94.5668 82.3703 94.9216C81.0082 95.2764 79.5853 95.3067 78.178 95.3361C76.9555 95.3612 75.733 95.3863 74.5104 95.4114C73.9039 95.424 73.2837 95.4344 72.7087 95.245C71.8922 94.976 71.0999 94.4433 70.5343 93.7965C69.8281 92.9886 69.3128 92.2392 69.1386 91.1822C68.9991 90.3292 69.1428 89.4124 69.6801 88.7342C70.5742 87.6071 71.3035 86.9195 72.3634 87.0241C72.7024 87.0576 73.0508 87.1759 73.2722 87.4344C73.4915 87.6929 73.9868 88.4067 73.8441 88.5103Z" fill="black"/>
<path d="M71.9036 72.762C68.363 73.9226 65.091 74.1989 61.6197 74.1686C52.4565 74.089 43.3111 72.2408 34.8394 68.7557C34.3893 68.5705 33.8478 68.1906 34.0125 67.7332C34.1846 67.257 34.8793 67.3397 35.3568 67.5113C41.3341 69.6652 47.4897 71.4119 53.7976 72.1874C60.1065 72.9629 67.2402 73.009 72.6277 70.9326C72.422 71.5773 72.2436 72.65 71.9036 72.762Z" stroke="black" stroke-miterlimit="10"/>
<path d="M74.5418 95.4168C60.8023 95.4168 47.2527 91.0767 36.2489 83.0096C35.9298 82.7762 35.5993 82.5209 35.4492 82.1556C35.2992 81.7904 35.4146 81.2869 35.785 81.1498C36.081 81.041 36.4251 81.1603 36.6791 81.3477C41.7256 85.0724 46.3932 87.6491 51.7681 89.8072C58.4454 92.4864 64.6976 93.2504 72.2625 94.1159C72.8985 94.1871 73.9667 95.4367 74.5418 95.4168Z" fill="black"/>
<path d="M71.9491 72.7612C68.652 73.7952 67.2416 73.97 64.1627 74.1709C62.3557 74.2882 60.154 74.2107 58.2756 74.1186C57.1392 74.0631 55.691 73.9512 54.3761 73.7942C47.2361 72.9402 40.9293 71.634 34.6089 68.7057C34.2615 68.5445 33.8617 68.1929 33.8701 67.8109C33.8775 67.4634 34.1493 67.0615 34.4977 67.0615C34.8461 67.0626 35.2585 67.2394 35.5796 67.3755C41.4834 69.8957 47.2225 71.1641 53.3068 71.9679C59.5097 72.7874 66.7431 73.2185 72.4801 70.8376C72.6491 71.5325 72.4497 72.6042 71.9491 72.7612Z" fill="black"/>
<path d="M67.8415 36.7463C66.6547 35.9948 66.0272 35.3386 64.6619 34.6919C62.1948 33.5228 59.6155 32.2607 56.9039 31.9299C55.8797 31.8054 54.5228 31.6892 54.5228 31.6892C54.5228 31.6892 53.5605 32.7076 53.2258 33.2978C52.4135 34.7337 51.4953 36.1497 51.0745 37.7437C50.3798 40.38 50.2812 42.9724 50.9476 45.3585C51.0462 45.7133 51.1921 46.0378 51.3316 46.3831C51.5111 46.8237 51.3631 47.0603 51.5887 47.4977C51.9948 48.2869 52.8459 49.257 53.5605 49.9132C56.8167 52.9012 61.2672 54.3978 66.3766 53.076C66.7491 53.8096 66.4679 54.1477 66.6862 54.6176C67.9748 56.9054 69.1218 59.3324 70.0641 61.8274C69.6087 61.8787 69.0756 61.9823 68.6191 62.0336C67.4312 59.6087 66.4375 57.323 65.2664 54.9316C61.1077 55.3983 57.2879 54.6605 54.3654 52.4512C50.3494 49.4151 49.1909 47.1524 48.9663 43.368C48.7754 40.1633 49.4606 36.493 51.1679 33.7709C52.2047 32.1183 52.5342 31.7416 53.3538 30.7965C53.7053 30.3904 54.0884 30.0053 54.6162 29.9006C55.144 29.796 54.7264 29.8389 56.2197 29.9666C58.6805 30.1769 61.9325 31.3805 64.2012 32.3538C66.5655 33.3679 67.5341 34.403 69.7157 36.3067C69.296 36.5862 68.9801 36.9964 68.5604 37.2758C68.4691 37.1691 67.9276 36.8007 67.8415 36.7463Z" fill="black"/>
<path d="M50.8565 47.6745C51.4893 47.4432 52.928 47.3668 52.928 47.3668C52.928 47.3668 53.5114 47.8022 54.1232 48.1957C55.0036 48.7619 55.5965 49.1784 56.4959 49.7143C59.7091 51.6253 63.6904 52.271 67.3948 51.7456C67.8607 51.6797 68.3361 51.5886 68.7369 51.3417C69.1367 51.0947 69.5565 50.6582 69.5324 50.1904C69.5135 49.8147 69.228 49.5499 68.9164 49.3375C68.4777 49.0382 68.0758 48.8655 67.7642 48.653C65.2834 46.9618 63.3337 45.3773 61.9128 42.9775C61.3692 43.2476 60.8246 43.5165 60.281 43.7865C62.3955 46.2198 64.7535 48.4071 67.4252 50.1842C65.2509 50.676 62.9559 50.4573 60.8183 49.8252C58.6807 49.1931 57.0499 48.2648 55.1359 47.124C57.4739 46.7786 59.8528 46.1769 61.8068 45.0309C61.7827 44.3914 60.4604 43.6986 60.4604 43.6986C60.4604 43.6986 58.964 44.3245 58.3764 44.5819C55.9177 45.6567 53.1872 45.8985 50.5112 46.1256C50.6571 46.5714 50.7767 47.3574 50.8565 47.6745Z" fill="black"/>
<path d="M66.0935 54.7298C68.4913 53.8497 70.7737 52.6545 72.862 51.1851C73.1432 50.9873 73.4381 50.7612 73.5388 50.4337C73.6522 50.0632 73.479 49.6529 73.2051 49.3777C72.9312 49.1024 72.5703 48.935 72.2198 48.7675C69.3057 47.3735 66.6119 45.5786 64.1123 43.5347C66.4125 42.1595 67.846 39.7147 69.4463 37.5901C68.9814 37.5525 68.186 36.6514 68.186 36.6514L67.7914 37.2856C67.7914 37.2856 66.1764 39.5273 65.2163 40.5802C64.2561 41.633 63.0755 42.5352 61.7439 43.0459C61.9737 43.3002 62.1878 43.8141 62.4386 44.0642C62.5299 44.1563 62.5414 44.0935 62.639 44.1814C64.6444 45.9847 67.91 48.4054 71.5009 50.2222C69.7128 51.5064 68.5029 52.2704 65.8511 53.2437C65.7955 53.6068 65.8322 54.3049 66.0935 54.7298Z" fill="black"/>
<path d="M72.8034 40.9922C73.0343 40.7619 73.2358 40.7598 73.2536 40.5861C73.283 40.3046 73.2284 40.1643 73.113 40.0325C72.9377 39.8326 73.1056 39.8765 72.8517 39.7227C72.6177 39.5814 72.4204 39.5249 72.1696 39.6149C71.9324 39.6997 71.6932 39.931 71.5725 40.1507C71.2377 40.7557 71.222 41.1 71.4497 41.9132C71.6354 42.5788 72.2399 43.1356 72.88 43.4004C73.6545 43.7196 74.2201 43.707 74.8056 43.1094C75.1351 42.7735 75.3429 42.3004 75.4132 41.7792C75.4919 41.1931 75.0753 40.4846 75.1393 40.1235C75.2464 39.5123 76.1384 41.5469 76.4416 42.089C76.5812 42.3381 76.7239 42.6018 76.7155 42.8865C76.704 43.2654 76.429 43.5793 76.1698 43.8567C75.8519 44.1968 75.5255 44.5443 75.1152 44.764C74.2201 45.2434 73.0993 45.1314 72.1717 44.719C71.1108 44.2481 70.3195 43.3564 69.989 42.2449C69.7864 41.5626 69.6521 40.8143 69.9166 40.1528C70.181 39.4914 70.3615 39.1732 70.8767 38.6803C70.0435 38.2355 69.5419 37.8891 68.8672 37.5291C68.6174 37.3962 68.4684 37.2517 68.5282 36.9754C68.5891 36.6939 68.9711 36.5809 69.0519 36.3046C69.1893 35.8368 68.2764 35.0435 68.2764 35.0435C68.2764 35.0435 69.9806 36.3559 71.8107 37.4276C73.0479 38.1518 73.6324 38.3151 74.4237 39.4077C74.6199 39.6787 74.8434 40.1466 74.8959 40.4773C74.9483 40.808 74.9053 41.2978 74.7238 41.5793C74.5664 41.8242 74.3607 42.0513 74.0973 42.1769C73.7709 42.3329 73.2148 42.3255 72.9325 42.0995C72.6922 41.9069 72.5946 41.7907 72.5946 41.483C72.5946 41.2758 72.6355 41.1994 72.6754 41.1429" fill="black"/>
<path d="M66.2375 33.4827C65.7233 31.6805 65.3508 29.8165 65.4263 27.9442C65.5019 26.0719 65.972 24.3827 67.3005 23.0578C69.0729 21.2901 70.2492 20.3869 72.1245 20.4958C72.9839 20.5449 73.8077 20.9604 74.4373 21.467C74.8371 21.7893 75.0197 22.119 75.1708 22.4989C75.4625 23.2346 75.4237 24.0907 75.1068 24.9479C74.9704 25.3173 74.8644 25.6596 74.5506 25.8982C74.2369 26.1368 73.8979 26.3733 73.4771 26.2362C73.1025 26.1148 73.0836 25.2786 73.4582 25.22C73.899 25.1509 74.2484 25.0703 74.2631 24.659C74.2778 24.2488 73.8969 23.7517 73.4918 23.6742C73.0867 23.5968 72.5064 23.7935 72.2 24.0677C71.8936 24.3419 71.7414 24.7637 71.5746 25.1394C71.1821 26.0279 70.8138 27.0211 70.7057 28.1002C70.5105 30.0437 70.7393 30.8914 71.9125 33.6334C72.2189 34.3493 72.815 35.1185 73.1591 35.7621C73.5516 36.4937 73.7751 37.3027 74.1749 38.0206C74.5779 38.7459 74.9956 39.9097 75.1939 40.5345C75.2443 40.6925 75.4583 40.4278 75.5318 40.5146C74.8581 37.1206 73.4813 34.3461 72.4959 31.2619C72.2808 30.5889 72.2305 30.3273 72.1664 29.624C72.1035 28.9207 72.0395 27.7621 72.4214 27.1666C73.1413 27.7883 74.3859 27.7705 75.1876 27.2587C76.556 26.3859 77.0775 24.4874 76.747 22.8778C76.4216 21.2912 75.4027 19.8092 73.8696 19.2755C72.3354 18.7417 70.7236 18.7333 69.2765 19.468C67.8283 20.2027 66.0664 21.7537 65.2847 23.1739C64.5029 24.5941 64.2668 26.2708 64.0852 27.8804C63.9299 29.2535 63.9446 30.6486 64.1702 32.0123C64.2584 32.5492 64.399 33.1143 64.7956 33.4869C65.1955 33.8605 65.9279 33.9202 66.2375 33.4827Z" fill="black"/>
<path d="M73.2148 27.3432C72.9735 29.1674 72.665 30.7414 72.8549 32.4086C73.0448 34.0758 73.6283 35.5661 74.1792 37.1516C75.2076 40.1124 76.5382 43.0459 78.7146 45.3055C79.0231 45.6257 79.7503 46.2987 79.7503 46.2987C79.7503 46.2987 80.9183 45.6006 80.7745 45.1799C79.1554 43.565 77.8804 42.1919 76.9286 40.2024C76.173 38.6231 75.0282 36.5928 74.6682 34.8795C74.1058 32.2024 74.4615 29.7943 74.8204 27.0815C74.3083 27.1852 73.6986 27.1579 73.2148 27.3432Z" fill="black"/>
<path d="M93.7377 45.4546C93.1186 45.1626 92.5802 44.7011 92.1982 44.1338C92.1374 44.0428 92.0786 43.9444 92.0713 43.8356C92.0608 43.6828 92.1521 43.5425 92.2392 43.4159C92.5592 42.9533 93.1952 41.4598 93.1952 42.0239C93.1952 42.8811 93.277 42.9816 93.4722 43.4148C93.6684 43.8481 94.0504 44.228 94.5237 44.2866C94.8238 44.3243 95.125 44.2312 95.3999 44.1056C95.6329 43.9999 95.8585 43.867 96.0317 43.6796C96.3612 43.3238 96.7883 43.2348 96.1891 42.3411C96.0967 42.2029 96.7316 42.609 96.8911 42.6582C97.0506 42.7063 97.2206 42.7032 97.3864 42.7C97.526 42.6969 97.6666 42.6938 97.8072 42.6906C97.8817 42.6885 98.3141 42.5744 98.3875 42.5629C98.6016 42.5273 98.9049 42.4154 99.2564 42.3745C99.5293 42.3432 99.9847 42.3829 100.014 42.3882C100.291 42.4363 100.657 42.6404 100.763 42.677C101.209 42.8309 99.9438 43.2641 99.9018 43.3301C99.8504 43.4117 98.121 42.8403 98.0287 42.8685C97.165 43.127 96.3864 43.6576 95.8302 44.3651C95.274 45.0726 95.3748 46.9292 94.3642 47.2819C94.4418 46.1883 94.4502 46.1841 94.5121 45.5969" fill="black"/>
<path d="M70.3163 94.8232C69.2134 96.4339 68.1021 98.0499 66.8187 99.5214C65.5353 100.993 63.7482 102.561 62.0356 103.503C62.3568 104.001 63.0305 104.17 63.5667 104.421C67.3319 101.599 69.715 98.6412 71.7529 95.0169C71.244 95.0441 70.735 94.9949 70.3163 94.8232Z" fill="black"/>
<path d="M60.2466 105.462C60.4848 106.315 60.6727 107.544 60.509 108.622C60.3453 109.7 60.0452 110.861 59.5194 111.817C59.3977 112.038 59.1081 112.28 59.1563 112.527C59.2025 112.761 59.4858 112.872 59.7261 112.872C60.0924 112.872 60.382 112.672 60.5856 112.545C61.5206 111.963 61.6927 111.77 62.124 111.142C62.9089 110 63.4336 108.939 63.5354 107.558C63.5994 106.681 63.4494 105.973 63.0758 105.398C62.7022 104.824 62.4766 104.803 61.7945 104.738C61.509 104.711 60.998 104.863 60.7409 104.991C60.5478 105.086 60.3799 105.121 60.2204 105.302C60.1742 105.354 60.02 105.281 59.9486 105.279C59.6621 105.273 59.361 105.117 59.2665 104.846C59.1931 104.633 59.2613 104.389 59.3966 104.209C59.532 104.029 59.7261 103.903 59.9255 103.796C60.4817 103.499 61.105 103.331 61.7347 103.297C62.5616 103.252 63.4504 103.466 64.0066 104.08C64.376 104.488 64.6677 105.211 64.7894 105.747C65.4033 108.428 64.4526 110.975 62.5165 112.935C61.9981 113.46 61.3317 114.086 60.6129 114.259C59.6758 114.484 58.6778 114.221 58.0534 113.49C57.8005 113.195 57.6106 112.824 57.6242 112.435C57.6463 111.814 58.1573 111.339 58.4984 110.819C59.1584 109.813 59.2098 108.54 59.2403 107.339C59.2518 106.885 59.2592 106.411 59.0587 106.004C58.9433 105.769 58.7597 105.562 58.7009 105.305C58.6243 104.969 58.8037 104.592 59.1144 104.441C59.4239 104.289 59.8332 104.377 60.0525 104.642C60.2739 104.909 60.2078 105.325 60.2466 105.462Z" fill="black"/>
<path d="M75.6978 21.3015C79.1534 19.514 83.2134 18.8389 87.1066 18.8588C90.9987 18.8798 94.936 19.7474 98.3717 21.5726C98.059 21.942 97.6413 22.369 97.3296 22.7385C90.7773 19.6553 82.6551 19.5129 76.1133 22.6181C76.0063 22.1838 75.9695 21.6971 75.6978 21.3015Z" fill="black"/>
<path d="M98.7987 25.6977C98.8397 26.041 99.1933 26.2743 99.2846 26.6072C99.3749 26.941 99.3591 27.3157 99.1744 27.6087C98.9908 27.9018 98.7064 28.0347 98.3717 27.9447C98.0107 27.8473 97.7064 27.5376 97.5752 27.1891C97.1418 26.0368 97.4671 24.8939 98.1282 23.8547C98.7893 22.8154 99.7726 21.9039 101.002 21.8034C102.232 21.7029 103.498 22.2084 104.319 23.1263C104.933 23.8139 105.292 24.694 105.538 25.5826C105.771 26.4272 105.911 27.3084 105.824 28.1791C105.696 29.4591 105.395 30.492 104.805 31.7961C103.897 33.8024 102.477 35.6276 100.604 36.7914C99.6215 37.4005 98.5438 37.862 97.6318 38.5716C96.7199 39.2812 95.9654 40.3246 95.9916 41.4779C96.0032 41.9562 96.1742 42.6721 96.5699 42.9431C96.9655 43.2142 98.0285 42.9724 97.8659 42.5224C97.3097 40.9871 97.486 40.76 98.124 40.2095C99.887 38.6878 102.154 37.861 103.795 36.2095C105.436 34.558 106.554 32.4062 107.045 30.1613C107.474 28.198 107.328 26.536 106.799 24.5977C106.522 23.5826 105.981 22.5308 105.198 21.8254C104.392 21.099 102.753 20.2796 101.667 20.2921C99.6687 20.3141 97.9981 21.3701 96.8406 22.9954C95.6831 24.6208 95.5824 27.009 96.8259 28.5684C97.4104 29.3021 98.4178 29.8411 99.2836 29.479C100.097 29.1399 100.432 28.1875 100.647 27.3345C100.759 26.8897 100.864 26.2712 100.784 25.8201C100.704 25.3691 100.159 25.0833 99.7096 24.9881C99.2615 24.8897 98.7452 25.2529 98.7987 25.6977Z" fill="black"/>
<path d="M97.5176 28.7445C97.23 30.4536 97.0212 31.9523 96.7337 33.6613C97.1839 33.1339 97.485 32.756 97.7831 32.1312C98.2553 31.1391 98.6247 30.2778 99.163 29.1475C99.3886 28.6734 99.8483 28.351 100.16 27.9282C100.472 27.5054 100.849 26.9245 100.823 26.4002C100.823 29.5159 99.5366 32.8691 97.3843 35.2333C97.0516 35.5985 96.6372 36.0622 96.3968 36.4934C95.9036 37.3777 95.9781 37.3201 95.4933 38.2746C95.4765 38.3071 95.359 38.6755 95.1061 39.0857C94.2981 40.3929 93.3704 42.149 92.5288 43.812C92.5047 43.8591 92.4742 43.9115 92.4218 43.9198C92.3609 43.9292 92.3105 43.8738 92.2738 43.8235C91.9663 43.3997 91.6578 42.9748 91.3503 42.5509C92.7471 40.8743 93.7471 38.8952 94.4597 36.8345C95.1722 34.7738 95.3265 33.093 95.8165 30.9695C96.3454 28.6796 95.9603 27.4593 95.9603 26.3008C96.5542 27.0962 97.1157 27.7974 97.5176 28.7445Z" fill="black"/>
<path d="M56.8329 112.731C57.6231 112.172 58.1908 111.336 58.5424 110.435C58.8939 109.534 59.045 108.567 59.1185 107.603C59.1542 107.13 59.1699 106.64 58.9988 106.199C58.8278 105.757 58.5833 105.502 58.1079 105.491C57.8214 105.485 57.3513 105.361 57.4898 105.787C57.5391 105.938 57.6136 106.073 57.6986 106.206C57.9715 106.632 57.8624 107.22 57.8298 107.725C57.7343 109.221 57.2296 110.69 56.3838 111.929C56.2935 112.061 56.198 112.195 56.1623 112.35C56.1267 112.506 56.1697 112.692 56.3061 112.775C56.4394 112.857 56.6104 112.818 56.7573 112.764C57.2033 112.597 57.599 112.301 57.8823 111.92C57.8949 112.47 58.0554 112.889 58.2517 113.402C57.6577 114.162 56.4362 114.526 55.5915 114.058C54.923 113.688 54.4602 112.946 53.7141 112.775C54.4319 112.338 54.9744 111.656 55.3659 110.912C55.7573 110.169 56.0102 109.364 56.2547 108.561C56.4215 108.015 56.5013 107.394 56.3785 106.881C56.2452 106.325 55.8339 105.917 55.4099 105.533C55.9084 105.043 56.4562 104.581 57.1078 104.325C57.7595 104.07 58.7187 104.056 59.3158 104.421C60.1039 104.901 60.213 105.92 60.1322 106.839C60.0514 107.757 59.6747 108.618 59.4102 109.502C59.1468 110.382 58.9947 111.29 58.7974 112.188C58.6893 112.679 58.5644 113.059 58.1971 113.403" fill="black"/>
<path d="M54.4705 105.758C54.4705 106.342 54.5922 107.256 54.5324 107.963C54.4096 109.404 53.9458 110.935 53.0685 112.047C52.9268 112.227 52.8177 112.261 52.887 112.48C52.9457 112.666 53.101 112.739 53.2952 112.761C53.8356 112.823 54.332 112.463 54.7034 112.067C55.6332 111.076 56.1589 109.768 56.4475 108.441C56.5703 107.876 56.6532 107.28 56.4905 106.726C56.3279 106.171 55.863 105.669 55.2848 105.628C54.95 105.604 54.6247 105.733 54.2921 105.775C53.9594 105.818 53.5628 105.739 53.4106 105.441C53.3015 105.226 53.3057 105.086 53.4505 104.894C53.5953 104.703 53.9195 104.507 54.1441 104.421C54.6436 104.232 55.1452 104.146 55.671 104.246C56.0267 104.314 56.415 104.661 56.6406 104.943C56.883 105.248 56.8987 105.455 56.8998 105.845C56.9019 106.579 56.798 107.309 56.6931 108.035C56.5304 109.164 56.3457 110.348 55.65 111.253C55.4307 111.538 55.162 111.793 55.0172 112.122C54.8105 112.591 54.8881 113.131 54.9395 113.6C54.5345 114.103 53.8429 114.362 53.2028 114.266C52.5627 114.171 52.2752 114.08 51.8302 113.482C51.5836 113.151 50.6109 112.998 50.5773 112.586C52.3161 111.309 53.3099 109.09 53.1042 106.947C53.0591 106.473 53.0024 106.194 52.7023 105.824C52.4021 105.453 51.7389 105.263 51.2992 105.448C51.23 105.477 51.23 105.28 51.1618 105.247C51.1062 105.22 51.0831 105.154 51.0663 105.095C50.9855 104.827 50.8533 104.496 50.7725 104.228C51.3769 103.88 52.3129 103.918 52.9373 104.228C53.4442 104.479 53.8566 104.618 54.0234 105.071C54.0843 105.234 54.0864 105.412 54.1189 105.584C54.1515 105.756 54.4705 105.644 54.4705 105.758Z" fill="black"/>
<path d="M51.3132 105.396C51.7602 107.64 51.2722 110.252 50.1074 112.223C50.0434 112.331 49.9794 112.475 50.0591 112.572C50.1221 112.647 50.3446 112.67 50.4359 112.634C50.5272 112.599 50.8063 112.413 50.8871 112.358C51.1327 112.191 51.0193 112.584 51.1904 112.722C51.4548 112.936 51.7193 113.15 51.9837 113.364C51.6668 113.789 51.1799 114.083 50.6552 114.165C50.1305 114.248 49.6027 114.066 49.1703 113.758C49.099 113.708 48.9237 113.519 48.8891 113.438C48.8366 113.317 48.9573 113.361 48.9993 113.235C49.6698 111.27 50.5461 109.304 50.5093 107.228C50.4967 106.479 50.3635 105.737 50.3026 104.991C50.2869 104.802 50.2795 104.599 50.3782 104.438C50.4768 104.275 50.8661 104.108 51.1033 104.108C51.1914 104.108 50.9522 104.472 50.9753 104.557C51.0844 104.954 51.2628 105.142 51.3132 105.396Z" fill="black"/>
<path d="M47.9603 104.562C48.2835 105.292 48.2866 106.225 48.168 106.999C48.0495 107.772 47.7871 108.516 47.5258 109.254C47.147 110.323 46.7451 111.43 45.9371 112.226C46.4061 112.613 47.0956 112.666 47.6633 112.447C48.23 112.229 48.6812 111.77 48.9897 111.248C49.2982 110.726 49.4787 110.139 49.633 109.551C49.9373 108.39 50.1451 107.163 49.8764 105.993C49.7453 105.422 49.4399 104.737 48.8764 104.568C48.1932 104.363 47.5111 104.965 46.8017 105.037C46.6275 105.054 46.6118 105.219 46.2928 104.954C46.1585 104.843 46.0357 104.687 46.0735 104.516C46.0913 104.438 46.1375 104.369 46.1847 104.303C46.6055 103.727 46.9717 103.7 47.5919 103.301C48.2247 102.895 49.3339 103.097 49.9289 103.493C50.1188 103.62 50.3308 103.818 50.4924 103.98C50.6215 104.108 50.6414 104.229 50.6519 104.379C50.8356 107.004 50.3854 109.847 49.5375 112.338C49.421 112.681 49.2898 113.029 49.0432 113.295C48.699 113.666 48.1848 113.818 47.6937 113.944C47.0987 114.096 46.4691 114.164 45.8909 113.956C45.0713 113.662 44.9139 112.745 45.0083 111.979C45.1028 111.216 45.3316 110.602 45.6653 109.908C46.0241 109.161 46.3568 108.305 46.5153 107.493C46.6737 106.681 46.9969 105.941 46.4481 105.081C46.1847 104.666 47.7924 104.185 47.9603 104.562Z" fill="black"/>
<path d="M46.6789 105.462C46.3357 104.864 45.5015 104.628 44.8173 104.723C44.1331 104.819 43.6084 105.195 43.1771 105.733C42.7458 106.271 42.4698 106.915 42.2326 107.561C42.071 108.004 41.9304 108.435 41.7877 108.94C41.625 109.515 41.3994 110.258 41.3102 110.85C41.221 111.441 41.5191 111.986 42.0322 112.296C42.411 112.524 42.9441 112.437 43.3723 112.325C44.0502 112.147 44.4489 111.764 44.8792 111.214C45.4889 110.433 45.8362 109.72 46.236 109.147C45.7796 110.218 46.0765 111.772 45.4039 112.723C44.939 113.38 44.0103 113.9 43.2075 113.966C42.5726 114.019 41.9189 113.928 41.3459 113.649C40.7729 113.371 40.1821 112.871 39.9418 112.282C39.5389 111.298 39.7519 110.147 40.0709 109.133C40.2839 108.456 40.7079 107.841 40.9209 107.164C41.1518 106.43 41.5694 105.56 41.9493 104.892C42.3292 104.223 42.6891 103.753 43.3922 103.439C44.2359 103.062 45.2108 103.136 46.1196 103.309C46.4648 103.375 46.8636 103.472 47.0755 103.753C47.2697 104.011 47.2518 104.372 47.1501 104.678C47.0493 104.986 46.8531 105.251 46.6789 105.462Z" fill="black"/>
<path d="M41.1548 106.69C39.9564 107.741 38.2879 108.192 36.7002 108.032C35.1125 107.872 33.6129 107.132 32.4166 106.078C31.2214 105.024 30.3168 103.668 29.662 102.217C33.6748 103.926 38.0329 104.825 42.3962 104.846C42.7992 104.848 43.2221 104.838 43.5757 104.646C43.9776 104.429 44.3439 103.768 44.3334 103.312C39.2019 103.71 33.8501 102.439 29.1331 100.319C28.7679 100.154 28.3996 99.9597 27.9987 99.9566C27.5979 99.9534 27.1634 100.195 27.0941 100.589C27.0385 100.9 27.2159 101.199 27.3869 101.465C27.8476 102.186 28.3093 102.906 28.77 103.627C29.5371 104.825 30.3136 106.036 31.3389 107.024C33.2813 108.895 36.0905 109.834 38.7716 109.509C39.29 109.446 39.8231 109.329 40.2366 109.01C40.9554 108.46 41.1296 107.471 41.1548 106.69Z" fill="black"/>
<path d="M36.8694 48.2966C38.3473 48.2966 39.5453 47.1486 39.5453 45.7325C39.5453 44.3164 38.3473 43.1685 36.8694 43.1685C35.3915 43.1685 34.1935 44.3164 34.1935 45.7325C34.1935 47.1486 35.3915 48.2966 36.8694 48.2966Z" fill="black"/>
<path d="M56.4424 37.3323C57.0129 36.6738 57.0308 35.7568 56.4822 35.2841C55.9337 34.8115 55.0266 34.9621 54.4561 35.6207C53.8856 36.2792 53.8678 37.1962 54.4163 37.6688C54.9648 38.1415 55.8719 37.9908 56.4424 37.3323Z" fill="black"/>
<path d="M36.0495 47.0089C36.5015 47.0089 36.868 46.5874 36.868 46.0674C36.868 45.5475 36.5015 45.126 36.0495 45.126C35.5974 45.126 35.231 45.5475 35.231 46.0674C35.231 46.5874 35.5974 47.0089 36.0495 47.0089Z" fill="white"/>
<path d="M46.3966 28.8294C45.3021 28.5814 44.6389 28.2789 44.5056 27.8038C44.4542 27.4668 44.9327 26.6892 44.725 26.0905C44.5508 25.5578 43.9096 25.7944 43.4961 25.785C43.2075 25.7588 43.0575 25.7389 43.025 25.6646C42.9935 25.6238 42.9851 25.2198 43.0533 25.022C43.1456 24.7583 43.2789 24.4914 43.4856 24.2988C43.0669 24.5301 42.7616 24.9613 42.6661 25.4281C42.5863 25.7975 42.6839 26.0592 43.0522 26.1942C43.4783 26.371 43.7983 26.3354 44.1027 26.3585C44.1037 26.4192 44.1027 26.4799 44.0995 26.5395C44.0743 26.7122 43.8613 27.3517 43.8896 27.7117C43.918 28.2758 44.4689 28.6839 44.9883 28.7896C45.4532 28.8922 45.9286 28.8797 46.4008 28.8472C46.4176 28.8462 46.4354 28.8451 46.4522 28.8441C46.4333 28.8399 46.4155 28.8346 46.3966 28.8294Z" fill="#33A637"/>
<path d="M81.0712 11.3054C81.0334 11.2719 80.8424 11.2018 80.7983 11.1871C80.7794 11.1777 80.7605 11.1662 80.749 11.1578C80.4898 10.9443 80.4877 10.9171 80.4846 10.8365C80.4709 10.7256 80.6346 10.3342 80.8067 10.1091C81.0565 9.79098 81.4384 9.51573 81.834 9.36084C81.2411 9.44457 80.6651 9.73865 80.3146 10.2326C80.1435 10.4639 79.9819 10.757 80.0522 11.0531C80.1309 11.2907 80.3167 11.4833 80.5097 11.635C80.579 11.6821 80.6598 11.7093 80.7333 11.7502C80.7343 11.7523 80.7343 11.7544 80.7354 11.7564C80.7374 11.791 80.7374 11.8245 80.7354 11.859C80.7333 11.8684 80.7301 11.8799 80.727 11.8925C80.7217 11.903 80.7175 11.9124 80.7123 11.9218C80.6052 12.0903 80.1582 12.3833 79.7794 12.7465C79.1939 13.2216 78.9871 14.0191 79.0155 14.8051C79.0165 14.8396 79.0176 14.8742 79.0197 14.9087C79.091 14.6439 79.175 14.3771 79.2726 14.1227C79.4363 13.7847 79.5905 13.5241 79.8497 13.2907C80.0082 13.162 80.4573 12.8606 80.6168 12.736C80.8455 12.5822 81.0963 12.4315 81.2307 12.1824C81.4059 11.8192 81.2789 11.4226 81.0712 11.3054Z" fill="#33A637"/>
<path d="M13.5613 58.5231C13.4794 58.5618 13.3986 58.6016 13.3168 58.6393C13.0974 58.7366 12.8886 58.8643 12.6515 58.9124C12.4458 58.9585 12.2034 58.9951 12.0753 58.9668C11.9242 58.925 11.8833 58.8109 11.8109 58.5702C11.7343 58.3504 12.09 57.3698 12.216 56.7334C12.3377 56.2719 12.0806 55.7423 11.6105 55.6063C11.0984 55.5069 10.6723 55.8983 10.3292 56.2248C9.89263 56.6403 9.56837 57.151 9.22732 57.6429C9.21998 57.6513 9.21263 57.6597 9.20424 57.668C9.05837 57.1416 9.07831 57.0914 9.02164 56.6811C9.02689 56.7177 9.03109 56.7544 9.03634 56.791C8.97547 56.0971 9.06047 55.3959 8.97022 54.7052C8.90831 54.3598 8.89992 53.8721 8.498 53.7476C8.26504 53.6963 8.0006 53.7455 7.81591 53.9014C7.53887 54.14 7.45072 54.5126 7.28912 54.8255C7.11597 55.2421 6.82634 55.7256 7.01313 56.1809C6.9722 56.0113 7.00473 55.8376 7.08029 55.6827C7.21461 55.3813 7.40875 55.1123 7.59973 54.8454C7.76868 54.6141 7.84424 54.432 8.04047 54.2708C8.11393 54.2447 8.073 54.2143 8.28603 54.2269C8.413 54.5681 8.23566 55.7099 8.21572 56.2353C8.16535 57.0966 8.28078 58.184 8.79917 58.5608C9.03214 58.7073 9.32492 58.6372 9.54529 58.498C9.97028 58.2395 10.1728 57.7591 10.4708 57.3802C10.4897 57.3551 10.5086 57.33 10.5275 57.3038C10.5432 57.285 10.5642 57.2599 10.5863 57.2327C10.8024 56.9773 11.0407 56.7418 11.2957 56.5252C11.3576 56.4823 11.3943 56.4613 11.4237 56.4488C11.43 56.4592 11.4373 56.4687 11.4426 56.4791C11.4457 56.4906 11.4478 56.5001 11.4499 56.5063C11.451 56.588 11.4384 56.6989 11.4363 56.723C11.4373 56.7146 11.4405 56.6937 11.4457 56.6539C11.4006 57.1029 11.324 57.3258 11.2757 57.9265C11.2337 58.2573 11.2264 58.6089 11.4132 58.9009C11.6084 59.2463 11.9064 59.42 12.3031 59.2955C12.7973 59.1751 13.1824 58.8423 13.5644 58.5252C13.5707 58.52 13.577 58.5147 13.5833 58.5095C13.577 58.5158 13.5697 58.52 13.5613 58.5231Z" fill="#33A637"/>
<path d="M11.4382 56.7246C11.4373 56.7316 11.4373 56.7306 11.4382 56.7246V56.7246Z" fill="#33A637"/>
<path d="M94.7679 98.7794C94.3964 98.8955 93.9263 99.0284 93.5895 99.0944C93.4667 99.108 93.3785 99.0923 93.3733 99.0902C93.3387 99.0892 93.24 99.0536 93.2096 99.0431C93.1855 99.0316 93.1592 99.0159 93.1435 99.0054C93.1424 99.0044 93.1424 99.0044 93.1414 99.0033C93.1393 98.9939 93.1361 98.9845 93.134 98.9751C93.1067 98.6967 93.1393 98.4193 93.1645 98.142C93.2085 97.6302 93.3313 97.0734 93.1246 96.5847C92.8161 96.0059 92.3617 95.9829 91.8181 96.2634C91.8496 96.2508 91.88 96.2372 91.9115 96.2247C91.5295 96.3754 91.1895 96.6108 90.8202 96.7867C90.7897 96.7971 90.7404 96.8128 90.7005 96.8223C90.6701 96.8244 90.6155 96.8285 90.5809 96.8254C90.5788 96.8254 90.5777 96.8254 90.5756 96.8254C90.5704 96.8045 90.5662 96.7835 90.5662 96.7678C90.5179 96.5355 90.5683 95.9253 90.2902 95.5569C90.1506 95.3926 89.8106 95.2963 89.5494 95.3696C89.4528 95.4073 89.3909 95.4973 89.3185 95.5674C89.2681 95.6145 89.1034 95.7558 89.0194 95.8374C89.2303 95.7296 89.3825 95.625 89.5798 95.5224C89.7172 95.5098 89.8873 95.5862 89.9806 95.6553C90.1202 95.7537 90.1055 96.0635 90.0887 96.3576C90.0814 96.4047 90.053 96.6203 90.0509 96.6705C90.0457 96.8369 90.0258 97.0138 90.1076 97.1666C90.2377 97.3947 90.5253 97.4429 90.7666 97.4492C91.2 97.4146 91.3522 97.2692 91.5935 97.1959C91.9976 97.0295 91.9965 96.9939 92.369 96.8955C92.3753 96.9018 92.3816 96.9091 92.3879 96.9154C92.3974 96.929 92.4047 96.9447 92.4121 96.9594C92.4803 97.1854 92.4677 97.5936 92.4719 98.0436C92.4792 98.3639 92.4876 98.6862 92.5642 98.9991C92.5978 99.1593 92.6713 99.3194 92.815 99.4084C93.1487 99.6041 93.5748 99.5465 93.9011 99.3634C94.2852 99.1687 94.6504 98.9426 95.0114 98.7082C94.9568 98.7113 94.8466 98.7626 94.7679 98.7794Z" fill="#33A637"/>
<path d="M111.145 70.7596C110.402 70.2614 108.903 70.2687 108.438 69.9997C108.429 69.9935 108.421 69.9893 108.414 69.9851C108.411 69.982 108.408 69.9788 108.404 69.9757C108.399 69.9579 108.394 69.9359 108.389 69.9118C108.385 69.8689 108.379 69.7747 108.381 69.7057C108.417 69.5267 108.49 69.3571 108.518 69.1771C108.52 69.1667 108.525 69.1447 108.532 69.1049C108.74 68.432 108.599 67.7308 108.252 67.488C108.129 67.3896 107.971 67.3456 107.818 67.3163C107.688 67.2891 107.66 67.2891 107.373 67.2933C106.981 67.2682 107.059 67.2692 106.997 67.2159C106.969 67.173 106.946 67.1269 106.926 67.0788C106.92 67.062 106.914 67.0505 106.922 67.0673C106.929 67.085 106.93 67.085 106.924 67.0683C106.922 67.0568 106.919 67.0463 106.917 67.0379C106.91 66.7627 106.817 66.5021 106.696 66.2582C106.606 66.1452 106.442 66.252 106.323 66.2572C105.909 66.3545 105.887 66.905 105.81 67.2347C105.918 66.9877 106.014 66.7009 106.212 66.5199C106.285 66.4655 106.379 66.4749 106.478 66.478C106.49 66.544 106.521 66.6811 106.524 66.7177C106.549 66.8203 106.497 67.0055 106.509 67.1384C106.532 67.3927 106.659 67.6701 106.915 67.7601C107.103 67.8365 107.304 67.8731 107.504 67.8961C107.551 67.9045 107.596 67.9181 107.581 67.9097C107.632 67.9307 107.699 67.9558 107.732 67.9673C107.755 67.9778 107.777 67.9903 107.799 68.0039C107.803 68.0102 107.807 68.0175 107.811 68.0259C107.888 68.2802 107.878 68.186 107.864 68.4697C107.823 68.6884 107.755 68.9019 107.707 69.1196C107.589 69.4618 107.537 69.8323 107.651 70.1829C107.946 71.1238 109.747 70.7784 110.527 70.8967C110.866 70.9165 111.387 71.1436 111.75 71.3551C111.822 71.3927 111.915 71.4472 111.97 71.4744C111.708 71.2211 111.452 70.9584 111.145 70.7596Z" fill="#33A637"/>
<path d="M19.6132 30.4071C19.3802 29.9969 19.3288 29.5657 19.2081 29.123C19.143 28.8603 19.0906 28.5578 18.8471 28.3967C18.696 28.291 18.5134 28.2229 18.3277 28.2303C18.1786 28.2418 18.0443 28.3119 17.9184 28.3872C17.7515 28.4877 17.6445 28.5453 17.3738 28.7085C17.2909 28.7462 17.2027 28.7745 17.1135 28.7986C17.0988 28.763 17.0862 28.7274 17.0747 28.6908C17.0537 28.5223 17.0715 28.3517 17.0485 28.1832C17.039 27.7153 16.9593 27.1973 16.6088 26.8561C16.3548 26.6363 15.9991 26.7399 15.7105 26.8279C15.2036 27.034 14.7083 27.3752 14.447 27.168C14.4166 27.1638 14.3305 26.9011 14.3148 26.786C14.2466 26.3381 14.2833 25.8818 14.3022 25.4307C14.32 25.4307 14.3484 25.4286 14.361 25.4401C14.3924 25.4757 14.425 25.5092 14.4617 25.5406C14.4103 25.4914 14.3925 25.3993 14.3106 25.3972C14.2938 25.393 14.2718 25.3857 14.2665 25.4077C14.1868 25.7781 14.1102 26.1497 14.0724 26.5275C14.0262 27.1649 14.0986 27.6473 14.8615 27.6306C15.4523 27.5416 15.6706 27.3302 16.1806 27.3061C16.1827 27.3061 16.1827 27.3061 16.1848 27.3061C16.1901 27.3072 16.1953 27.3072 16.2005 27.3082C16.211 27.3218 16.2194 27.3354 16.2289 27.3501C16.2499 27.3941 16.2688 27.4391 16.2845 27.4851C16.3611 27.6965 16.3622 27.7635 16.3789 28.2889C16.359 28.7713 16.4881 29.5448 17.1293 29.461C17.6214 29.392 17.9709 29.0204 18.3696 28.763C18.3717 28.7619 18.3738 28.7609 18.377 28.7598C18.3822 28.7577 18.3875 28.7567 18.3917 28.7546C18.399 28.7535 18.4053 28.7535 18.4106 28.7525C18.4431 28.7556 18.4767 28.7598 18.5092 28.7682C18.5134 28.7692 18.5166 28.7703 18.5207 28.7713C18.5428 28.7797 18.5827 28.7954 18.6078 28.809C18.6162 28.8153 18.6257 28.8205 18.6341 28.8279C18.6666 28.8446 18.7222 28.944 18.7327 28.9671C19.0035 29.5657 19.205 30.225 19.7118 30.6751C19.7748 30.7337 19.8419 30.787 19.9122 30.8373C19.7947 30.7075 19.694 30.562 19.6132 30.4071Z" fill="#33A637"/>
<path d="M74.3069 107.454C74.2859 107.417 74.246 107.354 74.225 107.322C74.1694 107.158 74.183 107.067 74.2061 106.794C74.3037 106.363 74.436 105.958 74.4769 105.51C74.5955 104.92 74.3079 104.348 73.8745 103.958C73.5618 103.702 73.1725 103.561 72.8493 103.317C72.6467 103.2 72.4442 102.869 72.4621 102.612C72.4925 102.442 72.6016 102.157 72.7108 102.018C72.7422 101.971 72.7958 101.931 72.8409 101.898C72.9112 101.962 72.9826 102.025 73.0203 102.114C73.1756 102.468 73.1987 102.859 73.2554 103.237C73.2596 102.72 73.3803 102.1 72.9857 101.691C72.97 101.673 72.9553 101.641 72.9269 101.621C72.8671 101.569 72.7853 101.6 72.7286 101.643C72.5166 101.748 72.3592 101.929 72.2459 102.134C71.8681 102.684 72.0874 103.411 72.6132 103.779C72.8587 103.959 72.8377 103.971 73.1274 104.152C73.3813 104.312 73.3477 104.267 73.5009 104.425C73.8252 104.815 73.9301 104.955 73.8388 105.62C73.8315 105.673 73.8189 105.769 73.8137 105.807C73.8116 106.007 73.6584 106.401 73.6405 106.814C73.6332 107.068 73.6447 107.335 73.7717 107.562C74.0771 108.019 74.5755 108.305 74.904 108.744C75.2104 109.081 75.3017 109.662 75.2985 110.148C75.3059 110.358 75.3132 110.567 75.309 110.776C75.3437 110.606 75.3689 110.434 75.393 110.262C75.649 108.851 75.1453 108.44 74.3069 107.454Z" fill="#33A637"/>
<path d="M27.5865 26.2428C27.4375 25.8064 27.171 25.3742 26.726 25.1952C26.6232 25.1471 26.5203 25.1136 26.4196 25.0916C26.8016 24.0754 26.0806 22.4574 24.8518 22.6489C24.9242 22.4354 24.9725 22.2135 24.9903 21.9874C25.0239 21.6892 24.9546 21.3773 24.728 21.169C24.6608 21.0968 24.5894 21.0277 24.5275 20.9492C24.5023 20.9262 24.4688 20.9116 24.4352 20.9189C24.2337 21.0152 24.0018 21.0989 23.8517 21.2747C23.6869 21.4882 23.5169 21.7802 23.6334 22.0513C23.5621 21.7541 23.7971 21.4683 24.0228 21.3019C24.1403 21.2329 24.2746 21.2025 24.4026 21.1586C24.5076 21.3155 24.6451 21.4819 24.6492 21.5929C24.6671 21.7216 24.6451 21.887 24.5968 22.0565C24.4771 22.4563 24.3575 22.6855 24.1791 22.9116C24.0028 23.011 23.8276 23.1387 23.7636 23.3365C23.71 23.5353 23.8538 23.7991 24.0836 23.7562C24.1319 23.753 24.1812 23.7331 24.2169 23.7007C24.3208 23.6107 24.2589 23.6484 24.4089 23.4725C24.4131 23.4673 24.4163 23.4621 24.4205 23.4568C24.6818 23.3292 24.6419 23.3271 24.9221 23.259C25.1456 23.259 25.0701 23.2433 25.3135 23.3218C25.4573 23.393 25.3933 23.3595 25.4961 23.4516C25.8708 23.865 26.0492 24.538 25.7805 25.0424C25.7616 25.0748 25.7469 25.1031 25.7322 25.1282C25.5024 25.2161 25.3261 25.3794 25.2485 25.5908C25.2117 25.729 25.282 25.8891 25.4195 25.9383C25.5287 25.9875 25.6619 25.9571 25.7742 25.9341C25.9421 25.8661 26.0659 25.7405 26.1656 25.5919C26.2664 25.5782 26.3314 25.6055 26.5686 25.6714C26.8561 25.7488 27.2192 26.2062 27.3955 26.9273C27.5603 27.7321 27.4784 28.6363 27.3473 29.4746C27.3368 29.5469 27.3263 29.618 27.3158 29.6902C27.4386 29.2685 27.5844 28.8498 27.6432 28.4124C27.7754 27.6976 27.8478 26.9419 27.5865 26.2428Z" fill="#A63363"/>
<path d="M58.7795 20.3543C58.7564 20.3439 58.7333 20.3344 58.7091 20.325C58.7123 20.3208 58.7165 20.3177 58.7196 20.3135C58.9893 20.0351 59.0628 19.6301 58.9893 19.2586C58.8907 18.7091 58.3597 18.347 57.855 18.1952C57.5968 18.1199 57.3292 18.0979 57.0627 18.1188C57.24 17.8352 57.346 17.5296 57.3324 17.2031C57.3439 16.8106 57.1781 16.4789 56.814 16.3062C56.2683 15.987 55.8926 16.2193 55.3994 16.4946C55.6985 16.3878 55.9997 16.2162 56.3281 16.2654C56.5831 16.3397 56.8518 16.5029 56.9871 16.7154C57.0711 16.8514 57.0669 17.0901 57.0459 17.2512C57.0396 17.5045 56.8255 17.853 56.6849 18.0027C56.5863 18.1471 56.3229 18.258 56.411 18.4642C56.4551 18.5888 56.5957 18.6045 56.7101 18.5888C56.8696 18.5856 57.0301 18.5835 57.1907 18.5846C57.6377 18.6139 58.0092 18.7478 58.3324 19.1047C58.4258 19.2062 58.5297 19.5003 58.4258 19.7975C58.3114 19.9901 58.196 20.1293 58.0197 20.2486C57.8896 20.2821 57.7511 20.324 57.6356 20.392C57.515 20.4726 57.5066 20.6652 57.6105 20.7635C57.8287 20.909 58.0743 20.8347 58.2925 20.6924C58.7511 20.6788 59.1362 21.0472 59.2139 21.6468C59.2926 22.2329 59.0145 22.7907 58.7795 23.3193C58.7133 23.4501 58.6441 23.5799 58.578 23.7117C58.6714 23.5767 58.77 23.4448 58.8613 23.3088C59.1174 22.8944 59.3881 22.459 59.4762 21.9734C59.5833 21.3611 59.3587 20.6515 58.7795 20.3543Z" fill="#A63363"/>
<path d="M17.9103 52.7527C17.6143 52.7894 17.3027 52.7548 17.012 52.7266C16.6111 52.67 16.3446 52.4503 16.0843 52.1499C15.9616 51.9751 15.9469 51.9102 15.9395 51.8234C15.9395 51.5167 16.0581 51.0897 16.0896 50.827C16.3383 50.0798 16.0298 49.4916 15.4306 49.2886C14.9605 49.1221 14.7726 49.1483 14.2091 49.1944C13.8229 49.1891 13.4913 49.1515 13.4221 49.1054C13.4137 49.1002 13.4063 49.096 13.4011 49.0928C13.399 49.0908 13.3969 49.0887 13.3948 49.0866C13.3927 49.0834 13.3906 49.0803 13.3885 49.0761C13.3811 49.0426 13.3654 48.9788 13.3549 48.9421C13.3213 48.5811 13.3297 48.3037 13.3801 48.062C13.5301 47.4591 13.4021 46.8521 13.2458 46.265C13.2006 46.1645 13.2374 45.9311 13.0842 45.9531C12.8103 45.9908 12.4745 45.8966 12.2467 46.0913C12.1848 46.197 12.1576 46.3205 12.1124 46.4345C12.1712 46.333 12.2163 46.221 12.2866 46.1268C12.5133 46.0054 12.7798 46.108 13.0275 46.1216C13.038 46.2535 13.0527 46.3864 13.0684 46.5183C13.1009 46.7998 13.1335 47.0834 13.1156 47.367C13.0789 47.7742 12.8554 48.2807 12.8669 48.7558C12.8218 49.2708 12.9897 49.6109 13.528 49.702C13.9824 49.7721 14.1377 49.8066 14.6656 49.7627C14.929 49.7637 14.8755 49.7637 15.2018 49.8485C15.3162 49.8935 15.2732 49.8579 15.4295 49.9594C15.4505 49.9793 15.4747 50.0044 15.4914 50.0233C15.5177 50.0599 15.5418 50.0976 15.5618 50.1384C15.566 50.1478 15.5691 50.1551 15.5722 50.1614C15.5743 50.1666 15.5764 50.1719 15.5785 50.1771C15.5901 50.2169 15.5922 50.2231 15.5922 50.2127C15.5932 50.2221 15.5943 50.2305 15.5953 50.2399C15.5974 50.2483 15.5985 50.2577 15.6006 50.2661C15.6027 50.2901 15.6048 50.3289 15.6016 50.3582C15.6048 50.4827 15.5502 50.6303 15.5261 50.9202C15.5145 51.3095 15.3813 51.7229 15.5513 52.0944C15.6048 52.3257 16.2355 52.8563 16.6835 52.9202C16.9448 52.9683 17.2114 52.9244 17.4716 52.8919C17.6647 52.8689 17.8599 52.8281 18.0373 52.7454C18.2125 52.6617 17.9816 52.7538 17.9103 52.7527Z" fill="#A63363"/>
<path d="M18.841 80.4564C18.3478 80.6186 17.8546 80.9273 17.6111 81.3993C17.4023 81.8389 17.3582 81.8368 17.1819 82.0063C17.161 82.022 17.1379 82.0336 17.1148 82.0461C17.1064 82.0482 17.098 82.0513 17.0896 82.0524C16.5817 82.067 16.1661 82.0095 15.5659 82.2983C15.0632 82.516 14.6592 82.8917 14.2447 83.2402C14.0789 83.3805 13.9236 83.5846 13.6948 83.6107C13.5636 83.594 13.443 83.5343 13.3202 83.4872C13.6266 83.7133 13.7609 83.7897 14.1177 83.594C14.6204 83.3062 15.1871 82.943 15.5806 82.8132C16.0685 82.6479 16.206 82.6353 16.7097 82.6772C16.9679 82.6992 17.2407 82.7515 17.4779 82.6175C17.7413 82.4658 17.9648 82.2303 18.1054 81.9613C18.1736 81.8232 18.2219 81.6756 18.3079 81.5479C18.6857 81.1335 18.8945 81.033 19.1579 80.9409C19.8988 80.717 20.7593 80.8593 21.6104 80.4417C21.5705 80.4491 21.5306 80.4564 21.4897 80.4627C20.6113 80.5998 19.7152 80.2387 18.841 80.4564Z" fill="#A63363"/>
<path d="M108.332 48.8281C108.07 48.6973 107.827 48.5288 107.591 48.3571C107.265 48.085 107.107 47.9312 107.146 47.5764C107.141 47.5157 107.216 47.2206 107.262 47.1599C107.276 47.1358 107.291 47.1117 107.307 47.0897C107.324 47.0699 107.351 47.0447 107.373 47.0259C107.511 46.9401 107.6 46.8857 107.671 46.849C108.02 46.8836 108.351 46.8239 108.445 46.5309C108.51 46.3613 108.401 46.1583 108.225 46.1143C108.139 46.0871 108.055 46.1164 107.97 46.129C107.891 46.1342 107.814 46.1499 107.739 46.1719C107.477 46.1489 107.233 46.0756 107.028 45.9563C106.871 45.8014 106.967 45.9071 106.855 45.747C106.833 45.7093 106.814 45.6706 106.796 45.6308C106.788 45.6067 106.777 45.5733 106.769 45.5419C106.769 45.5314 106.768 45.5167 106.768 45.5C106.775 45.4676 106.784 45.4362 106.795 45.4048C106.855 45.2582 106.987 45.0887 107.168 44.9453C107.3 44.9945 107.442 45.028 107.588 45.0426C107.857 45.0992 108.128 45.0803 108.394 45.0238C108.423 44.9987 108.645 45.0604 108.763 44.8093C108.955 44.0515 108.32 43.905 107.708 44.0076C107.492 44.04 107.27 44.1175 107.062 44.2284C106.954 44.1614 106.863 44.0788 106.791 43.9804C106.407 43.4634 106.504 43.2907 106.882 42.6313C107.243 42.0934 107.585 41.4801 108.174 41.163C108.216 41.141 108.3 41.1149 108.316 41.1766C108.315 41.1023 108.211 41.1222 108.162 41.1348C107.617 41.3106 107.214 41.7522 106.839 42.1646C106.459 42.602 105.963 43.1274 106.105 43.7543C106.189 44.0777 106.355 44.3592 106.58 44.5769C106.303 44.8438 106.11 45.185 106.097 45.5628C106.143 46.0044 106.433 46.4419 106.841 46.6292C106.867 46.6408 106.896 46.6523 106.927 46.6648C106.883 46.714 106.843 46.7674 106.81 46.826C106.626 47.1954 106.575 47.658 106.737 48.0432C106.971 48.5162 107.498 48.737 107.954 48.9474C108.502 49.1839 109.114 49.209 109.697 49.3189C109.244 49.1536 108.775 49.0238 108.332 48.8281Z" fill="#A63363"/>
<path d="M101.477 89.7249C101.332 89.4968 101.114 89.3545 100.868 89.2781C100.974 89.0918 101.056 88.894 101.091 88.6794C101.153 88.2147 101.075 87.6391 100.669 87.3461C100.371 87.1441 100.018 87.03 99.6573 87.0279C99.651 87.0269 99.6457 87.0258 99.6394 87.0248C99.5513 87.0091 99.5251 86.9756 99.4779 86.9233C99.4086 86.8312 99.3918 86.7621 99.4002 86.6815C99.4852 86.3435 99.5807 85.9929 99.5125 85.6423C99.4737 85.4905 99.353 85.3775 99.2638 85.2529C99.3236 85.3743 99.4054 85.4905 99.4338 85.6234C99.4485 85.8422 99.3803 86.0588 99.3162 86.265C99.2512 86.4251 99.1525 86.5768 99.141 86.7527C99.1336 86.9442 99.2323 87.141 99.3813 87.2603C99.5303 87.3796 99.7318 87.3754 99.9091 87.4214C100.004 87.4476 100.18 87.547 100.326 87.6402C100.591 87.8076 100.671 88.2817 100.491 88.7558C100.464 88.8448 100.344 89.0185 100.192 89.2027C99.7979 89.2111 99.3771 89.2896 99.1137 89.6004C98.9469 89.8149 98.6394 90.0421 98.8944 90.3183C99.4495 90.716 99.8682 90.5371 100.43 89.8777C100.456 89.8474 100.481 89.816 100.507 89.7846C100.679 89.7888 100.835 89.8202 100.929 89.8934C101.147 90.0452 101.217 90.2357 101.084 90.7422C100.947 91.2425 100.8 91.7051 100.563 92.153C100.378 92.512 100.226 92.8866 100.026 93.2372C99.9941 93.2927 99.9606 93.3482 99.9196 93.3974C100.008 93.322 100.077 93.2278 100.149 93.1389C100.715 92.3707 101.236 91.6297 101.526 90.7495C101.635 90.422 101.693 90.0243 101.477 89.7249Z" fill="#A63363"/>
<path d="M72.3713 114.338C71.9936 114.166 71.5916 114.049 71.2453 113.813C70.9337 113.584 70.6587 113.293 70.4908 113.017C70.3764 112.802 70.3838 112.857 70.3471 112.688C70.3282 112.337 70.3691 111.976 70.2411 111.638C70.1844 111.468 70.0574 111.326 69.8843 111.27C69.8423 111.257 69.7395 111.223 69.7122 111.216C69.3302 111.028 69.4037 111.06 69.2463 110.922C69.2242 110.901 69.1927 110.866 69.1738 110.844C69.1571 110.821 69.1424 110.796 69.1287 110.771C69.1266 110.765 69.1256 110.758 69.1245 110.752C69.1235 110.728 69.1224 110.691 69.1245 110.66C69.1308 110.63 69.156 110.5 69.1738 110.456C69.1801 110.427 69.2022 110.37 69.2158 110.334C69.3312 110.09 69.4037 109.979 69.5117 109.888C69.6639 109.876 69.8108 109.814 69.9546 109.764C70.0585 109.739 70.1739 109.699 70.2012 109.582C70.2568 109.35 69.9693 109.047 69.7374 109.181C69.5474 109.282 69.3407 109.356 69.1675 109.485C68.8212 109.407 68.5379 109.235 68.3312 108.919C68.2231 108.75 68.1234 108.563 68.1024 108.362C68.1161 108.257 68.1633 108.16 68.2011 108.062C68.1433 108.156 68.0772 108.248 68.0447 108.354C68.0258 108.545 68.0825 108.738 68.1496 108.914C68.2829 109.28 68.5683 109.573 68.9146 109.741C68.7153 109.987 68.6219 110.228 68.5547 110.443C68.3144 111.16 69.049 111.7 69.6702 111.856C69.6723 111.859 69.6734 111.863 69.6755 111.867C69.6807 111.881 69.687 111.899 69.6922 111.919C69.8224 112.257 69.7153 112.475 69.8706 112.931C70.1204 113.457 70.6063 113.849 71.1173 114.107C71.5129 114.289 71.9495 114.339 72.3693 114.437C72.5204 114.466 72.6715 114.497 72.8226 114.525C72.6725 114.461 72.5225 114.399 72.3713 114.338Z" fill="#A63363"/>
<path d="M42.6825 13.8653C42.6805 13.8653 42.6795 13.8653 42.6775 13.8643C42.6785 13.8643 42.6785 13.8643 42.6795 13.8643C42.6795 13.8653 42.6805 13.8653 42.6825 13.8653Z" fill="#DBDE6D"/>
<path d="M43.5599 13.7761C43.222 13.818 43.0079 13.8965 42.6826 13.8651C42.7162 13.8692 42.7319 13.8755 42.6784 13.8651C42.6721 13.864 42.6658 13.864 42.6584 13.864C42.6647 13.864 42.671 13.8651 42.6763 13.8651C42.6742 13.8651 42.6731 13.864 42.671 13.864C42.3909 13.7866 42.3258 13.7667 42.2261 13.6767C42.2586 13.5647 42.3111 13.46 42.3478 13.3501C42.4255 13.0937 42.9869 12.1675 42.7361 11.5678C42.6249 11.2654 42.4045 10.9744 42.0802 10.8886C41.5576 10.7986 41.0309 10.9901 40.5062 10.9231C40.4463 10.9179 40.4086 10.9116 40.3739 10.8991C40.3697 10.8844 40.3655 10.8677 40.3624 10.8509C40.3603 10.8206 40.3529 10.7295 40.355 10.6699C40.4516 10.3559 40.5083 10.2041 40.5198 9.99901C40.5576 9.79284 40.5303 9.53643 40.46 9.41712C40.2323 8.98279 39.7191 8.64998 39.2207 8.68975C39.0643 8.7494 38.9583 8.90011 38.8271 9.00163C38.9331 8.94093 39.0391 8.88337 39.1451 8.82266C39.1944 8.78917 39.2521 8.78603 39.3078 8.80173C39.6971 8.90744 40.0287 9.2392 40.12 9.55422C40.1242 9.56678 40.1284 9.59608 40.1252 9.57096C40.1221 9.54689 40.1252 9.57096 40.1284 9.5898C40.1284 9.59504 40.1294 9.60864 40.1305 9.62015C40.1336 9.64422 40.1294 9.68609 40.1273 9.71016C40.1252 9.76981 40.0392 10.0273 40.0171 10.0953C39.9426 10.2533 39.8409 10.3988 39.7926 10.5683C39.7181 10.8792 39.7181 11.2842 40.0224 11.4715C40.3834 11.6746 40.8252 11.6955 41.2313 11.6777C41.4391 11.683 41.6468 11.6673 41.8536 11.6767C41.8672 11.6903 41.8819 11.7018 41.8945 11.7164C41.9123 11.7447 41.9459 11.796 41.969 11.841C41.9795 11.8734 41.9889 11.908 41.9942 11.932C42.0015 12.2334 41.7476 12.8499 41.6227 13.3711C41.5366 13.6474 41.5608 13.9729 41.8294 14.1372C42.1117 14.3182 42.4717 14.3821 42.8022 14.336C43.2167 14.2596 43.5745 14.0765 43.945 13.9205C44.2105 13.7928 44.4718 13.6547 44.731 13.5155C44.3574 13.6055 43.902 13.7248 43.5599 13.7761Z" fill="#DBDE6D"/>
<path d="M18.6058 41.6064C18.5471 41.5122 18.4914 41.4117 18.4285 41.3186C18.2501 41.0737 17.9227 41.0067 17.6414 40.9554C16.9803 40.857 16.4252 40.8225 15.6717 40.8675C15.6675 40.8591 15.6633 40.8518 15.6591 40.8445C15.6528 40.8267 15.6476 40.8089 15.6424 40.79C15.6424 40.7848 15.6413 40.7796 15.6424 40.7743C15.7001 40.5598 15.7662 40.3473 15.7725 40.1223C15.9215 39.285 15.2751 38.836 14.5667 38.5922C13.6538 38.3483 12.7009 38.544 11.7732 38.5524C11.7187 38.5524 11.6652 38.5503 11.6106 38.544C12.0524 38.7105 12.5236 38.7701 12.9863 38.8517C13.4281 38.9533 13.8846 39.014 14.3065 39.1825C14.5531 39.3049 14.9623 39.5749 15.0043 39.7612C15.0043 39.7686 15.0054 39.7748 15.0064 39.7822C15.0138 39.8575 14.9812 40.1799 14.9781 40.2427C14.9435 40.4206 14.8836 40.5954 14.8868 40.7785C14.8962 40.9481 14.956 41.1145 15.0547 41.2526C15.3002 41.6284 15.6675 41.5896 16.0506 41.4797C16.0632 41.4776 16.0757 41.4756 16.0894 41.4735C16.1009 41.4714 16.1125 41.4703 16.1251 41.4682C15.9267 41.4986 16.3843 41.4316 16.4714 41.4159C16.8565 41.3479 17.0895 41.3364 17.5816 41.2872C17.8093 41.2715 18.0276 41.2631 18.2364 41.3395C18.3382 41.3866 18.4127 41.4735 18.4946 41.5488C18.5124 41.5593 18.5397 41.5928 18.5576 41.6064C18.5324 41.6221 18.5061 41.6378 18.4799 41.6524C18.525 41.6367 18.5911 41.6388 18.6058 41.6064Z" fill="#DBDE6D"/>
<path d="M66.2509 10.224C66.7241 9.976 67.1659 9.67354 67.4199 9.19316C67.9194 8.24602 67.6518 7.56784 66.7619 7.02467C66.3673 6.79861 65.9046 6.76303 65.4628 6.69709C65.4964 6.70128 65.5299 6.70651 65.5635 6.7107C65.4554 6.69291 65.3473 6.6793 65.2393 6.66779C65.2875 6.61127 65.3589 6.5286 65.4733 6.37684C65.637 6.1309 65.6485 6.08171 65.808 5.7489C65.9025 5.5354 65.977 5.28736 65.8962 5.05816C65.7786 4.77245 65.5194 4.49302 65.2004 4.4522C64.8762 4.42185 63.9433 4.85304 64.4407 5.21829C64.341 5.09479 64.2843 4.97025 64.447 4.86455C64.6631 4.72535 64.9717 4.6364 65.1931 4.6971C65.3022 4.74838 65.4218 4.8792 65.5006 5.04456C65.6664 5.26748 65.2424 5.74158 65.1689 5.87344C64.9801 6.13927 64.532 6.39987 64.4375 6.8185C64.3756 6.94722 64.3997 7.11049 64.5036 7.21096C64.6621 7.35434 64.9024 7.32713 65.0986 7.3826C65.4554 7.46528 65.8175 7.5333 66.1669 7.64424C66.2876 7.65994 66.7514 8.01577 66.8018 8.14869C66.8133 8.16753 66.8217 8.18741 66.8322 8.2073C66.8354 8.21671 66.8385 8.22718 66.8406 8.23765C66.8427 8.26067 66.8448 8.28474 66.8448 8.30777C66.806 8.59348 66.7483 8.87501 66.3285 9.21724C66.0074 9.45376 65.6485 9.63272 65.3064 9.8389C65.0073 10.0105 64.6873 10.1414 64.3746 10.2858C64.3557 10.2868 64.3368 10.2889 64.3179 10.29C64.1007 10.2879 63.9464 10.5077 64.0073 10.7117C64.0849 10.9661 64.3378 11.0404 64.5666 10.9231C64.6652 10.8897 64.7639 10.8572 64.8625 10.8248C65.6181 10.6615 66.3317 10.5129 67.1124 10.4972C67.3716 10.4867 67.6308 10.4658 67.89 10.4867C67.3538 10.3475 66.8028 10.2628 66.2509 10.224Z" fill="#DBDE6D"/>
<path d="M107.198 81.0061C106.495 80.9579 105.662 80.9381 105.211 80.8543C105.18 80.8481 105.126 80.8303 105.096 80.8188C105.092 80.8167 105.088 80.8156 105.084 80.8135C105.063 80.802 105.041 80.7895 105.025 80.7779C104.865 80.6325 104.941 80.7047 104.839 80.5571C104.693 80.3907 104.745 79.7931 104.728 79.1641C104.665 78.4138 104.447 77.8413 103.569 78.1103C103.368 78.2076 102.998 78.3269 102.905 78.3395C102.878 78.3426 102.848 78.3416 102.831 78.3405C102.81 78.3353 102.789 78.329 102.768 78.3217C102.749 78.3122 102.72 78.2976 102.7 78.285C102.605 78.2275 102.485 78.1343 102.461 78.1124C102.322 77.9773 102.221 77.8015 102.043 77.7094C101.855 77.6069 101.624 77.4572 101.406 77.5462C101.278 77.6508 101.213 77.8141 101.126 77.9512C101.235 77.8518 101.33 77.7199 101.462 77.6529C101.654 77.6718 101.786 77.8277 101.919 77.9512C102.019 78.0496 102.084 78.2568 102.201 78.3981C102.205 78.4043 102.238 78.4462 102.247 78.4546C102.389 78.6524 102.688 78.8376 102.737 78.8324C102.968 78.8994 103.207 78.8397 103.439 78.8083C103.413 78.8115 103.385 78.8156 103.359 78.8188C103.745 78.7623 103.777 78.7005 103.9 78.7256C103.958 79.0302 103.939 78.7853 103.97 79.3442C103.98 79.7575 103.988 80.1877 104.111 80.5854C104.238 80.9067 104.493 81.1934 104.82 81.3201C105.039 81.3985 105.279 81.3881 105.506 81.3577C105.748 81.3263 105.906 81.3148 106.245 81.2499C106.601 81.1714 106.959 81.1003 107.313 81.0124C107.273 81.0103 107.236 81.0082 107.198 81.0061Z" fill="#DBDE6D"/>
<path d="M115.964 59.9941C115.582 59.9658 115.198 59.9711 114.818 59.9323C114.498 59.8853 114.011 59.7795 113.873 59.6676C113.866 59.6571 113.835 59.609 113.812 59.565C113.801 59.5305 113.731 59.3327 113.725 59.2751C113.724 59.2709 113.724 59.2667 113.722 59.2625C113.697 58.9172 113.719 58.5645 113.637 58.2264C113.523 57.8538 113.151 57.6676 112.797 57.8601C112.569 57.9909 112.418 58.2212 112.216 58.3845C111.957 58.6451 111.815 58.6336 111.741 58.6377C111.645 58.6084 111.658 58.6137 111.484 58.5027C111.404 58.4274 111.344 58.3342 111.248 58.2767C110.772 58.0485 110.36 58.2955 110.1 58.7079C110.008 58.8805 109.952 59.071 109.872 59.2489C109.998 59.0899 110.081 58.958 110.202 58.8094C110.333 58.6869 110.529 58.5498 110.658 58.5247C110.752 58.5017 110.984 58.5509 111.021 58.6179C111.056 58.7455 111.369 59.1076 111.625 59.1746C111.802 59.2311 111.994 59.2081 112.173 59.1652C112.482 59.0553 112.759 58.8282 112.938 58.6785C112.94 58.7026 112.944 58.733 112.948 58.7727C112.981 59.0292 112.977 59.2992 113.074 59.542C113.183 59.8444 113.364 60.1511 113.688 60.2547C114.289 60.442 114.946 60.3416 115.547 60.1971C115.808 60.1406 116.067 60.0799 116.325 60.0129C116.204 60.0066 116.084 60.0014 115.964 59.9941Z" fill="#DBDE6D"/>
<path d="M15.9508 68.7795C15.318 69.0296 14.7692 69.4503 14.2298 69.8553C14.171 69.9014 14.1123 69.9464 14.0535 69.9924C14.0409 69.9778 14.0294 69.961 14.0157 69.9464C13.8436 69.7936 13.6086 69.7329 13.384 69.7088C12.6536 69.6272 12.0702 70.1724 11.6074 70.6706C11.2737 70.6842 10.9389 70.634 10.6052 70.6455C10.3702 70.6622 10.1487 70.7481 9.93781 70.8496C9.3575 71.152 8.81602 71.5801 8.57781 72.1861C8.5075 72.3933 8.48862 72.6162 8.46973 72.8328C8.5117 72.7041 8.56522 72.5796 8.62189 72.4571C8.95664 71.7821 9.80349 71.4367 10.4604 71.3111C10.4646 71.3111 10.4667 71.3101 10.4709 71.3101C10.7196 71.2965 10.6871 71.332 11.0449 71.3812C11.196 71.3854 11.4395 71.4859 11.8183 71.4315C12.1352 71.3729 12.3199 71.0788 12.556 70.8873C12.7491 70.7271 12.9737 70.5419 13.257 70.4885C13.3221 70.4854 13.4144 70.4916 13.4501 70.4937C13.4784 70.5 13.5089 70.5084 13.534 70.5168C13.6642 70.6539 13.809 70.7857 14.0105 70.7857C14.1752 70.7899 14.3127 70.6915 14.4061 70.5639C14.446 70.5251 14.6411 70.3095 14.6894 70.2624C15.0913 69.8396 15.4995 69.3938 15.9455 69.0296C16.1722 68.8506 16.4629 68.7952 16.7284 68.6968C16.4713 68.7135 16.2016 68.6999 15.9508 68.7795Z" fill="#DBDE6D"/>
<path d="M23.5417 94.2788C23.3277 94.1909 23.27 94.1721 23.1713 94.0831C23.2742 93.7105 23.7243 93.3641 24.2029 93.2867C23.8261 93.2312 23.4379 93.3139 23.1293 93.5431C22.9436 93.6885 22.7463 93.879 22.7222 94.126C22.7211 94.4327 23.0401 94.6263 23.2763 94.7749C23.2815 94.7843 23.2867 94.7927 23.2909 94.8021C23.3508 95.0282 23.3371 94.9047 23.334 95.1653C23.3245 95.2145 23.3119 95.2636 23.2951 95.3107C23.2909 95.3233 23.2857 95.3359 23.2804 95.3484C23.1493 95.6048 23.0108 95.8571 22.8859 96.1166C22.7232 96.4505 22.5186 96.7812 22.4609 97.1527C22.3612 97.8225 22.591 98.4902 22.8061 99.1161C22.8187 99.1475 22.8313 99.1789 22.8439 99.2103C22.8366 99.1025 22.8324 98.9947 22.8324 98.8869C22.8271 98.1731 22.8198 97.4677 23.059 97.0763C23.2941 96.6985 23.5417 96.3301 23.7485 95.9366C23.9185 95.6352 24.0413 95.2909 23.9667 94.9423C23.9206 94.6838 23.8009 94.3908 23.5417 94.2788Z" fill="#DBDE6D"/>
<path d="M35.7111 103.08C33.3972 98.7836 31.2795 94.6214 29.1871 90.5722C27.0946 86.523 25.3401 81.8543 23.9328 77.3833C21.1184 68.4414 20.1435 58.8433 24.0619 50.3252C26.3989 45.2452 30.6898 41.2504 35.0919 37.7915C38.2695 35.2954 40.5099 33.7601 43.87 32.4969C47.2301 31.2337 50.8389 30.3106 54.2736 31.353C54.4992 30.8192 54.8308 30.3838 55.0564 29.8511C51.902 29.5246 48.4369 29.2159 44.9551 30.3828C41.7429 31.4597 38.6672 33.1007 35.8779 35.0191C33.4066 36.7177 31.2176 38.5199 29.0454 40.5795C28.3213 41.2661 27.7316 42.0709 26.7158 43.1677C23.3693 46.7805 21.322 52.0636 20.4541 57.3927C19.7343 61.8114 20.0764 66.7261 20.8204 71.196C22.4595 81.0568 27.0936 90.1086 31.6216 99.0254C32.1232 100.012 33.8127 102.524 33.8127 102.524C33.8127 102.524 34.9324 103.138 35.7111 103.08Z" fill="black"/>
<path d="M66.5011 90.1011C65.4223 89.4543 64.841 88.4548 64.3215 87.3109C63.3865 85.2555 63.3278 83.1267 63.9301 80.9509C64.5324 78.7751 65.7707 76.5532 67.4361 75.0242C67.6827 74.7981 68.0101 74.5647 68.326 74.6788C68.6114 74.7814 68.7331 75.1404 68.6723 75.4376C68.6114 75.7348 68.4162 75.9839 68.2315 76.2236C66.9282 77.9106 65.7298 79.6741 65.2828 81.7568C64.8357 83.8394 65.1715 86.4318 66.5588 88.0519C66.8936 88.4423 67.3511 88.6589 67.4613 89.1613C67.5694 89.6626 66.9082 90.3449 66.5011 90.1011Z" fill="black"/>
</svg>
