<?xml version="1.0" encoding="utf-8"?><svg width="294" height="297" fill="none" xmlns="http://www.w3.org/2000/svg" viewBox="0 0 294 297"><path d="M239.021 95.452l-23.373 32.896 38.686 14.64-35.452 18.452 29.535 30.176-40.511.353 14.535 39.734-37.545-17.814-3.345 41.422-27.143-32.454-20.561 34.906-11.366-40.666-33.706 21.477 6.664-40.824-40.175 3.794 23.373-32.895-38.686-14.641 35.453-18.452-29.535-30.175 40.51-.354-14.535-39.734 37.545 17.815 3.345-41.423 27.143 32.455 20.562-34.907L171.804 79.9l33.706-21.478-6.664 40.824 40.175-3.794z" fill="#fff"/></svg>