<?xml version="1.0" encoding="utf-8"?><svg width="35" height="35" fill="none" xmlns="http://www.w3.org/2000/svg" viewBox="0 0 35 35"><path d="M25.296 0H9.641C4.325 0 0 4.325 0 9.642v15.654c0 5.317 4.325 9.642 9.641 9.642h15.655c5.317 0 9.642-4.325 9.642-9.642V9.642C34.938 4.325 30.613 0 25.296 0zm6.542 25.296a6.55 6.55 0 01-6.542 6.542H9.641A6.549 6.549 0 013.1 25.296V9.642A6.55 6.55 0 019.64 3.1h15.655a6.55 6.55 0 016.542 6.542v15.654z" fill="#29A4DD"/><path d="M17.47 8.467c-4.965 0-9.003 4.038-9.003 9.002s4.038 9.003 9.002 9.003c4.965 0 9.003-4.039 9.003-9.003s-4.038-9.002-9.003-9.002zm0 14.905a5.91 5.91 0 01-5.903-5.903 5.91 5.91 0 015.902-5.903 5.91 5.91 0 015.903 5.903 5.91 5.91 0 01-5.903 5.903zM26.85 5.838c-.598 0-1.184.242-1.606.666a2.284 2.284 0 00-.668 1.607c0 .598.244 1.185.668 1.608a2.29 2.29 0 001.605.666c.6 0 1.185-.244 1.608-.666a2.29 2.29 0 00.666-1.608c0-.599-.242-1.186-.666-1.607a2.283 2.283 0 00-1.608-.666z" fill="#29A4DD"/></svg>