<?xml version="1.0" encoding="utf-8"?><svg width="34" height="34" fill="none" xmlns="http://www.w3.org/2000/svg" viewBox="0 0 34 34"><path fill-rule="evenodd" clip-rule="evenodd" d="M34 17c0 9.389-7.611 17-17 17S0 26.389 0 17 7.611 0 17 0a2.429 2.429 0 100 4.857A2.429 2.429 0 0017 0c9.389 0 17 7.611 17 17zm-4.857 0c0 6.706-5.437 12.143-12.143 12.143S4.857 23.706 4.857 17c0-6.503 5.112-11.812 11.536-12.128v6.664H17a5.464 5.464 0 100 10.928 5.464 5.464 0 000-10.928h.607V4.872c6.424.316 11.536 5.625 11.536 12.128z" fill="#29A4DD"/></svg>