<?xml version="1.0" encoding="utf-8"?><svg width="30" height="30" fill="none" xmlns="http://www.w3.org/2000/svg" viewBox="0 0 30 30"><path d="M9.333 1H6.667c-.708 0-1.386.295-1.886.82A2.873 2.873 0 004 3.8v22.4c0 .743.28 1.455.781 1.98.5.525 1.178.82 1.886.82h2.666c.708 0 1.386-.295 1.886-.82.5-.525.781-1.237.781-1.98V3.8c0-.743-.281-1.455-.781-1.98A2.604 2.604 0 009.333 1zM23.333 1h-2.666c-.708 0-1.386.295-1.886.82A2.873 2.873 0 0018 3.8v22.4c0 .743.281 1.455.781 1.98.5.525 1.178.82 1.886.82h2.666c.708 0 1.386-.295 1.886-.82.5-.525.781-1.237.781-1.98V3.8c0-.743-.281-1.455-.781-1.98A2.604 2.604 0 0023.333 1z" fill="#fff"/></svg>