<?xml version="1.0" encoding="utf-8"?><svg width="36" height="36" fill="none" xmlns="http://www.w3.org/2000/svg" viewBox="0 0 36 36"><path d="M22.727 1.133a1.21 1.21 0 00-1.303.127L11.292 9.483h-9.99c-.345 0-.676.149-.92.415A1.484 1.484 0 000 10.9v14.177c0 .375.137.736.381 1.002.245.266.576.415.921.415h9.99l10.067 8.223a1.212 1.212 0 001.364.134 1.35 1.35 0 00.526-.523c.127-.224.194-.482.194-.746V2.394c0-.261-.068-.518-.194-.74a1.35 1.35 0 00-.522-.521zM28.346 14.339a1.5 1.5 0 00-2.692 1.322l2.692-1.322zm-2.715 7.047a1.5 1.5 0 002.738 1.228l-2.738-1.228zM27 15l-1.346.661-.001-.001v.001l.006.011.025.053.099.219c.083.19.195.459.306.766.238.66.411 1.33.411 1.79h3c0-1.005-.327-2.084-.59-2.809a15.51 15.51 0 00-.558-1.34l-.003-.008-.002-.002v-.002L27 15zm-.5 3.5c0 .354-.166 1.014-.416 1.732a17.106 17.106 0 01-.452 1.153l-.001.002L27 22l1.369.613v-.001l.002-.002.003-.008.01-.023a11.916 11.916 0 00.16-.379c.101-.247.236-.59.372-.98.25-.715.584-1.805.584-2.72h-3zM32.364 10.375a1.5 1.5 0 00-2.727 1.25l2.727-1.25zM29.616 25.42a1.5 1.5 0 002.768 1.158l-2.768-1.158zM31 11l-1.364.625.004.007.013.03.058.131a29.903 29.903 0 01.868 2.26c.489 1.45.921 3.133.921 4.447h3c0-1.824-.568-3.89-1.079-5.406a33.004 33.004 0 00-1.03-2.657l-.02-.044-.005-.012-.002-.004a.02.02 0 000-.002L31 11zm.5 7.5c0 1.098-.426 2.77-.926 4.305a40.146 40.146 0 01-.94 2.57c-.006.017-.01.03-.014.037a.254.254 0 00-.003.008v.001L31 26l1.384.579v-.002l.002-.004.005-.012.019-.046.068-.166a43.16 43.16 0 00.949-2.614c.5-1.536 1.073-3.613 1.073-5.235h-3z" fill="#fff"/></svg>