<?xml version="1.0" encoding="utf-8"?><svg width="36" height="36" fill="none" xmlns="http://www.w3.org/2000/svg" viewBox="0 0 36 36"><path d="M22.727 1.133a1.21 1.21 0 00-1.303.127L11.292 9.483h-9.99c-.345 0-.676.149-.92.415A1.484 1.484 0 000 10.9v14.177c0 .375.137.736.381 1.002.245.266.576.415.921.415h9.99l10.067 8.223a1.212 1.212 0 001.364.134 1.35 1.35 0 00.526-.523c.127-.224.194-.482.194-.746V2.394c0-.261-.068-.518-.194-.74a1.35 1.35 0 00-.522-.521zM31.833 17.932l2.866-2.866a1.252 1.252 0 00-1.765-1.765l-2.866 2.866-2.866-2.866a1.252 1.252 0 00-1.765 1.765l2.867 2.866-2.866 2.866a1.253 1.253 0 00.862 2.201 1.252 1.252 0 00.902-.436l2.866-2.867 2.866 2.866a1.251 1.251 0 001.765-1.764l-2.866-2.866z" fill="#fff"/></svg>