<?xml version="1.0" encoding="utf-8"?><svg width="34" height="32" fill="none" xmlns="http://www.w3.org/2000/svg" viewBox="0 0 34 32"><path d="M22.727.122a1.303 1.303 0 00-1.303.117L11.292 7.793h-9.99A1.302 1.302 0 000 9.095V22.12a1.302 1.302 0 001.302 1.303h9.99l10.067 7.554a1.302 1.302 0 002.084-1.042V1.28a1.302 1.302 0 00-.716-1.16zM28.898 11.56a1 1 0 10-1.796.88l1.796-.88zm-1.81 7.03a1 1 0 001.825.82l-1.826-.82zM28 12l-.898.44.001.003.007.013a6.356 6.356 0 01.13.287c.088.198.204.477.32.798.242.67.44 1.409.44 1.959h2c0-.914-.302-1.925-.56-2.639a15.028 15.028 0 00-.538-1.292c0-.003-.002-.005-.003-.006v-.003h-.001L28 12zm0 3.5c0 .448-.194 1.18-.444 1.896a17.5 17.5 0 01-.431 1.11l-.03.066a3.319 3.319 0 00-.008.019L28 19l.913.409v-.001-.002l.004-.006.01-.023a17.429 17.429 0 00.517-1.322c.25-.715.556-1.734.556-2.555h-2zM31.909 7.583a1 1 0 00-1.818.834l1.818-.834zm-1.831 15.031a1 1 0 101.845.772l-1.845-.772zM31 8l-.91.417.002.001.003.007a5.385 5.385 0 01.074.168c.052.12.128.295.218.516.181.444.424 1.067.665 1.784.493 1.46.948 3.208.948 4.607h2c0-1.739-.545-3.742-1.052-5.246a32.423 32.423 0 00-1.013-2.613l-.018-.041-.006-.012a.136.136 0 00-.001-.003v-.001L31 8zm1 7.5c0 1.185-.45 2.925-.95 4.46a40.753 40.753 0 01-.953 2.606l-.015.037-.004.009v.002L31 23l.923.386v-.002l.002-.003c0-.003.002-.007.005-.012l.018-.043a24.6 24.6 0 00.299-.758c.191-.502.447-1.201.704-1.988.5-1.536 1.049-3.546 1.049-5.08h-2z" fill="#fff"/></svg>