<?xml version="1.0" encoding="utf-8"?><svg width="37" height="32" fill="none" xmlns="http://www.w3.org/2000/svg" viewBox="0 0 37 32"><path d="M22.727.122a1.303 1.303 0 00-1.303.117L11.292 7.793h-9.99A1.302 1.302 0 000 9.095V22.12a1.302 1.302 0 001.302 1.303h9.99l10.067 7.554a1.302 1.302 0 002.084-1.042V1.28a1.302 1.302 0 00-.716-1.16zM33.094 15.608l2.982-2.983a1.302 1.302 0 00-1.836-1.836l-2.983 2.982-2.982-2.982a1.302 1.302 0 00-1.836 1.836l2.982 2.983-2.982 2.982a1.303 1.303 0 101.836 1.837l2.982-2.983 2.983 2.983a1.303 1.303 0 001.836-1.837l-2.982-2.982z" fill="#fff"/></svg>