<svg width="294" height="297" viewBox="0 0 294 297" fill="none" xmlns="http://www.w3.org/2000/svg">
<path d="M239.021 95.4522L215.648 128.348L254.334 142.988L218.882 161.44L248.417 191.616L207.906 191.969L222.441 231.703L184.896 213.889L181.551 255.311L154.408 222.857L133.847 257.763L122.481 217.097L88.7753 238.574L95.4389 197.75L55.2644 201.544L78.6372 168.649L39.9511 154.008L75.4038 135.556L45.8685 105.381L86.3791 105.027L71.8444 65.2931L109.389 83.1077L112.734 41.6854L139.877 74.1398L160.439 39.2333L171.804 79.8995L205.51 58.4225L198.846 99.246L239.021 95.4522Z" fill="white"/>
</svg>
