<svg width="35" height="35" viewBox="0 0 35 35" fill="none" id="insta-svg" xmlns="http://www.w3.org/2000/svg">
<path d="M25.2962 0H9.64142C4.32514 0 0 4.32535 0 9.64163V25.2964C0 30.6129 4.32514 34.938 9.64142 34.938H25.2962C30.6129 34.938 34.938 30.6127 34.938 25.2964V9.64163C34.9382 4.32535 30.6129 0 25.2962 0ZM31.8383 25.2964C31.8383 28.9036 28.9036 31.8381 25.2964 31.8381H9.64142C6.03441 31.8383 3.09987 28.9036 3.09987 25.2964V9.64163C3.09987 6.03462 6.03441 3.09987 9.64142 3.09987H25.2962C28.9034 3.09987 31.8381 6.03462 31.8381 9.64163V25.2964H31.8383Z" fill="#29A4DD"/>
<path d="M17.4694 8.4668C12.5053 8.4668 8.4668 12.5053 8.4668 17.4694C8.4668 22.4334 12.5053 26.4717 17.4694 26.4717C22.4336 26.4717 26.4721 22.4334 26.4721 17.4694C26.4721 12.5053 22.4336 8.4668 17.4694 8.4668ZM17.4694 23.3716C14.2148 23.3716 11.5667 20.7239 11.5667 17.4692C11.5667 14.2144 14.2146 11.5665 17.4694 11.5665C20.7243 11.5665 23.3722 14.2144 23.3722 17.4692C23.3722 20.7239 20.7241 23.3716 17.4694 23.3716Z" fill="#29A4DD"/>
<path d="M26.8494 5.83813C26.2522 5.83813 25.6655 6.07992 25.2437 6.50357C24.8198 6.92516 24.5762 7.51206 24.5762 8.11137C24.5762 8.70882 24.82 9.29552 25.2437 9.71917C25.6653 10.1408 26.2522 10.3846 26.8494 10.3846C27.4487 10.3846 28.0336 10.1408 28.4572 9.71917C28.8809 9.29552 29.1226 8.70861 29.1226 8.11137C29.1226 7.51206 28.8809 6.92516 28.4572 6.50357C28.0356 6.07992 27.4487 5.83813 26.8494 5.83813Z" fill="#29A4DD"/>
</svg>
