<svg width="30" height="30" viewBox="0 0 30 30" fill="none" xmlns="http://www.w3.org/2000/svg">
<path d="M9.33333 1H6.66667C5.95942 1 5.28115 1.295 4.78105 1.8201C4.28095 2.3452 4 3.05739 4 3.8V26.2C4 26.9426 4.28095 27.6548 4.78105 28.1799C5.28115 28.705 5.95942 29 6.66667 29H9.33333C10.0406 29 10.7189 28.705 11.219 28.1799C11.719 27.6548 12 26.9426 12 26.2V3.8C12 3.05739 11.719 2.3452 11.219 1.8201C10.7189 1.295 10.0406 1 9.33333 1V1Z" fill="white"/>
<path d="M23.3333 1H20.6667C19.9594 1 19.2811 1.295 18.781 1.8201C18.281 2.3452 18 3.05739 18 3.8V26.2C18 26.9426 18.281 27.6548 18.781 28.1799C19.2811 28.705 19.9594 29 20.6667 29H23.3333C24.0406 29 24.7189 28.705 25.219 28.1799C25.719 27.6548 26 26.9426 26 26.2V3.8C26 3.05739 25.719 2.3452 25.219 1.8201C24.7189 1.295 24.0406 1 23.3333 1V1Z" fill="white"/>
</svg>
