<svg width="121" height="121" viewBox="0 0 121 121" fill="none" xmlns="http://www.w3.org/2000/svg">
<g filter="url(#filter0_b)">
<path d="M60.3814 0L71.0475 24.0558L93.026 9.58533L88.9934 35.5889L115.306 35.298L97.8551 54.9934L120.148 68.9745L94.8192 76.1086L106.015 99.9227L80.8495 92.2305L77.3927 118.317L60.3814 98.2405L43.37 118.317L39.9132 92.2305L14.7482 99.9227L25.9435 76.1086L0.614594 68.9745L22.9076 54.9934L5.45654 35.298L31.7694 35.5889L27.7367 9.58533L49.7152 24.0558L60.3814 0Z" fill="#29A4DD"/>
</g>
<path d="M48.1527 49.7556L47.6145 51.2692C48.8168 51.6967 49.6695 52.3796 50.1727 53.3179C50.6743 54.2605 50.7236 55.2985 50.3205 56.4321C49.9159 57.57 49.2202 58.3432 48.2334 58.7517C47.2407 59.163 46.1496 59.1571 44.9602 58.7342L44.4243 60.2414L42.4405 59.536L42.9764 58.0289C41.7784 57.6029 40.9286 56.9186 40.427 55.9761C39.9195 55.0363 39.8681 53.9974 40.2727 52.8595C40.6773 51.7216 41.373 50.9484 42.3599 50.5399C43.3424 50.1299 44.4327 50.1379 45.6307 50.5639L46.1689 49.0502L48.1527 49.7556ZM43.5375 56.4508L45.0719 52.1354C44.4021 51.8973 43.7965 51.9069 43.2551 52.1642C42.7138 52.4215 42.3294 52.8701 42.1019 53.5099C41.8714 54.1583 41.8863 54.7489 42.1467 55.2816C42.4041 55.8229 42.8677 56.2127 43.5375 56.4508ZM47.0557 52.8408L45.5213 57.1562C46.1912 57.3944 46.7968 57.3848 47.3381 57.1275C47.8764 56.8787 48.2608 56.4301 48.4913 55.7817C48.7188 55.1419 48.7039 54.5514 48.4465 54.0101C48.1849 53.4672 47.7213 53.0775 47.0557 52.8408ZM57.6507 64.2404L55.6153 63.5168L55.6809 61.7408L51.8872 60.3919L50.8233 61.8129L48.7944 61.0915L54.9833 52.8881L58.0234 53.969L57.6507 64.2404ZM55.9309 55.0388L52.9442 58.9902L55.746 59.9864L55.9309 55.0388ZM66.957 57.1455L68.9601 57.8577L64.22 61.3743L65.676 67.094L63.6729 66.3817L62.3445 61.2008L60.8582 65.3809L58.8809 64.6779L62.1649 55.4416L64.1423 56.1447L62.6537 60.3313L66.957 57.1455ZM69.9391 58.2058L76.6828 60.6036L76.1217 62.1816L73.7385 61.3342L71.0156 68.9925L69.0382 68.2894L71.7612 60.6312L69.378 59.7838L69.9391 58.2058ZM77.718 67.9149L76.1206 67.3469L78.1835 61.1372L80.0385 61.7967L77.718 67.9149ZM76.5891 68.58C76.894 68.6884 77.1127 68.8895 77.2452 69.1833C77.3805 69.4829 77.3955 69.7809 77.2901 70.0772C77.1833 70.3777 76.9843 70.5972 76.6933 70.7356C76.3937 70.8709 76.0979 70.8866 75.8059 70.7828C75.501 70.6744 75.2794 70.4747 75.141 70.1836C74.9984 69.8911 74.9805 69.5945 75.0874 69.2939C75.1958 68.9891 75.3984 68.7661 75.6952 68.6249C75.9863 68.4866 76.2842 68.4716 76.5891 68.58Z" fill="white"/>
<defs>
<filter id="filter0_b" x="-59.3855" y="-60" width="239.534" height="238.317" filterUnits="userSpaceOnUse" color-interpolation-filters="sRGB">
<feFlood flood-opacity="0" result="BackgroundImageFix"/>
<feGaussianBlur in="BackgroundImage" stdDeviation="30"/>
<feComposite in2="SourceAlpha" operator="in" result="effect1_backgroundBlur"/>
<feBlend mode="normal" in="SourceGraphic" in2="effect1_backgroundBlur" result="shape"/>
</filter>
</defs>
</svg>
