<?xml version="1.0" encoding="utf-8"?><svg viewBox="0 0 294 297" xmlns="http://www.w3.org/2000/svg" xmlns:xlink="http://www.w3.org/1999/xlink"><style>:root>svg{display:none}:root>svg:target{display:block}</style><svg fill="none" viewBox="0 0 40 4" id="border" xmlns="http://www.w3.org/2000/svg"><path fill="#27A3DD" d="M10 4h20V0H10z"/></svg><svg fill="none" viewBox="0 0 4 40" id="border-ver" xmlns="http://www.w3.org/2000/svg"><path fill="#27A3DD" d="M4 30V10H0v20z"/></svg><svg fill="none" viewBox="0 0 13 13" id="close-video" xmlns="http://www.w3.org/2000/svg"><path d="M1 1l11 11M12 1L1 12" stroke="#29A4DD" stroke-width="2" stroke-linecap="round"/></svg><svg fill="none" viewBox="0 0 294 297" id="consist-star" xmlns="http://www.w3.org/2000/svg"><path d="M239.021 95.452l-23.373 32.896 38.686 14.64-35.452 18.452 29.535 30.176-40.511.353 14.535 39.734-37.545-17.814-3.345 41.422-27.143-32.454-20.561 34.906-11.366-40.666-33.706 21.477 6.664-40.824-40.175 3.794 23.373-32.895-38.686-14.641 35.453-18.452-29.535-30.175 40.51-.354-14.535-39.734 37.545 17.815 3.345-41.423 27.143 32.455 20.562-34.907L171.804 79.9l33.706-21.478-6.664 40.824 40.175-3.794z" fill="#fff"/></svg><svg fill="none" viewBox="0 0 42 143" id="ico-!" xmlns="http://www.w3.org/2000/svg"><path fill="#29A4DD" d="M4.123 108.092L18.166 0l22.808 2.964-14.043 108.091z"/><circle cx="13.446" cy="129.471" r="12" transform="rotate(7.402 13.446 129.471)" fill="#29A4DD"/></svg><svg fill="none" viewBox="0 0 35 35" id="insta" xmlns="http://www.w3.org/2000/svg"><path d="M25.296 0H9.641C4.325 0 0 4.325 0 9.642v15.654c0 5.317 4.325 9.642 9.641 9.642h15.655c5.317 0 9.642-4.325 9.642-9.642V9.642C34.938 4.325 30.613 0 25.296 0zm6.542 25.296a6.55 6.55 0 01-6.542 6.542H9.641A6.549 6.549 0 013.1 25.296V9.642A6.55 6.55 0 019.64 3.1h15.655a6.55 6.55 0 016.542 6.542v15.654z" fill="#29A4DD"/><path d="M17.47 8.467c-4.965 0-9.003 4.038-9.003 9.002s4.038 9.003 9.002 9.003c4.965 0 9.003-4.039 9.003-9.003s-4.038-9.002-9.003-9.002zm0 14.905a5.91 5.91 0 01-5.903-5.903 5.91 5.91 0 015.902-5.903 5.91 5.91 0 015.903 5.903 5.91 5.91 0 01-5.903 5.903zM26.85 5.838c-.598 0-1.184.242-1.606.666a2.284 2.284 0 00-.668 1.607c0 .598.244 1.185.668 1.608a2.29 2.29 0 001.605.666c.6 0 1.185-.244 1.608-.666a2.29 2.29 0 00.666-1.608c0-.599-.242-1.186-.666-1.607a2.283 2.283 0 00-1.608-.666z" fill="#29A4DD"/></svg><svg fill="none" viewBox="0 0 6 26" id="player-position" xmlns="http://www.w3.org/2000/svg"><path fill="#fff" d="M.225.73h5.734v25H.225z"/></svg><svg fill="none" viewBox="0 0 31 32" id="screen-size" xmlns="http://www.w3.org/2000/svg"><path d="M3 14.171V3h10.929M28.5 14.171V3H17.571M14.171 28.5H3V17.571M28.5 17.572v11.17H17.571" stroke="#fff" stroke-width="5"/></svg><svg fill="none" viewBox="0 0 121 121" id="start-reviews" xmlns="http://www.w3.org/2000/svg"><g filter="url(#ifilter0_b)"><path d="M60.381 0l10.666 24.056 21.979-14.47-4.033 26.003 26.313-.291-17.45 19.695 22.292 13.982-25.329 7.134 11.196 23.814L80.85 92.23l-3.457 26.086L60.38 98.241 43.37 118.316l-3.457-26.086-25.165 7.692 11.196-23.814-25.33-7.134 22.294-13.982L5.457 35.298l26.312.29-4.032-26.003 21.978 14.47L60.381 0z" fill="#29A4DD"/></g><path d="M48.153 49.756l-.538 1.513c1.202.428 2.054 1.11 2.558 2.049.501.943.55 1.98.148 3.114-.405 1.138-1.1 1.911-2.088 2.32-.992.411-2.083.405-3.273-.018l-.536 1.507-1.983-.705.535-1.507c-1.198-.426-2.047-1.11-2.549-2.053-.508-.94-.559-1.979-.154-3.117.404-1.137 1.1-1.91 2.087-2.32.982-.41 2.073-.401 3.27.025l.539-1.514 1.984.706zm-4.615 6.695l1.534-4.316c-.67-.238-1.276-.228-1.817.03-.541.257-.926.705-1.153 1.345-.23.648-.216 1.239.045 1.772.257.54.72.93 1.39 1.169zm3.518-3.61l-1.535 4.315c.67.238 1.276.229 1.817-.029.538-.248.923-.697 1.153-1.345.228-.64.213-1.23-.044-1.772-.262-.543-.726-.932-1.391-1.17zm10.595 11.4l-2.036-.724.066-1.776-3.794-1.35-1.064 1.422-2.029-.721 6.19-8.204 3.04 1.081-.373 10.271zm-1.72-9.202l-2.987 3.951 2.802.996.185-4.947zm11.026 2.106l2.003.713-4.74 3.516 1.456 5.72-2.003-.712-1.329-5.181-1.486 4.18-1.977-.703 3.284-9.236 1.977.703-1.488 4.186 4.303-3.186zm2.982 1.06l6.744 2.399-.561 1.578-2.383-.848-2.723 7.659-1.978-.704 2.723-7.658-2.383-.847.561-1.578zm7.779 9.71l-1.597-.568 2.063-6.21 1.855.66-2.321 6.118zm-1.129.665c.305.108.524.31.656.603.135.3.15.598.045.894-.107.3-.306.52-.597.659-.3.135-.595.15-.887.047a1.127 1.127 0 01-.665-.6 1.108 1.108 0 01-.054-.89c.109-.304.311-.527.608-.668.291-.138.59-.153.894-.045z" fill="#fff"/><defs><filter id="ifilter0_b" x="-59.386" y="-60" width="239.534" height="238.317" filterUnits="userSpaceOnUse" color-interpolation-filters="sRGB"><feFlood flood-opacity="0" result="BackgroundImageFix"/><feGaussianBlur in="BackgroundImage" stdDeviation="30"/><feComposite in2="SourceAlpha" operator="in" result="effect1_backgroundBlur"/><feBlend in="SourceGraphic" in2="effect1_backgroundBlur" result="shape"/></filter></defs></svg><svg fill="none" viewBox="0 0 37 32" id="volume-off" xmlns="http://www.w3.org/2000/svg"><path d="M22.727.122a1.303 1.303 0 00-1.303.117L11.292 7.793h-9.99A1.302 1.302 0 000 9.095V22.12a1.302 1.302 0 001.302 1.303h9.99l10.067 7.554a1.302 1.302 0 002.084-1.042V1.28a1.302 1.302 0 00-.716-1.16zM33.094 15.608l2.982-2.983a1.302 1.302 0 00-1.836-1.836l-2.983 2.982-2.982-2.982a1.302 1.302 0 00-1.836 1.836l2.982 2.983-2.982 2.982a1.303 1.303 0 101.836 1.837l2.982-2.983 2.983 2.983a1.303 1.303 0 001.836-1.837l-2.982-2.982z" fill="#fff"/></svg><svg fill="none" viewBox="0 0 34 32" id="volume-on" xmlns="http://www.w3.org/2000/svg"><path d="M22.727.122a1.303 1.303 0 00-1.303.117L11.292 7.793h-9.99A1.302 1.302 0 000 9.095V22.12a1.302 1.302 0 001.302 1.303h9.99l10.067 7.554a1.302 1.302 0 002.084-1.042V1.28a1.302 1.302 0 00-.716-1.16zM28.898 11.56a1 1 0 10-1.796.88l1.796-.88zm-1.81 7.03a1 1 0 001.825.82l-1.826-.82zM28 12l-.898.44.001.003.007.013a6.356 6.356 0 01.13.287c.088.198.204.477.32.798.242.67.44 1.409.44 1.959h2c0-.914-.302-1.925-.56-2.639a15.028 15.028 0 00-.538-1.292c0-.003-.002-.005-.003-.006v-.003h-.001L28 12zm0 3.5c0 .448-.194 1.18-.444 1.896a17.5 17.5 0 01-.431 1.11l-.03.066a3.319 3.319 0 00-.008.019L28 19l.913.409v-.001-.002l.004-.006.01-.023a17.429 17.429 0 00.517-1.322c.25-.715.556-1.734.556-2.555h-2zM31.909 7.583a1 1 0 00-1.818.834l1.818-.834zm-1.831 15.031a1 1 0 101.845.772l-1.845-.772zM31 8l-.91.417.002.001.003.007a5.385 5.385 0 01.074.168c.052.12.128.295.218.516.181.444.424 1.067.665 1.784.493 1.46.948 3.208.948 4.607h2c0-1.739-.545-3.742-1.052-5.246a32.423 32.423 0 00-1.013-2.613l-.018-.041-.006-.012a.136.136 0 00-.001-.003v-.001L31 8zm1 7.5c0 1.185-.45 2.925-.95 4.46a40.753 40.753 0 01-.953 2.606l-.015.037-.004.009v.002L31 23l.923.386v-.002l.002-.003c0-.003.002-.007.005-.012l.018-.043a24.6 24.6 0 00.299-.758c.191-.502.447-1.201.704-1.988.5-1.536 1.049-3.546 1.049-5.08h-2z" fill="#fff"/></svg></svg>