<?xml version="1.0" encoding="utf-8"?><svg viewBox="0 0 294 297" xmlns="http://www.w3.org/2000/svg" xmlns:xlink="http://www.w3.org/1999/xlink"><style>:root>svg{display:none}:root>svg:target{display:block}</style><svg fill="none" viewBox="0 0 38 24" id="arrow-right" xmlns="http://www.w3.org/2000/svg"><path d="M37.06 13.06a1.5 1.5 0 000-2.12l-9.545-9.547a1.5 1.5 0 10-2.122 2.122L33.88 12l-8.486 8.485a1.5 1.5 0 102.122 2.122l9.546-9.546zM0 13.5h36v-3H0v3z" fill="#000"/></svg><svg fill="none" viewBox="0 0 40 4" id="border" xmlns="http://www.w3.org/2000/svg"><path fill="#27A3DD" d="M10 4h20V0H10z"/></svg><svg fill="none" viewBox="0 0 4 40" id="border-ver" xmlns="http://www.w3.org/2000/svg"><path fill="#27A3DD" d="M4 30V10H0v20z"/></svg><svg fill="none" viewBox="0 0 13 13" id="close-video" xmlns="http://www.w3.org/2000/svg"><path d="M1 1l11 11M12 1L1 12" stroke="#29A4DD" stroke-width="2" stroke-linecap="round"/></svg><svg fill="none" viewBox="0 0 294 297" id="consist-star" xmlns="http://www.w3.org/2000/svg"><path d="M239.021 95.452l-23.373 32.896 38.686 14.64-35.452 18.452 29.535 30.176-40.511.353 14.535 39.734-37.545-17.814-3.345 41.422-27.143-32.454-20.561 34.906-11.366-40.666-33.706 21.477 6.664-40.824-40.175 3.794 23.373-32.895-38.686-14.641 35.453-18.452-29.535-30.175 40.51-.354-14.535-39.734 37.545 17.815 3.345-41.423 27.143 32.455 20.562-34.907L171.804 79.9l33.706-21.478-6.664 40.824 40.175-3.794z" fill="#fff"/></svg><svg fill="none" viewBox="0 0 42 143" id="ico-!" xmlns="http://www.w3.org/2000/svg"><path fill="#29A4DD" d="M4.123 108.092L18.166 0l22.808 2.964-14.043 108.091z"/><circle cx="13.446" cy="129.471" r="12" transform="rotate(7.402 13.446 129.471)" fill="#29A4DD"/></svg><svg fill="none" viewBox="0 0 35 35" id="insta" xmlns="http://www.w3.org/2000/svg"><path d="M25.296 0H9.641C4.325 0 0 4.325 0 9.642v15.654c0 5.317 4.325 9.642 9.641 9.642h15.655c5.317 0 9.642-4.325 9.642-9.642V9.642C34.938 4.325 30.613 0 25.296 0zm6.542 25.296a6.55 6.55 0 01-6.542 6.542H9.641A6.549 6.549 0 013.1 25.296V9.642A6.55 6.55 0 019.64 3.1h15.655a6.55 6.55 0 016.542 6.542v15.654z" fill="#29A4DD"/><path d="M17.47 8.467c-4.965 0-9.003 4.038-9.003 9.002s4.038 9.003 9.002 9.003c4.965 0 9.003-4.039 9.003-9.003s-4.038-9.002-9.003-9.002zm0 14.905a5.91 5.91 0 01-5.903-5.903 5.91 5.91 0 015.902-5.903 5.91 5.91 0 015.903 5.903 5.91 5.91 0 01-5.903 5.903zM26.85 5.838c-.598 0-1.184.242-1.606.666a2.284 2.284 0 00-.668 1.607c0 .598.244 1.185.668 1.608a2.29 2.29 0 001.605.666c.6 0 1.185-.244 1.608-.666a2.29 2.29 0 00.666-1.608c0-.599-.242-1.186-.666-1.607a2.283 2.283 0 00-1.608-.666z" fill="#29A4DD"/></svg><svg fill="none" viewBox="0 0 30 30" id="pause" xmlns="http://www.w3.org/2000/svg"><path d="M9.333 1H6.667c-.708 0-1.386.295-1.886.82A2.873 2.873 0 004 3.8v22.4c0 .743.28 1.455.781 1.98.5.525 1.178.82 1.886.82h2.666c.708 0 1.386-.295 1.886-.82.5-.525.781-1.237.781-1.98V3.8c0-.743-.281-1.455-.781-1.98A2.604 2.604 0 009.333 1zM23.333 1h-2.666c-.708 0-1.386.295-1.886.82A2.873 2.873 0 0018 3.8v22.4c0 .743.281 1.455.781 1.98.5.525 1.178.82 1.886.82h2.666c.708 0 1.386-.295 1.886-.82.5-.525.781-1.237.781-1.98V3.8c0-.743-.281-1.455-.781-1.98A2.604 2.604 0 0023.333 1z" fill="#fff"/></svg><svg fill="none" viewBox="0 0 30 30" id="play" xmlns="http://www.w3.org/2000/svg"><path d="M26.212 17.173L6.372 28.685c-1.684.976-3.844-.206-3.844-2.173V3.488c0-1.964 2.157-3.149 3.844-2.17l19.84 11.512a2.502 2.502 0 010 4.343z" fill="#fff"/></svg><svg fill="none" viewBox="0 0 6 26" id="player-position" xmlns="http://www.w3.org/2000/svg"><path fill="#fff" d="M.225.73h5.734v25H.225z"/></svg><svg fill="none" viewBox="0 0 36 36" id="screen-size" xmlns="http://www.w3.org/2000/svg"><path d="M5 16.171V5h10.929M30.5 16.171V5H19.571M16.171 30.5H5V19.571M30.5 19.572v11.17H19.571" stroke="#fff" stroke-width="5"/></svg><svg fill="none" viewBox="0 0 121 121" id="start-reviews" xmlns="http://www.w3.org/2000/svg"><g filter="url(#lfilter0_b_121:566)"><path d="M60.381 0l10.666 24.056 21.979-14.47-4.033 26.003 26.313-.291-17.45 19.695 22.292 13.982-25.329 7.134 11.196 23.814L80.85 92.23l-3.457 26.086L60.38 98.241 43.37 118.316l-3.457-26.086-25.165 7.692 11.196-23.814-25.33-7.134 22.294-13.982L5.457 35.298l26.312.29-4.032-26.003 21.978 14.47L60.381 0z" fill="#29A4DD"/></g><path d="M48.153 49.756l-.538 1.513c1.202.428 2.054 1.11 2.558 2.049.501.943.55 1.98.148 3.114-.405 1.138-1.1 1.911-2.088 2.32-.992.411-2.083.405-3.273-.018l-.536 1.507-1.983-.705.535-1.507c-1.198-.426-2.047-1.11-2.549-2.053-.508-.94-.559-1.979-.154-3.117.404-1.137 1.1-1.91 2.087-2.32.982-.41 2.073-.401 3.27.025l.539-1.514 1.984.706zm-4.615 6.695l1.534-4.316c-.67-.238-1.276-.228-1.817.03-.541.257-.926.705-1.153 1.345-.23.648-.216 1.239.045 1.772.257.54.72.93 1.39 1.169zm3.518-3.61l-1.535 4.315c.67.238 1.276.229 1.817-.029.538-.248.923-.697 1.153-1.345.228-.64.213-1.23-.044-1.772-.262-.543-.726-.932-1.391-1.17zm10.595 11.4l-2.036-.724.066-1.776-3.794-1.35-1.064 1.422-2.029-.721 6.19-8.204 3.04 1.081-.373 10.271zm-1.72-9.202l-2.987 3.951 2.802.996.185-4.947zm11.026 2.106l2.003.713-4.74 3.516 1.456 5.72-2.003-.712-1.329-5.181-1.486 4.18-1.977-.703 3.284-9.236 1.977.703-1.488 4.186 4.303-3.186zm2.982 1.06l6.744 2.399-.561 1.578-2.383-.848-2.723 7.659-1.978-.704 2.723-7.658-2.383-.847.561-1.578zm7.779 9.71l-1.597-.568 2.063-6.21 1.855.66-2.321 6.118zm-1.129.665c.305.108.524.31.656.603.135.3.15.598.045.894-.107.3-.306.52-.597.659-.3.135-.595.15-.887.047a1.127 1.127 0 01-.665-.6 1.108 1.108 0 01-.054-.89c.109-.304.311-.527.608-.668.291-.138.59-.153.894-.045z" fill="#fff"/><defs><filter id="lfilter0_b_121:566" x="-59.386" y="-60" width="239.534" height="238.317" filterUnits="userSpaceOnUse" color-interpolation-filters="sRGB"><feFlood flood-opacity="0" result="BackgroundImageFix"/><feGaussianBlur in="BackgroundImage" stdDeviation="30"/><feComposite in2="SourceAlpha" operator="in" result="effect1_backgroundBlur_121:566"/><feBlend in="SourceGraphic" in2="effect1_backgroundBlur_121:566" result="shape"/></filter></defs></svg><svg fill="none" viewBox="0 0 36 36" id="volume-off" xmlns="http://www.w3.org/2000/svg"><path d="M22.727 1.133a1.21 1.21 0 00-1.303.127L11.292 9.483h-9.99c-.345 0-.676.149-.92.415A1.484 1.484 0 000 10.9v14.177c0 .375.137.736.381 1.002.245.266.576.415.921.415h9.99l10.067 8.223a1.212 1.212 0 001.364.134 1.35 1.35 0 00.526-.523c.127-.224.194-.482.194-.746V2.394c0-.261-.068-.518-.194-.74a1.35 1.35 0 00-.522-.521zM31.833 17.932l2.866-2.866a1.252 1.252 0 00-1.765-1.765l-2.866 2.866-2.866-2.866a1.252 1.252 0 00-1.765 1.765l2.867 2.866-2.866 2.866a1.253 1.253 0 00.862 2.201 1.252 1.252 0 00.902-.436l2.866-2.867 2.866 2.866a1.251 1.251 0 001.765-1.764l-2.866-2.866z" fill="#fff"/></svg><svg fill="none" viewBox="0 0 36 36" id="volume-on" xmlns="http://www.w3.org/2000/svg"><path d="M22.727 1.133a1.21 1.21 0 00-1.303.127L11.292 9.483h-9.99c-.345 0-.676.149-.92.415A1.484 1.484 0 000 10.9v14.177c0 .375.137.736.381 1.002.245.266.576.415.921.415h9.99l10.067 8.223a1.212 1.212 0 001.364.134 1.35 1.35 0 00.526-.523c.127-.224.194-.482.194-.746V2.394c0-.261-.068-.518-.194-.74a1.35 1.35 0 00-.522-.521zM28.346 14.339a1.5 1.5 0 00-2.692 1.322l2.692-1.322zm-2.715 7.047a1.5 1.5 0 002.738 1.228l-2.738-1.228zM27 15l-1.346.661-.001-.001v.001l.006.011.025.053.099.219c.083.19.195.459.306.766.238.66.411 1.33.411 1.79h3c0-1.005-.327-2.084-.59-2.809a15.51 15.51 0 00-.558-1.34l-.003-.008-.002-.002v-.002L27 15zm-.5 3.5c0 .354-.166 1.014-.416 1.732a17.106 17.106 0 01-.452 1.153l-.001.002L27 22l1.369.613v-.001l.002-.002.003-.008.01-.023a11.916 11.916 0 00.16-.379c.101-.247.236-.59.372-.98.25-.715.584-1.805.584-2.72h-3zM32.364 10.375a1.5 1.5 0 00-2.727 1.25l2.727-1.25zM29.616 25.42a1.5 1.5 0 002.768 1.158l-2.768-1.158zM31 11l-1.364.625.004.007.013.03.058.131a29.903 29.903 0 01.868 2.26c.489 1.45.921 3.133.921 4.447h3c0-1.824-.568-3.89-1.079-5.406a33.004 33.004 0 00-1.03-2.657l-.02-.044-.005-.012-.002-.004a.02.02 0 000-.002L31 11zm.5 7.5c0 1.098-.426 2.77-.926 4.305a40.146 40.146 0 01-.94 2.57c-.006.017-.01.03-.014.037a.254.254 0 00-.003.008v.001L31 26l1.384.579v-.002l.002-.004.005-.012.019-.046.068-.166a43.16 43.16 0 00.949-2.614c.5-1.536 1.073-3.613 1.073-5.235h-3z" fill="#fff"/></svg></svg>