<svg width="126" height="42" viewBox="0 0 126 42" fill="none" xmlns="http://www.w3.org/2000/svg"><path d="M8.892 41.081c-.32 0-.634-.004-.952-.011a13.393 13.393 0 01-1.968-.172 6.212 6.212 0 01-1.745-.575 5.691 5.691 0 01-1.47-1.067 5.586 5.586 0 01-1.075-1.467 5.997 5.997 0 01-.572-1.74 13 13 0 01-.175-1.968 95.412 95.412 0 01-.016-.96V8.867s.01-.726.016-.939c.008-.659.066-1.316.174-1.966a6.01 6.01 0 01.572-1.745 5.86 5.86 0 012.545-2.541 6.143 6.143 0 011.742-.571A13.288 13.288 0 017.942.93l.95-.013h108.21l.962.014c.655.008 1.31.065 1.957.17a6.276 6.276 0 011.759.576 5.881 5.881 0 012.543 2.54 6.04 6.04 0 01.563 1.732c.11.655.171 1.318.183 1.982.003.297.003.616.003.934.009.394.009.769.009 1.147v21.975c0 .381 0 .753-.009 1.129 0 .341 0 .654-.004.976a13.228 13.228 0 01-.18 1.946 6.023 6.023 0 01-.568 1.754 5.768 5.768 0 01-1.07 1.455c-.43.434-.927.797-1.473 1.073a6.184 6.184 0 01-1.756.578 13.25 13.25 0 01-1.969.17c-.308.008-.631.012-.945.012l-1.141.002L8.892 41.08z" fill="#fff"/><path d="M26.32 20.883a5.391 5.391 0 012.58-4.534 5.54 5.54 0 00-4.37-2.356c-1.838-.192-3.62 1.097-4.558 1.097-.955 0-2.398-1.078-3.951-1.046a5.832 5.832 0 00-2.842.846 5.81 5.81 0 00-2.056 2.133c-2.117 3.656-.538 9.03 1.49 11.984 1.016 1.448 2.202 3.064 3.754 3.007 1.519-.063 2.086-.966 3.92-.966 1.816 0 2.348.966 3.931.93 1.63-.027 2.657-1.454 3.636-2.915.73-1.031 1.29-2.17 1.663-3.377a5.232 5.232 0 01-2.324-1.922 5.21 5.21 0 01-.873-2.881zm-2.99-8.833a5.31 5.31 0 001.22-3.811 5.433 5.433 0 00-3.513 1.812 5.06 5.06 0 00-1.252 3.67 4.499 4.499 0 003.544-1.67zm21.212 16.446h-4.984L38.36 32.02h-2.11l4.72-13.039h2.194l4.72 13.04h-2.147l-1.195-3.525zm-4.468-1.626h3.95l-1.947-5.72h-.055l-1.948 5.72zm18.006.397c0 2.955-1.586 4.853-3.979 4.853a3.239 3.239 0 01-3-1.663h-.044v4.708H49.1V22.514h1.894v1.581h.036a3.378 3.378 0 013.035-1.68c2.42 0 4.015 1.907 4.015 4.852zm-2.011 0c0-1.924-.998-3.19-2.52-3.19-1.495 0-2.5 1.292-2.5 3.19 0 1.916 1.005 3.199 2.5 3.199 1.522 0 2.52-1.256 2.52-3.199zm12.504 0c0 2.955-1.586 4.853-3.98 4.853a3.239 3.239 0 01-2.999-1.663h-.045v4.708h-1.957V22.514h1.894v1.581h.036a3.378 3.378 0 013.036-1.68c2.42 0 4.015 1.907 4.015 4.852zm-2.012 0c0-1.924-.998-3.19-2.52-3.19-1.494 0-2.5 1.292-2.5 3.19 0 1.916 1.006 3.199 2.5 3.199 1.523 0 2.52-1.256 2.52-3.199zm8.945 1.12c.145 1.293 1.405 2.142 3.126 2.142 1.65 0 2.836-.849 2.836-2.014 0-1.012-.715-1.618-2.41-2.034l-1.695-.407c-2.4-.578-3.515-1.698-3.515-3.515 0-2.25 1.966-3.795 4.757-3.795 2.764 0 4.658 1.545 4.721 3.795h-1.975c-.118-1.301-1.197-2.087-2.773-2.087-1.577 0-2.655.795-2.655 1.952 0 .922.689 1.464 2.374 1.88l1.44.352c2.684.633 3.797 1.707 3.797 3.614 0 2.44-1.948 3.968-5.047 3.968-2.9 0-4.857-1.492-4.984-3.85h2.003zm12.254-8.122v2.25h1.812v1.545H87.76v5.24c0 .815.363 1.194 1.16 1.194.215-.004.43-.019.644-.045v1.536a5.388 5.388 0 01-1.087.09c-1.93 0-2.683-.723-2.683-2.567V24.06h-1.386v-1.546h1.386v-2.25h1.966zm2.861 7.003c0-2.992 1.767-4.871 4.521-4.871 2.764 0 4.523 1.88 4.523 4.87 0 3-1.75 4.871-4.523 4.871-2.772 0-4.521-1.871-4.521-4.87zm7.05 0c0-2.052-.943-3.263-2.529-3.263-1.585 0-2.528 1.22-2.528 3.263 0 2.06.943 3.261 2.528 3.261 1.586 0 2.529-1.201 2.529-3.261zm3.607-4.754h1.866v1.618h.045a2.274 2.274 0 012.293-1.718c.226 0 .451.024.671.073v1.825a2.745 2.745 0 00-.879-.118 1.976 1.976 0 00-1.953 1.35 1.95 1.95 0 00-.086.837v5.64h-1.957v-9.507zm13.897 6.714c-.263 1.726-1.949 2.91-4.105 2.91-2.773 0-4.494-1.853-4.494-4.825 0-2.982 1.73-4.916 4.412-4.916 2.637 0 4.296 1.807 4.296 4.69v.668h-6.733v.118a2.47 2.47 0 001.536 2.51c.326.133.676.195 1.028.182a2.16 2.16 0 002.202-1.337h1.858zm-6.615-2.837h4.766a2.277 2.277 0 00-.64-1.716 2.3 2.3 0 00-1.698-.697 2.421 2.421 0 00-1.718.702 2.406 2.406 0 00-.71 1.71zM38.683 11.816h.84a1.06 1.06 0 001.078-.581c.064-.13.1-.273.107-.418 0-.578-.436-.951-1.175-.951a1.123 1.123 0 00-1.268.981h-.922a1.96 1.96 0 011.42-1.771c.26-.075.532-.096.8-.061 1.237 0 2.108.69 2.108 1.685a1.453 1.453 0 01-1.142 1.433v.073a1.465 1.465 0 011.398 1.516 2.09 2.09 0 01-1.52 1.8c-.268.075-.55.096-.827.062a2.094 2.094 0 01-2.113-1.061 2.079 2.079 0 01-.247-.793h.937c.057.6.609.986 1.423.986.815 0 1.346-.434 1.346-1.046 0-.621-.5-1.004-1.376-1.004h-.867v-.85zm4.307 2.279c0-.852.637-1.342 1.764-1.412l1.285-.074v-.408c0-.5-.33-.781-.971-.781-.522 0-.883.191-.988.525h-.906c.096-.812.863-1.333 1.938-1.333 1.189 0 1.86.59 1.86 1.59v3.23h-.903v-.665h-.074a1.595 1.595 0 01-1.424.742 1.435 1.435 0 01-1.455-.836 1.424 1.424 0 01-.125-.579zm3.049-.405v-.395l-1.158.074c-.653.044-.95.265-.95.682 0 .425.37.673.88.673a1.12 1.12 0 001.228-1.034zm3.416-2.2v3.942h-.936v-4.728h3.122v.785h-2.186zm7.857 1.576c0 1.503-.762 2.444-1.96 2.444a1.55 1.55 0 01-1.458-.794h-.075v2.288h-.935v-6.3h.9v.782h.07a1.644 1.644 0 011.49-.86c1.206 0 1.968.938 1.968 2.44zm-.963 0c0-.998-.474-1.602-1.267-1.602-.787 0-1.28.617-1.28 1.606 0 .986.493 1.603 1.276 1.603.797 0 1.271-.604 1.271-1.607zm2.209 4.059v-.803c.101.013.203.018.305.017a.813.813 0 00.858-.66l.07-.23-1.716-4.745h1.018l1.19 3.755h.073l1.185-3.755h.992l-1.767 4.923c-.406 1.15-.854 1.52-1.82 1.52-.079 0-.3-.01-.388-.022zm4.704-3.035h.932c.091.417.483.635 1.031.635.623 0 1.006-.274 1.006-.7 0-.456-.344-.673-1.006-.673h-.71v-.725h.698c.565 0 .853-.217.853-.612 0-.347-.279-.612-.853-.612-.524 0-.906.221-.967.595h-.902a1.659 1.659 0 011.869-1.385c1.127 0 1.771.508 1.771 1.307a.97.97 0 01-.748.967v.074a1.064 1.064 0 01.927 1.064c0 .899-.767 1.494-1.938 1.494-1.035 0-1.876-.474-1.963-1.429zm5.248 1.342v-4.728h.928v3.252h.074l2.186-3.252h.927v4.728h-.927v-3.27h-.07l-2.19 3.27h-.927zm9.224-3.942h-1.493v3.943h-.936V11.49H73.81v-.785h3.923v.785zm5.041 2.665a1.922 1.922 0 01-2.056 1.368 2.16 2.16 0 01-1.661-.715 2.145 2.145 0 01-.529-1.725 2.176 2.176 0 011.277-2.281c.286-.128.596-.192.91-.19 1.319 0 2.116.9 2.116 2.384v.325h-3.348v.053a1.246 1.246 0 001.262 1.354 1.138 1.138 0 001.127-.573h.902zm-3.291-1.524h2.393a1.138 1.138 0 00-.7-1.137 1.146 1.146 0 00-.466-.087 1.215 1.215 0 00-1.139.753c-.06.15-.09.31-.088.471zm7.258-1.927h2.138c.927 0 1.471.468 1.471 1.202a1.014 1.014 0 01-.8.999v.073a1.083 1.083 0 011.013 1.09c0 .825-.622 1.364-1.663 1.364h-2.159v-4.728zm.928.716v1.224h.927c.566 0 .836-.217.836-.617 0-.368-.235-.607-.732-.607H87.67zm0 1.91v1.386h1.11c.552 0 .849-.244.849-.691 0-.473-.336-.695-.967-.695h-.992z" fill="#000"/></svg>25 22.397 115.284 24.2037 115.284 27.0861V27.7546H108.551V27.8726C108.52 28.2224 108.564 28.5749 108.68 28.9065C108.796 29.2381 108.981 29.5414 109.224 29.796C109.466 30.0507 109.76 30.251 110.087 30.3836C110.413 30.5162 110.763 30.5781 111.115 30.5652C111.578 30.6084 112.042 30.5016 112.438 30.2607C112.835 30.0198 113.143 29.6577 113.317 29.2281L115.175 29.2281ZM108.56 26.3909H113.326C113.344 26.0763 113.296 25.7615 113.186 25.4662C113.075 25.171 112.905 24.9016 112.686 24.675C112.466 24.4485 112.202 24.2696 111.91 24.1497C111.618 24.0298 111.304 23.9714 110.988 23.9781C110.669 23.9762 110.353 24.0373 110.058 24.1578C109.764 24.2782 109.496 24.4558 109.27 24.6801C109.044 24.9044 108.865 25.1711 108.743 25.4647C108.622 25.7583 108.559 26.0731 108.56 26.3909V26.3909Z" fill="black"/>
<path d="M38.6834 11.8158H39.5235C39.6681 11.8337 39.8149 11.8216 39.9546 11.7802C40.0943 11.7388 40.2239 11.669 40.3352 11.5751C40.4465 11.4813 40.5371 11.3655 40.6012 11.235C40.6654 11.1045 40.7018 10.9622 40.7081 10.817C40.7081 10.2392 40.2721 9.86599 39.5328 9.86599C39.3846 9.84535 39.2338 9.85451 39.0893 9.89295C38.9447 9.93139 38.8093 9.99832 38.6912 10.0898C38.573 10.1813 38.4744 10.2954 38.4012 10.4255C38.328 10.5556 38.2816 10.699 38.2649 10.8473H37.3425C37.3584 10.5782 37.4297 10.3152 37.5519 10.0747C37.6741 9.83428 37.8446 9.62148 38.0529 9.44959C38.2612 9.2777 38.5027 9.1504 38.7624 9.07562C39.0221 9.00084 39.2945 8.98017 39.5626 9.01491C40.7996 9.01491 41.6706 9.70551 41.6706 10.6996C41.6735 11.0327 41.5617 11.3566 41.354 11.6174C41.1463 11.8782 40.8552 12.0601 40.5292 12.1326V12.2064C40.9156 12.2235 41.2795 12.3925 41.5414 12.6764C41.8033 12.9603 41.9418 13.336 41.9266 13.7215C41.898 13.9985 41.8142 14.2671 41.6802 14.5115C41.5461 14.7559 41.3645 14.9711 41.146 15.1446C40.9274 15.3181 40.6764 15.4463 40.4075 15.5218C40.1386 15.5973 39.8573 15.6184 39.5801 15.5841C39.3023 15.6218 39.0198 15.6035 38.7493 15.53C38.4788 15.4565 38.2259 15.3295 38.0056 15.1565C37.7854 14.9835 37.6024 14.7681 37.4674 14.523C37.3325 14.278 37.2484 14.0083 37.2202 13.7302H38.157C38.2135 14.3295 38.7657 14.7161 39.5801 14.7161C40.3945 14.7161 40.9261 14.2819 40.9261 13.6697C40.9261 13.0488 40.4253 12.6664 39.5503 12.6664H38.6834V11.8158Z" fill="black"/>
<path d="M42.9908 14.0945C42.9908 13.2434 43.6273 12.7528 44.7543 12.6831L46.0386 12.6092V12.2011C46.0386 11.7018 45.7086 11.4198 45.068 11.4198C44.5456 11.4198 44.1847 11.611 44.0798 11.9453H43.1739C43.2695 11.1332 44.0366 10.6123 45.1122 10.6123C46.3008 10.6123 46.9713 11.2024 46.9713 12.2011V15.4316H46.0695V14.7672H45.9955C45.8452 15.0055 45.6342 15.1998 45.384 15.3303C45.1338 15.4607 44.8533 15.5225 44.5713 15.5095C44.3723 15.5302 44.1711 15.509 43.9808 15.4474C43.7904 15.3857 43.6152 15.285 43.4662 15.1517C43.3173 15.0184 43.1981 14.8554 43.1162 14.6733C43.0343 14.4913 42.9916 14.2941 42.9908 14.0945ZM46.0386 13.6905V13.2952L44.8808 13.3691C44.2278 13.4126 43.9317 13.6341 43.9317 14.0509C43.9317 14.4765 44.3018 14.7241 44.8109 14.7241C44.96 14.7392 45.1107 14.7242 45.2539 14.68C45.3971 14.6358 45.5299 14.5633 45.6445 14.4669C45.759 14.3704 45.853 14.252 45.9207 14.1186C45.9884 13.9853 46.0285 13.8397 46.0386 13.6905Z" fill="black"/>
<path d="M49.4545 11.4891V15.4317H48.5188V10.7036H51.6407V11.489L49.4545 11.4891Z" fill="black"/>
<path d="M57.3115 13.0664C57.3115 14.5686 56.5496 15.5104 55.3527 15.5104C55.0589 15.5304 54.7654 15.4663 54.5069 15.3256C54.2484 15.1849 54.0356 14.9735 53.8936 14.7162H53.8195V17.0044H52.8838V10.7044H53.7846V11.4858H53.8545C53.9991 11.2195 54.2147 10.9983 54.4774 10.8466C54.7402 10.6949 55.0399 10.6185 55.3434 10.626C56.5496 10.626 57.3115 11.5637 57.3115 13.0664ZM56.3491 13.0664C56.3491 12.0677 55.875 11.4642 55.0822 11.4642C54.2946 11.4642 53.802 12.0805 53.802 13.0705C53.802 14.0559 54.2946 14.6727 55.0781 14.6727C55.875 14.6727 56.3491 14.0692 56.3491 13.0664Z" fill="black"/>
<path d="M58.5578 17.1251V16.3217C58.659 16.3346 58.7611 16.3404 58.8631 16.3392C59.0625 16.3539 59.2603 16.2947 59.4186 16.1729C59.5768 16.0511 59.6844 15.8754 59.7207 15.6793L59.7906 15.4491L58.0745 10.7036H59.0935L60.2822 14.4591H60.3562L61.5408 10.7036H62.5331L60.7655 15.627C60.3604 16.7775 59.912 17.1467 58.9455 17.1467C58.8673 17.1467 58.6452 17.1379 58.5578 17.1251Z" fill="black"/>
<path d="M63.2621 14.0903H64.1937C64.2852 14.5071 64.677 14.7245 65.2251 14.7245C65.8482 14.7245 66.2307 14.4507 66.2307 14.0252C66.2307 13.5694 65.8873 13.352 65.2251 13.352H64.5155V12.6271H65.2127C65.7783 12.6271 66.0662 12.4102 66.0662 12.0149C66.0662 11.6678 65.7875 11.4028 65.2127 11.4028C64.6893 11.4028 64.3068 11.6242 64.2461 11.9975H63.3444C63.4118 11.5686 63.6453 11.1832 63.9947 10.9243C64.3441 10.6653 64.7815 10.5534 65.2127 10.6127C66.3397 10.6127 66.9844 11.1208 66.9844 11.9196C66.9897 12.142 66.9182 12.3595 66.782 12.5357C66.6457 12.7119 66.4529 12.8361 66.2358 12.8875V12.9614C66.4943 12.9946 66.7315 13.1213 66.9025 13.3174C67.0734 13.5135 67.1663 13.7654 67.1633 14.0252C67.1633 14.924 66.3963 15.5187 65.2251 15.5187C64.1896 15.5186 63.3485 15.0454 63.2621 14.0903Z" fill="black"/>
<path d="M68.5109 15.4317V10.7036H69.4384V13.9557H69.5124L71.6975 10.7036H72.625V15.4317H71.6975V12.1623H71.6275L69.4384 15.4317L68.5109 15.4317Z" fill="black"/>
<path d="M77.7344 11.49H76.2413V15.4326H75.3046V11.49H73.8115V10.7046H77.7344V11.49Z" fill="black"/>
<path d="M82.775 14.1551C82.6475 14.5872 82.3718 14.9609 81.9961 15.2109C81.6204 15.4609 81.1685 15.5714 80.7195 15.523C80.4071 15.5312 80.0967 15.4715 79.8097 15.3481C79.5228 15.2247 79.2662 15.0405 79.0579 14.8083C78.8495 14.5761 78.6942 14.3015 78.603 14.0035C78.5117 13.7055 78.4865 13.3912 78.5293 13.0826C78.4877 12.7729 78.5133 12.458 78.6043 12.1591C78.6954 11.8602 78.8498 11.5843 79.0571 11.35C79.2644 11.1158 79.5197 10.9287 79.8058 10.8015C80.0919 10.6742 80.4021 10.6097 80.7154 10.6124C82.0346 10.6124 82.8315 11.5112 82.8315 12.9959V13.3215H79.4835V13.3738C79.4687 13.5473 79.4904 13.722 79.5473 13.8867C79.6043 14.0514 79.6951 14.2023 79.814 14.3299C79.933 14.4575 80.0773 14.5588 80.2379 14.6274C80.3984 14.696 80.5716 14.7304 80.7462 14.7283C80.9699 14.755 81.1965 14.7147 81.3971 14.6126C81.5978 14.5106 81.7635 14.3513 81.8732 14.1551L82.775 14.1551ZM79.4835 12.6314H81.8773C81.8891 12.4728 81.8675 12.3135 81.8139 12.1637C81.7604 12.0139 81.676 11.8769 81.5662 11.7616C81.4564 11.6462 81.3236 11.5551 81.1763 11.4939C81.0291 11.4328 80.8707 11.403 80.7112 11.4066C80.5493 11.4044 80.3887 11.4346 80.2387 11.4953C80.0887 11.5561 79.9524 11.6463 79.838 11.7604C79.7235 11.8746 79.6332 12.0105 79.5723 12.1601C79.5114 12.3097 79.4812 12.47 79.4835 12.6314H79.4835Z" fill="black"/>
<path d="M86.7421 10.7036H88.8798C89.8073 10.7036 90.3513 11.1722 90.3513 11.9059C90.3527 12.1387 90.2739 12.3649 90.1281 12.5467C89.9823 12.7285 89.7783 12.8548 89.5503 12.9046V12.9784C89.8272 12.9959 90.0868 13.1187 90.2754 13.3215C90.4641 13.5244 90.5675 13.7918 90.5641 14.0684C90.5641 14.8933 89.942 15.4317 88.9014 15.4317H86.7421V10.7036ZM87.6696 11.4198V12.6441H88.5971C89.1626 12.6441 89.433 12.4273 89.433 12.0274C89.433 11.6588 89.1976 11.4198 88.7009 11.4198L87.6696 11.4198ZM87.6696 13.3302V14.7155H88.7791C89.3323 14.7155 89.6285 14.4719 89.6285 14.0249C89.6285 13.5517 89.2932 13.3302 88.6619 13.3302L87.6696 13.3302Z" fill="black"/>
</svg>
