<svg width="141" height="42" viewBox="0 0 141 42" fill="none" xmlns="http://www.w3.org/2000/svg"><path d="M135.778 41.895H5.222C2.35 41.895 0 39.545 0 36.672V5.328C0 2.455 2.35.104 5.222.104h130.556C138.65.104 141 2.455 141 5.328v31.344c0 2.873-2.35 5.224-5.222 5.224z" fill="#fff"/><path d="M111.689 31.448h1.949V18.387h-1.949v13.06zm17.554-8.356l-2.234 5.662h-.067l-2.319-5.662h-2.099l3.477 7.914-1.983 4.403h2.034l5.358-12.317h-2.167zm-11.053 6.872c-.639 0-1.529-.319-1.529-1.109 0-1.008 1.109-1.395 2.066-1.395.858 0 1.26.185 1.781.438a2.363 2.363 0 01-2.318 2.066zm.235-7.158c-1.411 0-2.872.622-3.477 2l1.73.722c.37-.722 1.058-.958 1.781-.958 1.008 0 2.032.605 2.049 1.68v.135c-.353-.202-1.108-.504-2.033-.504-1.864 0-3.763 1.025-3.763 2.94 0 1.748 1.529 2.874 3.242 2.874 1.311 0 2.033-.588 2.487-1.277h.067v1.008h1.881V26.42c0-2.319-1.73-3.613-3.964-3.613zm-12.044 1.876h-2.772v-4.477h2.772c1.457 0 2.284 1.206 2.284 2.238 0 1.012-.827 2.239-2.284 2.239zm-.05-6.295h-4.67v13.06h1.948V26.5h2.722c2.16 0 4.283-1.565 4.283-4.057 0-2.492-2.123-4.056-4.283-4.056zm-25.465 11.58c-1.346 0-2.474-1.128-2.474-2.677 0-1.565 1.128-2.71 2.474-2.71 1.33 0 2.373 1.145 2.373 2.71 0 1.55-1.044 2.677-2.373 2.677zm2.238-6.144h-.067c-.438-.522-1.28-.993-2.34-.993-2.22 0-4.256 1.953-4.256 4.46 0 2.492 2.035 4.427 4.257 4.427 1.06 0 1.901-.471 2.339-1.01h.067v.64c0 1.7-.909 2.61-2.373 2.61-1.194 0-1.935-.86-2.238-1.583l-1.699.707c.488 1.178 1.784 2.625 3.937 2.625 2.289 0 4.224-1.346 4.224-4.628v-7.979h-1.851v.724zm3.197 7.625h1.952V18.387H86.3v13.06zm4.83-4.309c-.051-1.717 1.328-2.592 2.321-2.592.775 0 1.43.387 1.649.943l-3.97 1.649zm6.057-1.481c-.37-.994-1.498-2.828-3.803-2.828-2.289 0-4.19 1.801-4.19 4.444 0 2.49 1.885 4.443 4.408 4.443 2.037 0 3.215-1.245 3.703-1.969l-1.515-1.01c-.504.74-1.195 1.229-2.188 1.229-.992 0-1.699-.455-2.153-1.347l5.94-2.457-.202-.505zm-47.322-1.465v1.886h4.51c-.136 1.06-.489 1.834-1.027 2.373-.656.656-1.683 1.38-3.483 1.38-2.777 0-4.947-2.239-4.947-5.016s2.17-5.016 4.947-5.016c1.497 0 2.59.59 3.398 1.347l1.33-1.33c-1.127-1.077-2.625-1.902-4.728-1.902-3.803 0-7 3.097-7 6.901s3.197 6.901 7 6.901c2.053 0 3.6-.673 4.812-1.935 1.245-1.246 1.632-2.997 1.632-4.41 0-.438-.033-.842-.101-1.178h-6.343zm11.571 5.774c-1.346 0-2.508-1.111-2.508-2.693 0-1.6 1.162-2.694 2.508-2.694s2.507 1.095 2.507 2.694c0 1.582-1.161 2.693-2.507 2.693zm0-7.137c-2.457 0-4.46 1.868-4.46 4.444 0 2.558 2.003 4.443 4.46 4.443 2.456 0 4.459-1.885 4.459-4.443 0-2.576-2.003-4.444-4.459-4.444zm9.727 7.137c-1.346 0-2.507-1.111-2.507-2.693 0-1.6 1.161-2.694 2.507-2.694s2.507 1.095 2.507 2.694c0 1.582-1.16 2.693-2.507 2.693zm0-7.137c-2.457 0-4.459 1.868-4.459 4.444 0 2.558 2.002 4.443 4.46 4.443 2.456 0 4.458-1.885 4.458-4.443 0-2.576-2.002-4.444-4.459-4.444z" fill="#000"/><path d="M10.977 33.944l-.078-.074c-.304-.322-.483-.821-.483-1.468v.152V9.443v.158c0-.7.21-1.228.56-1.544L23.916 21l-12.94 12.943zm-.561-24.503zm.004-.17v-.003.002zm0-.008v-.001.001z" fill="url(#paint0_linear)"/><path d="M28.229 25.47l.098-.056 5.11-2.904c.488-.277.813-.613.975-.969-.162.356-.487.692-.974.97l-5.11 2.904-.099.055zm.001-.153l-4.314-4.316 4.314-4.316 5.208 2.96c.661.376 1.032.86 1.094 1.356v.002c-.062.493-.433.978-1.094 1.354l-5.208 2.96z" fill="url(#paint1_linear)"/><path d="M11.9 34.437zm0-.153c-.362 0-.677-.118-.923-.34l12.94-12.943 4.313 4.316-15.16 8.616c-.42.238-.817.351-1.17.351zm-.927-.19a1.385 1.385 0 01-.067-.065l.067.066z" fill="url(#paint2_linear)"/><path d="M23.916 21L10.976 8.056c.246-.221.56-.339.922-.339.354 0 .752.113 1.172.351l15.16 8.617-4.314 4.316zm4.411-4.412L13.07 7.916c-.42-.239-.818-.352-1.172-.352h-.005.006c.354 0 .751.113 1.17.351l15.258 8.673z" fill="url(#paint3_linear)"/><path d="M11.996 34.435c.328-.02.692-.132 1.074-.349l15.159-8.616-15.16 8.616c-.381.217-.745.33-1.073.349zm-1.02-.338l-.003-.002.003.002zm-.07-.068l-.007-.007.007.007z" fill="#fff"/><path d="M28.229 25.47l.098-.056-.098.056z" fill="url(#paint4_linear)"/><path d="M11.9 34.437c-.361 0-.677-.118-.923-.34l-.004-.002-.067-.066-.007-.007.078-.078c.246.222.561.34.923.34.353 0 .75-.113 1.17-.35l15.16-8.617.097.097-.098.056-15.16 8.616c-.381.217-.745.33-1.073.349a1.925 1.925 0 01-.096.002z" fill="url(#paint5_linear)"/><path d="M10.9 34.023c-.305-.322-.484-.822-.484-1.469 0 .647.18 1.146.483 1.468z" fill="#fff"/><path d="M10.9 34.023c-.305-.322-.484-.821-.484-1.469v-.152c0 .647.18 1.147.483 1.468l.078.075-.078.078z" fill="url(#paint6_linear)"/><path d="M10.9 34.023l.077-.079-.078.078z" fill="url(#paint7_linear)"/><path d="M28.327 25.414l-.097-.097 5.208-2.96c.661-.376 1.032-.86 1.094-1.355 0 .182-.04.363-.12.54-.162.354-.487.69-.974.967l-5.11 2.905z" fill="url(#paint8_linear)"/><path d="M34.532 21c0-.547-.365-1.093-1.094-1.508l-5.11-2.904h-.001l5.11 2.904c.73.415 1.096.962 1.095 1.508z" fill="#404040"/><path d="M34.532 21c-.062-.494-.433-.979-1.094-1.355l-5.208-2.96.097-.097 5.11 2.905c.73.415 1.095.961 1.095 1.508z" fill="url(#paint9_linear)"/><path d="M10.416 9.442zm.004-.17V9.27v.003zm0-.004v-.005.005zm0-.006c.061-1.074.645-1.694 1.47-1.697-.358.002-.67.12-.914.34v-.001l-.003.003a1.38 1.38 0 00-.074.073c-.274.29-.447.724-.478 1.282z" fill="#404040"/><path d="M10.416 9.601v-.16c0-.057.002-.113.004-.168v-.011c.032-.557.205-.992.48-1.282l.076.077c-.35.316-.56.844-.56 1.544zm.557-1.694l.003-.003-.003.003z" fill="url(#paint10_linear)"/><path d="M28.23 16.686L13.07 8.069c-.42-.238-.818-.351-1.172-.351-.361 0-.676.117-.922.339l-.077-.077a1.39 1.39 0 01.075-.073l.002-.002c.244-.22.556-.338.914-.34h.008c.354 0 .752.113 1.172.351l15.257 8.672-.097.098z" fill="url(#paint11_linear)"/><path d="M45.43 10.518c.012.991-.187 1.791-.595 2.399h3.168V8.188H45.43v2.33zm-1.445 4.5h-.77v-2.101h.613c.543-.468.808-1.267.797-2.4V7.419h4.184v5.499h.7v2.1h-.77v-1.33h-4.754v1.33z" fill="#000"/><path d="M45.43 10.518h-.105l.001.085c0 .939-.196 1.688-.578 2.255l-.109.163h3.469V8.084h-2.783v2.434h.209V8.293H47.9v4.52h-3.064v.104l.087.058c.41-.612.613-1.405.613-2.372v-.087l-.105.002h.104-.104zm-1.445 4.5v-.105h-.665V13.02h.548l.028-.025c.565-.488.834-1.3.834-2.41v-.07.002-2.995h3.975v5.498h.7v1.892h-.562v-1.331H43.88v1.435h.104v-.104.104h.105V13.79h4.544v1.331h.979v-2.31h-.7V7.314H44.52v3.272c0 1.081-.262 1.823-.76 2.251l.067.08v-.105h-.717v2.31h.979v-.105h-.105zm7.803-2.666a2.3 2.3 0 001.703.704c.67 0 1.239-.234 1.702-.704.464-.47.697-1.07.697-1.8 0-.729-.233-1.33-.697-1.8a2.299 2.299 0 00-1.702-.703 2.3 2.3 0 00-1.703.704c-.463.47-.695 1.07-.695 1.8 0 .729.232 1.329.695 1.799zm4 .524c-.616.634-1.381.95-2.297.95-.916 0-1.682-.316-2.297-.95-.616-.633-.924-1.407-.924-2.324 0-.916.308-1.69.924-2.324.615-.634 1.38-.95 2.297-.95.91 0 1.675.318 2.293.954.618.636.928 1.41.928 2.32 0 .917-.308 1.691-.924 2.325z" fill="#000"/><path d="M51.788 12.352l-.074.073a2.406 2.406 0 001.777.736 2.403 2.403 0 001.776-.736c.484-.489.728-1.121.727-1.873 0-.75-.243-1.384-.727-1.873a2.403 2.403 0 00-1.776-.735 2.406 2.406 0 00-1.777.735c-.483.49-.727 1.122-.726 1.873 0 .752.243 1.384.726 1.873l.074-.073.075-.074c-.443-.45-.665-1.018-.666-1.726.001-.707.223-1.275.666-1.726.447-.45.98-.672 1.628-.673a2.194 2.194 0 011.627.673l.002.002-.002-.002c.445.451.666 1.019.667 1.726-.001.708-.222 1.275-.666 1.726-.446.451-.982.672-1.628.674a2.196 2.196 0 01-1.629-.674l-.074.074zm4 .525l-.074-.073c-.599.614-1.331.917-2.223.918-.893-.001-1.625-.304-2.223-.918-.597-.616-.892-1.359-.893-2.252.001-.893.296-1.635.893-2.251.598-.614 1.33-.918 2.223-.919.886.001 1.617.306 2.219.923.6.619.896 1.36.897 2.247 0 .893-.297 1.636-.893 2.252l.075.073.075.072c.633-.65.953-1.457.952-2.397 0-.934-.32-1.739-.957-2.392-.636-.656-1.433-.988-2.368-.987-.94-.001-1.74.33-2.372.983-.635.65-.954 1.457-.953 2.396 0 .94.318 1.747.953 2.398.632.653 1.432.982 2.372.981.94.001 1.739-.328 2.373-.982l-.075-.072zm4.977.95c-.922 0-1.695-.313-2.32-.937-.625-.625-.936-1.404-.936-2.338 0-.933.311-1.713.937-2.337.624-.625 1.397-.937 2.319-.937.944 0 1.712.341 2.302 1.024l-.561.543c-.425-.531-1.007-.796-1.741-.796-.683 0-1.26.23-1.73.691-.47.461-.704 1.066-.704 1.812 0 .747.235 1.352.705 1.812.47.462 1.046.692 1.729.692.753 0 1.394-.303 1.926-.91l.56.56a3.045 3.045 0 01-1.078.818 3.286 3.286 0 01-1.408.303z" fill="#000"/><path d="M60.765 13.827v-.105c-.899-.001-1.64-.301-2.246-.906-.605-.606-.904-1.353-.905-2.264 0-.91.3-1.657.905-2.263.607-.606 1.347-.906 2.246-.907.92.002 1.65.327 2.223.988l.079-.068-.073-.075-.56.543.072.075.081-.065c-.443-.556-1.063-.837-1.822-.836-.707 0-1.315.242-1.802.722-.492.48-.737 1.118-.736 1.886-.001.768.244 1.407.736 1.887.487.48 1.095.723 1.802.722.781 0 1.458-.32 2.004-.946l-.078-.069-.074.074.56.56.074-.074-.081-.066c-.276.332-.62.595-1.04.79a3.185 3.185 0 01-1.365.292v.209a3.39 3.39 0 001.452-.312c.446-.207.817-.49 1.114-.846l.06-.073-.626-.628-.08-.079-.073.084c-.517.588-1.123.873-1.847.875-.66-.002-1.204-.22-1.656-.662-.449-.441-.672-1.012-.673-1.738 0-.725.224-1.295.673-1.737.452-.443.996-.66 1.656-.662.71.002 1.252.25 1.66.757l.071.09.643-.623.071-.069-.064-.074c-.607-.705-1.412-1.062-2.381-1.06-.946-.002-1.752.324-2.393.967-.645.643-.968 1.455-.967 2.411-.002.957.322 1.77.967 2.412.641.643 1.447.968 2.393.967v-.104zm5.742-.14h-.805V8.188h-1.75v-.77h4.306v.77h-1.75v5.498z" fill="#000"/><path d="M66.507 13.687v-.105h-.7V8.084h-1.751v-.562h4.097v.562h-1.75v5.603h.104v-.105.104h.105V8.293h1.75v-.979h-4.515v.979h1.75v5.499h1.015v-.104h-.105zm7.279-6.269l-2.37 5.288c-.328.747-.814 1.12-1.462 1.12-.193 0-.4-.046-.622-.14l.21-.744a.84.84 0 00.42.114c.187 0 .332-.036.434-.109.102-.073.196-.206.284-.399l.228-.5-2.11-4.63h.946l1.549 3.598h.034l1.514-3.598h.945z" fill="#000"/><path d="M73.786 7.418l-.095-.043-2.371 5.289c-.323.725-.763 1.055-1.366 1.058-.176 0-.37-.042-.582-.132l-.04.097.1.028.21-.744-.1-.029-.051.091a.944.944 0 00.47.128c.2 0 .368-.038.495-.129.126-.091.227-.24.319-.44l.228-.5.02-.043-2.062-4.527h.714l1.549 3.599h.173l1.513-3.599h.876v-.104l-.095-.043.095.043v-.104h-1.015l-1.54 3.662.096.04v-.104h-.034v.104l.096-.04-1.576-3.662h-1.178l2.157 4.735-.208.456c-.083.183-.172.302-.25.357-.076.055-.2.09-.373.09a.734.734 0 01-.369-.1l-.116-.066-.246.872-.025.089.085.036c.232.098.453.148.663.148.692.003 1.224-.414 1.557-1.183l2.437-5.434h-.162v.104zm.912 6.269v-6.27h4.534v6.27h-.806V8.188h-2.923v5.498h-.805z" fill="#000"/><path d="M74.698 13.687h.105V7.522h4.324v6.06h-.596V8.084h-3.133v5.498h-.7v.104h.105-.105v.105h.909V8.292h2.715v5.499h1.014V7.313h-4.742v6.478h.104v-.104zm5.969 0v-6.27h.805v2.688h3.133V7.418h.806v6.269h-.806v-2.829h-3.133v2.829h-.805z" fill="#000"/><path d="M80.667 13.687h.105V7.522h.596v2.688h3.342V7.522h.597v6.06h-.597v-2.828h-3.342v2.828h-.7v.104h.103-.104v.105h.91v-2.828H84.5v2.828h1.016V7.313H84.5v2.688h-2.925V7.313h-1.012v6.478h.104v-.104zm7.303-1.335c.465.47 1.032.704 1.703.704s1.24-.234 1.702-.704c.465-.47.697-1.07.697-1.8 0-.729-.232-1.33-.697-1.8a2.299 2.299 0 00-1.702-.703 2.3 2.3 0 00-1.702.704c-.463.47-.696 1.07-.696 1.8 0 .729.233 1.329.696 1.799zm4.001.524c-.616.634-1.382.95-2.298.95-.916 0-1.681-.316-2.297-.95-.616-.633-.923-1.407-.923-2.324 0-.916.307-1.69.923-2.324.616-.634 1.381-.95 2.297-.95.911 0 1.675.318 2.294.954.618.636.927 1.41.927 2.32 0 .917-.308 1.691-.923 2.325z" fill="#000"/><path d="M87.97 12.352l-.073.073a2.406 2.406 0 001.776.736 2.404 2.404 0 001.777-.736c.484-.489.728-1.121.727-1.873 0-.75-.243-1.384-.727-1.873a2.405 2.405 0 00-1.777-.735 2.406 2.406 0 00-1.776.735c-.484.49-.727 1.122-.726 1.873-.001.752.242 1.384.726 1.873l.074-.073.074-.074c-.443-.45-.664-1.018-.665-1.726 0-.707.222-1.275.665-1.726.447-.45.982-.672 1.628-.673a2.194 2.194 0 011.628.673l.003.004-.003-.004c.445.451.666 1.019.667 1.726-.001.708-.222 1.275-.667 1.726-.446.451-.981.672-1.628.674a2.196 2.196 0 01-1.628-.674l-.074.074zm4.001.525l-.075-.073c-.598.614-1.33.917-2.223.918-.892-.001-1.624-.304-2.222-.918l-.003-.003.004.003c-.598-.616-.893-1.359-.894-2.252 0-.893.296-1.635.893-2.251.598-.614 1.33-.918 2.222-.919.887.001 1.618.306 2.22.923.6.619.896 1.36.897 2.247 0 .893-.297 1.636-.894 2.252l.075.073.075.072c.634-.65.954-1.457.953-2.397 0-.934-.32-1.739-.957-2.392-.636-.656-1.434-.988-2.369-.987-.94-.001-1.739.33-2.372.983-.634.65-.953 1.457-.952 2.396-.001.94.318 1.747.952 2.398.633.653 1.432.982 2.372.981.94.001 1.74-.328 2.373-.982l-.075-.072zm5.02.039h1.62a.96.96 0 00.753-.324c.192-.216.289-.452.289-.71 0-.256-.1-.49-.298-.704-.198-.213-.459-.32-.78-.32h-1.584v2.058zm0-2.81h1.463c.303 0 .547-.1.73-.303a.96.96 0 00.276-.66.957.957 0 00-.267-.657.899.899 0 00-.704-.298h-1.498v1.917zm-.804 3.58V7.419h2.267c.49 0 .915.162 1.273.485.359.325.539.732.539 1.222 0 .297-.078.56-.233.788-.154.228-.36.4-.616.517v.034c.308.105.563.287.761.543.197.257.298.555.298.894 0 .513-.188.939-.565 1.277-.376.34-.821.508-1.335.508h-2.389z" fill="#000"/><path d="M96.991 12.916v.105h1.62c.333.001.62-.121.83-.36.207-.23.317-.495.316-.778a1.117 1.117 0 00-.326-.776 1.12 1.12 0 00-.855-.353h-1.69v2.267h.105v-.105h.105v-1.953h1.48c.298.001.523.096.703.286.184.2.268.405.27.634a.938.938 0 01-.263.64.855.855 0 01-.675.289h-1.62v.104h.105-.105zm0-2.81v.104h1.463c.325.001.605-.112.808-.336.197-.216.303-.465.303-.731a1.07 1.07 0 00-.295-.727 1.003 1.003 0 00-.781-.332h-1.602v2.126h.104v-.105h.105V8.292h1.393c.268.002.467.088.626.264.164.183.24.374.24.587a.858.858 0 01-.248.59c-.165.18-.373.267-.653.268H96.99v.104h.105-.105zm-.804 3.58h.105V7.523h2.162c.466.001.861.152 1.203.46.34.307.503.679.504 1.143 0 .28-.072.52-.214.73-.144.212-.333.37-.574.48l-.06.027v.177l.069.024c.291.1.526.267.713.508l.001.002-.001-.002c.184.24.276.512.276.83a1.536 1.536 0 01-.53 1.2c-.36.322-.774.48-1.265.481h-2.389v.104h.105-.105v.105h2.389c.537 0 1.01-.18 1.405-.535.396-.355.6-.816.599-1.355a1.526 1.526 0 00-.32-.957l-.001-.002.001.001a1.694 1.694 0 00-.81-.577l-.034.098h.105v-.034h-.105l.043.095c.273-.124.496-.31.66-.554a1.47 1.47 0 00.251-.846 1.682 1.682 0 00-.573-1.299l-.002-.002.002.002a1.945 1.945 0 00-1.343-.513h-2.371v6.478h.104v-.104z" fill="#000"/><defs><linearGradient id="paint0_linear" x1="22.769" y1="9.204" x2="5.235" y2="26.733" gradientUnits="userSpaceOnUse"><stop stop-color="#00A0FF"/><stop offset=".007" stop-color="#00A1FF"/><stop offset=".26" stop-color="#00BEFF"/><stop offset=".512" stop-color="#00D2FF"/><stop offset=".76" stop-color="#00DFFF"/><stop offset="1" stop-color="#00E3FF"/></linearGradient><linearGradient id="paint1_linear" x1="35.338" y1="21.002" x2="10.066" y2="21.002" gradientUnits="userSpaceOnUse"><stop stop-color="#FFE000"/><stop offset=".409" stop-color="#FFBD00"/><stop offset=".775" stop-color="orange"/><stop offset="1" stop-color="#FF9C00"/></linearGradient><linearGradient id="paint2_linear" x1="25.93" y1="23.399" x2="2.153" y2="47.169" gradientUnits="userSpaceOnUse"><stop stop-color="#FF3A44"/><stop offset="1" stop-color="#C31162"/></linearGradient><linearGradient id="paint3_linear" x1="7.622" y1=".288" x2="18.239" y2="10.902" gradientUnits="userSpaceOnUse"><stop stop-color="#32A071"/><stop offset=".069" stop-color="#2DA771"/><stop offset=".476" stop-color="#15CF74"/><stop offset=".801" stop-color="#06E775"/><stop offset="1" stop-color="#00F076"/></linearGradient><linearGradient id="paint4_linear" x1="35.338" y1="21.002" x2="10.067" y2="21.002" gradientUnits="userSpaceOnUse"><stop stop-color="#CCB300"/><stop offset=".409" stop-color="#CC9700"/><stop offset=".775" stop-color="#CC8400"/><stop offset="1" stop-color="#CC7D00"/></linearGradient><linearGradient id="paint5_linear" x1="25.93" y1="23.399" x2="2.153" y2="47.169" gradientUnits="userSpaceOnUse"><stop stop-color="#CC2E36"/><stop offset="1" stop-color="#9C0E4E"/></linearGradient><linearGradient id="paint6_linear" x1="22.769" y1="9.204" x2="5.235" y2="26.733" gradientUnits="userSpaceOnUse"><stop stop-color="#008DE0"/><stop offset=".007" stop-color="#008DE0"/><stop offset=".26" stop-color="#00A7E0"/><stop offset=".512" stop-color="#00B8E0"/><stop offset=".76" stop-color="#00C4E0"/><stop offset="1" stop-color="#00C7E0"/></linearGradient><linearGradient id="paint7_linear" x1="25.931" y1="23.399" x2="2.154" y2="47.17" gradientUnits="userSpaceOnUse"><stop stop-color="#E0333C"/><stop offset="1" stop-color="#AB0F56"/></linearGradient><linearGradient id="paint8_linear" x1="35.338" y1="21.001" x2="10.066" y2="21.001" gradientUnits="userSpaceOnUse"><stop stop-color="#E0C500"/><stop offset=".409" stop-color="#E0A600"/><stop offset=".775" stop-color="#E09100"/><stop offset="1" stop-color="#E08900"/></linearGradient><linearGradient id="paint9_linear" x1="35.338" y1="21.002" x2="10.066" y2="21.002" gradientUnits="userSpaceOnUse"><stop stop-color="#FFE840"/><stop offset=".409" stop-color="#FFCE40"/><stop offset=".775" stop-color="#FFBC40"/><stop offset="1" stop-color="#FFB540"/></linearGradient><linearGradient id="paint10_linear" x1="22.769" y1="9.204" x2="5.235" y2="26.733" gradientUnits="userSpaceOnUse"><stop stop-color="#40B8FF"/><stop offset=".007" stop-color="#40B9FF"/><stop offset=".26" stop-color="#40CEFF"/><stop offset=".512" stop-color="#40DDFF"/><stop offset=".76" stop-color="#40E7FF"/><stop offset="1" stop-color="#40EAFF"/></linearGradient><linearGradient id="paint11_linear" x1="7.622" y1=".289" x2="18.239" y2="10.903" gradientUnits="userSpaceOnUse"><stop stop-color="#65B895"/><stop offset=".069" stop-color="#62BD95"/><stop offset=".476" stop-color="#50DB97"/><stop offset=".801" stop-color="#44ED98"/><stop offset="1" stop-color="#40F498"/></linearGradient></defs></svg>12.0489L70.5849 12.5051C70.5021 12.6884 70.4131 12.8067 70.3348 12.8618C70.2585 12.917 70.1357 12.9521 69.9619 12.9517C69.8342 12.9517 69.7138 12.9194 69.593 12.8513L69.4772 12.786L69.2312 13.6581L69.2058 13.747L69.2912 13.783C69.5232 13.8805 69.744 13.9311 69.9538 13.9311C70.646 13.9344 71.1781 13.5173 71.5106 12.748L71.5102 12.7488L73.9475 7.31352H73.7863V7.418Z" fill="black"/>
<path d="M74.6981 13.6865V7.41786H79.232V13.6865H78.4264V8.18797H75.5027V13.6865H74.6981Z" fill="black"/>
<path d="M74.6981 13.6865H74.8025V7.52236H79.1272V13.5821H78.5308V8.08351H75.3982V13.5821H74.6981V13.6865H74.8025H74.6981V13.791H75.5026H75.6071V8.29246H78.3219V13.791H79.232H79.3364V7.3134H74.5936V13.791H74.6981V13.6865Z" fill="black"/>
<path d="M80.667 13.6865V7.41786H81.4719V10.1053H84.6053V7.41786H85.4111V13.6865H84.6053V10.8583H81.4719V13.6865H80.667Z" fill="black"/>
<path d="M80.6671 13.6865H80.7715V7.52236H81.3676V10.2098H84.7098V7.52236H85.3067V13.5821H84.7098V10.7539H81.3676V13.5821H80.6671V13.6865H80.7715H80.6671V13.791H81.472H81.5765V10.9628H84.5009V13.791H85.4111H85.5156V7.3134H84.6053H84.5009V10.0009H81.5765V7.3134H80.6671H80.5626V13.791H80.6671V13.6865Z" fill="black"/>
<path d="M87.9707 12.3517C88.435 12.8215 89.0021 13.0561 89.6732 13.0561C90.3444 13.0561 90.9124 12.8215 91.3754 12.3517C91.8396 11.882 92.0722 11.2816 92.0722 10.5523C92.0722 9.82308 91.8396 9.22265 91.3754 8.75291C90.9124 8.28318 90.3444 8.04853 89.6732 8.04853C89.0021 8.04853 88.435 8.28318 87.9707 8.75291C87.5081 9.22265 87.2751 9.82308 87.2751 10.5523C87.2751 11.2816 87.5081 11.882 87.9707 12.3517ZM91.971 12.8765C91.3554 13.5103 90.5892 13.8267 89.6732 13.8267C88.7574 13.8267 87.9916 13.5103 87.3763 12.8765C86.7603 12.2435 86.453 11.4686 86.453 10.5523C86.453 9.63606 86.7603 8.86105 87.3763 8.22812C87.9916 7.59426 88.7574 7.27759 89.6732 7.27759C90.5843 7.27759 91.348 7.59593 91.9669 8.2322C92.585 8.86847 92.8943 9.64181 92.8943 10.5523C92.8943 11.4686 92.5863 12.2435 91.971 12.8765Z" fill="black"/>
<path d="M87.9708 12.3518L87.8966 12.4252C88.378 12.9137 88.9777 13.1619 89.6733 13.1606C90.3689 13.1619 90.9699 12.9137 91.4501 12.4252C91.934 11.9363 92.1776 11.3036 92.1767 10.5523C92.1776 9.80105 91.934 9.16843 91.4501 8.67948C90.9699 8.19094 90.3689 7.94281 89.6733 7.94406C88.9777 7.94281 88.378 8.19094 87.8966 8.67948C87.4135 9.16843 87.1699 9.80105 87.1707 10.5523C87.1699 11.3036 87.4135 11.9363 87.8966 12.4252L87.9708 12.3518L88.0454 12.2783C87.6024 11.8273 87.3809 11.26 87.3796 10.5523C87.3809 9.84472 87.6024 9.27741 88.0454 8.82638C88.4923 8.37545 89.0267 8.15427 89.6733 8.15302C90.32 8.15427 90.8553 8.37545 91.3012 8.82638L91.3044 8.82972L91.3012 8.82638C91.7455 9.27741 91.967 9.84472 91.9679 10.5523C91.967 11.26 91.7455 11.8273 91.3012 12.2783C90.8553 12.7292 90.32 12.9504 89.6733 12.9517C89.0267 12.9504 88.4923 12.7292 88.0454 12.2783L87.9708 12.3518ZM91.9711 12.8766L91.8964 12.8039C91.2979 13.4177 90.5652 13.7209 89.6733 13.7222C88.7815 13.7209 88.0488 13.4177 87.4515 12.8039L87.4482 12.8007L87.4515 12.8039C86.8537 12.188 86.5588 11.4453 86.5575 10.5523C86.5588 9.65937 86.8537 8.91664 87.4515 8.30075C88.0488 7.68694 88.7815 7.38333 89.6733 7.38208C90.5599 7.38333 91.2906 7.6882 91.8923 8.30524C92.4922 8.92396 92.7891 9.66554 92.7899 10.5523C92.7891 11.4453 92.4929 12.188 91.8964 12.8039L91.9711 12.8766L92.0462 12.9492C92.6798 12.2987 92.9997 11.4918 92.9988 10.5523C92.9997 9.61821 92.6786 8.813 92.0421 8.1596C91.4056 7.50369 90.6084 7.17197 89.6733 7.17312C88.7333 7.17197 87.9341 7.50212 87.3013 8.15552V8.15511C86.6669 8.806 86.3478 9.61288 86.3486 10.5523C86.3478 11.4918 86.6669 12.2987 87.3013 12.9496V12.9492C87.9341 13.6026 88.7333 13.932 89.6733 13.9312C90.6133 13.932 91.4126 13.6026 92.0462 12.9492L91.9711 12.8766Z" fill="black"/>
<path d="M96.9914 12.9164H98.6113C98.9205 12.9164 99.1711 12.8083 99.3643 12.5916C99.5565 12.3765 99.6526 12.1397 99.6526 11.8826C99.6526 11.6259 99.5534 11.3913 99.3549 11.1782C99.1575 10.9652 98.8964 10.8583 98.5758 10.8583H96.9914V12.9164ZM96.9914 10.1053H98.4536C98.7575 10.1053 99.0009 10.0054 99.1847 9.8033C99.3685 9.60207 99.4604 9.38215 99.4604 9.14258C99.4604 8.90343 99.3716 8.68382 99.193 8.48636C99.0155 8.28754 98.7805 8.18797 98.4891 8.18797H96.9914V10.1053ZM96.1871 13.6865V7.41786H98.4536C98.9434 7.41786 99.3685 7.58033 99.7268 7.90348C100.086 8.22798 100.266 8.63482 100.266 9.12503C100.266 9.42248 100.188 9.68534 100.033 9.9131C99.8793 10.1408 99.6735 10.313 99.4166 10.4297V10.4644C99.7247 10.5693 99.9795 10.7505 100.178 11.0072C100.375 11.2643 100.476 11.5623 100.476 11.9006C100.476 12.414 100.288 12.84 99.9106 13.1784C99.5346 13.5172 99.0897 13.6865 98.5758 13.6865H96.1871Z" fill="black"/>
<path d="M96.9913 12.9164V13.0209H98.6112C98.9444 13.0222 99.2316 12.8997 99.4416 12.6613C99.6484 12.4316 99.758 12.1663 99.757 11.8826C99.758 11.5987 99.6442 11.3345 99.4311 11.1069C99.2149 10.8721 98.9194 10.7526 98.5757 10.7538H96.8869V13.0209H96.9913V12.9164H97.0958V10.9628H98.5757C98.8744 10.964 99.099 11.0587 99.2786 11.2493C99.4625 11.4484 99.5471 11.6537 99.5481 11.8826C99.5471 12.1132 99.4645 12.3214 99.2859 12.5221C99.1115 12.7165 98.8964 12.8103 98.6112 12.812H96.9913V12.9164H97.0958H96.9913ZM96.9913 10.1054V10.2098H98.4535C98.7794 10.211 99.0593 10.0984 99.2619 9.87352V9.87394C99.4593 9.6584 99.5648 9.40943 99.5648 9.14259C99.5648 8.87733 99.4635 8.62919 99.2703 8.41616V8.41658C99.075 8.1953 98.8034 8.08225 98.489 8.08351H96.8869V10.2098H96.9913V10.1054H97.0958V8.29246H98.489C98.7575 8.29413 98.9559 8.3798 99.1147 8.55574L99.1157 8.55648L99.1147 8.55616C99.2786 8.739 99.3549 8.92998 99.3559 9.14259C99.3549 9.35437 99.2766 9.54619 99.1074 9.73269V9.7331C98.9423 9.91228 98.7345 9.99962 98.4535 10.0009H96.9913V10.1054H97.0958H96.9913ZM96.1871 13.6865H96.2915V7.52236H98.4535C98.9204 7.52319 99.3152 7.67416 99.6567 7.98112C99.9962 8.2888 100.16 8.66064 100.161 9.12504C100.161 9.40462 100.089 9.64419 99.9471 9.8543C99.8029 10.0666 99.6139 10.2249 99.3726 10.3347L99.3121 10.3625V10.4644V10.5391L99.382 10.5632C99.6734 10.6628 99.9084 10.8301 100.095 11.0714L100.096 11.0725L100.095 11.0709C100.279 11.3109 100.371 11.5827 100.371 11.9006C100.37 12.3887 100.197 12.7793 99.8406 13.1009C99.4813 13.4229 99.0666 13.5812 98.5757 13.5821H96.1871V13.6865H96.2915H96.1871V13.791H98.5757C99.1126 13.7918 99.5868 13.6114 99.9805 13.256C100.377 12.9013 100.581 12.4397 100.58 11.9006C100.581 11.5419 100.472 11.2178 100.26 10.9436L100.259 10.9423L100.26 10.9432C100.05 10.6714 99.7768 10.4763 99.4499 10.3657L99.4165 10.4644H99.5209V10.4298H99.4165L99.4593 10.5248C99.7319 10.4012 99.9554 10.2155 100.119 9.97142V9.97183C100.287 9.72663 100.37 9.44046 100.37 9.12504C100.371 8.60955 100.177 8.16719 99.7967 7.82597L99.7946 7.82398L99.7967 7.82597C99.4207 7.486 98.9664 7.31257 98.4535 7.3134H96.0826V13.791H96.1871V13.6865Z" fill="black"/>
<defs>
<linearGradient id="paint0_linear" x1="22.7686" y1="9.20425" x2="5.23469" y2="26.7326" gradientUnits="userSpaceOnUse">
<stop stop-color="#00A0FF"/>
<stop offset="0.00657445" stop-color="#00A1FF"/>
<stop offset="0.2601" stop-color="#00BEFF"/>
<stop offset="0.5122" stop-color="#00D2FF"/>
<stop offset="0.7604" stop-color="#00DFFF"/>
<stop offset="1" stop-color="#00E3FF"/>
</linearGradient>
<linearGradient id="paint1_linear" x1="35.3382" y1="21.0016" x2="10.0658" y2="21.0016" gradientUnits="userSpaceOnUse">
<stop stop-color="#FFE000"/>
<stop offset="0.4087" stop-color="#FFBD00"/>
<stop offset="0.7754" stop-color="#FFA500"/>
<stop offset="1" stop-color="#FF9C00"/>
</linearGradient>
<linearGradient id="paint2_linear" x1="25.9304" y1="23.3987" x2="2.15309" y2="47.1685" gradientUnits="userSpaceOnUse">
<stop stop-color="#FF3A44"/>
<stop offset="1" stop-color="#C31162"/>
</linearGradient>
<linearGradient id="paint3_linear" x1="7.62168" y1="0.288221" x2="18.2392" y2="10.9024" gradientUnits="userSpaceOnUse">
<stop stop-color="#32A071"/>
<stop offset="0.0685" stop-color="#2DA771"/>
<stop offset="0.4762" stop-color="#15CF74"/>
<stop offset="0.8009" stop-color="#06E775"/>
<stop offset="1" stop-color="#00F076"/>
</linearGradient>
<linearGradient id="paint4_linear" x1="35.3377" y1="21.0018" x2="10.0667" y2="21.0018" gradientUnits="userSpaceOnUse">
<stop stop-color="#CCB300"/>
<stop offset="0.4087" stop-color="#CC9700"/>
<stop offset="0.7754" stop-color="#CC8400"/>
<stop offset="1" stop-color="#CC7D00"/>
</linearGradient>
<linearGradient id="paint5_linear" x1="25.9304" y1="23.3987" x2="2.15308" y2="47.1685" gradientUnits="userSpaceOnUse">
<stop stop-color="#CC2E36"/>
<stop offset="1" stop-color="#9C0E4E"/>
</linearGradient>
<linearGradient id="paint6_linear" x1="22.7686" y1="9.2044" x2="5.23465" y2="26.7328" gradientUnits="userSpaceOnUse">
<stop stop-color="#008DE0"/>
<stop offset="0.00657445" stop-color="#008DE0"/>
<stop offset="0.2601" stop-color="#00A7E0"/>
<stop offset="0.5122" stop-color="#00B8E0"/>
<stop offset="0.7604" stop-color="#00C4E0"/>
<stop offset="1" stop-color="#00C7E0"/>
</linearGradient>
<linearGradient id="paint7_linear" x1="25.9312" y1="23.3995" x2="2.15445" y2="47.1704" gradientUnits="userSpaceOnUse">
<stop stop-color="#E0333C"/>
<stop offset="1" stop-color="#AB0F56"/>
</linearGradient>
<linearGradient id="paint8_linear" x1="35.3382" y1="21.0013" x2="10.0658" y2="21.0013" gradientUnits="userSpaceOnUse">
<stop stop-color="#E0C500"/>
<stop offset="0.4087" stop-color="#E0A600"/>
<stop offset="0.7754" stop-color="#E09100"/>
<stop offset="1" stop-color="#E08900"/>
</linearGradient>
<linearGradient id="paint9_linear" x1="35.3381" y1="21.0015" x2="10.0657" y2="21.0015" gradientUnits="userSpaceOnUse">
<stop stop-color="#FFE840"/>
<stop offset="0.4087" stop-color="#FFCE40"/>
<stop offset="0.7754" stop-color="#FFBC40"/>
<stop offset="1" stop-color="#FFB540"/>
</linearGradient>
<linearGradient id="paint10_linear" x1="22.7686" y1="9.20427" x2="5.23467" y2="26.7326" gradientUnits="userSpaceOnUse">
<stop stop-color="#40B8FF"/>
<stop offset="0.00657445" stop-color="#40B9FF"/>
<stop offset="0.2601" stop-color="#40CEFF"/>
<stop offset="0.5122" stop-color="#40DDFF"/>
<stop offset="0.7604" stop-color="#40E7FF"/>
<stop offset="1" stop-color="#40EAFF"/>
</linearGradient>
<linearGradient id="paint11_linear" x1="7.62162" y1="0.288726" x2="18.2392" y2="10.9029" gradientUnits="userSpaceOnUse">
<stop stop-color="#65B895"/>
<stop offset="0.0685" stop-color="#62BD95"/>
<stop offset="0.4762" stop-color="#50DB97"/>
<stop offset="0.8009" stop-color="#44ED98"/>
<stop offset="1" stop-color="#40F498"/>
</linearGradient>
</defs>
</svg>
