<svg width="126" height="42" viewBox="0 0 126 42" fill="none" xmlns="http://www.w3.org/2000/svg">
<path d="M8.89192 41.081C8.57111 41.081 8.25805 41.0769 7.93975 41.0697C7.28037 41.0612 6.62254 41.0039 5.97164 40.8985C5.36471 40.7942 4.77676 40.6003 4.22718 40.3232C3.68264 40.0483 3.18598 39.6879 2.75621 39.2557C2.32023 38.8287 1.95726 38.3334 1.68167 37.7894C1.40305 37.2419 1.21023 36.6551 1.10992 36.0494C1.0016 35.3985 0.942991 34.7403 0.934605 34.0806C0.927929 33.8592 0.919189 33.1219 0.919189 33.1219V8.86626C0.919189 8.86626 0.928498 8.14028 0.934657 7.927C0.942687 7.26831 1.00095 6.61119 1.10895 5.96132C1.20944 5.35392 1.40242 4.76539 1.68119 4.21612C1.95576 3.67255 2.31672 3.17686 2.75008 2.74827C3.18295 2.31561 3.6812 1.95334 4.22667 1.67468C4.77498 1.39841 5.36182 1.20588 5.96753 1.10354C6.62056 0.997035 7.28068 0.939453 7.94234 0.931278L8.89244 0.918457H117.102L118.064 0.931792C118.719 0.939561 119.374 0.99663 120.021 1.10251C120.632 1.20613 121.225 1.4 121.78 1.67775C122.873 2.23934 123.762 3.12783 124.323 4.21868C124.597 4.76416 124.787 5.34789 124.886 5.95005C124.996 6.60525 125.057 7.26753 125.069 7.93162C125.072 8.22898 125.072 8.54839 125.072 8.86626C125.081 9.26001 125.081 9.63479 125.081 10.0126V31.9877C125.081 32.3692 125.081 32.7414 125.072 33.1167C125.072 33.4582 125.072 33.771 125.068 34.0929C125.056 34.7451 124.996 35.3956 124.888 36.0391C124.79 36.6492 124.598 37.2406 124.32 37.7926C124.042 38.3306 123.681 38.8216 123.25 39.2475C122.82 39.682 122.323 40.0445 121.777 40.3212C121.224 40.6005 120.632 40.7951 120.021 40.8985C119.37 41.0045 118.712 41.0617 118.052 41.0697C117.744 41.0769 117.421 41.081 117.107 41.081L115.966 41.0831L8.89192 41.081Z" fill="white"/>
<path d="M26.3202 20.8828C26.332 19.9714 26.5747 19.0778 27.0259 18.2852C27.477 17.4925 28.1219 16.8265 28.9005 16.3492C28.4059 15.6447 27.7534 15.065 26.9947 14.656C26.2361 14.2471 25.3923 14.0201 24.5304 13.9932C22.6917 13.8008 20.9092 15.0904 19.9722 15.0904C19.0171 15.0904 17.5745 14.0123 16.021 14.0442C15.0162 14.0766 14.0369 14.3679 13.1786 14.8899C12.3203 15.4119 11.6122 16.1467 11.1234 17.0227C9.00578 20.6788 10.5853 26.0521 12.6138 29.0074C13.6287 30.4546 14.8149 32.0711 16.3669 32.0137C17.8857 31.9509 18.4529 31.048 20.2862 31.048C22.1025 31.048 22.6347 32.0137 24.2182 31.9773C25.8479 31.9509 26.8747 30.5237 27.854 29.0629C28.5833 28.0317 29.1444 26.8921 29.5166 25.6862C28.5698 25.2869 27.7618 24.6184 27.1934 23.7642C26.625 22.9101 26.3213 21.9079 26.3202 20.8828Z" fill="black"/>
<path d="M23.3292 12.0502C24.2178 10.9864 24.6556 9.61918 24.5496 8.23877C23.192 8.38096 21.938 9.02796 21.0374 10.0509C20.5971 10.5506 20.2599 11.132 20.045 11.7617C19.8301 12.3915 19.7418 13.0573 19.7851 13.7212C20.4642 13.7281 21.1359 13.5814 21.7498 13.2919C22.3637 13.0025 22.9037 12.5779 23.3292 12.0502Z" fill="black"/>
<path d="M44.5416 28.4961H39.5576L38.3607 32.0203H36.2496L40.9704 18.9814H43.1637L47.8845 32.0203H45.7375L44.5416 28.4961ZM40.0738 26.8698H44.0244L42.0769 21.1502H42.0223L40.0738 26.8698Z" fill="black"/>
<path d="M58.0798 27.2675C58.0798 30.2217 56.4942 32.1197 54.1014 32.1197C53.4953 32.1513 52.8924 32.0121 52.362 31.7179C51.8315 31.4238 51.3948 30.9866 51.1019 30.4565H51.0567V35.1651H49.0999V22.5138H50.9939V24.095H51.0299C51.3363 23.5674 51.7803 23.1325 52.3148 22.8365C52.8494 22.5406 53.4543 22.3947 54.0654 22.4144C56.4849 22.4144 58.0798 24.3216 58.0798 27.2675ZM56.0685 27.2675C56.0685 25.3429 55.071 24.0775 53.5492 24.0775C52.0541 24.0775 51.0484 25.3695 51.0484 27.2675C51.0484 29.183 52.0541 30.4657 53.5492 30.4657C55.071 30.4657 56.0684 29.2096 56.0684 27.2675H56.0685Z" fill="black"/>
<path d="M68.5727 27.2675C68.5727 30.2217 66.9866 32.1197 64.5938 32.1197C63.9877 32.1513 63.3849 32.0121 62.8544 31.7179C62.3239 31.4238 61.8872 30.9866 61.5944 30.4565H61.5491V35.1651H59.5923V22.5138H61.4864V24.095H61.5223C61.8287 23.5674 62.2728 23.1325 62.8073 22.8365C63.3418 22.5406 63.9467 22.3947 64.5578 22.4144C66.9773 22.4144 68.5727 24.3216 68.5727 27.2675ZM66.5609 27.2675C66.5609 25.3429 65.5635 24.0775 64.0416 24.0775C62.5465 24.0775 61.5409 25.3695 61.5409 27.2675C61.5409 29.183 62.5465 30.4657 64.0416 30.4657C65.5635 30.4657 66.5609 29.2096 66.5609 27.2675Z" fill="black"/>
<path d="M75.5064 28.3875C75.6514 29.6805 76.911 30.5295 78.6323 30.5295C80.2817 30.5295 81.4683 29.6805 81.4683 28.5146C81.4683 27.5025 80.7526 26.8966 79.0581 26.4813L77.3635 26.0742C74.9625 25.4959 73.8478 24.3761 73.8478 22.5591C73.8478 20.3094 75.8139 18.7642 78.6046 18.7642C81.3686 18.7642 83.2627 20.3094 83.3264 22.5591H81.3511C81.2328 21.2579 80.1542 20.4725 78.5778 20.4725C77.0015 20.4725 75.9229 21.2671 75.9229 22.4238C75.9229 23.3456 76.6118 23.888 78.2971 24.3033L79.7377 24.656C82.4205 25.2887 83.5341 26.3633 83.5341 28.2705C83.5341 30.7099 81.5865 32.2378 78.4873 32.2378C75.5876 32.2378 73.6298 30.7458 73.5033 28.3874L75.5064 28.3875Z" fill="black"/>
<path d="M87.7593 20.2646V22.5144H89.5721V24.0596H87.7593V29.3004C87.7593 30.1146 88.1222 30.4939 88.9191 30.4939C89.1344 30.4902 89.3492 30.4751 89.5628 30.4488V31.9848C89.2046 32.0516 88.8404 32.0818 88.476 32.0751C86.5459 32.0751 85.7932 31.3522 85.7932 29.5085V24.0596H84.4071V22.5144H85.7932V20.2646H87.7593Z" fill="black"/>
<path d="M90.621 27.2676C90.621 24.2765 92.3875 22.397 95.1423 22.397C97.9062 22.397 99.6646 24.2765 99.6646 27.2676C99.6646 30.2668 97.9155 32.1382 95.1423 32.1382C92.37 32.1382 90.621 30.2668 90.621 27.2676ZM97.6708 27.2676C97.6708 25.2158 96.7278 24.0048 95.1423 24.0048C93.5567 24.0048 92.6137 25.225 92.6137 27.2676C92.6137 29.3276 93.5567 30.5293 95.1423 30.5293C96.7278 30.5293 97.6708 29.3276 97.6708 27.2676H97.6708Z" fill="black"/>
<path d="M101.278 22.5137H103.144V24.1318H103.189C103.316 23.6264 103.613 23.1798 104.03 22.867C104.448 22.5543 104.961 22.3944 105.482 22.4142C105.708 22.4135 105.933 22.4379 106.153 22.4871V24.3123C105.868 24.2255 105.571 24.1857 105.274 24.1943C104.989 24.1828 104.706 24.2328 104.443 24.3408C104.18 24.4489 103.943 24.6124 103.75 24.8202C103.556 25.028 103.41 25.2751 103.321 25.5446C103.232 25.8141 103.202 26.0996 103.235 26.3815V32.0201H101.278L101.278 22.5137Z" fill="black"/>
<path d="M115.175 29.2281C114.912 30.9539 113.226 32.1382 111.07 32.1382C108.297 32.1382 106.576 30.2853 106.576 27.3127C106.576 24.3309 108.306 22.397 110.988 22.397C113.625 22.397 115.284 24.2037 115.284 27.0861V27.7546H108.551V27.8726C108.52 28.2224 108.564 28.5749 108.68 28.9065C108.796 29.2381 108.981 29.5414 109.224 29.796C109.466 30.0507 109.76 30.251 110.087 30.3836C110.413 30.5162 110.763 30.5781 111.115 30.5652C111.578 30.6084 112.042 30.5016 112.438 30.2607C112.835 30.0198 113.143 29.6577 113.317 29.2281L115.175 29.2281ZM108.56 26.3909H113.326C113.344 26.0763 113.296 25.7615 113.186 25.4662C113.075 25.171 112.905 24.9016 112.686 24.675C112.466 24.4485 112.202 24.2696 111.91 24.1497C111.618 24.0298 111.304 23.9714 110.988 23.9781C110.669 23.9762 110.353 24.0373 110.058 24.1578C109.764 24.2782 109.496 24.4558 109.27 24.6801C109.044 24.9044 108.865 25.1711 108.743 25.4647C108.622 25.7583 108.559 26.0731 108.56 26.3909V26.3909Z" fill="black"/>
<path d="M38.6834 11.8158H39.5235C39.6681 11.8337 39.8149 11.8216 39.9546 11.7802C40.0943 11.7388 40.2239 11.669 40.3352 11.5751C40.4465 11.4813 40.5371 11.3655 40.6012 11.235C40.6654 11.1045 40.7018 10.9622 40.7081 10.817C40.7081 10.2392 40.2721 9.86599 39.5328 9.86599C39.3846 9.84535 39.2338 9.85451 39.0893 9.89295C38.9447 9.93139 38.8093 9.99832 38.6912 10.0898C38.573 10.1813 38.4744 10.2954 38.4012 10.4255C38.328 10.5556 38.2816 10.699 38.2649 10.8473H37.3425C37.3584 10.5782 37.4297 10.3152 37.5519 10.0747C37.6741 9.83428 37.8446 9.62148 38.0529 9.44959C38.2612 9.2777 38.5027 9.1504 38.7624 9.07562C39.0221 9.00084 39.2945 8.98017 39.5626 9.01491C40.7996 9.01491 41.6706 9.70551 41.6706 10.6996C41.6735 11.0327 41.5617 11.3566 41.354 11.6174C41.1463 11.8782 40.8552 12.0601 40.5292 12.1326V12.2064C40.9156 12.2235 41.2795 12.3925 41.5414 12.6764C41.8033 12.9603 41.9418 13.336 41.9266 13.7215C41.898 13.9985 41.8142 14.2671 41.6802 14.5115C41.5461 14.7559 41.3645 14.9711 41.146 15.1446C40.9274 15.3181 40.6764 15.4463 40.4075 15.5218C40.1386 15.5973 39.8573 15.6184 39.5801 15.5841C39.3023 15.6218 39.0198 15.6035 38.7493 15.53C38.4788 15.4565 38.2259 15.3295 38.0056 15.1565C37.7854 14.9835 37.6024 14.7681 37.4674 14.523C37.3325 14.278 37.2484 14.0083 37.2202 13.7302H38.157C38.2135 14.3295 38.7657 14.7161 39.5801 14.7161C40.3945 14.7161 40.9261 14.2819 40.9261 13.6697C40.9261 13.0488 40.4253 12.6664 39.5503 12.6664H38.6834V11.8158Z" fill="black"/>
<path d="M42.9908 14.0945C42.9908 13.2434 43.6273 12.7528 44.7543 12.6831L46.0386 12.6092V12.2011C46.0386 11.7018 45.7086 11.4198 45.068 11.4198C44.5456 11.4198 44.1847 11.611 44.0798 11.9453H43.1739C43.2695 11.1332 44.0366 10.6123 45.1122 10.6123C46.3008 10.6123 46.9713 11.2024 46.9713 12.2011V15.4316H46.0695V14.7672H45.9955C45.8452 15.0055 45.6342 15.1998 45.384 15.3303C45.1338 15.4607 44.8533 15.5225 44.5713 15.5095C44.3723 15.5302 44.1711 15.509 43.9808 15.4474C43.7904 15.3857 43.6152 15.285 43.4662 15.1517C43.3173 15.0184 43.1981 14.8554 43.1162 14.6733C43.0343 14.4913 42.9916 14.2941 42.9908 14.0945ZM46.0386 13.6905V13.2952L44.8808 13.3691C44.2278 13.4126 43.9317 13.6341 43.9317 14.0509C43.9317 14.4765 44.3018 14.7241 44.8109 14.7241C44.96 14.7392 45.1107 14.7242 45.2539 14.68C45.3971 14.6358 45.5299 14.5633 45.6445 14.4669C45.759 14.3704 45.853 14.252 45.9207 14.1186C45.9884 13.9853 46.0285 13.8397 46.0386 13.6905Z" fill="black"/>
<path d="M49.4545 11.4891V15.4317H48.5188V10.7036H51.6407V11.489L49.4545 11.4891Z" fill="black"/>
<path d="M57.3115 13.0664C57.3115 14.5686 56.5496 15.5104 55.3527 15.5104C55.0589 15.5304 54.7654 15.4663 54.5069 15.3256C54.2484 15.1849 54.0356 14.9735 53.8936 14.7162H53.8195V17.0044H52.8838V10.7044H53.7846V11.4858H53.8545C53.9991 11.2195 54.2147 10.9983 54.4774 10.8466C54.7402 10.6949 55.0399 10.6185 55.3434 10.626C56.5496 10.626 57.3115 11.5637 57.3115 13.0664ZM56.3491 13.0664C56.3491 12.0677 55.875 11.4642 55.0822 11.4642C54.2946 11.4642 53.802 12.0805 53.802 13.0705C53.802 14.0559 54.2946 14.6727 55.0781 14.6727C55.875 14.6727 56.3491 14.0692 56.3491 13.0664Z" fill="black"/>
<path d="M58.5578 17.1251V16.3217C58.659 16.3346 58.7611 16.3404 58.8631 16.3392C59.0625 16.3539 59.2603 16.2947 59.4186 16.1729C59.5768 16.0511 59.6844 15.8754 59.7207 15.6793L59.7906 15.4491L58.0745 10.7036H59.0935L60.2822 14.4591H60.3562L61.5408 10.7036H62.5331L60.7655 15.627C60.3604 16.7775 59.912 17.1467 58.9455 17.1467C58.8673 17.1467 58.6452 17.1379 58.5578 17.1251Z" fill="black"/>
<path d="M63.2621 14.0903H64.1937C64.2852 14.5071 64.677 14.7245 65.2251 14.7245C65.8482 14.7245 66.2307 14.4507 66.2307 14.0252C66.2307 13.5694 65.8873 13.352 65.2251 13.352H64.5155V12.6271H65.2127C65.7783 12.6271 66.0662 12.4102 66.0662 12.0149C66.0662 11.6678 65.7875 11.4028 65.2127 11.4028C64.6893 11.4028 64.3068 11.6242 64.2461 11.9975H63.3444C63.4118 11.5686 63.6453 11.1832 63.9947 10.9243C64.3441 10.6653 64.7815 10.5534 65.2127 10.6127C66.3397 10.6127 66.9844 11.1208 66.9844 11.9196C66.9897 12.142 66.9182 12.3595 66.782 12.5357C66.6457 12.7119 66.4529 12.8361 66.2358 12.8875V12.9614C66.4943 12.9946 66.7315 13.1213 66.9025 13.3174C67.0734 13.5135 67.1663 13.7654 67.1633 14.0252C67.1633 14.924 66.3963 15.5187 65.2251 15.5187C64.1896 15.5186 63.3485 15.0454 63.2621 14.0903Z" fill="black"/>
<path d="M68.5109 15.4317V10.7036H69.4384V13.9557H69.5124L71.6975 10.7036H72.625V15.4317H71.6975V12.1623H71.6275L69.4384 15.4317L68.5109 15.4317Z" fill="black"/>
<path d="M77.7344 11.49H76.2413V15.4326H75.3046V11.49H73.8115V10.7046H77.7344V11.49Z" fill="black"/>
<path d="M82.775 14.1551C82.6475 14.5872 82.3718 14.9609 81.9961 15.2109C81.6204 15.4609 81.1685 15.5714 80.7195 15.523C80.4071 15.5312 80.0967 15.4715 79.8097 15.3481C79.5228 15.2247 79.2662 15.0405 79.0579 14.8083C78.8495 14.5761 78.6942 14.3015 78.603 14.0035C78.5117 13.7055 78.4865 13.3912 78.5293 13.0826C78.4877 12.7729 78.5133 12.458 78.6043 12.1591C78.6954 11.8602 78.8498 11.5843 79.0571 11.35C79.2644 11.1158 79.5197 10.9287 79.8058 10.8015C80.0919 10.6742 80.4021 10.6097 80.7154 10.6124C82.0346 10.6124 82.8315 11.5112 82.8315 12.9959V13.3215H79.4835V13.3738C79.4687 13.5473 79.4904 13.722 79.5473 13.8867C79.6043 14.0514 79.6951 14.2023 79.814 14.3299C79.933 14.4575 80.0773 14.5588 80.2379 14.6274C80.3984 14.696 80.5716 14.7304 80.7462 14.7283C80.9699 14.755 81.1965 14.7147 81.3971 14.6126C81.5978 14.5106 81.7635 14.3513 81.8732 14.1551L82.775 14.1551ZM79.4835 12.6314H81.8773C81.8891 12.4728 81.8675 12.3135 81.8139 12.1637C81.7604 12.0139 81.676 11.8769 81.5662 11.7616C81.4564 11.6462 81.3236 11.5551 81.1763 11.4939C81.0291 11.4328 80.8707 11.403 80.7112 11.4066C80.5493 11.4044 80.3887 11.4346 80.2387 11.4953C80.0887 11.5561 79.9524 11.6463 79.838 11.7604C79.7235 11.8746 79.6332 12.0105 79.5723 12.1601C79.5114 12.3097 79.4812 12.47 79.4835 12.6314H79.4835Z" fill="black"/>
<path d="M86.7421 10.7036H88.8798C89.8073 10.7036 90.3513 11.1722 90.3513 11.9059C90.3527 12.1387 90.2739 12.3649 90.1281 12.5467C89.9823 12.7285 89.7783 12.8548 89.5503 12.9046V12.9784C89.8272 12.9959 90.0868 13.1187 90.2754 13.3215C90.4641 13.5244 90.5675 13.7918 90.5641 14.0684C90.5641 14.8933 89.942 15.4317 88.9014 15.4317H86.7421V10.7036ZM87.6696 11.4198V12.6441H88.5971C89.1626 12.6441 89.433 12.4273 89.433 12.0274C89.433 11.6588 89.1976 11.4198 88.7009 11.4198L87.6696 11.4198ZM87.6696 13.3302V14.7155H88.7791C89.3323 14.7155 89.6285 14.4719 89.6285 14.0249C89.6285 13.5517 89.2932 13.3302 88.6619 13.3302L87.6696 13.3302Z" fill="black"/>
</svg>
